<?xml version="1.0" encoding="utf-8" standalone="no"?>
<!DOCTYPE svg PUBLIC "-//W3C//DTD SVG 1.1//EN"
  "http://www.w3.org/Graphics/SVG/1.1/DTD/svg11.dtd">
<svg xmlns:xlink="http://www.w3.org/1999/xlink" width="436.168828pt" height="263.547422pt" viewBox="0 0 436.168828 263.547422" xmlns="http://www.w3.org/2000/svg" version="1.1">
 <metadata>
  <rdf:RDF xmlns:dc="http://purl.org/dc/elements/1.1/" xmlns:cc="http://creativecommons.org/ns#" xmlns:rdf="http://www.w3.org/1999/02/22-rdf-syntax-ns#">
   <cc:Work>
    <dc:type rdf:resource="http://purl.org/dc/dcmitype/StillImage"/>
    <dc:date>2023-11-14T22:13:20+00:00</dc:date>
    <dc:format>image/svg+xml</dc:format>
    <dc:creator>
     <cc:Agent>
      <dc:title>Matplotlib v3.10.8, https://matplotlib.org/</dc:title>
     </cc:Agent>
    </dc:creator>
   </cc:Work>
  </rdf:RDF>
 </metadata>
 <defs>
  <style type="text/css">*{stroke-linejoin: round; stroke-linecap: butt}</style>
 </defs>
 <g id="figure_1">
  <g id="patch_1">
   <path d="M 0 263.547422 
L 436.168828 263.547422 
L 436.168828 0 
L 0 0 
z
" style="fill: #fafbfc"/>
  </g>
  <g id="axes_1">
   <g id="patch_2">
    <path d="M 34.300391 229.878516 
L 426.582891 229.878516 
L 426.582891 28.418516 
L 34.300391 28.418516 
z
" style="fill: #fafbfc"/>
   </g>
   <g id="matplotlib.axis_1">
    <g id="xtick_1">
     <g id="line2d_1">
      <defs>
       <path id="m9a74932a47" d="M 0 0 
L 0 3 
" style="stroke: #57606a; stroke-width: 0.6"/>
      </defs>
      <g>
       <use xlink:href="#m9a74932a47" x="34.300391" y="229.878516" style="fill: #57606a; stroke: #57606a; stroke-width: 0.6"/>
      </g>
     </g>
     <g id="text_1">
      <!-- 0 -->
      <g style="fill: #1f2328" transform="translate(31.914453 242.077344) scale(0.075 -0.075)">
       <defs>
        <path id="DejaVuSans-30" d="M 2034 4250 
Q 1547 4250 1301 3770 
Q 1056 3291 1056 2328 
Q 1056 1369 1301 889 
Q 1547 409 2034 409 
Q 2525 409 2770 889 
Q 3016 1369 3016 2328 
Q 3016 3291 2770 3770 
Q 2525 4250 2034 4250 
z
M 2034 4750 
Q 2819 4750 3233 4129 
Q 3647 3509 3647 2328 
Q 3647 1150 3233 529 
Q 2819 -91 2034 -91 
Q 1250 -91 836 529 
Q 422 1150 422 2328 
Q 422 3509 836 4129 
Q 1250 4750 2034 4750 
z
" transform="scale(0.015625)"/>
       </defs>
       <use xlink:href="#DejaVuSans-30"/>
      </g>
     </g>
    </g>
    <g id="xtick_2">
     <g id="line2d_2">
      <g>
       <use xlink:href="#m9a74932a47" x="99.680807" y="229.878516" style="fill: #57606a; stroke: #57606a; stroke-width: 0.6"/>
      </g>
     </g>
     <g id="text_2">
      <!-- 1 -->
      <g style="fill: #1f2328" transform="translate(97.29487 242.077344) scale(0.075 -0.075)">
       <defs>
        <path id="DejaVuSans-31" d="M 794 531 
L 1825 531 
L 1825 4091 
L 703 3866 
L 703 4441 
L 1819 4666 
L 2450 4666 
L 2450 531 
L 3481 531 
L 3481 0 
L 794 0 
L 794 531 
z
" transform="scale(0.015625)"/>
       </defs>
       <use xlink:href="#DejaVuSans-31"/>
      </g>
     </g>
    </g>
    <g id="xtick_3">
     <g id="line2d_3">
      <g>
       <use xlink:href="#m9a74932a47" x="165.061224" y="229.878516" style="fill: #57606a; stroke: #57606a; stroke-width: 0.6"/>
      </g>
     </g>
     <g id="text_3">
      <!-- 2 -->
      <g style="fill: #1f2328" transform="translate(162.675286 242.077344) scale(0.075 -0.075)">
       <defs>
        <path id="DejaVuSans-32" d="M 1228 531 
L 3431 531 
L 3431 0 
L 469 0 
L 469 531 
Q 828 903 1448 1529 
Q 2069 2156 2228 2338 
Q 2531 2678 2651 2914 
Q 2772 3150 2772 3378 
Q 2772 3750 2511 3984 
Q 2250 4219 1831 4219 
Q 1534 4219 1204 4116 
Q 875 4013 500 3803 
L 500 4441 
Q 881 4594 1212 4672 
Q 1544 4750 1819 4750 
Q 2544 4750 2975 4387 
Q 3406 4025 3406 3419 
Q 3406 3131 3298 2873 
Q 3191 2616 2906 2266 
Q 2828 2175 2409 1742 
Q 1991 1309 1228 531 
z
" transform="scale(0.015625)"/>
       </defs>
       <use xlink:href="#DejaVuSans-32"/>
      </g>
     </g>
    </g>
    <g id="xtick_4">
     <g id="line2d_4">
      <g>
       <use xlink:href="#m9a74932a47" x="230.441641" y="229.878516" style="fill: #57606a; stroke: #57606a; stroke-width: 0.6"/>
      </g>
     </g>
     <g id="text_4">
      <!-- 3 -->
      <g style="fill: #1f2328" transform="translate(228.055703 242.077344) scale(0.075 -0.075)">
       <defs>
        <path id="DejaVuSans-33" d="M 2597 2516 
Q 3050 2419 3304 2112 
Q 3559 1806 3559 1356 
Q 3559 666 3084 287 
Q 2609 -91 1734 -91 
Q 1441 -91 1130 -33 
Q 819 25 488 141 
L 488 750 
Q 750 597 1062 519 
Q 1375 441 1716 441 
Q 2309 441 2620 675 
Q 2931 909 2931 1356 
Q 2931 1769 2642 2001 
Q 2353 2234 1838 2234 
L 1294 2234 
L 1294 2753 
L 1863 2753 
Q 2328 2753 2575 2939 
Q 2822 3125 2822 3475 
Q 2822 3834 2567 4026 
Q 2313 4219 1838 4219 
Q 1578 4219 1281 4162 
Q 984 4106 628 3988 
L 628 4550 
Q 988 4650 1302 4700 
Q 1616 4750 1894 4750 
Q 2613 4750 3031 4423 
Q 3450 4097 3450 3541 
Q 3450 3153 3228 2886 
Q 3006 2619 2597 2516 
z
" transform="scale(0.015625)"/>
       </defs>
       <use xlink:href="#DejaVuSans-33"/>
      </g>
     </g>
    </g>
    <g id="xtick_5">
     <g id="line2d_5">
      <g>
       <use xlink:href="#m9a74932a47" x="295.822057" y="229.878516" style="fill: #57606a; stroke: #57606a; stroke-width: 0.6"/>
      </g>
     </g>
     <g id="text_5">
      <!-- 4 -->
      <g style="fill: #1f2328" transform="translate(293.43612 242.077344) scale(0.075 -0.075)">
       <defs>
        <path id="DejaVuSans-34" d="M 2419 4116 
L 825 1625 
L 2419 1625 
L 2419 4116 
z
M 2253 4666 
L 3047 4666 
L 3047 1625 
L 3713 1625 
L 3713 1100 
L 3047 1100 
L 3047 0 
L 2419 0 
L 2419 1100 
L 313 1100 
L 313 1709 
L 2253 4666 
z
" transform="scale(0.015625)"/>
       </defs>
       <use xlink:href="#DejaVuSans-34"/>
      </g>
     </g>
    </g>
    <g id="xtick_6">
     <g id="line2d_6">
      <g>
       <use xlink:href="#m9a74932a47" x="361.202474" y="229.878516" style="fill: #57606a; stroke: #57606a; stroke-width: 0.6"/>
      </g>
     </g>
     <g id="text_6">
      <!-- 5 -->
      <g style="fill: #1f2328" transform="translate(358.816536 242.077344) scale(0.075 -0.075)">
       <defs>
        <path id="DejaVuSans-35" d="M 691 4666 
L 3169 4666 
L 3169 4134 
L 1269 4134 
L 1269 2991 
Q 1406 3038 1543 3061 
Q 1681 3084 1819 3084 
Q 2600 3084 3056 2656 
Q 3513 2228 3513 1497 
Q 3513 744 3044 326 
Q 2575 -91 1722 -91 
Q 1428 -91 1123 -41 
Q 819 9 494 109 
L 494 744 
Q 775 591 1075 516 
Q 1375 441 1709 441 
Q 2250 441 2565 725 
Q 2881 1009 2881 1497 
Q 2881 1984 2565 2268 
Q 2250 2553 1709 2553 
Q 1456 2553 1204 2497 
Q 953 2441 691 2322 
L 691 4666 
z
" transform="scale(0.015625)"/>
       </defs>
       <use xlink:href="#DejaVuSans-35"/>
      </g>
     </g>
    </g>
    <g id="xtick_7">
     <g id="line2d_7">
      <g>
       <use xlink:href="#m9a74932a47" x="426.582891" y="229.878516" style="fill: #57606a; stroke: #57606a; stroke-width: 0.6"/>
      </g>
     </g>
     <g id="text_7">
      <!-- 6 -->
      <g style="fill: #1f2328" transform="translate(424.196953 242.077344) scale(0.075 -0.075)">
       <defs>
        <path id="DejaVuSans-36" d="M 2113 2584 
Q 1688 2584 1439 2293 
Q 1191 2003 1191 1497 
Q 1191 994 1439 701 
Q 1688 409 2113 409 
Q 2538 409 2786 701 
Q 3034 994 3034 1497 
Q 3034 2003 2786 2293 
Q 2538 2584 2113 2584 
z
M 3366 4563 
L 3366 3988 
Q 3128 4100 2886 4159 
Q 2644 4219 2406 4219 
Q 1781 4219 1451 3797 
Q 1122 3375 1075 2522 
Q 1259 2794 1537 2939 
Q 1816 3084 2150 3084 
Q 2853 3084 3261 2657 
Q 3669 2231 3669 1497 
Q 3669 778 3244 343 
Q 2819 -91 2113 -91 
Q 1303 -91 875 529 
Q 447 1150 447 2328 
Q 447 3434 972 4092 
Q 1497 4750 2381 4750 
Q 2619 4750 2861 4703 
Q 3103 4656 3366 4563 
z
" transform="scale(0.015625)"/>
       </defs>
       <use xlink:href="#DejaVuSans-36"/>
      </g>
     </g>
    </g>
    <g id="text_8">
     <!-- time (ms) -->
     <g style="fill: #1f2328" transform="translate(208.606094 254.475703) scale(0.09 -0.09)">
      <defs>
       <path id="DejaVuSans-74" d="M 1172 4494 
L 1172 3500 
L 2356 3500 
L 2356 3053 
L 1172 3053 
L 1172 1153 
Q 1172 725 1289 603 
Q 1406 481 1766 481 
L 2356 481 
L 2356 0 
L 1766 0 
Q 1100 0 847 248 
Q 594 497 594 1153 
L 594 3053 
L 172 3053 
L 172 3500 
L 594 3500 
L 594 4494 
L 1172 4494 
z
" transform="scale(0.015625)"/>
       <path id="DejaVuSans-69" d="M 603 3500 
L 1178 3500 
L 1178 0 
L 603 0 
L 603 3500 
z
M 603 4863 
L 1178 4863 
L 1178 4134 
L 603 4134 
L 603 4863 
z
" transform="scale(0.015625)"/>
       <path id="DejaVuSans-6d" d="M 3328 2828 
Q 3544 3216 3844 3400 
Q 4144 3584 4550 3584 
Q 5097 3584 5394 3201 
Q 5691 2819 5691 2113 
L 5691 0 
L 5113 0 
L 5113 2094 
Q 5113 2597 4934 2840 
Q 4756 3084 4391 3084 
Q 3944 3084 3684 2787 
Q 3425 2491 3425 1978 
L 3425 0 
L 2847 0 
L 2847 2094 
Q 2847 2600 2669 2842 
Q 2491 3084 2119 3084 
Q 1678 3084 1418 2786 
Q 1159 2488 1159 1978 
L 1159 0 
L 581 0 
L 581 3500 
L 1159 3500 
L 1159 2956 
Q 1356 3278 1631 3431 
Q 1906 3584 2284 3584 
Q 2666 3584 2933 3390 
Q 3200 3197 3328 2828 
z
" transform="scale(0.015625)"/>
       <path id="DejaVuSans-65" d="M 3597 1894 
L 3597 1613 
L 953 1613 
Q 991 1019 1311 708 
Q 1631 397 2203 397 
Q 2534 397 2845 478 
Q 3156 559 3463 722 
L 3463 178 
Q 3153 47 2828 -22 
Q 2503 -91 2169 -91 
Q 1331 -91 842 396 
Q 353 884 353 1716 
Q 353 2575 817 3079 
Q 1281 3584 2069 3584 
Q 2775 3584 3186 3129 
Q 3597 2675 3597 1894 
z
M 3022 2063 
Q 3016 2534 2758 2815 
Q 2500 3097 2075 3097 
Q 1594 3097 1305 2825 
Q 1016 2553 972 2059 
L 3022 2063 
z
" transform="scale(0.015625)"/>
       <path id="DejaVuSans-20" transform="scale(0.015625)"/>
       <path id="DejaVuSans-28" d="M 1984 4856 
Q 1566 4138 1362 3434 
Q 1159 2731 1159 2009 
Q 1159 1288 1364 580 
Q 1569 -128 1984 -844 
L 1484 -844 
Q 1016 -109 783 600 
Q 550 1309 550 2009 
Q 550 2706 781 3412 
Q 1013 4119 1484 4856 
L 1984 4856 
z
" transform="scale(0.015625)"/>
       <path id="DejaVuSans-73" d="M 2834 3397 
L 2834 2853 
Q 2591 2978 2328 3040 
Q 2066 3103 1784 3103 
Q 1356 3103 1142 2972 
Q 928 2841 928 2578 
Q 928 2378 1081 2264 
Q 1234 2150 1697 2047 
L 1894 2003 
Q 2506 1872 2764 1633 
Q 3022 1394 3022 966 
Q 3022 478 2636 193 
Q 2250 -91 1575 -91 
Q 1294 -91 989 -36 
Q 684 19 347 128 
L 347 722 
Q 666 556 975 473 
Q 1284 391 1588 391 
Q 1994 391 2212 530 
Q 2431 669 2431 922 
Q 2431 1156 2273 1281 
Q 2116 1406 1581 1522 
L 1381 1569 
Q 847 1681 609 1914 
Q 372 2147 372 2553 
Q 372 3047 722 3315 
Q 1072 3584 1716 3584 
Q 2034 3584 2315 3537 
Q 2597 3491 2834 3397 
z
" transform="scale(0.015625)"/>
       <path id="DejaVuSans-29" d="M 513 4856 
L 1013 4856 
Q 1481 4119 1714 3412 
Q 1947 2706 1947 2009 
Q 1947 1309 1714 600 
Q 1481 -109 1013 -844 
L 513 -844 
Q 928 -128 1133 580 
Q 1338 1288 1338 2009 
Q 1338 2731 1133 3434 
Q 928 4138 513 4856 
z
" transform="scale(0.015625)"/>
      </defs>
      <use xlink:href="#DejaVuSans-74"/>
      <use xlink:href="#DejaVuSans-69" transform="translate(39.208984 0)"/>
      <use xlink:href="#DejaVuSans-6d" transform="translate(66.992188 0)"/>
      <use xlink:href="#DejaVuSans-65" transform="translate(164.404297 0)"/>
      <use xlink:href="#DejaVuSans-20" transform="translate(225.927734 0)"/>
      <use xlink:href="#DejaVuSans-28" transform="translate(257.714844 0)"/>
      <use xlink:href="#DejaVuSans-6d" transform="translate(296.728516 0)"/>
      <use xlink:href="#DejaVuSans-73" transform="translate(394.140625 0)"/>
      <use xlink:href="#DejaVuSans-29" transform="translate(446.240234 0)"/>
     </g>
    </g>
   </g>
   <g id="matplotlib.axis_2">
    <g id="ytick_1">
     <g id="line2d_8">
      <defs>
       <path id="m2a6ca5eb86" d="M 0 0 
L -3 0 
" style="stroke: #57606a; stroke-width: 0.6"/>
      </defs>
      <g>
       <use xlink:href="#m2a6ca5eb86" x="34.300391" y="229.878516" style="fill: #57606a; stroke: #57606a; stroke-width: 0.6"/>
      </g>
     </g>
     <g id="text_9">
      <!-- −100 -->
      <g style="fill: #1f2328" transform="translate(7.2 232.72793) scale(0.075 -0.075)">
       <defs>
        <path id="DejaVuSans-2212" d="M 678 2272 
L 4684 2272 
L 4684 1741 
L 678 1741 
L 678 2272 
z
" transform="scale(0.015625)"/>
       </defs>
       <use xlink:href="#DejaVuSans-2212"/>
       <use xlink:href="#DejaVuSans-31" transform="translate(83.789062 0)"/>
       <use xlink:href="#DejaVuSans-30" transform="translate(147.412109 0)"/>
       <use xlink:href="#DejaVuSans-30" transform="translate(211.035156 0)"/>
      </g>
     </g>
    </g>
    <g id="ytick_2">
     <g id="line2d_9">
      <g>
       <use xlink:href="#m2a6ca5eb86" x="34.300391" y="204.696016" style="fill: #57606a; stroke: #57606a; stroke-width: 0.6"/>
      </g>
     </g>
     <g id="text_10">
      <!-- −80 -->
      <g style="fill: #1f2328" transform="translate(11.971875 207.54543) scale(0.075 -0.075)">
       <defs>
        <path id="DejaVuSans-38" d="M 2034 2216 
Q 1584 2216 1326 1975 
Q 1069 1734 1069 1313 
Q 1069 891 1326 650 
Q 1584 409 2034 409 
Q 2484 409 2743 651 
Q 3003 894 3003 1313 
Q 3003 1734 2745 1975 
Q 2488 2216 2034 2216 
z
M 1403 2484 
Q 997 2584 770 2862 
Q 544 3141 544 3541 
Q 544 4100 942 4425 
Q 1341 4750 2034 4750 
Q 2731 4750 3128 4425 
Q 3525 4100 3525 3541 
Q 3525 3141 3298 2862 
Q 3072 2584 2669 2484 
Q 3125 2378 3379 2068 
Q 3634 1759 3634 1313 
Q 3634 634 3220 271 
Q 2806 -91 2034 -91 
Q 1263 -91 848 271 
Q 434 634 434 1313 
Q 434 1759 690 2068 
Q 947 2378 1403 2484 
z
M 1172 3481 
Q 1172 3119 1398 2916 
Q 1625 2713 2034 2713 
Q 2441 2713 2670 2916 
Q 2900 3119 2900 3481 
Q 2900 3844 2670 4047 
Q 2441 4250 2034 4250 
Q 1625 4250 1398 4047 
Q 1172 3844 1172 3481 
z
" transform="scale(0.015625)"/>
       </defs>
       <use xlink:href="#DejaVuSans-2212"/>
       <use xlink:href="#DejaVuSans-38" transform="translate(83.789062 0)"/>
       <use xlink:href="#DejaVuSans-30" transform="translate(147.412109 0)"/>
      </g>
     </g>
    </g>
    <g id="ytick_3">
     <g id="line2d_10">
      <g>
       <use xlink:href="#m2a6ca5eb86" x="34.300391" y="179.513516" style="fill: #57606a; stroke: #57606a; stroke-width: 0.6"/>
      </g>
     </g>
     <g id="text_11">
      <!-- −60 -->
      <g style="fill: #1f2328" transform="translate(11.971875 182.36293) scale(0.075 -0.075)">
       <use xlink:href="#DejaVuSans-2212"/>
       <use xlink:href="#DejaVuSans-36" transform="translate(83.789062 0)"/>
       <use xlink:href="#DejaVuSans-30" transform="translate(147.412109 0)"/>
      </g>
     </g>
    </g>
    <g id="ytick_4">
     <g id="line2d_11">
      <g>
       <use xlink:href="#m2a6ca5eb86" x="34.300391" y="154.331016" style="fill: #57606a; stroke: #57606a; stroke-width: 0.6"/>
      </g>
     </g>
     <g id="text_12">
      <!-- −40 -->
      <g style="fill: #1f2328" transform="translate(11.971875 157.18043) scale(0.075 -0.075)">
       <use xlink:href="#DejaVuSans-2212"/>
       <use xlink:href="#DejaVuSans-34" transform="translate(83.789062 0)"/>
       <use xlink:href="#DejaVuSans-30" transform="translate(147.412109 0)"/>
      </g>
     </g>
    </g>
    <g id="ytick_5">
     <g id="line2d_12">
      <g>
       <use xlink:href="#m2a6ca5eb86" x="34.300391" y="129.148516" style="fill: #57606a; stroke: #57606a; stroke-width: 0.6"/>
      </g>
     </g>
     <g id="text_13">
      <!-- −20 -->
      <g style="fill: #1f2328" transform="translate(11.971875 131.99793) scale(0.075 -0.075)">
       <use xlink:href="#DejaVuSans-2212"/>
       <use xlink:href="#DejaVuSans-32" transform="translate(83.789062 0)"/>
       <use xlink:href="#DejaVuSans-30" transform="translate(147.412109 0)"/>
      </g>
     </g>
    </g>
    <g id="ytick_6">
     <g id="line2d_13">
      <g>
       <use xlink:href="#m2a6ca5eb86" x="34.300391" y="103.966016" style="fill: #57606a; stroke: #57606a; stroke-width: 0.6"/>
      </g>
     </g>
     <g id="text_14">
      <!-- 0 -->
      <g style="fill: #1f2328" transform="translate(23.028516 106.81543) scale(0.075 -0.075)">
       <use xlink:href="#DejaVuSans-30"/>
      </g>
     </g>
    </g>
    <g id="ytick_7">
     <g id="line2d_14">
      <g>
       <use xlink:href="#m2a6ca5eb86" x="34.300391" y="78.783516" style="fill: #57606a; stroke: #57606a; stroke-width: 0.6"/>
      </g>
     </g>
     <g id="text_15">
      <!-- 20 -->
      <g style="fill: #1f2328" transform="translate(18.256641 81.63293) scale(0.075 -0.075)">
       <use xlink:href="#DejaVuSans-32"/>
       <use xlink:href="#DejaVuSans-30" transform="translate(63.623047 0)"/>
      </g>
     </g>
    </g>
    <g id="ytick_8">
     <g id="line2d_15">
      <g>
       <use xlink:href="#m2a6ca5eb86" x="34.300391" y="53.601016" style="fill: #57606a; stroke: #57606a; stroke-width: 0.6"/>
      </g>
     </g>
     <g id="text_16">
      <!-- 40 -->
      <g style="fill: #1f2328" transform="translate(18.256641 56.45043) scale(0.075 -0.075)">
       <use xlink:href="#DejaVuSans-34"/>
       <use xlink:href="#DejaVuSans-30" transform="translate(63.623047 0)"/>
      </g>
     </g>
    </g>
    <g id="ytick_9">
     <g id="line2d_16">
      <g>
       <use xlink:href="#m2a6ca5eb86" x="34.300391" y="28.418516" style="fill: #57606a; stroke: #57606a; stroke-width: 0.6"/>
      </g>
     </g>
     <g id="text_17">
      <!-- 60 -->
      <g style="fill: #1f2328" transform="translate(18.256641 31.26793) scale(0.075 -0.075)">
       <use xlink:href="#DejaVuSans-36"/>
       <use xlink:href="#DejaVuSans-30" transform="translate(63.623047 0)"/>
      </g>
     </g>
    </g>
   </g>
   <g id="line2d_17">
    <path d="M 34.300391 185.809142 
L 95.482065 185.701324 
L 99.080987 185.457367 
L 101.698385 185.054076 
L 103.661433 184.52594 
L 105.297307 183.862797 
L 106.606006 183.135486 
L 107.914705 182.186036 
L 109.223404 180.964429 
L 110.532102 179.415359 
L 111.840801 177.479633 
L 113.1495 175.096296 
L 114.458199 172.20553 
L 115.766898 168.752309 
L 117.075597 164.690741 
L 118.384296 159.988885 
L 120.02017 153.193668 
L 121.656043 145.408047 
L 123.619092 134.903655 
L 126.236489 119.492192 
L 130.489761 94.175136 
L 132.125635 85.619797 
L 133.434333 79.707029 
L 134.743032 74.843936 
L 135.724557 71.992071 
L 136.706081 69.889822 
L 137.36043 68.927996 
L 138.01478 68.329684 
L 138.669129 68.101311 
L 139.323479 68.245931 
L 139.977828 68.763178 
L 140.632178 69.649274 
L 141.286527 70.89709 
L 142.268051 73.423503 
L 143.249575 76.691935 
L 144.558274 82.095664 
L 145.866973 88.52943 
L 147.502847 97.705974 
L 150.120245 113.986201 
L 154.373516 140.736279 
L 156.663739 153.592254 
L 158.626788 163.214329 
L 160.262661 170.145784 
L 161.898535 176.088359 
L 163.534409 181.094844 
L 165.170282 185.253101 
L 166.478981 188.041416 
L 168.114855 190.951384 
L 169.750728 193.329171 
L 171.386602 195.281676 
L 173.022476 196.902936 
L 174.985524 198.521115 
L 177.275747 200.089333 
L 179.893145 201.601675 
L 183.164892 203.22191 
L 186.763814 204.758145 
L 190.362736 206.062852 
L 193.634484 207.032397 
L 196.906231 207.770223 
L 199.850803 208.216746 
L 202.795376 208.444137 
L 205.739949 208.445852 
L 208.684521 208.221911 
L 211.629094 207.779008 
L 214.900841 207.046185 
L 218.172588 206.085506 
L 221.77151 204.805601 
L 226.024782 203.060705 
L 232.241102 200.241753 
L 242.710693 195.470143 
L 247.945489 193.34682 
L 252.525935 191.719963 
L 257.106381 190.333237 
L 261.686827 189.188928 
L 266.267273 188.273593 
L 271.174894 187.519442 
L 276.736865 186.902251 
L 282.953185 186.444495 
L 290.478203 186.119466 
L 300.62062 185.915659 
L 317.960881 185.82214 
L 391.902369 185.809141 
L 426.582891 185.809141 
L 426.582891 185.809141 
" clip-path="url(#p62343aab3b)" style="fill: none; stroke: #4477aa; stroke-width: 1.8; stroke-linecap: square"/>
   </g>
   <g id="line2d_18">
    <path d="M 34.300391 30.936766 
L 426.582891 30.936766 
" clip-path="url(#p62343aab3b)" style="fill: none; stroke-dasharray: 3.2,2.4; stroke-dashoffset: 0; stroke: #4477aa; stroke-opacity: 0.45; stroke-width: 0.8"/>
   </g>
   <g id="line2d_19">
    <path d="M 34.300391 208.473391 
L 426.582891 208.473391 
" clip-path="url(#p62343aab3b)" style="fill: none; stroke-dasharray: 3.2,2.4; stroke-dashoffset: 0; stroke: #66ccee; stroke-opacity: 0.65; stroke-width: 0.8"/>
   </g>
   <g id="patch_3">
    <path d="M 34.300391 229.878516 
L 34.300391 28.418516 
" style="fill: none; stroke: #57606a; stroke-width: 0.7; stroke-linejoin: miter; stroke-linecap: square"/>
   </g>
   <g id="patch_4">
    <path d="M 34.300391 229.878516 
L 426.582891 229.878516 
" style="fill: none; stroke: #57606a; stroke-width: 0.7; stroke-linejoin: miter; stroke-linecap: square"/>
   </g>
   <g id="text_18">
    <!-- $E_{Na}\,=\,+58$ -->
    <g style="fill: #57606a" transform="translate(375.11887 29.169031) scale(0.085 -0.085)">
     <defs>
      <path id="DejaVuSans-Oblique-45" d="M 1081 4666 
L 4031 4666 
L 3928 4134 
L 1606 4134 
L 1338 2753 
L 3566 2753 
L 3463 2222 
L 1234 2222 
L 909 531 
L 3284 531 
L 3181 0 
L 172 0 
L 1081 4666 
z
" transform="scale(0.015625)"/>
      <path id="DejaVuSans-Oblique-4e" d="M 1081 4666 
L 1931 4666 
L 3219 666 
L 4000 4666 
L 4616 4666 
L 3706 0 
L 2853 0 
L 1569 4025 
L 788 0 
L 172 0 
L 1081 4666 
z
" transform="scale(0.015625)"/>
      <path id="DejaVuSans-Oblique-61" d="M 3438 1997 
L 3047 0 
L 2472 0 
L 2578 531 
Q 2325 219 2001 64 
Q 1678 -91 1281 -91 
Q 834 -91 548 182 
Q 263 456 263 884 
Q 263 1497 752 1853 
Q 1241 2209 2100 2209 
L 2900 2209 
L 2931 2363 
Q 2938 2388 2941 2417 
Q 2944 2447 2944 2509 
Q 2944 2788 2717 2942 
Q 2491 3097 2081 3097 
Q 1800 3097 1504 3025 
Q 1209 2953 897 2809 
L 997 3341 
Q 1322 3463 1633 3523 
Q 1944 3584 2234 3584 
Q 2853 3584 3176 3315 
Q 3500 3047 3500 2534 
Q 3500 2431 3484 2292 
Q 3469 2153 3438 1997 
z
M 2816 1759 
L 2241 1759 
Q 1534 1759 1195 1570 
Q 856 1381 856 984 
Q 856 709 1029 553 
Q 1203 397 1509 397 
Q 1978 397 2328 733 
Q 2678 1069 2791 1631 
L 2816 1759 
z
" transform="scale(0.015625)"/>
      <path id="DejaVuSans-3d" d="M 678 2906 
L 4684 2906 
L 4684 2381 
L 678 2381 
L 678 2906 
z
M 678 1631 
L 4684 1631 
L 4684 1100 
L 678 1100 
L 678 1631 
z
" transform="scale(0.015625)"/>
      <path id="DejaVuSans-2b" d="M 2944 4013 
L 2944 2272 
L 4684 2272 
L 4684 1741 
L 2944 1741 
L 2944 0 
L 2419 0 
L 2419 1741 
L 678 1741 
L 678 2272 
L 2419 2272 
L 2419 4013 
L 2944 4013 
z
" transform="scale(0.015625)"/>
     </defs>
     <use xlink:href="#DejaVuSans-Oblique-45" transform="translate(0 0.78125)"/>
     <use xlink:href="#DejaVuSans-Oblique-4e" transform="translate(63.183594 -15.625) scale(0.7)"/>
     <use xlink:href="#DejaVuSans-Oblique-61" transform="translate(115.546875 -15.625) scale(0.7)"/>
     <use xlink:href="#DejaVuSans-3d" transform="translate(196.894856 0.78125)"/>
     <use xlink:href="#DejaVuSans-2b" transform="translate(335.884438 0.78125)"/>
     <use xlink:href="#DejaVuSans-35" transform="translate(439.155923 0.78125)"/>
     <use xlink:href="#DejaVuSans-38" transform="translate(502.77897 0.78125)"/>
    </g>
   </g>
   <g id="text_19">
    <!-- $E_K\,=\,-83$ -->
    <g style="fill: #57606a" transform="translate(379.28387 214.932062) scale(0.085 -0.085)">
     <defs>
      <path id="DejaVuSans-Oblique-4b" d="M 1081 4666 
L 1716 4666 
L 1331 2700 
L 3781 4666 
L 4622 4666 
L 1850 2438 
L 3878 0 
L 3109 0 
L 1247 2272 
L 806 0 
L 172 0 
L 1081 4666 
z
" transform="scale(0.015625)"/>
     </defs>
     <use xlink:href="#DejaVuSans-Oblique-45" transform="translate(0 0.78125)"/>
     <use xlink:href="#DejaVuSans-Oblique-4b" transform="translate(63.183594 -15.625) scale(0.7)"/>
     <use xlink:href="#DejaVuSans-3d" transform="translate(147.539387 0.78125)"/>
     <use xlink:href="#DejaVuSans-2212" transform="translate(286.52897 0.78125)"/>
     <use xlink:href="#DejaVuSans-38" transform="translate(389.800454 0.78125)"/>
     <use xlink:href="#DejaVuSans-33" transform="translate(453.423501 0.78125)"/>
    </g>
   </g>
   <g id="patch_5">
    <path d="M 76.818385 210.006129 
Q 94.7653 192.196503 112.712215 174.386878 
" style="fill: none; stroke: #8c959f; stroke-width: 0.6; stroke-linecap: round"/>
   </g>
   <g id="text_20">
    <!-- threshold -->
    <g style="fill: #1f2328" transform="translate(50.645495 219.494766) scale(0.08 -0.08)">
     <defs>
      <path id="DejaVuSans-68" d="M 3513 2113 
L 3513 0 
L 2938 0 
L 2938 2094 
Q 2938 2591 2744 2837 
Q 2550 3084 2163 3084 
Q 1697 3084 1428 2787 
Q 1159 2491 1159 1978 
L 1159 0 
L 581 0 
L 581 4863 
L 1159 4863 
L 1159 2956 
Q 1366 3272 1645 3428 
Q 1925 3584 2291 3584 
Q 2894 3584 3203 3211 
Q 3513 2838 3513 2113 
z
" transform="scale(0.015625)"/>
      <path id="DejaVuSans-72" d="M 2631 2963 
Q 2534 3019 2420 3045 
Q 2306 3072 2169 3072 
Q 1681 3072 1420 2755 
Q 1159 2438 1159 1844 
L 1159 0 
L 581 0 
L 581 3500 
L 1159 3500 
L 1159 2956 
Q 1341 3275 1631 3429 
Q 1922 3584 2338 3584 
Q 2397 3584 2469 3576 
Q 2541 3569 2628 3553 
L 2631 2963 
z
" transform="scale(0.015625)"/>
      <path id="DejaVuSans-6f" d="M 1959 3097 
Q 1497 3097 1228 2736 
Q 959 2375 959 1747 
Q 959 1119 1226 758 
Q 1494 397 1959 397 
Q 2419 397 2687 759 
Q 2956 1122 2956 1747 
Q 2956 2369 2687 2733 
Q 2419 3097 1959 3097 
z
M 1959 3584 
Q 2709 3584 3137 3096 
Q 3566 2609 3566 1747 
Q 3566 888 3137 398 
Q 2709 -91 1959 -91 
Q 1206 -91 779 398 
Q 353 888 353 1747 
Q 353 2609 779 3096 
Q 1206 3584 1959 3584 
z
" transform="scale(0.015625)"/>
      <path id="DejaVuSans-6c" d="M 603 4863 
L 1178 4863 
L 1178 0 
L 603 0 
L 603 4863 
z
" transform="scale(0.015625)"/>
      <path id="DejaVuSans-64" d="M 2906 2969 
L 2906 4863 
L 3481 4863 
L 3481 0 
L 2906 0 
L 2906 525 
Q 2725 213 2448 61 
Q 2172 -91 1784 -91 
Q 1150 -91 751 415 
Q 353 922 353 1747 
Q 353 2572 751 3078 
Q 1150 3584 1784 3584 
Q 2172 3584 2448 3432 
Q 2725 3281 2906 2969 
z
M 947 1747 
Q 947 1113 1208 752 
Q 1469 391 1925 391 
Q 2381 391 2643 752 
Q 2906 1113 2906 1747 
Q 2906 2381 2643 2742 
Q 2381 3103 1925 3103 
Q 1469 3103 1208 2742 
Q 947 2381 947 1747 
z
" transform="scale(0.015625)"/>
     </defs>
     <use xlink:href="#DejaVuSans-74"/>
     <use xlink:href="#DejaVuSans-68" transform="translate(39.208984 0)"/>
     <use xlink:href="#DejaVuSans-72" transform="translate(102.587891 0)"/>
     <use xlink:href="#DejaVuSans-65" transform="translate(141.451172 0)"/>
     <use xlink:href="#DejaVuSans-73" transform="translate(202.974609 0)"/>
     <use xlink:href="#DejaVuSans-68" transform="translate(255.074219 0)"/>
     <use xlink:href="#DejaVuSans-6f" transform="translate(318.453125 0)"/>
     <use xlink:href="#DejaVuSans-6c" transform="translate(379.634766 0)"/>
     <use xlink:href="#DejaVuSans-64" transform="translate(407.417969 0)"/>
    </g>
   </g>
   <g id="text_21">
    <g id="patch_6">
     <path d="M 65.861141 147.051016 
L 81.196141 147.051016 
Q 82.636141 147.051016 82.636141 145.611016 
L 82.636141 137.868516 
Q 82.636141 136.428516 81.196141 136.428516 
L 65.861141 136.428516 
Q 64.421141 136.428516 64.421141 137.868516 
L 64.421141 145.611016 
Q 64.421141 147.051016 65.861141 147.051016 
z
" style="fill: #fafbfc; stroke: #d0d7de; stroke-width: 0.5; stroke-linejoin: miter"/>
    </g>
    <!-- rest -->
    <g style="fill: #1f2328" transform="translate(65.861141 143.947266) scale(0.08 -0.08)">
     <use xlink:href="#DejaVuSans-72"/>
     <use xlink:href="#DejaVuSans-65" transform="translate(38.863281 0)"/>
     <use xlink:href="#DejaVuSans-73" transform="translate(100.386719 0)"/>
     <use xlink:href="#DejaVuSans-74" transform="translate(152.486328 0)"/>
    </g>
   </g>
   <g id="text_22">
    <g id="patch_7">
     <path d="M 131.608432 99.204266 
L 146.209682 99.204266 
Q 147.649682 99.204266 147.649682 97.764266 
L 147.649682 90.021766 
Q 147.649682 88.581766 146.209682 88.581766 
L 131.608432 88.581766 
Q 130.168432 88.581766 130.168432 90.021766 
L 130.168432 97.764266 
Q 130.168432 99.204266 131.608432 99.204266 
z
" style="fill: #fafbfc; stroke: #d0d7de; stroke-width: 0.5; stroke-linejoin: miter"/>
    </g>
    <!-- rise -->
    <g style="fill: #1f2328" transform="translate(131.608432 96.100516) scale(0.08 -0.08)">
     <use xlink:href="#DejaVuSans-72"/>
     <use xlink:href="#DejaVuSans-69" transform="translate(41.113281 0)"/>
     <use xlink:href="#DejaVuSans-73" transform="translate(68.896484 0)"/>
     <use xlink:href="#DejaVuSans-65" transform="translate(120.996094 0)"/>
    </g>
   </g>
   <g id="text_23">
    <g id="patch_8">
     <path d="M 152.024078 58.912266 
L 171.560328 58.912266 
Q 173.000328 58.912266 173.000328 57.472266 
L 173.000328 49.729766 
Q 173.000328 48.289766 171.560328 48.289766 
L 152.024078 48.289766 
Q 150.584078 48.289766 150.584078 49.729766 
L 150.584078 57.472266 
Q 150.584078 58.912266 152.024078 58.912266 
z
" style="fill: #fafbfc; stroke: #d0d7de; stroke-width: 0.5; stroke-linejoin: miter"/>
    </g>
    <!-- peak -->
    <g style="fill: #1f2328" transform="translate(152.024078 55.808516) scale(0.08 -0.08)">
     <defs>
      <path id="DejaVuSans-70" d="M 1159 525 
L 1159 -1331 
L 581 -1331 
L 581 3500 
L 1159 3500 
L 1159 2969 
Q 1341 3281 1617 3432 
Q 1894 3584 2278 3584 
Q 2916 3584 3314 3078 
Q 3713 2572 3713 1747 
Q 3713 922 3314 415 
Q 2916 -91 2278 -91 
Q 1894 -91 1617 61 
Q 1341 213 1159 525 
z
M 3116 1747 
Q 3116 2381 2855 2742 
Q 2594 3103 2138 3103 
Q 1681 3103 1420 2742 
Q 1159 2381 1159 1747 
Q 1159 1113 1420 752 
Q 1681 391 2138 391 
Q 2594 391 2855 752 
Q 3116 1113 3116 1747 
z
" transform="scale(0.015625)"/>
      <path id="DejaVuSans-61" d="M 2194 1759 
Q 1497 1759 1228 1600 
Q 959 1441 959 1056 
Q 959 750 1161 570 
Q 1363 391 1709 391 
Q 2188 391 2477 730 
Q 2766 1069 2766 1631 
L 2766 1759 
L 2194 1759 
z
M 3341 1997 
L 3341 0 
L 2766 0 
L 2766 531 
Q 2569 213 2275 61 
Q 1981 -91 1556 -91 
Q 1019 -91 701 211 
Q 384 513 384 1019 
Q 384 1609 779 1909 
Q 1175 2209 1959 2209 
L 2766 2209 
L 2766 2266 
Q 2766 2663 2505 2880 
Q 2244 3097 1772 3097 
Q 1472 3097 1187 3025 
Q 903 2953 641 2809 
L 641 3341 
Q 956 3463 1253 3523 
Q 1550 3584 1831 3584 
Q 2591 3584 2966 3190 
Q 3341 2797 3341 1997 
z
" transform="scale(0.015625)"/>
      <path id="DejaVuSans-6b" d="M 581 4863 
L 1159 4863 
L 1159 1991 
L 2875 3500 
L 3609 3500 
L 1753 1863 
L 3688 0 
L 2938 0 
L 1159 1709 
L 1159 0 
L 581 0 
L 581 4863 
z
" transform="scale(0.015625)"/>
     </defs>
     <use xlink:href="#DejaVuSans-70"/>
     <use xlink:href="#DejaVuSans-65" transform="translate(63.476562 0)"/>
     <use xlink:href="#DejaVuSans-61" transform="translate(125 0)"/>
     <use xlink:href="#DejaVuSans-6b" transform="translate(186.279297 0)"/>
    </g>
   </g>
   <g id="text_24">
    <g id="patch_9">
     <path d="M 228.823432 178.529141 
L 245.135932 178.529141 
Q 246.575932 178.529141 246.575932 177.089141 
L 246.575932 169.346641 
Q 246.575932 167.906641 245.135932 167.906641 
L 228.823432 167.906641 
Q 227.383432 167.906641 227.383432 169.346641 
L 227.383432 177.089141 
Q 227.383432 178.529141 228.823432 178.529141 
z
" style="fill: #fafbfc; stroke: #d0d7de; stroke-width: 0.5; stroke-linejoin: miter"/>
    </g>
    <!-- AHP -->
    <g style="fill: #1f2328" transform="translate(228.823432 175.425391) scale(0.08 -0.08)">
     <defs>
      <path id="DejaVuSans-41" d="M 2188 4044 
L 1331 1722 
L 3047 1722 
L 2188 4044 
z
M 1831 4666 
L 2547 4666 
L 4325 0 
L 3669 0 
L 3244 1197 
L 1141 1197 
L 716 0 
L 50 0 
L 1831 4666 
z
" transform="scale(0.015625)"/>
      <path id="DejaVuSans-48" d="M 628 4666 
L 1259 4666 
L 1259 2753 
L 3553 2753 
L 3553 4666 
L 4184 4666 
L 4184 0 
L 3553 0 
L 3553 2222 
L 1259 2222 
L 1259 0 
L 628 0 
L 628 4666 
z
" transform="scale(0.015625)"/>
      <path id="DejaVuSans-50" d="M 1259 4147 
L 1259 2394 
L 2053 2394 
Q 2494 2394 2734 2622 
Q 2975 2850 2975 3272 
Q 2975 3691 2734 3919 
Q 2494 4147 2053 4147 
L 1259 4147 
z
M 628 4666 
L 2053 4666 
Q 2838 4666 3239 4311 
Q 3641 3956 3641 3272 
Q 3641 2581 3239 2228 
Q 2838 1875 2053 1875 
L 1259 1875 
L 1259 0 
L 628 0 
L 628 4666 
z
" transform="scale(0.015625)"/>
     </defs>
     <use xlink:href="#DejaVuSans-41"/>
     <use xlink:href="#DejaVuSans-48" transform="translate(68.408203 0)"/>
     <use xlink:href="#DejaVuSans-50" transform="translate(143.603516 0)"/>
    </g>
   </g>
   <g id="text_25">
    <g id="patch_10">
     <path d="M 329.360224 165.937891 
L 353.816474 165.937891 
Q 355.256474 165.937891 355.256474 164.497891 
L 355.256474 156.755391 
Q 355.256474 155.315391 353.816474 155.315391 
L 329.360224 155.315391 
Q 327.920224 155.315391 327.920224 156.755391 
L 327.920224 164.497891 
Q 327.920224 165.937891 329.360224 165.937891 
z
" style="fill: #fafbfc; stroke: #d0d7de; stroke-width: 0.5; stroke-linejoin: miter"/>
    </g>
    <!-- return -->
    <g style="fill: #1f2328" transform="translate(329.360224 162.834141) scale(0.08 -0.08)">
     <defs>
      <path id="DejaVuSans-75" d="M 544 1381 
L 544 3500 
L 1119 3500 
L 1119 1403 
Q 1119 906 1312 657 
Q 1506 409 1894 409 
Q 2359 409 2629 706 
Q 2900 1003 2900 1516 
L 2900 3500 
L 3475 3500 
L 3475 0 
L 2900 0 
L 2900 538 
Q 2691 219 2414 64 
Q 2138 -91 1772 -91 
Q 1169 -91 856 284 
Q 544 659 544 1381 
z
M 1991 3584 
L 1991 3584 
z
" transform="scale(0.015625)"/>
      <path id="DejaVuSans-6e" d="M 3513 2113 
L 3513 0 
L 2938 0 
L 2938 2094 
Q 2938 2591 2744 2837 
Q 2550 3084 2163 3084 
Q 1697 3084 1428 2787 
Q 1159 2491 1159 1978 
L 1159 0 
L 581 0 
L 581 3500 
L 1159 3500 
L 1159 2956 
Q 1366 3272 1645 3428 
Q 1925 3584 2291 3584 
Q 2894 3584 3203 3211 
Q 3513 2838 3513 2113 
z
" transform="scale(0.015625)"/>
     </defs>
     <use xlink:href="#DejaVuSans-72"/>
     <use xlink:href="#DejaVuSans-65" transform="translate(38.863281 0)"/>
     <use xlink:href="#DejaVuSans-74" transform="translate(100.386719 0)"/>
     <use xlink:href="#DejaVuSans-75" transform="translate(139.595703 0)"/>
     <use xlink:href="#DejaVuSans-72" transform="translate(202.974609 0)"/>
     <use xlink:href="#DejaVuSans-6e" transform="translate(242.337891 0)"/>
    </g>
   </g>
   <g id="text_26">
    <!-- $V_m$  (mV) -->
    <g style="fill: #57606a" transform="translate(34.300391 24.129277) scale(0.09 -0.09)">
     <defs>
      <path id="DejaVuSans-Oblique-56" d="M 1319 0 
L 500 4666 
L 1119 4666 
L 1797 653 
L 4063 4666 
L 4750 4666 
L 2053 0 
L 1319 0 
z
" transform="scale(0.015625)"/>
      <path id="DejaVuSans-Oblique-6d" d="M 5747 2113 
L 5338 0 
L 4763 0 
L 5166 2094 
Q 5191 2228 5203 2325 
Q 5216 2422 5216 2491 
Q 5216 2772 5059 2928 
Q 4903 3084 4622 3084 
Q 4203 3084 3875 2770 
Q 3547 2456 3450 1953 
L 3066 0 
L 2491 0 
L 2900 2094 
Q 2925 2209 2937 2307 
Q 2950 2406 2950 2484 
Q 2950 2769 2794 2926 
Q 2638 3084 2363 3084 
Q 1938 3084 1609 2770 
Q 1281 2456 1184 1953 
L 800 0 
L 225 0 
L 909 3500 
L 1484 3500 
L 1375 2956 
Q 1609 3263 1923 3423 
Q 2238 3584 2597 3584 
Q 2978 3584 3223 3384 
Q 3469 3184 3519 2828 
Q 3781 3197 4126 3390 
Q 4472 3584 4856 3584 
Q 5306 3584 5551 3325 
Q 5797 3066 5797 2591 
Q 5797 2488 5784 2364 
Q 5772 2241 5747 2113 
z
" transform="scale(0.015625)"/>
      <path id="DejaVuSans-56" d="M 1831 0 
L 50 4666 
L 709 4666 
L 2188 738 
L 3669 4666 
L 4325 4666 
L 2547 0 
L 1831 0 
z
" transform="scale(0.015625)"/>
     </defs>
     <use xlink:href="#DejaVuSans-Oblique-56" transform="translate(0 0.125)"/>
     <use xlink:href="#DejaVuSans-Oblique-6d" transform="translate(68.408203 -16.28125) scale(0.7)"/>
     <use xlink:href="#DejaVuSans-20" transform="translate(139.331055 0.125)"/>
     <use xlink:href="#DejaVuSans-20" transform="translate(171.118164 0.125)"/>
     <use xlink:href="#DejaVuSans-28" transform="translate(202.905273 0.125)"/>
     <use xlink:href="#DejaVuSans-6d" transform="translate(241.918945 0.125)"/>
     <use xlink:href="#DejaVuSans-56" transform="translate(339.331055 0.125)"/>
     <use xlink:href="#DejaVuSans-29" transform="translate(407.739258 0.125)"/>
    </g>
   </g>
   <g id="text_27">
    <!-- Action potential phases -->
    <g style="fill: #1f2328" transform="translate(174.608359 14.418516) scale(0.095 -0.095)">
     <defs>
      <path id="DejaVuSans-63" d="M 3122 3366 
L 3122 2828 
Q 2878 2963 2633 3030 
Q 2388 3097 2138 3097 
Q 1578 3097 1268 2742 
Q 959 2388 959 1747 
Q 959 1106 1268 751 
Q 1578 397 2138 397 
Q 2388 397 2633 464 
Q 2878 531 3122 666 
L 3122 134 
Q 2881 22 2623 -34 
Q 2366 -91 2075 -91 
Q 1284 -91 818 406 
Q 353 903 353 1747 
Q 353 2603 823 3093 
Q 1294 3584 2113 3584 
Q 2378 3584 2631 3529 
Q 2884 3475 3122 3366 
z
" transform="scale(0.015625)"/>
     </defs>
     <use xlink:href="#DejaVuSans-41"/>
     <use xlink:href="#DejaVuSans-63" transform="translate(66.658203 0)"/>
     <use xlink:href="#DejaVuSans-74" transform="translate(121.638672 0)"/>
     <use xlink:href="#DejaVuSans-69" transform="translate(160.847656 0)"/>
     <use xlink:href="#DejaVuSans-6f" transform="translate(188.630859 0)"/>
     <use xlink:href="#DejaVuSans-6e" transform="translate(249.8125 0)"/>
     <use xlink:href="#DejaVuSans-20" transform="translate(313.191406 0)"/>
     <use xlink:href="#DejaVuSans-70" transform="translate(344.978516 0)"/>
     <use xlink:href="#DejaVuSans-6f" transform="translate(408.455078 0)"/>
     <use xlink:href="#DejaVuSans-74" transform="translate(469.636719 0)"/>
     <use xlink:href="#DejaVuSans-65" transform="translate(508.845703 0)"/>
     <use xlink:href="#DejaVuSans-6e" transform="translate(570.369141 0)"/>
     <use xlink:href="#DejaVuSans-74" transform="translate(633.748047 0)"/>
     <use xlink:href="#DejaVuSans-69" transform="translate(672.957031 0)"/>
     <use xlink:href="#DejaVuSans-61" transform="translate(700.740234 0)"/>
     <use xlink:href="#DejaVuSans-6c" transform="translate(762.019531 0)"/>
     <use xlink:href="#DejaVuSans-20" transform="translate(789.802734 0)"/>
     <use xlink:href="#DejaVuSans-70" transform="translate(821.589844 0)"/>
     <use xlink:href="#DejaVuSans-68" transform="translate(885.066406 0)"/>
     <use xlink:href="#DejaVuSans-61" transform="translate(948.445312 0)"/>
     <use xlink:href="#DejaVuSans-73" transform="translate(1009.724609 0)"/>
     <use xlink:href="#DejaVuSans-65" transform="translate(1061.824219 0)"/>
     <use xlink:href="#DejaVuSans-73" transform="translate(1123.347656 0)"/>
    </g>
   </g>
   <g id="line2d_20">
    <path d="M 114.131024 172.978922 
" clip-path="url(#p62343aab3b)" style="fill: none; stroke: #ccbb44; stroke-width: 1.6; stroke-linecap: square"/>
    <defs>
     <path id="m1af3a8269d" d="M 0 3 
C 0.795609 3 1.55874 2.683901 2.12132 2.12132 
C 2.683901 1.55874 3 0.795609 3 0 
C 3 -0.795609 2.683901 -1.55874 2.12132 -2.12132 
C 1.55874 -2.683901 0.795609 -3 0 -3 
C -0.795609 -3 -1.55874 -2.683901 -2.12132 -2.12132 
C -2.683901 -1.55874 -3 -0.795609 -3 0 
C -3 0.795609 -2.683901 1.55874 -2.12132 2.12132 
C -1.55874 2.683901 -0.795609 3 0 3 
z
" style="stroke: #1f2328; stroke-width: 0.6"/>
    </defs>
    <g clip-path="url(#p62343aab3b)">
     <use xlink:href="#m1af3a8269d" x="114.131024" y="172.978922" style="fill: #ccbb44; stroke: #1f2328; stroke-width: 0.6"/>
    </g>
   </g>
  </g>
 </g>
 <defs>
  <clipPath id="p62343aab3b">
   <rect x="34.300391" y="28.418516" width="392.2825" height="201.46"/>
  </clipPath>
 </defs>
</svg>
