<?xml version="1.0" encoding="utf-8" standalone="no"?>
<!DOCTYPE svg PUBLIC "-//W3C//DTD SVG 1.1//EN"
  "http://www.w3.org/Graphics/SVG/1.1/DTD/svg11.dtd">
<svg xmlns:xlink="http://www.w3.org/1999/xlink" width="437.9pt" height="265.118516pt" viewBox="0 0 437.9 265.118516" xmlns="http://www.w3.org/2000/svg" version="1.1">
 <metadata>
  <rdf:RDF xmlns:dc="http://purl.org/dc/elements/1.1/" xmlns:cc="http://creativecommons.org/ns#" xmlns:rdf="http://www.w3.org/1999/02/22-rdf-syntax-ns#">
   <cc:Work>
    <dc:type rdf:resource="http://purl.org/dc/dcmitype/StillImage"/>
    <dc:date>2023-11-14T22:13:20+00:00</dc:date>
    <dc:format>image/svg+xml</dc:format>
    <dc:creator>
     <cc:Agent>
      <dc:title>Matplotlib v3.10.8, https://matplotlib.org/</dc:title>
     </cc:Agent>
    </dc:creator>
   </cc:Work>
  </rdf:RDF>
 </metadata>
 <defs>
  <style type="text/css">*{stroke-linejoin: round; stroke-linecap: butt}</style>
 </defs>
 <g id="figure_1">
  <g id="patch_1">
   <path d="M 0 265.118516 
L 437.9 265.118516 
L 437.9 0 
L 0 0 
z
" style="fill: #fafbfc"/>
  </g>
  <g id="axes_1">
   <g id="patch_2">
    <path d="M 7.2 257.918516 
L 430.7 257.918516 
L 430.7 18.418516 
L 7.2 18.418516 
z
" style="fill: #fafbfc"/>
   </g>
   <g id="patch_3">
    <path d="M 49.55 158.126849 
L 388.35 158.126849 
Q 405.29 158.126849 405.29 142.160182 
L 405.29 134.176849 
Q 405.29 118.210182 388.35 118.210182 
L 49.55 118.210182 
Q 32.61 118.210182 32.61 134.176849 
L 32.61 142.160182 
Q 32.61 158.126849 49.55 158.126849 
z
" clip-path="url(#pd15903884e)" style="fill: #d0d7de; stroke: #57606a; stroke-width: 0.8; stroke-linejoin: miter"/>
   </g>
   <g id="patch_4">
    <path d="M 32.61 158.126849 
L 134.25 158.126849 
L 134.25 118.210182 
L 32.61 118.210182 
z
" clip-path="url(#pd15903884e)" style="fill: #ee6677; opacity: 0.22"/>
   </g>
   <g id="patch_5">
    <path d="M 74.96 154.135182 
C 79.452541 154.135182 83.761683 152.452834 86.938389 149.458654 
C 90.115095 146.464474 91.9 142.402925 91.9 138.168516 
C 91.9 133.934106 90.115095 129.872557 86.938389 126.878377 
C 83.761683 123.884198 79.452541 122.201849 74.96 122.201849 
C 70.467459 122.201849 66.158317 123.884198 62.981611 126.878377 
C 59.804905 129.872557 58.02 133.934106 58.02 138.168516 
C 58.02 142.402925 59.804905 146.464474 62.981611 149.458654 
C 66.158317 152.452834 70.467459 154.135182 74.96 154.135182 
z
" clip-path="url(#pd15903884e)" style="fill: #8c959f; opacity: 0.25"/>
   </g>
   <g id="patch_6">
    <path d="M 134.25 154.135182 
C 138.742541 154.135182 143.051683 152.452834 146.228389 149.458654 
C 149.405095 146.464474 151.19 142.402925 151.19 138.168516 
C 151.19 133.934106 149.405095 129.872557 146.228389 126.878377 
C 143.051683 123.884198 138.742541 122.201849 134.25 122.201849 
C 129.757459 122.201849 125.448317 123.884198 122.271611 126.878377 
C 119.094905 129.872557 117.31 133.934106 117.31 138.168516 
C 117.31 142.402925 119.094905 146.464474 122.271611 149.458654 
C 125.448317 152.452834 129.757459 154.135182 134.25 154.135182 
z
" clip-path="url(#pd15903884e)" style="fill: #8c959f; opacity: 0.4"/>
   </g>
   <g id="patch_7">
    <path d="M 193.54 154.135182 
C 198.032541 154.135182 202.341683 152.452834 205.518389 149.458654 
C 208.695095 146.464474 210.48 142.402925 210.48 138.168516 
C 210.48 133.934106 208.695095 129.872557 205.518389 126.878377 
C 202.341683 123.884198 198.032541 122.201849 193.54 122.201849 
C 189.047459 122.201849 184.738317 123.884198 181.561611 126.878377 
C 178.384905 129.872557 176.6 133.934106 176.6 138.168516 
C 176.6 142.402925 178.384905 146.464474 181.561611 149.458654 
C 184.738317 152.452834 189.047459 154.135182 193.54 154.135182 
z
" clip-path="url(#pd15903884e)" style="fill: #4477aa; opacity: 0.55"/>
   </g>
   <g id="patch_8">
    <path d="M 252.83 154.135182 
C 257.322541 154.135182 261.631683 152.452834 264.808389 149.458654 
C 267.985095 146.464474 269.77 142.402925 269.77 138.168516 
C 269.77 133.934106 267.985095 129.872557 264.808389 126.878377 
C 261.631683 123.884198 257.322541 122.201849 252.83 122.201849 
C 248.337459 122.201849 244.028317 123.884198 240.851611 126.878377 
C 237.674905 129.872557 235.89 133.934106 235.89 138.168516 
C 235.89 142.402925 237.674905 146.464474 240.851611 149.458654 
C 244.028317 152.452834 248.337459 154.135182 252.83 154.135182 
z
" clip-path="url(#pd15903884e)" style="fill: #4477aa; opacity: 0.8"/>
   </g>
   <g id="patch_9">
    <path d="M 312.12 154.135182 
C 316.612541 154.135182 320.921683 152.452834 324.098389 149.458654 
C 327.275095 146.464474 329.06 142.402925 329.06 138.168516 
C 329.06 133.934106 327.275095 129.872557 324.098389 126.878377 
C 320.921683 123.884198 316.612541 122.201849 312.12 122.201849 
C 307.627459 122.201849 303.318317 123.884198 300.141611 126.878377 
C 296.964905 129.872557 295.18 133.934106 295.18 138.168516 
C 295.18 142.402925 296.964905 146.464474 300.141611 149.458654 
C 303.318317 152.452834 307.627459 154.135182 312.12 154.135182 
z
" clip-path="url(#pd15903884e)" style="fill: #4477aa"/>
   </g>
   <g id="matplotlib.axis_1"/>
   <g id="matplotlib.axis_2"/>
   <g id="text_1">
    <!-- refractory -->
    <g style="fill: #ee6677" transform="translate(64.917891 92.700417) scale(0.075 -0.075)">
     <defs>
      <path id="DejaVuSans-72" d="M 2631 2963 
Q 2534 3019 2420 3045 
Q 2306 3072 2169 3072 
Q 1681 3072 1420 2755 
Q 1159 2438 1159 1844 
L 1159 0 
L 581 0 
L 581 3500 
L 1159 3500 
L 1159 2956 
Q 1341 3275 1631 3429 
Q 1922 3584 2338 3584 
Q 2397 3584 2469 3576 
Q 2541 3569 2628 3553 
L 2631 2963 
z
" transform="scale(0.015625)"/>
      <path id="DejaVuSans-65" d="M 3597 1894 
L 3597 1613 
L 953 1613 
Q 991 1019 1311 708 
Q 1631 397 2203 397 
Q 2534 397 2845 478 
Q 3156 559 3463 722 
L 3463 178 
Q 3153 47 2828 -22 
Q 2503 -91 2169 -91 
Q 1331 -91 842 396 
Q 353 884 353 1716 
Q 353 2575 817 3079 
Q 1281 3584 2069 3584 
Q 2775 3584 3186 3129 
Q 3597 2675 3597 1894 
z
M 3022 2063 
Q 3016 2534 2758 2815 
Q 2500 3097 2075 3097 
Q 1594 3097 1305 2825 
Q 1016 2553 972 2059 
L 3022 2063 
z
" transform="scale(0.015625)"/>
      <path id="DejaVuSans-66" d="M 2375 4863 
L 2375 4384 
L 1825 4384 
Q 1516 4384 1395 4259 
Q 1275 4134 1275 3809 
L 1275 3500 
L 2222 3500 
L 2222 3053 
L 1275 3053 
L 1275 0 
L 697 0 
L 697 3053 
L 147 3053 
L 147 3500 
L 697 3500 
L 697 3744 
Q 697 4328 969 4595 
Q 1241 4863 1831 4863 
L 2375 4863 
z
" transform="scale(0.015625)"/>
      <path id="DejaVuSans-61" d="M 2194 1759 
Q 1497 1759 1228 1600 
Q 959 1441 959 1056 
Q 959 750 1161 570 
Q 1363 391 1709 391 
Q 2188 391 2477 730 
Q 2766 1069 2766 1631 
L 2766 1759 
L 2194 1759 
z
M 3341 1997 
L 3341 0 
L 2766 0 
L 2766 531 
Q 2569 213 2275 61 
Q 1981 -91 1556 -91 
Q 1019 -91 701 211 
Q 384 513 384 1019 
Q 384 1609 779 1909 
Q 1175 2209 1959 2209 
L 2766 2209 
L 2766 2266 
Q 2766 2663 2505 2880 
Q 2244 3097 1772 3097 
Q 1472 3097 1187 3025 
Q 903 2953 641 2809 
L 641 3341 
Q 956 3463 1253 3523 
Q 1550 3584 1831 3584 
Q 2591 3584 2966 3190 
Q 3341 2797 3341 1997 
z
" transform="scale(0.015625)"/>
      <path id="DejaVuSans-63" d="M 3122 3366 
L 3122 2828 
Q 2878 2963 2633 3030 
Q 2388 3097 2138 3097 
Q 1578 3097 1268 2742 
Q 959 2388 959 1747 
Q 959 1106 1268 751 
Q 1578 397 2138 397 
Q 2388 397 2633 464 
Q 2878 531 3122 666 
L 3122 134 
Q 2881 22 2623 -34 
Q 2366 -91 2075 -91 
Q 1284 -91 818 406 
Q 353 903 353 1747 
Q 353 2603 823 3093 
Q 1294 3584 2113 3584 
Q 2378 3584 2631 3529 
Q 2884 3475 3122 3366 
z
" transform="scale(0.015625)"/>
      <path id="DejaVuSans-74" d="M 1172 4494 
L 1172 3500 
L 2356 3500 
L 2356 3053 
L 1172 3053 
L 1172 1153 
Q 1172 725 1289 603 
Q 1406 481 1766 481 
L 2356 481 
L 2356 0 
L 1766 0 
Q 1100 0 847 248 
Q 594 497 594 1153 
L 594 3053 
L 172 3053 
L 172 3500 
L 594 3500 
L 594 4494 
L 1172 4494 
z
" transform="scale(0.015625)"/>
      <path id="DejaVuSans-6f" d="M 1959 3097 
Q 1497 3097 1228 2736 
Q 959 2375 959 1747 
Q 959 1119 1226 758 
Q 1494 397 1959 397 
Q 2419 397 2687 759 
Q 2956 1122 2956 1747 
Q 2956 2369 2687 2733 
Q 2419 3097 1959 3097 
z
M 1959 3584 
Q 2709 3584 3137 3096 
Q 3566 2609 3566 1747 
Q 3566 888 3137 398 
Q 2709 -91 1959 -91 
Q 1206 -91 779 398 
Q 353 888 353 1747 
Q 353 2609 779 3096 
Q 1206 3584 1959 3584 
z
" transform="scale(0.015625)"/>
      <path id="DejaVuSans-79" d="M 2059 -325 
Q 1816 -950 1584 -1140 
Q 1353 -1331 966 -1331 
L 506 -1331 
L 506 -850 
L 844 -850 
Q 1081 -850 1212 -737 
Q 1344 -625 1503 -206 
L 1606 56 
L 191 3500 
L 800 3500 
L 1894 763 
L 2988 3500 
L 3597 3500 
L 2059 -325 
z
" transform="scale(0.015625)"/>
     </defs>
     <use xlink:href="#DejaVuSans-72"/>
     <use xlink:href="#DejaVuSans-65" transform="translate(38.863281 0)"/>
     <use xlink:href="#DejaVuSans-66" transform="translate(100.386719 0)"/>
     <use xlink:href="#DejaVuSans-72" transform="translate(135.591797 0)"/>
     <use xlink:href="#DejaVuSans-61" transform="translate(176.705078 0)"/>
     <use xlink:href="#DejaVuSans-63" transform="translate(237.984375 0)"/>
     <use xlink:href="#DejaVuSans-74" transform="translate(292.964844 0)"/>
     <use xlink:href="#DejaVuSans-6f" transform="translate(332.173828 0)"/>
     <use xlink:href="#DejaVuSans-72" transform="translate(393.355469 0)"/>
     <use xlink:href="#DejaVuSans-79" transform="translate(434.46875 0)"/>
    </g>
   </g>
   <g id="patch_10">
    <path d="M 314.121182 138.168516 
Q 341.767303 138.168516 367.400962 138.168516 
" style="fill: none; stroke: #ccbb44; stroke-width: 1.8; stroke-linecap: round"/>
    <path d="M 361.800962 135.368516 
L 367.400962 138.168516 
L 361.800962 140.968516 
z
" style="fill: #ccbb44; stroke: #ccbb44; stroke-width: 1.8; stroke-linecap: round"/>
   </g>
   <g id="text_2">
    <!-- forward -->
    <g style="fill: #ccbb44" transform="translate(348.7325 115.748099) scale(0.08 -0.08)">
     <defs>
      <path id="DejaVuSans-Bold-66" d="M 2841 4863 
L 2841 4128 
L 2222 4128 
Q 1984 4128 1890 4042 
Q 1797 3956 1797 3744 
L 1797 3500 
L 2753 3500 
L 2753 2700 
L 1797 2700 
L 1797 0 
L 678 0 
L 678 2700 
L 122 2700 
L 122 3500 
L 678 3500 
L 678 3744 
Q 678 4316 997 4589 
Q 1316 4863 1984 4863 
L 2841 4863 
z
" transform="scale(0.015625)"/>
      <path id="DejaVuSans-Bold-6f" d="M 2203 2784 
Q 1831 2784 1636 2517 
Q 1441 2250 1441 1747 
Q 1441 1244 1636 976 
Q 1831 709 2203 709 
Q 2569 709 2762 976 
Q 2956 1244 2956 1747 
Q 2956 2250 2762 2517 
Q 2569 2784 2203 2784 
z
M 2203 3584 
Q 3106 3584 3614 3096 
Q 4122 2609 4122 1747 
Q 4122 884 3614 396 
Q 3106 -91 2203 -91 
Q 1297 -91 786 396 
Q 275 884 275 1747 
Q 275 2609 786 3096 
Q 1297 3584 2203 3584 
z
" transform="scale(0.015625)"/>
      <path id="DejaVuSans-Bold-72" d="M 3138 2547 
Q 2991 2616 2845 2648 
Q 2700 2681 2553 2681 
Q 2122 2681 1889 2404 
Q 1656 2128 1656 1613 
L 1656 0 
L 538 0 
L 538 3500 
L 1656 3500 
L 1656 2925 
Q 1872 3269 2151 3426 
Q 2431 3584 2822 3584 
Q 2878 3584 2943 3579 
Q 3009 3575 3134 3559 
L 3138 2547 
z
" transform="scale(0.015625)"/>
      <path id="DejaVuSans-Bold-77" d="M 225 3500 
L 1313 3500 
L 1900 1088 
L 2491 3500 
L 3425 3500 
L 4013 1113 
L 4603 3500 
L 5691 3500 
L 4769 0 
L 3547 0 
L 2956 2406 
L 2369 0 
L 1147 0 
L 225 3500 
z
" transform="scale(0.015625)"/>
      <path id="DejaVuSans-Bold-61" d="M 2106 1575 
Q 1756 1575 1579 1456 
Q 1403 1338 1403 1106 
Q 1403 894 1545 773 
Q 1688 653 1941 653 
Q 2256 653 2472 879 
Q 2688 1106 2688 1447 
L 2688 1575 
L 2106 1575 
z
M 3816 1997 
L 3816 0 
L 2688 0 
L 2688 519 
Q 2463 200 2181 54 
Q 1900 -91 1497 -91 
Q 953 -91 614 226 
Q 275 544 275 1050 
Q 275 1666 698 1953 
Q 1122 2241 2028 2241 
L 2688 2241 
L 2688 2328 
Q 2688 2594 2478 2717 
Q 2269 2841 1825 2841 
Q 1466 2841 1156 2769 
Q 847 2697 581 2553 
L 581 3406 
Q 941 3494 1303 3539 
Q 1666 3584 2028 3584 
Q 2975 3584 3395 3211 
Q 3816 2838 3816 1997 
z
" transform="scale(0.015625)"/>
      <path id="DejaVuSans-Bold-64" d="M 2919 2988 
L 2919 4863 
L 4044 4863 
L 4044 0 
L 2919 0 
L 2919 506 
Q 2688 197 2409 53 
Q 2131 -91 1766 -91 
Q 1119 -91 703 423 
Q 288 938 288 1747 
Q 288 2556 703 3070 
Q 1119 3584 1766 3584 
Q 2128 3584 2408 3439 
Q 2688 3294 2919 2988 
z
M 2181 722 
Q 2541 722 2730 984 
Q 2919 1247 2919 1747 
Q 2919 2247 2730 2509 
Q 2541 2772 2181 2772 
Q 1825 2772 1636 2509 
Q 1447 2247 1447 1747 
Q 1447 1247 1636 984 
Q 1825 722 2181 722 
z
" transform="scale(0.015625)"/>
     </defs>
     <use xlink:href="#DejaVuSans-Bold-66"/>
     <use xlink:href="#DejaVuSans-Bold-6f" transform="translate(43.505859 0)"/>
     <use xlink:href="#DejaVuSans-Bold-72" transform="translate(112.207031 0)"/>
     <use xlink:href="#DejaVuSans-Bold-77" transform="translate(161.523438 0)"/>
     <use xlink:href="#DejaVuSans-Bold-61" transform="translate(253.90625 0)"/>
     <use xlink:href="#DejaVuSans-Bold-72" transform="translate(321.386719 0)"/>
     <use xlink:href="#DejaVuSans-Bold-64" transform="translate(370.703125 0)"/>
    </g>
   </g>
   <g id="text_3">
    <!-- unidirectional spread (continuous conduction) -->
    <g style="fill: #57606a" transform="translate(126.999375 224.201016) scale(0.08 -0.08)">
     <defs>
      <path id="DejaVuSans-75" d="M 544 1381 
L 544 3500 
L 1119 3500 
L 1119 1403 
Q 1119 906 1312 657 
Q 1506 409 1894 409 
Q 2359 409 2629 706 
Q 2900 1003 2900 1516 
L 2900 3500 
L 3475 3500 
L 3475 0 
L 2900 0 
L 2900 538 
Q 2691 219 2414 64 
Q 2138 -91 1772 -91 
Q 1169 -91 856 284 
Q 544 659 544 1381 
z
M 1991 3584 
L 1991 3584 
z
" transform="scale(0.015625)"/>
      <path id="DejaVuSans-6e" d="M 3513 2113 
L 3513 0 
L 2938 0 
L 2938 2094 
Q 2938 2591 2744 2837 
Q 2550 3084 2163 3084 
Q 1697 3084 1428 2787 
Q 1159 2491 1159 1978 
L 1159 0 
L 581 0 
L 581 3500 
L 1159 3500 
L 1159 2956 
Q 1366 3272 1645 3428 
Q 1925 3584 2291 3584 
Q 2894 3584 3203 3211 
Q 3513 2838 3513 2113 
z
" transform="scale(0.015625)"/>
      <path id="DejaVuSans-69" d="M 603 3500 
L 1178 3500 
L 1178 0 
L 603 0 
L 603 3500 
z
M 603 4863 
L 1178 4863 
L 1178 4134 
L 603 4134 
L 603 4863 
z
" transform="scale(0.015625)"/>
      <path id="DejaVuSans-64" d="M 2906 2969 
L 2906 4863 
L 3481 4863 
L 3481 0 
L 2906 0 
L 2906 525 
Q 2725 213 2448 61 
Q 2172 -91 1784 -91 
Q 1150 -91 751 415 
Q 353 922 353 1747 
Q 353 2572 751 3078 
Q 1150 3584 1784 3584 
Q 2172 3584 2448 3432 
Q 2725 3281 2906 2969 
z
M 947 1747 
Q 947 1113 1208 752 
Q 1469 391 1925 391 
Q 2381 391 2643 752 
Q 2906 1113 2906 1747 
Q 2906 2381 2643 2742 
Q 2381 3103 1925 3103 
Q 1469 3103 1208 2742 
Q 947 2381 947 1747 
z
" transform="scale(0.015625)"/>
      <path id="DejaVuSans-6c" d="M 603 4863 
L 1178 4863 
L 1178 0 
L 603 0 
L 603 4863 
z
" transform="scale(0.015625)"/>
      <path id="DejaVuSans-20" transform="scale(0.015625)"/>
      <path id="DejaVuSans-73" d="M 2834 3397 
L 2834 2853 
Q 2591 2978 2328 3040 
Q 2066 3103 1784 3103 
Q 1356 3103 1142 2972 
Q 928 2841 928 2578 
Q 928 2378 1081 2264 
Q 1234 2150 1697 2047 
L 1894 2003 
Q 2506 1872 2764 1633 
Q 3022 1394 3022 966 
Q 3022 478 2636 193 
Q 2250 -91 1575 -91 
Q 1294 -91 989 -36 
Q 684 19 347 128 
L 347 722 
Q 666 556 975 473 
Q 1284 391 1588 391 
Q 1994 391 2212 530 
Q 2431 669 2431 922 
Q 2431 1156 2273 1281 
Q 2116 1406 1581 1522 
L 1381 1569 
Q 847 1681 609 1914 
Q 372 2147 372 2553 
Q 372 3047 722 3315 
Q 1072 3584 1716 3584 
Q 2034 3584 2315 3537 
Q 2597 3491 2834 3397 
z
" transform="scale(0.015625)"/>
      <path id="DejaVuSans-70" d="M 1159 525 
L 1159 -1331 
L 581 -1331 
L 581 3500 
L 1159 3500 
L 1159 2969 
Q 1341 3281 1617 3432 
Q 1894 3584 2278 3584 
Q 2916 3584 3314 3078 
Q 3713 2572 3713 1747 
Q 3713 922 3314 415 
Q 2916 -91 2278 -91 
Q 1894 -91 1617 61 
Q 1341 213 1159 525 
z
M 3116 1747 
Q 3116 2381 2855 2742 
Q 2594 3103 2138 3103 
Q 1681 3103 1420 2742 
Q 1159 2381 1159 1747 
Q 1159 1113 1420 752 
Q 1681 391 2138 391 
Q 2594 391 2855 752 
Q 3116 1113 3116 1747 
z
" transform="scale(0.015625)"/>
      <path id="DejaVuSans-28" d="M 1984 4856 
Q 1566 4138 1362 3434 
Q 1159 2731 1159 2009 
Q 1159 1288 1364 580 
Q 1569 -128 1984 -844 
L 1484 -844 
Q 1016 -109 783 600 
Q 550 1309 550 2009 
Q 550 2706 781 3412 
Q 1013 4119 1484 4856 
L 1984 4856 
z
" transform="scale(0.015625)"/>
      <path id="DejaVuSans-29" d="M 513 4856 
L 1013 4856 
Q 1481 4119 1714 3412 
Q 1947 2706 1947 2009 
Q 1947 1309 1714 600 
Q 1481 -109 1013 -844 
L 513 -844 
Q 928 -128 1133 580 
Q 1338 1288 1338 2009 
Q 1338 2731 1133 3434 
Q 928 4138 513 4856 
z
" transform="scale(0.015625)"/>
     </defs>
     <use xlink:href="#DejaVuSans-75"/>
     <use xlink:href="#DejaVuSans-6e" transform="translate(63.378906 0)"/>
     <use xlink:href="#DejaVuSans-69" transform="translate(126.757812 0)"/>
     <use xlink:href="#DejaVuSans-64" transform="translate(154.541016 0)"/>
     <use xlink:href="#DejaVuSans-69" transform="translate(218.017578 0)"/>
     <use xlink:href="#DejaVuSans-72" transform="translate(245.800781 0)"/>
     <use xlink:href="#DejaVuSans-65" transform="translate(284.664062 0)"/>
     <use xlink:href="#DejaVuSans-63" transform="translate(346.1875 0)"/>
     <use xlink:href="#DejaVuSans-74" transform="translate(401.167969 0)"/>
     <use xlink:href="#DejaVuSans-69" transform="translate(440.376953 0)"/>
     <use xlink:href="#DejaVuSans-6f" transform="translate(468.160156 0)"/>
     <use xlink:href="#DejaVuSans-6e" transform="translate(529.341797 0)"/>
     <use xlink:href="#DejaVuSans-61" transform="translate(592.720703 0)"/>
     <use xlink:href="#DejaVuSans-6c" transform="translate(654 0)"/>
     <use xlink:href="#DejaVuSans-20" transform="translate(681.783203 0)"/>
     <use xlink:href="#DejaVuSans-73" transform="translate(713.570312 0)"/>
     <use xlink:href="#DejaVuSans-70" transform="translate(765.669922 0)"/>
     <use xlink:href="#DejaVuSans-72" transform="translate(829.146484 0)"/>
     <use xlink:href="#DejaVuSans-65" transform="translate(868.009766 0)"/>
     <use xlink:href="#DejaVuSans-61" transform="translate(929.533203 0)"/>
     <use xlink:href="#DejaVuSans-64" transform="translate(990.8125 0)"/>
     <use xlink:href="#DejaVuSans-20" transform="translate(1054.289062 0)"/>
     <use xlink:href="#DejaVuSans-28" transform="translate(1086.076172 0)"/>
     <use xlink:href="#DejaVuSans-63" transform="translate(1125.089844 0)"/>
     <use xlink:href="#DejaVuSans-6f" transform="translate(1180.070312 0)"/>
     <use xlink:href="#DejaVuSans-6e" transform="translate(1241.251953 0)"/>
     <use xlink:href="#DejaVuSans-74" transform="translate(1304.630859 0)"/>
     <use xlink:href="#DejaVuSans-69" transform="translate(1343.839844 0)"/>
     <use xlink:href="#DejaVuSans-6e" transform="translate(1371.623047 0)"/>
     <use xlink:href="#DejaVuSans-75" transform="translate(1435.001953 0)"/>
     <use xlink:href="#DejaVuSans-6f" transform="translate(1498.380859 0)"/>
     <use xlink:href="#DejaVuSans-75" transform="translate(1559.5625 0)"/>
     <use xlink:href="#DejaVuSans-73" transform="translate(1622.941406 0)"/>
     <use xlink:href="#DejaVuSans-20" transform="translate(1675.041016 0)"/>
     <use xlink:href="#DejaVuSans-63" transform="translate(1706.828125 0)"/>
     <use xlink:href="#DejaVuSans-6f" transform="translate(1761.808594 0)"/>
     <use xlink:href="#DejaVuSans-6e" transform="translate(1822.990234 0)"/>
     <use xlink:href="#DejaVuSans-64" transform="translate(1886.369141 0)"/>
     <use xlink:href="#DejaVuSans-75" transform="translate(1949.845703 0)"/>
     <use xlink:href="#DejaVuSans-63" transform="translate(2013.224609 0)"/>
     <use xlink:href="#DejaVuSans-74" transform="translate(2068.205078 0)"/>
     <use xlink:href="#DejaVuSans-69" transform="translate(2107.414062 0)"/>
     <use xlink:href="#DejaVuSans-6f" transform="translate(2135.197266 0)"/>
     <use xlink:href="#DejaVuSans-6e" transform="translate(2196.378906 0)"/>
     <use xlink:href="#DejaVuSans-29" transform="translate(2259.757812 0)"/>
    </g>
   </g>
   <g id="text_4">
    <!-- AP propagation — unmyelinated axon -->
    <g style="fill: #1f2328" transform="translate(129.096328 14.418516) scale(0.095 -0.095)">
     <defs>
      <path id="DejaVuSans-41" d="M 2188 4044 
L 1331 1722 
L 3047 1722 
L 2188 4044 
z
M 1831 4666 
L 2547 4666 
L 4325 0 
L 3669 0 
L 3244 1197 
L 1141 1197 
L 716 0 
L 50 0 
L 1831 4666 
z
" transform="scale(0.015625)"/>
      <path id="DejaVuSans-50" d="M 1259 4147 
L 1259 2394 
L 2053 2394 
Q 2494 2394 2734 2622 
Q 2975 2850 2975 3272 
Q 2975 3691 2734 3919 
Q 2494 4147 2053 4147 
L 1259 4147 
z
M 628 4666 
L 2053 4666 
Q 2838 4666 3239 4311 
Q 3641 3956 3641 3272 
Q 3641 2581 3239 2228 
Q 2838 1875 2053 1875 
L 1259 1875 
L 1259 0 
L 628 0 
L 628 4666 
z
" transform="scale(0.015625)"/>
      <path id="DejaVuSans-67" d="M 2906 1791 
Q 2906 2416 2648 2759 
Q 2391 3103 1925 3103 
Q 1463 3103 1205 2759 
Q 947 2416 947 1791 
Q 947 1169 1205 825 
Q 1463 481 1925 481 
Q 2391 481 2648 825 
Q 2906 1169 2906 1791 
z
M 3481 434 
Q 3481 -459 3084 -895 
Q 2688 -1331 1869 -1331 
Q 1566 -1331 1297 -1286 
Q 1028 -1241 775 -1147 
L 775 -588 
Q 1028 -725 1275 -790 
Q 1522 -856 1778 -856 
Q 2344 -856 2625 -561 
Q 2906 -266 2906 331 
L 2906 616 
Q 2728 306 2450 153 
Q 2172 0 1784 0 
Q 1141 0 747 490 
Q 353 981 353 1791 
Q 353 2603 747 3093 
Q 1141 3584 1784 3584 
Q 2172 3584 2450 3431 
Q 2728 3278 2906 2969 
L 2906 3500 
L 3481 3500 
L 3481 434 
z
" transform="scale(0.015625)"/>
      <path id="DejaVuSans-2014" d="M 313 1978 
L 6088 1978 
L 6088 1528 
L 313 1528 
L 313 1978 
z
" transform="scale(0.015625)"/>
      <path id="DejaVuSans-6d" d="M 3328 2828 
Q 3544 3216 3844 3400 
Q 4144 3584 4550 3584 
Q 5097 3584 5394 3201 
Q 5691 2819 5691 2113 
L 5691 0 
L 5113 0 
L 5113 2094 
Q 5113 2597 4934 2840 
Q 4756 3084 4391 3084 
Q 3944 3084 3684 2787 
Q 3425 2491 3425 1978 
L 3425 0 
L 2847 0 
L 2847 2094 
Q 2847 2600 2669 2842 
Q 2491 3084 2119 3084 
Q 1678 3084 1418 2786 
Q 1159 2488 1159 1978 
L 1159 0 
L 581 0 
L 581 3500 
L 1159 3500 
L 1159 2956 
Q 1356 3278 1631 3431 
Q 1906 3584 2284 3584 
Q 2666 3584 2933 3390 
Q 3200 3197 3328 2828 
z
" transform="scale(0.015625)"/>
      <path id="DejaVuSans-78" d="M 3513 3500 
L 2247 1797 
L 3578 0 
L 2900 0 
L 1881 1375 
L 863 0 
L 184 0 
L 1544 1831 
L 300 3500 
L 978 3500 
L 1906 2253 
L 2834 3500 
L 3513 3500 
z
" transform="scale(0.015625)"/>
     </defs>
     <use xlink:href="#DejaVuSans-41"/>
     <use xlink:href="#DejaVuSans-50" transform="translate(68.408203 0)"/>
     <use xlink:href="#DejaVuSans-20" transform="translate(128.710938 0)"/>
     <use xlink:href="#DejaVuSans-70" transform="translate(160.498047 0)"/>
     <use xlink:href="#DejaVuSans-72" transform="translate(223.974609 0)"/>
     <use xlink:href="#DejaVuSans-6f" transform="translate(262.837891 0)"/>
     <use xlink:href="#DejaVuSans-70" transform="translate(324.019531 0)"/>
     <use xlink:href="#DejaVuSans-61" transform="translate(387.496094 0)"/>
     <use xlink:href="#DejaVuSans-67" transform="translate(448.775391 0)"/>
     <use xlink:href="#DejaVuSans-61" transform="translate(512.251953 0)"/>
     <use xlink:href="#DejaVuSans-74" transform="translate(573.53125 0)"/>
     <use xlink:href="#DejaVuSans-69" transform="translate(612.740234 0)"/>
     <use xlink:href="#DejaVuSans-6f" transform="translate(640.523438 0)"/>
     <use xlink:href="#DejaVuSans-6e" transform="translate(701.705078 0)"/>
     <use xlink:href="#DejaVuSans-20" transform="translate(765.083984 0)"/>
     <use xlink:href="#DejaVuSans-2014" transform="translate(796.871094 0)"/>
     <use xlink:href="#DejaVuSans-20" transform="translate(896.871094 0)"/>
     <use xlink:href="#DejaVuSans-75" transform="translate(928.658203 0)"/>
     <use xlink:href="#DejaVuSans-6e" transform="translate(992.037109 0)"/>
     <use xlink:href="#DejaVuSans-6d" transform="translate(1055.416016 0)"/>
     <use xlink:href="#DejaVuSans-79" transform="translate(1152.828125 0)"/>
     <use xlink:href="#DejaVuSans-65" transform="translate(1212.007812 0)"/>
     <use xlink:href="#DejaVuSans-6c" transform="translate(1273.53125 0)"/>
     <use xlink:href="#DejaVuSans-69" transform="translate(1301.314453 0)"/>
     <use xlink:href="#DejaVuSans-6e" transform="translate(1329.097656 0)"/>
     <use xlink:href="#DejaVuSans-61" transform="translate(1392.476562 0)"/>
     <use xlink:href="#DejaVuSans-74" transform="translate(1453.755859 0)"/>
     <use xlink:href="#DejaVuSans-65" transform="translate(1492.964844 0)"/>
     <use xlink:href="#DejaVuSans-64" transform="translate(1554.488281 0)"/>
     <use xlink:href="#DejaVuSans-20" transform="translate(1617.964844 0)"/>
     <use xlink:href="#DejaVuSans-61" transform="translate(1649.751953 0)"/>
     <use xlink:href="#DejaVuSans-78" transform="translate(1711.03125 0)"/>
     <use xlink:href="#DejaVuSans-6f" transform="translate(1767.085938 0)"/>
     <use xlink:href="#DejaVuSans-6e" transform="translate(1828.267578 0)"/>
    </g>
   </g>
  </g>
 </g>
 <defs>
  <clipPath id="pd15903884e">
   <rect x="7.2" y="18.418516" width="423.5" height="239.5"/>
  </clipPath>
 </defs>
</svg>
