<?xml version="1.0" encoding="utf-8" standalone="no"?>
<!DOCTYPE svg PUBLIC "-//W3C//DTD SVG 1.1//EN"
  "http://www.w3.org/Graphics/SVG/1.1/DTD/svg11.dtd">
<svg xmlns:xlink="http://www.w3.org/1999/xlink" width="437.9pt" height="265.118516pt" viewBox="0 0 437.9 265.118516" xmlns="http://www.w3.org/2000/svg" version="1.1">
 <metadata>
  <rdf:RDF xmlns:dc="http://purl.org/dc/elements/1.1/" xmlns:cc="http://creativecommons.org/ns#" xmlns:rdf="http://www.w3.org/1999/02/22-rdf-syntax-ns#">
   <cc:Work>
    <dc:type rdf:resource="http://purl.org/dc/dcmitype/StillImage"/>
    <dc:date>2023-11-14T22:13:20+00:00</dc:date>
    <dc:format>image/svg+xml</dc:format>
    <dc:creator>
     <cc:Agent>
      <dc:title>Matplotlib v3.10.8, https://matplotlib.org/</dc:title>
     </cc:Agent>
    </dc:creator>
   </cc:Work>
  </rdf:RDF>
 </metadata>
 <defs>
  <style type="text/css">*{stroke-linejoin: round; stroke-linecap: butt}</style>
 </defs>
 <g id="figure_1">
  <g id="patch_1">
   <path d="M 0 265.118516 
L 437.9 265.118516 
L 437.9 0 
L 0 0 
z
" style="fill: #fafbfc"/>
  </g>
  <g id="axes_1">
   <g id="patch_2">
    <path d="M 7.2 257.918516 
L 430.7 257.918516 
L 430.7 18.418516 
L 7.2 18.418516 
z
" style="fill: #fafbfc"/>
   </g>
   <g id="patch_3">
    <path d="M 32.61 148.147682 
L 405.29 148.147682 
Q 413.76 148.147682 413.76 140.164349 
L 413.76 136.172682 
Q 413.76 128.189349 405.29 128.189349 
L 32.61 128.189349 
Q 24.14 128.189349 24.14 136.172682 
L 24.14 140.164349 
Q 24.14 148.147682 32.61 148.147682 
z
" clip-path="url(#pd15903884e)" style="fill: #d0d7de; stroke: #57606a; stroke-width: 0.6; stroke-linejoin: miter"/>
   </g>
   <g id="patch_4">
    <path d="M 53.785 162.118516 
L 121.545 162.118516 
Q 134.25 162.118516 134.25 150.143516 
L 134.25 126.193516 
Q 134.25 114.218516 121.545 114.218516 
L 53.785 114.218516 
Q 41.08 114.218516 41.08 126.193516 
L 41.08 150.143516 
Q 41.08 162.118516 53.785 162.118516 
z
" clip-path="url(#pd15903884e)" style="fill: #fafbfc; stroke: #57606a; stroke-linejoin: miter"/>
   </g>
   <g id="patch_5">
    <path d="M 138.485 162.118516 
L 206.245 162.118516 
Q 218.95 162.118516 218.95 150.143516 
L 218.95 126.193516 
Q 218.95 114.218516 206.245 114.218516 
L 138.485 114.218516 
Q 125.78 114.218516 125.78 126.193516 
L 125.78 150.143516 
Q 125.78 162.118516 138.485 162.118516 
z
" clip-path="url(#pd15903884e)" style="fill: #fafbfc; stroke: #57606a; stroke-linejoin: miter"/>
   </g>
   <g id="patch_6">
    <path d="M 231.655 162.118516 
L 299.415 162.118516 
Q 312.12 162.118516 312.12 150.143516 
L 312.12 126.193516 
Q 312.12 114.218516 299.415 114.218516 
L 231.655 114.218516 
Q 218.95 114.218516 218.95 126.193516 
L 218.95 150.143516 
Q 218.95 162.118516 231.655 162.118516 
z
" clip-path="url(#pd15903884e)" style="fill: #fafbfc; stroke: #57606a; stroke-linejoin: miter"/>
   </g>
   <g id="patch_7">
    <path d="M 324.825 162.118516 
L 392.585 162.118516 
Q 405.29 162.118516 405.29 150.143516 
L 405.29 126.193516 
Q 405.29 114.218516 392.585 114.218516 
L 324.825 114.218516 
Q 312.12 114.218516 312.12 126.193516 
L 312.12 150.143516 
Q 312.12 162.118516 324.825 162.118516 
z
" clip-path="url(#pd15903884e)" style="fill: #fafbfc; stroke: #57606a; stroke-linejoin: miter"/>
   </g>
   <g id="patch_8">
    <path d="M 100.37 150.143516 
C 103.739405 150.143516 106.971262 148.881754 109.353792 146.636119 
C 111.736321 144.390485 113.075 141.344323 113.075 138.168516 
C 113.075 134.992709 111.736321 131.946547 109.353792 129.700912 
C 106.971262 127.455277 103.739405 126.193516 100.37 126.193516 
C 97.000595 126.193516 93.768738 127.455277 91.386208 129.700912 
C 89.003679 131.946547 87.665 134.992709 87.665 138.168516 
C 87.665 141.344323 89.003679 144.390485 91.386208 146.636119 
C 93.768738 148.881754 97.000595 150.143516 100.37 150.143516 
z
" clip-path="url(#pd15903884e)" style="fill: #8c959f; opacity: 0.4"/>
   </g>
   <g id="patch_9">
    <path d="M 193.54 150.143516 
C 196.909405 150.143516 200.141262 148.881754 202.523792 146.636119 
C 204.906321 144.390485 206.245 141.344323 206.245 138.168516 
C 206.245 134.992709 204.906321 131.946547 202.523792 129.700912 
C 200.141262 127.455277 196.909405 126.193516 193.54 126.193516 
C 190.170595 126.193516 186.938738 127.455277 184.556208 129.700912 
C 182.173679 131.946547 180.835 134.992709 180.835 138.168516 
C 180.835 141.344323 182.173679 144.390485 184.556208 146.636119 
C 186.938738 148.881754 190.170595 150.143516 193.54 150.143516 
z
" clip-path="url(#pd15903884e)" style="fill: #4477aa"/>
   </g>
   <g id="patch_10">
    <path d="M 286.71 150.143516 
C 290.079405 150.143516 293.311262 148.881754 295.693792 146.636119 
C 298.076321 144.390485 299.415 141.344323 299.415 138.168516 
C 299.415 134.992709 298.076321 131.946547 295.693792 129.700912 
C 293.311262 127.455277 290.079405 126.193516 286.71 126.193516 
C 283.340595 126.193516 280.108738 127.455277 277.726208 129.700912 
C 275.343679 131.946547 274.005 134.992709 274.005 138.168516 
C 274.005 141.344323 275.343679 144.390485 277.726208 146.636119 
C 280.108738 148.881754 283.340595 150.143516 286.71 150.143516 
z
" clip-path="url(#pd15903884e)" style="fill: #4477aa; opacity: 0.45"/>
   </g>
   <g id="patch_11">
    <path d="M 379.88 150.143516 
C 383.249405 150.143516 386.481262 148.881754 388.863792 146.636119 
C 391.246321 144.390485 392.585 141.344323 392.585 138.168516 
C 392.585 134.992709 391.246321 131.946547 388.863792 129.700912 
C 386.481262 127.455277 383.249405 126.193516 379.88 126.193516 
C 376.510595 126.193516 373.278738 127.455277 370.896208 129.700912 
C 368.513679 131.946547 367.175 134.992709 367.175 138.168516 
C 367.175 141.344323 368.513679 144.390485 370.896208 146.636119 
C 373.278738 148.881754 376.510595 150.143516 379.88 150.143516 
z
" clip-path="url(#pd15903884e)" style="fill: #8c959f; opacity: 0.4"/>
   </g>
   <g id="matplotlib.axis_1"/>
   <g id="matplotlib.axis_2"/>
   <g id="text_1">
    <!-- N1 -->
    <g style="fill: #57606a" transform="translate(95.524687 177.416589) scale(0.07 -0.07)">
     <defs>
      <path id="DejaVuSans-4e" d="M 628 4666 
L 1478 4666 
L 3547 763 
L 3547 4666 
L 4159 4666 
L 4159 0 
L 3309 0 
L 1241 3903 
L 1241 0 
L 628 0 
L 628 4666 
z
" transform="scale(0.015625)"/>
      <path id="DejaVuSans-31" d="M 794 531 
L 1825 531 
L 1825 4091 
L 703 3866 
L 703 4441 
L 1819 4666 
L 2450 4666 
L 2450 531 
L 3481 531 
L 3481 0 
L 794 0 
L 794 531 
z
" transform="scale(0.015625)"/>
     </defs>
     <use xlink:href="#DejaVuSans-4e"/>
     <use xlink:href="#DejaVuSans-31" transform="translate(74.804688 0)"/>
    </g>
   </g>
   <g id="text_2">
    <!-- N2 -->
    <g style="fill: #57606a" transform="translate(188.694687 177.416589) scale(0.07 -0.07)">
     <defs>
      <path id="DejaVuSans-32" d="M 1228 531 
L 3431 531 
L 3431 0 
L 469 0 
L 469 531 
Q 828 903 1448 1529 
Q 2069 2156 2228 2338 
Q 2531 2678 2651 2914 
Q 2772 3150 2772 3378 
Q 2772 3750 2511 3984 
Q 2250 4219 1831 4219 
Q 1534 4219 1204 4116 
Q 875 4013 500 3803 
L 500 4441 
Q 881 4594 1212 4672 
Q 1544 4750 1819 4750 
Q 2544 4750 2975 4387 
Q 3406 4025 3406 3419 
Q 3406 3131 3298 2873 
Q 3191 2616 2906 2266 
Q 2828 2175 2409 1742 
Q 1991 1309 1228 531 
z
" transform="scale(0.015625)"/>
     </defs>
     <use xlink:href="#DejaVuSans-4e"/>
     <use xlink:href="#DejaVuSans-32" transform="translate(74.804688 0)"/>
    </g>
   </g>
   <g id="text_3">
    <!-- N3 -->
    <g style="fill: #57606a" transform="translate(281.864688 177.416589) scale(0.07 -0.07)">
     <defs>
      <path id="DejaVuSans-33" d="M 2597 2516 
Q 3050 2419 3304 2112 
Q 3559 1806 3559 1356 
Q 3559 666 3084 287 
Q 2609 -91 1734 -91 
Q 1441 -91 1130 -33 
Q 819 25 488 141 
L 488 750 
Q 750 597 1062 519 
Q 1375 441 1716 441 
Q 2309 441 2620 675 
Q 2931 909 2931 1356 
Q 2931 1769 2642 2001 
Q 2353 2234 1838 2234 
L 1294 2234 
L 1294 2753 
L 1863 2753 
Q 2328 2753 2575 2939 
Q 2822 3125 2822 3475 
Q 2822 3834 2567 4026 
Q 2313 4219 1838 4219 
Q 1578 4219 1281 4162 
Q 984 4106 628 3988 
L 628 4550 
Q 988 4650 1302 4700 
Q 1616 4750 1894 4750 
Q 2613 4750 3031 4423 
Q 3450 4097 3450 3541 
Q 3450 3153 3228 2886 
Q 3006 2619 2597 2516 
z
" transform="scale(0.015625)"/>
     </defs>
     <use xlink:href="#DejaVuSans-4e"/>
     <use xlink:href="#DejaVuSans-33" transform="translate(74.804688 0)"/>
    </g>
   </g>
   <g id="text_4">
    <!-- N4 -->
    <g style="fill: #57606a" transform="translate(375.034688 177.416589) scale(0.07 -0.07)">
     <defs>
      <path id="DejaVuSans-34" d="M 2419 4116 
L 825 1625 
L 2419 1625 
L 2419 4116 
z
M 2253 4666 
L 3047 4666 
L 3047 1625 
L 3713 1625 
L 3713 1100 
L 3047 1100 
L 3047 0 
L 2419 0 
L 2419 1100 
L 313 1100 
L 313 1709 
L 2253 4666 
z
" transform="scale(0.015625)"/>
     </defs>
     <use xlink:href="#DejaVuSans-4e"/>
     <use xlink:href="#DejaVuSans-34" transform="translate(74.804688 0)"/>
    </g>
   </g>
   <g id="patch_12">
    <path d="M 207.895161 105.1082 
Q 240.124918 83.646219 270.679615 103.992665 
" style="fill: none; stroke: #ccbb44; stroke-width: 1.8; stroke-linecap: round"/>
    <path d="M 267.570417 98.558248 
L 270.679615 103.992665 
L 264.466563 103.219373 
z
" style="fill: #ccbb44; stroke: #ccbb44; stroke-width: 1.8; stroke-linecap: round"/>
   </g>
   <g id="text_5">
    <!-- saltatory jump -->
    <g style="fill: #ccbb44" transform="translate(207.18 72.486432) scale(0.08 -0.08)">
     <defs>
      <path id="DejaVuSans-Bold-73" d="M 3272 3391 
L 3272 2541 
Q 2913 2691 2578 2766 
Q 2244 2841 1947 2841 
Q 1628 2841 1473 2761 
Q 1319 2681 1319 2516 
Q 1319 2381 1436 2309 
Q 1553 2238 1856 2203 
L 2053 2175 
Q 2913 2066 3209 1816 
Q 3506 1566 3506 1031 
Q 3506 472 3093 190 
Q 2681 -91 1863 -91 
Q 1516 -91 1145 -36 
Q 775 19 384 128 
L 384 978 
Q 719 816 1070 734 
Q 1422 653 1784 653 
Q 2113 653 2278 743 
Q 2444 834 2444 1013 
Q 2444 1163 2330 1236 
Q 2216 1309 1875 1350 
L 1678 1375 
Q 931 1469 631 1722 
Q 331 1975 331 2491 
Q 331 3047 712 3315 
Q 1094 3584 1881 3584 
Q 2191 3584 2531 3537 
Q 2872 3491 3272 3391 
z
" transform="scale(0.015625)"/>
      <path id="DejaVuSans-Bold-61" d="M 2106 1575 
Q 1756 1575 1579 1456 
Q 1403 1338 1403 1106 
Q 1403 894 1545 773 
Q 1688 653 1941 653 
Q 2256 653 2472 879 
Q 2688 1106 2688 1447 
L 2688 1575 
L 2106 1575 
z
M 3816 1997 
L 3816 0 
L 2688 0 
L 2688 519 
Q 2463 200 2181 54 
Q 1900 -91 1497 -91 
Q 953 -91 614 226 
Q 275 544 275 1050 
Q 275 1666 698 1953 
Q 1122 2241 2028 2241 
L 2688 2241 
L 2688 2328 
Q 2688 2594 2478 2717 
Q 2269 2841 1825 2841 
Q 1466 2841 1156 2769 
Q 847 2697 581 2553 
L 581 3406 
Q 941 3494 1303 3539 
Q 1666 3584 2028 3584 
Q 2975 3584 3395 3211 
Q 3816 2838 3816 1997 
z
" transform="scale(0.015625)"/>
      <path id="DejaVuSans-Bold-6c" d="M 538 4863 
L 1656 4863 
L 1656 0 
L 538 0 
L 538 4863 
z
" transform="scale(0.015625)"/>
      <path id="DejaVuSans-Bold-74" d="M 1759 4494 
L 1759 3500 
L 2913 3500 
L 2913 2700 
L 1759 2700 
L 1759 1216 
Q 1759 972 1856 886 
Q 1953 800 2241 800 
L 2816 800 
L 2816 0 
L 1856 0 
Q 1194 0 917 276 
Q 641 553 641 1216 
L 641 2700 
L 84 2700 
L 84 3500 
L 641 3500 
L 641 4494 
L 1759 4494 
z
" transform="scale(0.015625)"/>
      <path id="DejaVuSans-Bold-6f" d="M 2203 2784 
Q 1831 2784 1636 2517 
Q 1441 2250 1441 1747 
Q 1441 1244 1636 976 
Q 1831 709 2203 709 
Q 2569 709 2762 976 
Q 2956 1244 2956 1747 
Q 2956 2250 2762 2517 
Q 2569 2784 2203 2784 
z
M 2203 3584 
Q 3106 3584 3614 3096 
Q 4122 2609 4122 1747 
Q 4122 884 3614 396 
Q 3106 -91 2203 -91 
Q 1297 -91 786 396 
Q 275 884 275 1747 
Q 275 2609 786 3096 
Q 1297 3584 2203 3584 
z
" transform="scale(0.015625)"/>
      <path id="DejaVuSans-Bold-72" d="M 3138 2547 
Q 2991 2616 2845 2648 
Q 2700 2681 2553 2681 
Q 2122 2681 1889 2404 
Q 1656 2128 1656 1613 
L 1656 0 
L 538 0 
L 538 3500 
L 1656 3500 
L 1656 2925 
Q 1872 3269 2151 3426 
Q 2431 3584 2822 3584 
Q 2878 3584 2943 3579 
Q 3009 3575 3134 3559 
L 3138 2547 
z
" transform="scale(0.015625)"/>
      <path id="DejaVuSans-Bold-79" d="M 78 3500 
L 1197 3500 
L 2138 1125 
L 2938 3500 
L 4056 3500 
L 2584 -331 
Q 2363 -916 2067 -1148 
Q 1772 -1381 1288 -1381 
L 641 -1381 
L 641 -647 
L 991 -647 
Q 1275 -647 1404 -556 
Q 1534 -466 1606 -231 
L 1638 -134 
L 78 3500 
z
" transform="scale(0.015625)"/>
      <path id="DejaVuSans-Bold-20" transform="scale(0.015625)"/>
      <path id="DejaVuSans-Bold-6a" d="M 538 3500 
L 1656 3500 
L 1656 63 
Q 1656 -641 1318 -1011 
Q 981 -1381 341 -1381 
L -213 -1381 
L -213 -647 
L -19 -647 
Q 300 -647 419 -503 
Q 538 -359 538 63 
L 538 3500 
z
M 538 4863 
L 1656 4863 
L 1656 3950 
L 538 3950 
L 538 4863 
z
" transform="scale(0.015625)"/>
      <path id="DejaVuSans-Bold-75" d="M 500 1363 
L 500 3500 
L 1625 3500 
L 1625 3150 
Q 1625 2866 1622 2436 
Q 1619 2006 1619 1863 
Q 1619 1441 1641 1255 
Q 1663 1069 1716 984 
Q 1784 875 1895 815 
Q 2006 756 2150 756 
Q 2500 756 2700 1025 
Q 2900 1294 2900 1772 
L 2900 3500 
L 4019 3500 
L 4019 0 
L 2900 0 
L 2900 506 
Q 2647 200 2364 54 
Q 2081 -91 1741 -91 
Q 1134 -91 817 281 
Q 500 653 500 1363 
z
" transform="scale(0.015625)"/>
      <path id="DejaVuSans-Bold-6d" d="M 3781 2919 
Q 3994 3244 4286 3414 
Q 4578 3584 4928 3584 
Q 5531 3584 5847 3212 
Q 6163 2841 6163 2131 
L 6163 0 
L 5038 0 
L 5038 1825 
Q 5041 1866 5042 1909 
Q 5044 1953 5044 2034 
Q 5044 2406 4934 2573 
Q 4825 2741 4581 2741 
Q 4263 2741 4089 2478 
Q 3916 2216 3909 1719 
L 3909 0 
L 2784 0 
L 2784 1825 
Q 2784 2406 2684 2573 
Q 2584 2741 2328 2741 
Q 2006 2741 1831 2477 
Q 1656 2213 1656 1722 
L 1656 0 
L 531 0 
L 531 3500 
L 1656 3500 
L 1656 2988 
Q 1863 3284 2130 3434 
Q 2397 3584 2719 3584 
Q 3081 3584 3359 3409 
Q 3638 3234 3781 2919 
z
" transform="scale(0.015625)"/>
      <path id="DejaVuSans-Bold-70" d="M 1656 506 
L 1656 -1331 
L 538 -1331 
L 538 3500 
L 1656 3500 
L 1656 2988 
Q 1888 3294 2169 3439 
Q 2450 3584 2816 3584 
Q 3463 3584 3878 3070 
Q 4294 2556 4294 1747 
Q 4294 938 3878 423 
Q 3463 -91 2816 -91 
Q 2450 -91 2169 54 
Q 1888 200 1656 506 
z
M 2400 2772 
Q 2041 2772 1848 2508 
Q 1656 2244 1656 1747 
Q 1656 1250 1848 986 
Q 2041 722 2400 722 
Q 2759 722 2948 984 
Q 3138 1247 3138 1747 
Q 3138 2247 2948 2509 
Q 2759 2772 2400 2772 
z
" transform="scale(0.015625)"/>
     </defs>
     <use xlink:href="#DejaVuSans-Bold-73"/>
     <use xlink:href="#DejaVuSans-Bold-61" transform="translate(59.521484 0)"/>
     <use xlink:href="#DejaVuSans-Bold-6c" transform="translate(127.001953 0)"/>
     <use xlink:href="#DejaVuSans-Bold-74" transform="translate(161.279297 0)"/>
     <use xlink:href="#DejaVuSans-Bold-61" transform="translate(209.082031 0)"/>
     <use xlink:href="#DejaVuSans-Bold-74" transform="translate(276.5625 0)"/>
     <use xlink:href="#DejaVuSans-Bold-6f" transform="translate(324.365234 0)"/>
     <use xlink:href="#DejaVuSans-Bold-72" transform="translate(393.066406 0)"/>
     <use xlink:href="#DejaVuSans-Bold-79" transform="translate(442.382812 0)"/>
     <use xlink:href="#DejaVuSans-Bold-20" transform="translate(507.568359 0)"/>
     <use xlink:href="#DejaVuSans-Bold-6a" transform="translate(542.382812 0)"/>
     <use xlink:href="#DejaVuSans-Bold-75" transform="translate(576.660156 0)"/>
     <use xlink:href="#DejaVuSans-Bold-6d" transform="translate(647.851562 0)"/>
     <use xlink:href="#DejaVuSans-Bold-70" transform="translate(752.050781 0)"/>
    </g>
   </g>
   <g id="patch_13">
    <path d="M 114.725161 105.1082 
Q 146.954918 83.646219 178.347145 104.550378 
" style="fill: none; opacity: 0.55; stroke: #8c959f; stroke-width: 0.9; stroke-linecap: round"/>
    <path d="M 176.12629 100.668651 
L 178.347145 104.550378 
L 173.909251 103.998027 
z
" style="fill: #8c959f; opacity: 0.55; stroke: #8c959f; stroke-width: 0.9; stroke-linecap: round"/>
   </g>
   <g id="patch_14">
    <path d="M 301.065161 105.1082 
Q 333.294918 83.646219 364.687145 104.550378 
" style="fill: none; opacity: 0.55; stroke: #8c959f; stroke-width: 0.9; stroke-linecap: round"/>
    <path d="M 362.46629 100.668651 
L 364.687145 104.550378 
L 360.249251 103.998027 
z
" style="fill: #8c959f; opacity: 0.55; stroke: #8c959f; stroke-width: 0.9; stroke-linecap: round"/>
   </g>
   <g id="text_6">
    <!-- myelin sheath -->
    <g style="fill: #57606a" transform="translate(61.051133 191.767344) scale(0.075 -0.075)">
     <defs>
      <path id="DejaVuSans-6d" d="M 3328 2828 
Q 3544 3216 3844 3400 
Q 4144 3584 4550 3584 
Q 5097 3584 5394 3201 
Q 5691 2819 5691 2113 
L 5691 0 
L 5113 0 
L 5113 2094 
Q 5113 2597 4934 2840 
Q 4756 3084 4391 3084 
Q 3944 3084 3684 2787 
Q 3425 2491 3425 1978 
L 3425 0 
L 2847 0 
L 2847 2094 
Q 2847 2600 2669 2842 
Q 2491 3084 2119 3084 
Q 1678 3084 1418 2786 
Q 1159 2488 1159 1978 
L 1159 0 
L 581 0 
L 581 3500 
L 1159 3500 
L 1159 2956 
Q 1356 3278 1631 3431 
Q 1906 3584 2284 3584 
Q 2666 3584 2933 3390 
Q 3200 3197 3328 2828 
z
" transform="scale(0.015625)"/>
      <path id="DejaVuSans-79" d="M 2059 -325 
Q 1816 -950 1584 -1140 
Q 1353 -1331 966 -1331 
L 506 -1331 
L 506 -850 
L 844 -850 
Q 1081 -850 1212 -737 
Q 1344 -625 1503 -206 
L 1606 56 
L 191 3500 
L 800 3500 
L 1894 763 
L 2988 3500 
L 3597 3500 
L 2059 -325 
z
" transform="scale(0.015625)"/>
      <path id="DejaVuSans-65" d="M 3597 1894 
L 3597 1613 
L 953 1613 
Q 991 1019 1311 708 
Q 1631 397 2203 397 
Q 2534 397 2845 478 
Q 3156 559 3463 722 
L 3463 178 
Q 3153 47 2828 -22 
Q 2503 -91 2169 -91 
Q 1331 -91 842 396 
Q 353 884 353 1716 
Q 353 2575 817 3079 
Q 1281 3584 2069 3584 
Q 2775 3584 3186 3129 
Q 3597 2675 3597 1894 
z
M 3022 2063 
Q 3016 2534 2758 2815 
Q 2500 3097 2075 3097 
Q 1594 3097 1305 2825 
Q 1016 2553 972 2059 
L 3022 2063 
z
" transform="scale(0.015625)"/>
      <path id="DejaVuSans-6c" d="M 603 4863 
L 1178 4863 
L 1178 0 
L 603 0 
L 603 4863 
z
" transform="scale(0.015625)"/>
      <path id="DejaVuSans-69" d="M 603 3500 
L 1178 3500 
L 1178 0 
L 603 0 
L 603 3500 
z
M 603 4863 
L 1178 4863 
L 1178 4134 
L 603 4134 
L 603 4863 
z
" transform="scale(0.015625)"/>
      <path id="DejaVuSans-6e" d="M 3513 2113 
L 3513 0 
L 2938 0 
L 2938 2094 
Q 2938 2591 2744 2837 
Q 2550 3084 2163 3084 
Q 1697 3084 1428 2787 
Q 1159 2491 1159 1978 
L 1159 0 
L 581 0 
L 581 3500 
L 1159 3500 
L 1159 2956 
Q 1366 3272 1645 3428 
Q 1925 3584 2291 3584 
Q 2894 3584 3203 3211 
Q 3513 2838 3513 2113 
z
" transform="scale(0.015625)"/>
      <path id="DejaVuSans-20" transform="scale(0.015625)"/>
      <path id="DejaVuSans-73" d="M 2834 3397 
L 2834 2853 
Q 2591 2978 2328 3040 
Q 2066 3103 1784 3103 
Q 1356 3103 1142 2972 
Q 928 2841 928 2578 
Q 928 2378 1081 2264 
Q 1234 2150 1697 2047 
L 1894 2003 
Q 2506 1872 2764 1633 
Q 3022 1394 3022 966 
Q 3022 478 2636 193 
Q 2250 -91 1575 -91 
Q 1294 -91 989 -36 
Q 684 19 347 128 
L 347 722 
Q 666 556 975 473 
Q 1284 391 1588 391 
Q 1994 391 2212 530 
Q 2431 669 2431 922 
Q 2431 1156 2273 1281 
Q 2116 1406 1581 1522 
L 1381 1569 
Q 847 1681 609 1914 
Q 372 2147 372 2553 
Q 372 3047 722 3315 
Q 1072 3584 1716 3584 
Q 2034 3584 2315 3537 
Q 2597 3491 2834 3397 
z
" transform="scale(0.015625)"/>
      <path id="DejaVuSans-68" d="M 3513 2113 
L 3513 0 
L 2938 0 
L 2938 2094 
Q 2938 2591 2744 2837 
Q 2550 3084 2163 3084 
Q 1697 3084 1428 2787 
Q 1159 2491 1159 1978 
L 1159 0 
L 581 0 
L 581 4863 
L 1159 4863 
L 1159 2956 
Q 1366 3272 1645 3428 
Q 1925 3584 2291 3584 
Q 2894 3584 3203 3211 
Q 3513 2838 3513 2113 
z
" transform="scale(0.015625)"/>
      <path id="DejaVuSans-61" d="M 2194 1759 
Q 1497 1759 1228 1600 
Q 959 1441 959 1056 
Q 959 750 1161 570 
Q 1363 391 1709 391 
Q 2188 391 2477 730 
Q 2766 1069 2766 1631 
L 2766 1759 
L 2194 1759 
z
M 3341 1997 
L 3341 0 
L 2766 0 
L 2766 531 
Q 2569 213 2275 61 
Q 1981 -91 1556 -91 
Q 1019 -91 701 211 
Q 384 513 384 1019 
Q 384 1609 779 1909 
Q 1175 2209 1959 2209 
L 2766 2209 
L 2766 2266 
Q 2766 2663 2505 2880 
Q 2244 3097 1772 3097 
Q 1472 3097 1187 3025 
Q 903 2953 641 2809 
L 641 3341 
Q 956 3463 1253 3523 
Q 1550 3584 1831 3584 
Q 2591 3584 2966 3190 
Q 3341 2797 3341 1997 
z
" transform="scale(0.015625)"/>
      <path id="DejaVuSans-74" d="M 1172 4494 
L 1172 3500 
L 2356 3500 
L 2356 3053 
L 1172 3053 
L 1172 1153 
Q 1172 725 1289 603 
Q 1406 481 1766 481 
L 2356 481 
L 2356 0 
L 1766 0 
Q 1100 0 847 248 
Q 594 497 594 1153 
L 594 3053 
L 172 3053 
L 172 3500 
L 594 3500 
L 594 4494 
L 1172 4494 
z
" transform="scale(0.015625)"/>
     </defs>
     <use xlink:href="#DejaVuSans-6d"/>
     <use xlink:href="#DejaVuSans-79" transform="translate(97.412109 0)"/>
     <use xlink:href="#DejaVuSans-65" transform="translate(156.591797 0)"/>
     <use xlink:href="#DejaVuSans-6c" transform="translate(218.115234 0)"/>
     <use xlink:href="#DejaVuSans-69" transform="translate(245.898438 0)"/>
     <use xlink:href="#DejaVuSans-6e" transform="translate(273.681641 0)"/>
     <use xlink:href="#DejaVuSans-20" transform="translate(337.060547 0)"/>
     <use xlink:href="#DejaVuSans-73" transform="translate(368.847656 0)"/>
     <use xlink:href="#DejaVuSans-68" transform="translate(420.947266 0)"/>
     <use xlink:href="#DejaVuSans-65" transform="translate(484.326172 0)"/>
     <use xlink:href="#DejaVuSans-61" transform="translate(545.849609 0)"/>
     <use xlink:href="#DejaVuSans-74" transform="translate(607.128906 0)"/>
     <use xlink:href="#DejaVuSans-68" transform="translate(646.337891 0)"/>
    </g>
   </g>
   <g id="text_7">
    <!-- AP propagation — myelinated axon (saltatory) -->
    <g style="fill: #1f2328" transform="translate(108.890273 14.418516) scale(0.095 -0.095)">
     <defs>
      <path id="DejaVuSans-41" d="M 2188 4044 
L 1331 1722 
L 3047 1722 
L 2188 4044 
z
M 1831 4666 
L 2547 4666 
L 4325 0 
L 3669 0 
L 3244 1197 
L 1141 1197 
L 716 0 
L 50 0 
L 1831 4666 
z
" transform="scale(0.015625)"/>
      <path id="DejaVuSans-50" d="M 1259 4147 
L 1259 2394 
L 2053 2394 
Q 2494 2394 2734 2622 
Q 2975 2850 2975 3272 
Q 2975 3691 2734 3919 
Q 2494 4147 2053 4147 
L 1259 4147 
z
M 628 4666 
L 2053 4666 
Q 2838 4666 3239 4311 
Q 3641 3956 3641 3272 
Q 3641 2581 3239 2228 
Q 2838 1875 2053 1875 
L 1259 1875 
L 1259 0 
L 628 0 
L 628 4666 
z
" transform="scale(0.015625)"/>
      <path id="DejaVuSans-70" d="M 1159 525 
L 1159 -1331 
L 581 -1331 
L 581 3500 
L 1159 3500 
L 1159 2969 
Q 1341 3281 1617 3432 
Q 1894 3584 2278 3584 
Q 2916 3584 3314 3078 
Q 3713 2572 3713 1747 
Q 3713 922 3314 415 
Q 2916 -91 2278 -91 
Q 1894 -91 1617 61 
Q 1341 213 1159 525 
z
M 3116 1747 
Q 3116 2381 2855 2742 
Q 2594 3103 2138 3103 
Q 1681 3103 1420 2742 
Q 1159 2381 1159 1747 
Q 1159 1113 1420 752 
Q 1681 391 2138 391 
Q 2594 391 2855 752 
Q 3116 1113 3116 1747 
z
" transform="scale(0.015625)"/>
      <path id="DejaVuSans-72" d="M 2631 2963 
Q 2534 3019 2420 3045 
Q 2306 3072 2169 3072 
Q 1681 3072 1420 2755 
Q 1159 2438 1159 1844 
L 1159 0 
L 581 0 
L 581 3500 
L 1159 3500 
L 1159 2956 
Q 1341 3275 1631 3429 
Q 1922 3584 2338 3584 
Q 2397 3584 2469 3576 
Q 2541 3569 2628 3553 
L 2631 2963 
z
" transform="scale(0.015625)"/>
      <path id="DejaVuSans-6f" d="M 1959 3097 
Q 1497 3097 1228 2736 
Q 959 2375 959 1747 
Q 959 1119 1226 758 
Q 1494 397 1959 397 
Q 2419 397 2687 759 
Q 2956 1122 2956 1747 
Q 2956 2369 2687 2733 
Q 2419 3097 1959 3097 
z
M 1959 3584 
Q 2709 3584 3137 3096 
Q 3566 2609 3566 1747 
Q 3566 888 3137 398 
Q 2709 -91 1959 -91 
Q 1206 -91 779 398 
Q 353 888 353 1747 
Q 353 2609 779 3096 
Q 1206 3584 1959 3584 
z
" transform="scale(0.015625)"/>
      <path id="DejaVuSans-67" d="M 2906 1791 
Q 2906 2416 2648 2759 
Q 2391 3103 1925 3103 
Q 1463 3103 1205 2759 
Q 947 2416 947 1791 
Q 947 1169 1205 825 
Q 1463 481 1925 481 
Q 2391 481 2648 825 
Q 2906 1169 2906 1791 
z
M 3481 434 
Q 3481 -459 3084 -895 
Q 2688 -1331 1869 -1331 
Q 1566 -1331 1297 -1286 
Q 1028 -1241 775 -1147 
L 775 -588 
Q 1028 -725 1275 -790 
Q 1522 -856 1778 -856 
Q 2344 -856 2625 -561 
Q 2906 -266 2906 331 
L 2906 616 
Q 2728 306 2450 153 
Q 2172 0 1784 0 
Q 1141 0 747 490 
Q 353 981 353 1791 
Q 353 2603 747 3093 
Q 1141 3584 1784 3584 
Q 2172 3584 2450 3431 
Q 2728 3278 2906 2969 
L 2906 3500 
L 3481 3500 
L 3481 434 
z
" transform="scale(0.015625)"/>
      <path id="DejaVuSans-2014" d="M 313 1978 
L 6088 1978 
L 6088 1528 
L 313 1528 
L 313 1978 
z
" transform="scale(0.015625)"/>
      <path id="DejaVuSans-64" d="M 2906 2969 
L 2906 4863 
L 3481 4863 
L 3481 0 
L 2906 0 
L 2906 525 
Q 2725 213 2448 61 
Q 2172 -91 1784 -91 
Q 1150 -91 751 415 
Q 353 922 353 1747 
Q 353 2572 751 3078 
Q 1150 3584 1784 3584 
Q 2172 3584 2448 3432 
Q 2725 3281 2906 2969 
z
M 947 1747 
Q 947 1113 1208 752 
Q 1469 391 1925 391 
Q 2381 391 2643 752 
Q 2906 1113 2906 1747 
Q 2906 2381 2643 2742 
Q 2381 3103 1925 3103 
Q 1469 3103 1208 2742 
Q 947 2381 947 1747 
z
" transform="scale(0.015625)"/>
      <path id="DejaVuSans-78" d="M 3513 3500 
L 2247 1797 
L 3578 0 
L 2900 0 
L 1881 1375 
L 863 0 
L 184 0 
L 1544 1831 
L 300 3500 
L 978 3500 
L 1906 2253 
L 2834 3500 
L 3513 3500 
z
" transform="scale(0.015625)"/>
      <path id="DejaVuSans-28" d="M 1984 4856 
Q 1566 4138 1362 3434 
Q 1159 2731 1159 2009 
Q 1159 1288 1364 580 
Q 1569 -128 1984 -844 
L 1484 -844 
Q 1016 -109 783 600 
Q 550 1309 550 2009 
Q 550 2706 781 3412 
Q 1013 4119 1484 4856 
L 1984 4856 
z
" transform="scale(0.015625)"/>
      <path id="DejaVuSans-29" d="M 513 4856 
L 1013 4856 
Q 1481 4119 1714 3412 
Q 1947 2706 1947 2009 
Q 1947 1309 1714 600 
Q 1481 -109 1013 -844 
L 513 -844 
Q 928 -128 1133 580 
Q 1338 1288 1338 2009 
Q 1338 2731 1133 3434 
Q 928 4138 513 4856 
z
" transform="scale(0.015625)"/>
     </defs>
     <use xlink:href="#DejaVuSans-41"/>
     <use xlink:href="#DejaVuSans-50" transform="translate(68.408203 0)"/>
     <use xlink:href="#DejaVuSans-20" transform="translate(128.710938 0)"/>
     <use xlink:href="#DejaVuSans-70" transform="translate(160.498047 0)"/>
     <use xlink:href="#DejaVuSans-72" transform="translate(223.974609 0)"/>
     <use xlink:href="#DejaVuSans-6f" transform="translate(262.837891 0)"/>
     <use xlink:href="#DejaVuSans-70" transform="translate(324.019531 0)"/>
     <use xlink:href="#DejaVuSans-61" transform="translate(387.496094 0)"/>
     <use xlink:href="#DejaVuSans-67" transform="translate(448.775391 0)"/>
     <use xlink:href="#DejaVuSans-61" transform="translate(512.251953 0)"/>
     <use xlink:href="#DejaVuSans-74" transform="translate(573.53125 0)"/>
     <use xlink:href="#DejaVuSans-69" transform="translate(612.740234 0)"/>
     <use xlink:href="#DejaVuSans-6f" transform="translate(640.523438 0)"/>
     <use xlink:href="#DejaVuSans-6e" transform="translate(701.705078 0)"/>
     <use xlink:href="#DejaVuSans-20" transform="translate(765.083984 0)"/>
     <use xlink:href="#DejaVuSans-2014" transform="translate(796.871094 0)"/>
     <use xlink:href="#DejaVuSans-20" transform="translate(896.871094 0)"/>
     <use xlink:href="#DejaVuSans-6d" transform="translate(928.658203 0)"/>
     <use xlink:href="#DejaVuSans-79" transform="translate(1026.070312 0)"/>
     <use xlink:href="#DejaVuSans-65" transform="translate(1085.25 0)"/>
     <use xlink:href="#DejaVuSans-6c" transform="translate(1146.773438 0)"/>
     <use xlink:href="#DejaVuSans-69" transform="translate(1174.556641 0)"/>
     <use xlink:href="#DejaVuSans-6e" transform="translate(1202.339844 0)"/>
     <use xlink:href="#DejaVuSans-61" transform="translate(1265.71875 0)"/>
     <use xlink:href="#DejaVuSans-74" transform="translate(1326.998047 0)"/>
     <use xlink:href="#DejaVuSans-65" transform="translate(1366.207031 0)"/>
     <use xlink:href="#DejaVuSans-64" transform="translate(1427.730469 0)"/>
     <use xlink:href="#DejaVuSans-20" transform="translate(1491.207031 0)"/>
     <use xlink:href="#DejaVuSans-61" transform="translate(1522.994141 0)"/>
     <use xlink:href="#DejaVuSans-78" transform="translate(1584.273438 0)"/>
     <use xlink:href="#DejaVuSans-6f" transform="translate(1640.328125 0)"/>
     <use xlink:href="#DejaVuSans-6e" transform="translate(1701.509766 0)"/>
     <use xlink:href="#DejaVuSans-20" transform="translate(1764.888672 0)"/>
     <use xlink:href="#DejaVuSans-28" transform="translate(1796.675781 0)"/>
     <use xlink:href="#DejaVuSans-73" transform="translate(1835.689453 0)"/>
     <use xlink:href="#DejaVuSans-61" transform="translate(1887.789062 0)"/>
     <use xlink:href="#DejaVuSans-6c" transform="translate(1949.068359 0)"/>
     <use xlink:href="#DejaVuSans-74" transform="translate(1976.851562 0)"/>
     <use xlink:href="#DejaVuSans-61" transform="translate(2016.060547 0)"/>
     <use xlink:href="#DejaVuSans-74" transform="translate(2077.339844 0)"/>
     <use xlink:href="#DejaVuSans-6f" transform="translate(2116.548828 0)"/>
     <use xlink:href="#DejaVuSans-72" transform="translate(2177.730469 0)"/>
     <use xlink:href="#DejaVuSans-79" transform="translate(2218.84375 0)"/>
     <use xlink:href="#DejaVuSans-29" transform="translate(2278.023438 0)"/>
    </g>
   </g>
  </g>
 </g>
 <defs>
  <clipPath id="pd15903884e">
   <rect x="7.2" y="18.418516" width="423.5" height="239.5"/>
  </clipPath>
 </defs>
</svg>
