<?xml version="1.0" encoding="utf-8" standalone="no"?>
<!DOCTYPE svg PUBLIC "-//W3C//DTD SVG 1.1//EN"
  "http://www.w3.org/Graphics/SVG/1.1/DTD/svg11.dtd">
<svg xmlns:xlink="http://www.w3.org/1999/xlink" width="431.55897pt" height="265.118516pt" viewBox="0 0 431.55897 265.118516" xmlns="http://www.w3.org/2000/svg" version="1.1">
 <metadata>
  <rdf:RDF xmlns:dc="http://purl.org/dc/elements/1.1/" xmlns:cc="http://creativecommons.org/ns#" xmlns:rdf="http://www.w3.org/1999/02/22-rdf-syntax-ns#">
   <cc:Work>
    <dc:type rdf:resource="http://purl.org/dc/dcmitype/StillImage"/>
    <dc:date>2023-11-14T22:13:20+00:00</dc:date>
    <dc:format>image/svg+xml</dc:format>
    <dc:creator>
     <cc:Agent>
      <dc:title>Matplotlib v3.10.8, https://matplotlib.org/</dc:title>
     </cc:Agent>
    </dc:creator>
   </cc:Work>
  </rdf:RDF>
 </metadata>
 <defs>
  <style type="text/css">*{stroke-linejoin: round; stroke-linecap: butt}</style>
 </defs>
 <g id="figure_1">
  <g id="patch_1">
   <path d="M 0 265.118516 
L 431.55897 265.118516 
L 431.55897 0 
L 0 0 
z
" style="fill: #fafbfc"/>
  </g>
  <g id="axes_1">
   <g id="patch_2">
    <path d="M 20.99197 257.918516 
L 424.35897 257.918516 
L 424.35897 18.418516 
L 20.99197 18.418516 
z
" style="fill: #fafbfc"/>
   </g>
   <g id="patch_3">
    <path d="M 61.32867 106.235182 
L 263.01217 106.235182 
L 263.01217 88.272682 
L 61.32867 88.272682 
z
" clip-path="url(#pbe48446949)" style="fill: url(#h15155de94c); stroke: #57606a; stroke-width: 0.8; stroke-linejoin: miter"/>
   </g>
   <g id="patch_4">
    <path d="M 61.32867 190.060182 
L 263.01217 190.060182 
L 263.01217 172.097682 
L 61.32867 172.097682 
z
" clip-path="url(#pbe48446949)" style="fill: url(#h15155de94c); stroke: #57606a; stroke-width: 0.8; stroke-linejoin: miter"/>
   </g>
   <g id="patch_5">
    <path d="M 69.39601 87.873516 
C 70.786674 87.873516 72.120568 87.326752 73.103916 86.353644 
C 74.087264 85.380536 74.639781 84.060532 74.639781 82.684349 
C 74.639781 81.308166 74.087264 79.988162 73.103916 79.015054 
C 72.120568 78.041946 70.786674 77.495182 69.39601 77.495182 
C 68.005346 77.495182 66.671452 78.041946 65.688104 79.015054 
C 64.704756 79.988162 64.152239 81.308166 64.152239 82.684349 
C 64.152239 84.060532 64.704756 85.380536 65.688104 86.353644 
C 66.671452 87.326752 68.005346 87.873516 69.39601 87.873516 
z
" clip-path="url(#pbe48446949)" style="fill: #57606a"/>
   </g>
   <g id="patch_6">
    <path d="M 69.39601 200.837682 
C 70.786674 200.837682 72.120568 200.290919 73.103916 199.317811 
C 74.087264 198.344702 74.639781 197.024699 74.639781 195.648516 
C 74.639781 194.272333 74.087264 192.952329 73.103916 191.979221 
C 72.120568 191.006112 70.786674 190.459349 69.39601 190.459349 
C 68.005346 190.459349 66.671452 191.006112 65.688104 191.979221 
C 64.704756 192.952329 64.152239 194.272333 64.152239 195.648516 
C 64.152239 197.024699 64.704756 198.344702 65.688104 199.317811 
C 66.671452 200.290919 68.005346 200.837682 69.39601 200.837682 
z
" clip-path="url(#pbe48446949)" style="fill: #57606a"/>
   </g>
   <g id="patch_7">
    <path d="M 86.264085 87.873516 
C 87.654749 87.873516 88.988642 87.326752 89.971991 86.353644 
C 90.955339 85.380536 91.507856 84.060532 91.507856 82.684349 
C 91.507856 81.308166 90.955339 79.988162 89.971991 79.015054 
C 88.988642 78.041946 87.654749 77.495182 86.264085 77.495182 
C 84.87342 77.495182 83.539527 78.041946 82.556179 79.015054 
C 81.57283 79.988162 81.020314 81.308166 81.020314 82.684349 
C 81.020314 84.060532 81.57283 85.380536 82.556179 86.353644 
C 83.539527 87.326752 84.87342 87.873516 86.264085 87.873516 
z
" clip-path="url(#pbe48446949)" style="fill: #57606a"/>
   </g>
   <g id="patch_8">
    <path d="M 86.264085 200.837682 
C 87.654749 200.837682 88.988642 200.290919 89.971991 199.317811 
C 90.955339 198.344702 91.507856 197.024699 91.507856 195.648516 
C 91.507856 194.272333 90.955339 192.952329 89.971991 191.979221 
C 88.988642 191.006112 87.654749 190.459349 86.264085 190.459349 
C 84.87342 190.459349 83.539527 191.006112 82.556179 191.979221 
C 81.57283 192.952329 81.020314 194.272333 81.020314 195.648516 
C 81.020314 197.024699 81.57283 198.344702 82.556179 199.317811 
C 83.539527 200.290919 84.87342 200.837682 86.264085 200.837682 
z
" clip-path="url(#pbe48446949)" style="fill: #57606a"/>
   </g>
   <g id="patch_9">
    <path d="M 103.132159 87.873516 
C 104.522823 87.873516 105.856717 87.326752 106.840065 86.353644 
C 107.823413 85.380536 108.37593 84.060532 108.37593 82.684349 
C 108.37593 81.308166 107.823413 79.988162 106.840065 79.015054 
C 105.856717 78.041946 104.522823 77.495182 103.132159 77.495182 
C 101.741495 77.495182 100.407601 78.041946 99.424253 79.015054 
C 98.440905 79.988162 97.888388 81.308166 97.888388 82.684349 
C 97.888388 84.060532 98.440905 85.380536 99.424253 86.353644 
C 100.407601 87.326752 101.741495 87.873516 103.132159 87.873516 
z
" clip-path="url(#pbe48446949)" style="fill: #57606a"/>
   </g>
   <g id="patch_10">
    <path d="M 103.132159 200.837682 
C 104.522823 200.837682 105.856717 200.290919 106.840065 199.317811 
C 107.823413 198.344702 108.37593 197.024699 108.37593 195.648516 
C 108.37593 194.272333 107.823413 192.952329 106.840065 191.979221 
C 105.856717 191.006112 104.522823 190.459349 103.132159 190.459349 
C 101.741495 190.459349 100.407601 191.006112 99.424253 191.979221 
C 98.440905 192.952329 97.888388 194.272333 97.888388 195.648516 
C 97.888388 197.024699 98.440905 198.344702 99.424253 199.317811 
C 100.407601 200.290919 101.741495 200.837682 103.132159 200.837682 
z
" clip-path="url(#pbe48446949)" style="fill: #57606a"/>
   </g>
   <g id="patch_11">
    <path d="M 120.000234 87.873516 
C 121.390898 87.873516 122.724791 87.326752 123.70814 86.353644 
C 124.691488 85.380536 125.244005 84.060532 125.244005 82.684349 
C 125.244005 81.308166 124.691488 79.988162 123.70814 79.015054 
C 122.724791 78.041946 121.390898 77.495182 120.000234 77.495182 
C 118.609569 77.495182 117.275676 78.041946 116.292328 79.015054 
C 115.308979 79.988162 114.756463 81.308166 114.756463 82.684349 
C 114.756463 84.060532 115.308979 85.380536 116.292328 86.353644 
C 117.275676 87.326752 118.609569 87.873516 120.000234 87.873516 
z
" clip-path="url(#pbe48446949)" style="fill: #57606a"/>
   </g>
   <g id="patch_12">
    <path d="M 120.000234 200.837682 
C 121.390898 200.837682 122.724791 200.290919 123.70814 199.317811 
C 124.691488 198.344702 125.244005 197.024699 125.244005 195.648516 
C 125.244005 194.272333 124.691488 192.952329 123.70814 191.979221 
C 122.724791 191.006112 121.390898 190.459349 120.000234 190.459349 
C 118.609569 190.459349 117.275676 191.006112 116.292328 191.979221 
C 115.308979 192.952329 114.756463 194.272333 114.756463 195.648516 
C 114.756463 197.024699 115.308979 198.344702 116.292328 199.317811 
C 117.275676 200.290919 118.609569 200.837682 120.000234 200.837682 
z
" clip-path="url(#pbe48446949)" style="fill: #57606a"/>
   </g>
   <g id="patch_13">
    <path d="M 136.868308 87.873516 
C 138.258973 87.873516 139.592866 87.326752 140.576214 86.353644 
C 141.559562 85.380536 142.112079 84.060532 142.112079 82.684349 
C 142.112079 81.308166 141.559562 79.988162 140.576214 79.015054 
C 139.592866 78.041946 138.258973 77.495182 136.868308 77.495182 
C 135.477644 77.495182 134.14375 78.041946 133.160402 79.015054 
C 132.177054 79.988162 131.624537 81.308166 131.624537 82.684349 
C 131.624537 84.060532 132.177054 85.380536 133.160402 86.353644 
C 134.14375 87.326752 135.477644 87.873516 136.868308 87.873516 
z
" clip-path="url(#pbe48446949)" style="fill: #57606a"/>
   </g>
   <g id="patch_14">
    <path d="M 136.868308 200.837682 
C 138.258973 200.837682 139.592866 200.290919 140.576214 199.317811 
C 141.559562 198.344702 142.112079 197.024699 142.112079 195.648516 
C 142.112079 194.272333 141.559562 192.952329 140.576214 191.979221 
C 139.592866 191.006112 138.258973 190.459349 136.868308 190.459349 
C 135.477644 190.459349 134.14375 191.006112 133.160402 191.979221 
C 132.177054 192.952329 131.624537 194.272333 131.624537 195.648516 
C 131.624537 197.024699 132.177054 198.344702 133.160402 199.317811 
C 134.14375 200.290919 135.477644 200.837682 136.868308 200.837682 
z
" clip-path="url(#pbe48446949)" style="fill: #57606a"/>
   </g>
   <g id="patch_15">
    <path d="M 153.736383 87.873516 
C 155.127047 87.873516 156.460941 87.326752 157.444289 86.353644 
C 158.427637 85.380536 158.980154 84.060532 158.980154 82.684349 
C 158.980154 81.308166 158.427637 79.988162 157.444289 79.015054 
C 156.460941 78.041946 155.127047 77.495182 153.736383 77.495182 
C 152.345718 77.495182 151.011825 78.041946 150.028477 79.015054 
C 149.045129 79.988162 148.492612 81.308166 148.492612 82.684349 
C 148.492612 84.060532 149.045129 85.380536 150.028477 86.353644 
C 151.011825 87.326752 152.345718 87.873516 153.736383 87.873516 
z
" clip-path="url(#pbe48446949)" style="fill: #57606a"/>
   </g>
   <g id="patch_16">
    <path d="M 153.736383 200.837682 
C 155.127047 200.837682 156.460941 200.290919 157.444289 199.317811 
C 158.427637 198.344702 158.980154 197.024699 158.980154 195.648516 
C 158.980154 194.272333 158.427637 192.952329 157.444289 191.979221 
C 156.460941 191.006112 155.127047 190.459349 153.736383 190.459349 
C 152.345718 190.459349 151.011825 191.006112 150.028477 191.979221 
C 149.045129 192.952329 148.492612 194.272333 148.492612 195.648516 
C 148.492612 197.024699 149.045129 198.344702 150.028477 199.317811 
C 151.011825 200.290919 152.345718 200.837682 153.736383 200.837682 
z
" clip-path="url(#pbe48446949)" style="fill: #57606a"/>
   </g>
   <g id="patch_17">
    <path d="M 170.604457 87.873516 
C 171.995122 87.873516 173.329015 87.326752 174.312363 86.353644 
C 175.295711 85.380536 175.848228 84.060532 175.848228 82.684349 
C 175.848228 81.308166 175.295711 79.988162 174.312363 79.015054 
C 173.329015 78.041946 171.995122 77.495182 170.604457 77.495182 
C 169.213793 77.495182 167.879899 78.041946 166.896551 79.015054 
C 165.913203 79.988162 165.360686 81.308166 165.360686 82.684349 
C 165.360686 84.060532 165.913203 85.380536 166.896551 86.353644 
C 167.879899 87.326752 169.213793 87.873516 170.604457 87.873516 
z
" clip-path="url(#pbe48446949)" style="fill: #57606a"/>
   </g>
   <g id="patch_18">
    <path d="M 170.604457 200.837682 
C 171.995122 200.837682 173.329015 200.290919 174.312363 199.317811 
C 175.295711 198.344702 175.848228 197.024699 175.848228 195.648516 
C 175.848228 194.272333 175.295711 192.952329 174.312363 191.979221 
C 173.329015 191.006112 171.995122 190.459349 170.604457 190.459349 
C 169.213793 190.459349 167.879899 191.006112 166.896551 191.979221 
C 165.913203 192.952329 165.360686 194.272333 165.360686 195.648516 
C 165.360686 197.024699 165.913203 198.344702 166.896551 199.317811 
C 167.879899 200.290919 169.213793 200.837682 170.604457 200.837682 
z
" clip-path="url(#pbe48446949)" style="fill: #57606a"/>
   </g>
   <g id="patch_19">
    <path d="M 187.472532 87.873516 
C 188.863196 87.873516 190.19709 87.326752 191.180438 86.353644 
C 192.163786 85.380536 192.716303 84.060532 192.716303 82.684349 
C 192.716303 81.308166 192.163786 79.988162 191.180438 79.015054 
C 190.19709 78.041946 188.863196 77.495182 187.472532 77.495182 
C 186.081867 77.495182 184.747974 78.041946 183.764626 79.015054 
C 182.781278 79.988162 182.228761 81.308166 182.228761 82.684349 
C 182.228761 84.060532 182.781278 85.380536 183.764626 86.353644 
C 184.747974 87.326752 186.081867 87.873516 187.472532 87.873516 
z
" clip-path="url(#pbe48446949)" style="fill: #57606a"/>
   </g>
   <g id="patch_20">
    <path d="M 187.472532 200.837682 
C 188.863196 200.837682 190.19709 200.290919 191.180438 199.317811 
C 192.163786 198.344702 192.716303 197.024699 192.716303 195.648516 
C 192.716303 194.272333 192.163786 192.952329 191.180438 191.979221 
C 190.19709 191.006112 188.863196 190.459349 187.472532 190.459349 
C 186.081867 190.459349 184.747974 191.006112 183.764626 191.979221 
C 182.781278 192.952329 182.228761 194.272333 182.228761 195.648516 
C 182.228761 197.024699 182.781278 198.344702 183.764626 199.317811 
C 184.747974 200.290919 186.081867 200.837682 187.472532 200.837682 
z
" clip-path="url(#pbe48446949)" style="fill: #57606a"/>
   </g>
   <g id="patch_21">
    <path d="M 204.340606 87.873516 
C 205.731271 87.873516 207.065164 87.326752 208.048512 86.353644 
C 209.031861 85.380536 209.584377 84.060532 209.584377 82.684349 
C 209.584377 81.308166 209.031861 79.988162 208.048512 79.015054 
C 207.065164 78.041946 205.731271 77.495182 204.340606 77.495182 
C 202.949942 77.495182 201.616049 78.041946 200.6327 79.015054 
C 199.649352 79.988162 199.096835 81.308166 199.096835 82.684349 
C 199.096835 84.060532 199.649352 85.380536 200.6327 86.353644 
C 201.616049 87.326752 202.949942 87.873516 204.340606 87.873516 
z
" clip-path="url(#pbe48446949)" style="fill: #57606a"/>
   </g>
   <g id="patch_22">
    <path d="M 204.340606 200.837682 
C 205.731271 200.837682 207.065164 200.290919 208.048512 199.317811 
C 209.031861 198.344702 209.584377 197.024699 209.584377 195.648516 
C 209.584377 194.272333 209.031861 192.952329 208.048512 191.979221 
C 207.065164 191.006112 205.731271 190.459349 204.340606 190.459349 
C 202.949942 190.459349 201.616049 191.006112 200.6327 191.979221 
C 199.649352 192.952329 199.096835 194.272333 199.096835 195.648516 
C 199.096835 197.024699 199.649352 198.344702 200.6327 199.317811 
C 201.616049 200.290919 202.949942 200.837682 204.340606 200.837682 
z
" clip-path="url(#pbe48446949)" style="fill: #57606a"/>
   </g>
   <g id="patch_23">
    <path d="M 221.208681 87.873516 
C 222.599345 87.873516 223.933239 87.326752 224.916587 86.353644 
C 225.899935 85.380536 226.452452 84.060532 226.452452 82.684349 
C 226.452452 81.308166 225.899935 79.988162 224.916587 79.015054 
C 223.933239 78.041946 222.599345 77.495182 221.208681 77.495182 
C 219.818017 77.495182 218.484123 78.041946 217.500775 79.015054 
C 216.517427 79.988162 215.96491 81.308166 215.96491 82.684349 
C 215.96491 84.060532 216.517427 85.380536 217.500775 86.353644 
C 218.484123 87.326752 219.818017 87.873516 221.208681 87.873516 
z
" clip-path="url(#pbe48446949)" style="fill: #57606a"/>
   </g>
   <g id="patch_24">
    <path d="M 221.208681 200.837682 
C 222.599345 200.837682 223.933239 200.290919 224.916587 199.317811 
C 225.899935 198.344702 226.452452 197.024699 226.452452 195.648516 
C 226.452452 194.272333 225.899935 192.952329 224.916587 191.979221 
C 223.933239 191.006112 222.599345 190.459349 221.208681 190.459349 
C 219.818017 190.459349 218.484123 191.006112 217.500775 191.979221 
C 216.517427 192.952329 215.96491 194.272333 215.96491 195.648516 
C 215.96491 197.024699 216.517427 198.344702 217.500775 199.317811 
C 218.484123 200.290919 219.818017 200.837682 221.208681 200.837682 
z
" clip-path="url(#pbe48446949)" style="fill: #57606a"/>
   </g>
   <g id="patch_25">
    <path d="M 238.076755 87.873516 
C 239.46742 87.873516 240.801313 87.326752 241.784661 86.353644 
C 242.76801 85.380536 243.320526 84.060532 243.320526 82.684349 
C 243.320526 81.308166 242.76801 79.988162 241.784661 79.015054 
C 240.801313 78.041946 239.46742 77.495182 238.076755 77.495182 
C 236.686091 77.495182 235.352198 78.041946 234.368849 79.015054 
C 233.385501 79.988162 232.832984 81.308166 232.832984 82.684349 
C 232.832984 84.060532 233.385501 85.380536 234.368849 86.353644 
C 235.352198 87.326752 236.686091 87.873516 238.076755 87.873516 
z
" clip-path="url(#pbe48446949)" style="fill: #57606a"/>
   </g>
   <g id="patch_26">
    <path d="M 238.076755 200.837682 
C 239.46742 200.837682 240.801313 200.290919 241.784661 199.317811 
C 242.76801 198.344702 243.320526 197.024699 243.320526 195.648516 
C 243.320526 194.272333 242.76801 192.952329 241.784661 191.979221 
C 240.801313 191.006112 239.46742 190.459349 238.076755 190.459349 
C 236.686091 190.459349 235.352198 191.006112 234.368849 191.979221 
C 233.385501 192.952329 232.832984 194.272333 232.832984 195.648516 
C 232.832984 197.024699 233.385501 198.344702 234.368849 199.317811 
C 235.352198 200.290919 236.686091 200.837682 238.076755 200.837682 
z
" clip-path="url(#pbe48446949)" style="fill: #57606a"/>
   </g>
   <g id="patch_27">
    <path d="M 254.94483 87.873516 
C 256.335494 87.873516 257.669388 87.326752 258.652736 86.353644 
C 259.636084 85.380536 260.188601 84.060532 260.188601 82.684349 
C 260.188601 81.308166 259.636084 79.988162 258.652736 79.015054 
C 257.669388 78.041946 256.335494 77.495182 254.94483 77.495182 
C 253.554166 77.495182 252.220272 78.041946 251.236924 79.015054 
C 250.253576 79.988162 249.701059 81.308166 249.701059 82.684349 
C 249.701059 84.060532 250.253576 85.380536 251.236924 86.353644 
C 252.220272 87.326752 253.554166 87.873516 254.94483 87.873516 
z
" clip-path="url(#pbe48446949)" style="fill: #57606a"/>
   </g>
   <g id="patch_28">
    <path d="M 254.94483 200.837682 
C 256.335494 200.837682 257.669388 200.290919 258.652736 199.317811 
C 259.636084 198.344702 260.188601 197.024699 260.188601 195.648516 
C 260.188601 194.272333 259.636084 192.952329 258.652736 191.979221 
C 257.669388 191.006112 256.335494 190.459349 254.94483 190.459349 
C 253.554166 190.459349 252.220272 191.006112 251.236924 191.979221 
C 250.253576 192.952329 249.701059 194.272333 249.701059 195.648516 
C 249.701059 197.024699 250.253576 198.344702 251.236924 199.317811 
C 252.220272 200.290919 253.554166 200.837682 254.94483 200.837682 
z
" clip-path="url(#pbe48446949)" style="fill: #57606a"/>
   </g>
   <g id="matplotlib.axis_1"/>
   <g id="matplotlib.axis_2"/>
   <g id="line2d_1">
    <path d="M 69.39601 88.272682 
L 69.39601 105.836016 
" clip-path="url(#pbe48446949)" style="fill: none; stroke: #57606a; stroke-width: 0.6; stroke-linecap: square"/>
   </g>
   <g id="line2d_2">
    <path d="M 69.39601 190.060182 
L 69.39601 172.496849 
" clip-path="url(#pbe48446949)" style="fill: none; stroke: #57606a; stroke-width: 0.6; stroke-linecap: square"/>
   </g>
   <g id="line2d_3">
    <path d="M 86.264085 88.272682 
L 86.264085 105.836016 
" clip-path="url(#pbe48446949)" style="fill: none; stroke: #57606a; stroke-width: 0.6; stroke-linecap: square"/>
   </g>
   <g id="line2d_4">
    <path d="M 86.264085 190.060182 
L 86.264085 172.496849 
" clip-path="url(#pbe48446949)" style="fill: none; stroke: #57606a; stroke-width: 0.6; stroke-linecap: square"/>
   </g>
   <g id="line2d_5">
    <path d="M 103.132159 88.272682 
L 103.132159 105.836016 
" clip-path="url(#pbe48446949)" style="fill: none; stroke: #57606a; stroke-width: 0.6; stroke-linecap: square"/>
   </g>
   <g id="line2d_6">
    <path d="M 103.132159 190.060182 
L 103.132159 172.496849 
" clip-path="url(#pbe48446949)" style="fill: none; stroke: #57606a; stroke-width: 0.6; stroke-linecap: square"/>
   </g>
   <g id="line2d_7">
    <path d="M 120.000234 88.272682 
L 120.000234 105.836016 
" clip-path="url(#pbe48446949)" style="fill: none; stroke: #57606a; stroke-width: 0.6; stroke-linecap: square"/>
   </g>
   <g id="line2d_8">
    <path d="M 120.000234 190.060182 
L 120.000234 172.496849 
" clip-path="url(#pbe48446949)" style="fill: none; stroke: #57606a; stroke-width: 0.6; stroke-linecap: square"/>
   </g>
   <g id="line2d_9">
    <path d="M 136.868308 88.272682 
L 136.868308 105.836016 
" clip-path="url(#pbe48446949)" style="fill: none; stroke: #57606a; stroke-width: 0.6; stroke-linecap: square"/>
   </g>
   <g id="line2d_10">
    <path d="M 136.868308 190.060182 
L 136.868308 172.496849 
" clip-path="url(#pbe48446949)" style="fill: none; stroke: #57606a; stroke-width: 0.6; stroke-linecap: square"/>
   </g>
   <g id="line2d_11">
    <path d="M 153.736383 88.272682 
L 153.736383 105.836016 
" clip-path="url(#pbe48446949)" style="fill: none; stroke: #57606a; stroke-width: 0.6; stroke-linecap: square"/>
   </g>
   <g id="line2d_12">
    <path d="M 153.736383 190.060182 
L 153.736383 172.496849 
" clip-path="url(#pbe48446949)" style="fill: none; stroke: #57606a; stroke-width: 0.6; stroke-linecap: square"/>
   </g>
   <g id="line2d_13">
    <path d="M 170.604457 88.272682 
L 170.604457 105.836016 
" clip-path="url(#pbe48446949)" style="fill: none; stroke: #57606a; stroke-width: 0.6; stroke-linecap: square"/>
   </g>
   <g id="line2d_14">
    <path d="M 170.604457 190.060182 
L 170.604457 172.496849 
" clip-path="url(#pbe48446949)" style="fill: none; stroke: #57606a; stroke-width: 0.6; stroke-linecap: square"/>
   </g>
   <g id="line2d_15">
    <path d="M 187.472532 88.272682 
L 187.472532 105.836016 
" clip-path="url(#pbe48446949)" style="fill: none; stroke: #57606a; stroke-width: 0.6; stroke-linecap: square"/>
   </g>
   <g id="line2d_16">
    <path d="M 187.472532 190.060182 
L 187.472532 172.496849 
" clip-path="url(#pbe48446949)" style="fill: none; stroke: #57606a; stroke-width: 0.6; stroke-linecap: square"/>
   </g>
   <g id="line2d_17">
    <path d="M 204.340606 88.272682 
L 204.340606 105.836016 
" clip-path="url(#pbe48446949)" style="fill: none; stroke: #57606a; stroke-width: 0.6; stroke-linecap: square"/>
   </g>
   <g id="line2d_18">
    <path d="M 204.340606 190.060182 
L 204.340606 172.496849 
" clip-path="url(#pbe48446949)" style="fill: none; stroke: #57606a; stroke-width: 0.6; stroke-linecap: square"/>
   </g>
   <g id="line2d_19">
    <path d="M 221.208681 88.272682 
L 221.208681 105.836016 
" clip-path="url(#pbe48446949)" style="fill: none; stroke: #57606a; stroke-width: 0.6; stroke-linecap: square"/>
   </g>
   <g id="line2d_20">
    <path d="M 221.208681 190.060182 
L 221.208681 172.496849 
" clip-path="url(#pbe48446949)" style="fill: none; stroke: #57606a; stroke-width: 0.6; stroke-linecap: square"/>
   </g>
   <g id="line2d_21">
    <path d="M 238.076755 88.272682 
L 238.076755 105.836016 
" clip-path="url(#pbe48446949)" style="fill: none; stroke: #57606a; stroke-width: 0.6; stroke-linecap: square"/>
   </g>
   <g id="line2d_22">
    <path d="M 238.076755 190.060182 
L 238.076755 172.496849 
" clip-path="url(#pbe48446949)" style="fill: none; stroke: #57606a; stroke-width: 0.6; stroke-linecap: square"/>
   </g>
   <g id="line2d_23">
    <path d="M 254.94483 88.272682 
L 254.94483 105.836016 
" clip-path="url(#pbe48446949)" style="fill: none; stroke: #57606a; stroke-width: 0.6; stroke-linecap: square"/>
   </g>
   <g id="line2d_24">
    <path d="M 254.94483 190.060182 
L 254.94483 172.496849 
" clip-path="url(#pbe48446949)" style="fill: none; stroke: #57606a; stroke-width: 0.6; stroke-linecap: square"/>
   </g>
   <g id="line2d_25">
    <path d="M 315.44988 90.268516 
L 355.78658 90.268516 
" clip-path="url(#pbe48446949)" style="fill: none; stroke: #1f2328; stroke-width: 1.4; stroke-linecap: square"/>
   </g>
   <g id="line2d_26">
    <path d="M 315.44988 106.235182 
L 355.78658 106.235182 
" clip-path="url(#pbe48446949)" style="fill: none; stroke: #1f2328; stroke-width: 1.4; stroke-linecap: square"/>
   </g>
   <g id="line2d_27">
    <path d="M 335.61823 90.268516 
L 335.61823 70.310182 
" clip-path="url(#pbe48446949)" style="fill: none; stroke: #1f2328; stroke-linecap: square"/>
   </g>
   <g id="line2d_28">
    <path d="M 335.61823 106.235182 
L 335.61823 126.193516 
" clip-path="url(#pbe48446949)" style="fill: none; stroke: #1f2328; stroke-linecap: square"/>
   </g>
   <g id="patch_29">
    <path d="M 271.07951 168.310924 
Q 271.07951 139.167313 271.07951 110.023703 
" style="fill: none; stroke: #ccbb44; stroke-width: 1.6; stroke-linecap: round"/>
    <path d="M 272.77951 164.910924 
L 271.07951 168.310924 
L 269.37951 164.910924 
" style="fill: none; stroke: #ccbb44; stroke-width: 1.6; stroke-linecap: round"/>
    <path d="M 269.37951 113.423703 
L 271.07951 110.023703 
L 272.77951 113.423703 
" style="fill: none; stroke: #ccbb44; stroke-width: 1.6; stroke-linecap: round"/>
   </g>
   <g id="text_1">
    <!-- $d$ -->
    <g style="fill: #ccbb44" transform="translate(281.163685 142.201745) scale(0.11 -0.11)">
     <defs>
      <path id="DejaVuSans-Oblique-64" d="M 2675 525 
Q 2444 222 2128 65 
Q 1813 -91 1428 -91 
Q 903 -91 598 267 
Q 294 625 294 1247 
Q 294 1766 478 2236 
Q 663 2706 1013 3078 
Q 1244 3325 1534 3454 
Q 1825 3584 2144 3584 
Q 2481 3584 2739 3421 
Q 2997 3259 3138 2956 
L 3513 4863 
L 4091 4863 
L 3144 0 
L 2566 0 
L 2675 525 
z
M 891 1350 
Q 891 897 1095 644 
Q 1300 391 1663 391 
Q 1931 391 2161 520 
Q 2391 650 2566 903 
Q 2750 1166 2856 1509 
Q 2963 1853 2963 2188 
Q 2963 2622 2758 2865 
Q 2553 3109 2194 3109 
Q 1922 3109 1687 2981 
Q 1453 2853 1288 2613 
Q 1106 2353 998 2009 
Q 891 1666 891 1350 
z
" transform="scale(0.015625)"/>
     </defs>
     <use xlink:href="#DejaVuSans-Oblique-64" transform="translate(0 0.015625)"/>
    </g>
   </g>
   <g id="text_2">
    <!-- $C_m$ -->
    <g style="fill: #1f2328" transform="translate(329.62573 60.559115) scale(0.085 -0.085)">
     <defs>
      <path id="DejaVuSans-Oblique-43" d="M 4447 4306 
L 4319 3641 
Q 4019 3944 3683 4091 
Q 3347 4238 2956 4238 
Q 2422 4238 2017 3981 
Q 1613 3725 1319 3200 
Q 1131 2863 1032 2486 
Q 934 2109 934 1728 
Q 934 1091 1264 756 
Q 1594 422 2222 422 
Q 2656 422 3056 561 
Q 3456 700 3834 978 
L 3688 231 
Q 3316 72 2936 -9 
Q 2556 -91 2175 -91 
Q 1278 -91 773 396 
Q 269 884 269 1753 
Q 269 2309 461 2846 
Q 653 3384 1013 3828 
Q 1394 4300 1883 4525 
Q 2372 4750 3022 4750 
Q 3422 4750 3780 4639 
Q 4138 4528 4447 4306 
z
" transform="scale(0.015625)"/>
      <path id="DejaVuSans-Oblique-6d" d="M 5747 2113 
L 5338 0 
L 4763 0 
L 5166 2094 
Q 5191 2228 5203 2325 
Q 5216 2422 5216 2491 
Q 5216 2772 5059 2928 
Q 4903 3084 4622 3084 
Q 4203 3084 3875 2770 
Q 3547 2456 3450 1953 
L 3066 0 
L 2491 0 
L 2900 2094 
Q 2925 2209 2937 2307 
Q 2950 2406 2950 2484 
Q 2950 2769 2794 2926 
Q 2638 3084 2363 3084 
Q 1938 3084 1609 2770 
Q 1281 2456 1184 1953 
L 800 0 
L 225 0 
L 909 3500 
L 1484 3500 
L 1375 2956 
Q 1609 3263 1923 3423 
Q 2238 3584 2597 3584 
Q 2978 3584 3223 3384 
Q 3469 3184 3519 2828 
Q 3781 3197 4126 3390 
Q 4472 3584 4856 3584 
Q 5306 3584 5551 3325 
Q 5797 3066 5797 2591 
Q 5797 2488 5784 2364 
Q 5772 2241 5747 2113 
z
" transform="scale(0.015625)"/>
     </defs>
     <use xlink:href="#DejaVuSans-Oblique-43" transform="translate(0 0.78125)"/>
     <use xlink:href="#DejaVuSans-Oblique-6d" transform="translate(69.824219 -15.625) scale(0.7)"/>
    </g>
   </g>
   <g id="text_3">
    <!-- extracellular -->
    <g style="fill: #57606a" transform="translate(7.2 99.461432) scale(0.08 -0.08)">
     <defs>
      <path id="DejaVuSans-65" d="M 3597 1894 
L 3597 1613 
L 953 1613 
Q 991 1019 1311 708 
Q 1631 397 2203 397 
Q 2534 397 2845 478 
Q 3156 559 3463 722 
L 3463 178 
Q 3153 47 2828 -22 
Q 2503 -91 2169 -91 
Q 1331 -91 842 396 
Q 353 884 353 1716 
Q 353 2575 817 3079 
Q 1281 3584 2069 3584 
Q 2775 3584 3186 3129 
Q 3597 2675 3597 1894 
z
M 3022 2063 
Q 3016 2534 2758 2815 
Q 2500 3097 2075 3097 
Q 1594 3097 1305 2825 
Q 1016 2553 972 2059 
L 3022 2063 
z
" transform="scale(0.015625)"/>
      <path id="DejaVuSans-78" d="M 3513 3500 
L 2247 1797 
L 3578 0 
L 2900 0 
L 1881 1375 
L 863 0 
L 184 0 
L 1544 1831 
L 300 3500 
L 978 3500 
L 1906 2253 
L 2834 3500 
L 3513 3500 
z
" transform="scale(0.015625)"/>
      <path id="DejaVuSans-74" d="M 1172 4494 
L 1172 3500 
L 2356 3500 
L 2356 3053 
L 1172 3053 
L 1172 1153 
Q 1172 725 1289 603 
Q 1406 481 1766 481 
L 2356 481 
L 2356 0 
L 1766 0 
Q 1100 0 847 248 
Q 594 497 594 1153 
L 594 3053 
L 172 3053 
L 172 3500 
L 594 3500 
L 594 4494 
L 1172 4494 
z
" transform="scale(0.015625)"/>
      <path id="DejaVuSans-72" d="M 2631 2963 
Q 2534 3019 2420 3045 
Q 2306 3072 2169 3072 
Q 1681 3072 1420 2755 
Q 1159 2438 1159 1844 
L 1159 0 
L 581 0 
L 581 3500 
L 1159 3500 
L 1159 2956 
Q 1341 3275 1631 3429 
Q 1922 3584 2338 3584 
Q 2397 3584 2469 3576 
Q 2541 3569 2628 3553 
L 2631 2963 
z
" transform="scale(0.015625)"/>
      <path id="DejaVuSans-61" d="M 2194 1759 
Q 1497 1759 1228 1600 
Q 959 1441 959 1056 
Q 959 750 1161 570 
Q 1363 391 1709 391 
Q 2188 391 2477 730 
Q 2766 1069 2766 1631 
L 2766 1759 
L 2194 1759 
z
M 3341 1997 
L 3341 0 
L 2766 0 
L 2766 531 
Q 2569 213 2275 61 
Q 1981 -91 1556 -91 
Q 1019 -91 701 211 
Q 384 513 384 1019 
Q 384 1609 779 1909 
Q 1175 2209 1959 2209 
L 2766 2209 
L 2766 2266 
Q 2766 2663 2505 2880 
Q 2244 3097 1772 3097 
Q 1472 3097 1187 3025 
Q 903 2953 641 2809 
L 641 3341 
Q 956 3463 1253 3523 
Q 1550 3584 1831 3584 
Q 2591 3584 2966 3190 
Q 3341 2797 3341 1997 
z
" transform="scale(0.015625)"/>
      <path id="DejaVuSans-63" d="M 3122 3366 
L 3122 2828 
Q 2878 2963 2633 3030 
Q 2388 3097 2138 3097 
Q 1578 3097 1268 2742 
Q 959 2388 959 1747 
Q 959 1106 1268 751 
Q 1578 397 2138 397 
Q 2388 397 2633 464 
Q 2878 531 3122 666 
L 3122 134 
Q 2881 22 2623 -34 
Q 2366 -91 2075 -91 
Q 1284 -91 818 406 
Q 353 903 353 1747 
Q 353 2603 823 3093 
Q 1294 3584 2113 3584 
Q 2378 3584 2631 3529 
Q 2884 3475 3122 3366 
z
" transform="scale(0.015625)"/>
      <path id="DejaVuSans-6c" d="M 603 4863 
L 1178 4863 
L 1178 0 
L 603 0 
L 603 4863 
z
" transform="scale(0.015625)"/>
      <path id="DejaVuSans-75" d="M 544 1381 
L 544 3500 
L 1119 3500 
L 1119 1403 
Q 1119 906 1312 657 
Q 1506 409 1894 409 
Q 2359 409 2629 706 
Q 2900 1003 2900 1516 
L 2900 3500 
L 3475 3500 
L 3475 0 
L 2900 0 
L 2900 538 
Q 2691 219 2414 64 
Q 2138 -91 1772 -91 
Q 1169 -91 856 284 
Q 544 659 544 1381 
z
M 1991 3584 
L 1991 3584 
z
" transform="scale(0.015625)"/>
     </defs>
     <use xlink:href="#DejaVuSans-65"/>
     <use xlink:href="#DejaVuSans-78" transform="translate(59.773438 0)"/>
     <use xlink:href="#DejaVuSans-74" transform="translate(118.953125 0)"/>
     <use xlink:href="#DejaVuSans-72" transform="translate(158.162109 0)"/>
     <use xlink:href="#DejaVuSans-61" transform="translate(199.275391 0)"/>
     <use xlink:href="#DejaVuSans-63" transform="translate(260.554688 0)"/>
     <use xlink:href="#DejaVuSans-65" transform="translate(315.535156 0)"/>
     <use xlink:href="#DejaVuSans-6c" transform="translate(377.058594 0)"/>
     <use xlink:href="#DejaVuSans-6c" transform="translate(404.841797 0)"/>
     <use xlink:href="#DejaVuSans-75" transform="translate(432.625 0)"/>
     <use xlink:href="#DejaVuSans-6c" transform="translate(496.003906 0)"/>
     <use xlink:href="#DejaVuSans-61" transform="translate(523.787109 0)"/>
     <use xlink:href="#DejaVuSans-72" transform="translate(585.066406 0)"/>
    </g>
   </g>
   <g id="text_4">
    <!-- cytoplasm -->
    <g style="fill: #57606a" transform="translate(15.96625 183.286432) scale(0.08 -0.08)">
     <defs>
      <path id="DejaVuSans-79" d="M 2059 -325 
Q 1816 -950 1584 -1140 
Q 1353 -1331 966 -1331 
L 506 -1331 
L 506 -850 
L 844 -850 
Q 1081 -850 1212 -737 
Q 1344 -625 1503 -206 
L 1606 56 
L 191 3500 
L 800 3500 
L 1894 763 
L 2988 3500 
L 3597 3500 
L 2059 -325 
z
" transform="scale(0.015625)"/>
      <path id="DejaVuSans-6f" d="M 1959 3097 
Q 1497 3097 1228 2736 
Q 959 2375 959 1747 
Q 959 1119 1226 758 
Q 1494 397 1959 397 
Q 2419 397 2687 759 
Q 2956 1122 2956 1747 
Q 2956 2369 2687 2733 
Q 2419 3097 1959 3097 
z
M 1959 3584 
Q 2709 3584 3137 3096 
Q 3566 2609 3566 1747 
Q 3566 888 3137 398 
Q 2709 -91 1959 -91 
Q 1206 -91 779 398 
Q 353 888 353 1747 
Q 353 2609 779 3096 
Q 1206 3584 1959 3584 
z
" transform="scale(0.015625)"/>
      <path id="DejaVuSans-70" d="M 1159 525 
L 1159 -1331 
L 581 -1331 
L 581 3500 
L 1159 3500 
L 1159 2969 
Q 1341 3281 1617 3432 
Q 1894 3584 2278 3584 
Q 2916 3584 3314 3078 
Q 3713 2572 3713 1747 
Q 3713 922 3314 415 
Q 2916 -91 2278 -91 
Q 1894 -91 1617 61 
Q 1341 213 1159 525 
z
M 3116 1747 
Q 3116 2381 2855 2742 
Q 2594 3103 2138 3103 
Q 1681 3103 1420 2742 
Q 1159 2381 1159 1747 
Q 1159 1113 1420 752 
Q 1681 391 2138 391 
Q 2594 391 2855 752 
Q 3116 1113 3116 1747 
z
" transform="scale(0.015625)"/>
      <path id="DejaVuSans-73" d="M 2834 3397 
L 2834 2853 
Q 2591 2978 2328 3040 
Q 2066 3103 1784 3103 
Q 1356 3103 1142 2972 
Q 928 2841 928 2578 
Q 928 2378 1081 2264 
Q 1234 2150 1697 2047 
L 1894 2003 
Q 2506 1872 2764 1633 
Q 3022 1394 3022 966 
Q 3022 478 2636 193 
Q 2250 -91 1575 -91 
Q 1294 -91 989 -36 
Q 684 19 347 128 
L 347 722 
Q 666 556 975 473 
Q 1284 391 1588 391 
Q 1994 391 2212 530 
Q 2431 669 2431 922 
Q 2431 1156 2273 1281 
Q 2116 1406 1581 1522 
L 1381 1569 
Q 847 1681 609 1914 
Q 372 2147 372 2553 
Q 372 3047 722 3315 
Q 1072 3584 1716 3584 
Q 2034 3584 2315 3537 
Q 2597 3491 2834 3397 
z
" transform="scale(0.015625)"/>
      <path id="DejaVuSans-6d" d="M 3328 2828 
Q 3544 3216 3844 3400 
Q 4144 3584 4550 3584 
Q 5097 3584 5394 3201 
Q 5691 2819 5691 2113 
L 5691 0 
L 5113 0 
L 5113 2094 
Q 5113 2597 4934 2840 
Q 4756 3084 4391 3084 
Q 3944 3084 3684 2787 
Q 3425 2491 3425 1978 
L 3425 0 
L 2847 0 
L 2847 2094 
Q 2847 2600 2669 2842 
Q 2491 3084 2119 3084 
Q 1678 3084 1418 2786 
Q 1159 2488 1159 1978 
L 1159 0 
L 581 0 
L 581 3500 
L 1159 3500 
L 1159 2956 
Q 1356 3278 1631 3431 
Q 1906 3584 2284 3584 
Q 2666 3584 2933 3390 
Q 3200 3197 3328 2828 
z
" transform="scale(0.015625)"/>
     </defs>
     <use xlink:href="#DejaVuSans-63"/>
     <use xlink:href="#DejaVuSans-79" transform="translate(54.980469 0)"/>
     <use xlink:href="#DejaVuSans-74" transform="translate(114.160156 0)"/>
     <use xlink:href="#DejaVuSans-6f" transform="translate(153.369141 0)"/>
     <use xlink:href="#DejaVuSans-70" transform="translate(214.550781 0)"/>
     <use xlink:href="#DejaVuSans-6c" transform="translate(278.027344 0)"/>
     <use xlink:href="#DejaVuSans-61" transform="translate(305.810547 0)"/>
     <use xlink:href="#DejaVuSans-73" transform="translate(367.089844 0)"/>
     <use xlink:href="#DejaVuSans-6d" transform="translate(419.189453 0)"/>
    </g>
   </g>
   <g id="text_5">
    <g id="patch_30">
     <path d="M 200.27547 247.118516 
L 245.07547 247.118516 
Q 249.07547 247.118516 249.07547 243.118516 
L 249.07547 224.818516 
Q 249.07547 220.818516 245.07547 220.818516 
L 200.27547 220.818516 
Q 196.27547 220.818516 196.27547 224.818516 
L 196.27547 243.118516 
Q 196.27547 247.118516 200.27547 247.118516 
z
" style="fill: #fafbfc; stroke: #d0d7de; stroke-width: 0.5; stroke-linejoin: miter"/>
    </g>
    <!-- $C_m = \dfrac{\varepsilon\,\varepsilon_0}{d}$ -->
    <g style="fill: #1f2328" transform="translate(200.27547 236.618516) scale(0.1 -0.1)">
     <defs>
      <path id="DejaVuSans-3d" d="M 678 2906 
L 4684 2906 
L 4684 2381 
L 678 2381 
L 678 2906 
z
M 678 1631 
L 4684 1631 
L 4684 1100 
L 678 1100 
L 678 1631 
z
" transform="scale(0.015625)"/>
      <path id="DejaVuSans-Oblique-3b5" d="M 1263 1888 
Q 925 1963 778 2166 
Q 669 2309 669 2503 
Q 669 3034 1175 3344 
Q 1575 3588 2188 3588 
Q 2425 3588 2684 3550 
Q 2944 3513 3234 3438 
L 3134 2916 
Q 2847 3006 2606 3047 
Q 2359 3088 2138 3088 
Q 1766 3088 1522 2944 
Q 1228 2772 1228 2522 
Q 1228 2356 1381 2241 
Q 1563 2103 1925 2103 
L 2409 2103 
L 2319 1628 
L 1856 1628 
Q 1425 1628 1172 1469 
Q 828 1253 828 916 
Q 828 703 1013 563 
Q 1244 388 1716 388 
Q 2006 388 2284 444 
Q 2563 503 2806 619 
L 2700 84 
Q 2403 -3 2131 -47 
Q 1859 -91 1609 -91 
Q 866 -91 516 194 
Q 250 413 250 781 
Q 250 1278 600 1584 
Q 859 1813 1263 1888 
z
" transform="scale(0.015625)"/>
      <path id="DejaVuSans-30" d="M 2034 4250 
Q 1547 4250 1301 3770 
Q 1056 3291 1056 2328 
Q 1056 1369 1301 889 
Q 1547 409 2034 409 
Q 2525 409 2770 889 
Q 3016 1369 3016 2328 
Q 3016 3291 2770 3770 
Q 2525 4250 2034 4250 
z
M 2034 4750 
Q 2819 4750 3233 4129 
Q 3647 3509 3647 2328 
Q 3647 1150 3233 529 
Q 2819 -91 2034 -91 
Q 1250 -91 836 529 
Q 422 1150 422 2328 
Q 422 3509 836 4129 
Q 1250 4750 2034 4750 
z
" transform="scale(0.015625)"/>
     </defs>
     <use xlink:href="#DejaVuSans-Oblique-43" transform="translate(0 0.739062)"/>
     <use xlink:href="#DejaVuSans-Oblique-6d" transform="translate(69.824219 -15.667188) scale(0.7)"/>
     <use xlink:href="#DejaVuSans-3d" transform="translate(160.229492 0.739062)"/>
     <use xlink:href="#DejaVuSans-Oblique-3b5" transform="translate(263.500977 61.9375)"/>
     <use xlink:href="#DejaVuSans-Oblique-3b5" transform="translate(333.789387 61.9375)"/>
     <use xlink:href="#DejaVuSans-30" transform="translate(387.842122 45.53125) scale(0.7)"/>
     <use xlink:href="#DejaVuSans-Oblique-64" transform="translate(317.500977 -62.698438)"/>
     <path d="M 263.500977 19.535938 
L 263.500977 25.785938 
L 435.112629 25.785938 
L 435.112629 19.535938 
L 263.500977 19.535938 
z
"/>
    </g>
   </g>
   <g id="text_6">
    <!-- Lipid bilayer as parallel-plate capacitor -->
    <g style="fill: #1f2328" transform="translate(130.164767 14.418516) scale(0.095 -0.095)">
     <defs>
      <path id="DejaVuSans-4c" d="M 628 4666 
L 1259 4666 
L 1259 531 
L 3531 531 
L 3531 0 
L 628 0 
L 628 4666 
z
" transform="scale(0.015625)"/>
      <path id="DejaVuSans-69" d="M 603 3500 
L 1178 3500 
L 1178 0 
L 603 0 
L 603 3500 
z
M 603 4863 
L 1178 4863 
L 1178 4134 
L 603 4134 
L 603 4863 
z
" transform="scale(0.015625)"/>
      <path id="DejaVuSans-64" d="M 2906 2969 
L 2906 4863 
L 3481 4863 
L 3481 0 
L 2906 0 
L 2906 525 
Q 2725 213 2448 61 
Q 2172 -91 1784 -91 
Q 1150 -91 751 415 
Q 353 922 353 1747 
Q 353 2572 751 3078 
Q 1150 3584 1784 3584 
Q 2172 3584 2448 3432 
Q 2725 3281 2906 2969 
z
M 947 1747 
Q 947 1113 1208 752 
Q 1469 391 1925 391 
Q 2381 391 2643 752 
Q 2906 1113 2906 1747 
Q 2906 2381 2643 2742 
Q 2381 3103 1925 3103 
Q 1469 3103 1208 2742 
Q 947 2381 947 1747 
z
" transform="scale(0.015625)"/>
      <path id="DejaVuSans-20" transform="scale(0.015625)"/>
      <path id="DejaVuSans-62" d="M 3116 1747 
Q 3116 2381 2855 2742 
Q 2594 3103 2138 3103 
Q 1681 3103 1420 2742 
Q 1159 2381 1159 1747 
Q 1159 1113 1420 752 
Q 1681 391 2138 391 
Q 2594 391 2855 752 
Q 3116 1113 3116 1747 
z
M 1159 2969 
Q 1341 3281 1617 3432 
Q 1894 3584 2278 3584 
Q 2916 3584 3314 3078 
Q 3713 2572 3713 1747 
Q 3713 922 3314 415 
Q 2916 -91 2278 -91 
Q 1894 -91 1617 61 
Q 1341 213 1159 525 
L 1159 0 
L 581 0 
L 581 4863 
L 1159 4863 
L 1159 2969 
z
" transform="scale(0.015625)"/>
      <path id="DejaVuSans-2d" d="M 313 2009 
L 1997 2009 
L 1997 1497 
L 313 1497 
L 313 2009 
z
" transform="scale(0.015625)"/>
     </defs>
     <use xlink:href="#DejaVuSans-4c"/>
     <use xlink:href="#DejaVuSans-69" transform="translate(55.712891 0)"/>
     <use xlink:href="#DejaVuSans-70" transform="translate(83.496094 0)"/>
     <use xlink:href="#DejaVuSans-69" transform="translate(146.972656 0)"/>
     <use xlink:href="#DejaVuSans-64" transform="translate(174.755859 0)"/>
     <use xlink:href="#DejaVuSans-20" transform="translate(238.232422 0)"/>
     <use xlink:href="#DejaVuSans-62" transform="translate(270.019531 0)"/>
     <use xlink:href="#DejaVuSans-69" transform="translate(333.496094 0)"/>
     <use xlink:href="#DejaVuSans-6c" transform="translate(361.279297 0)"/>
     <use xlink:href="#DejaVuSans-61" transform="translate(389.0625 0)"/>
     <use xlink:href="#DejaVuSans-79" transform="translate(450.341797 0)"/>
     <use xlink:href="#DejaVuSans-65" transform="translate(509.521484 0)"/>
     <use xlink:href="#DejaVuSans-72" transform="translate(571.044922 0)"/>
     <use xlink:href="#DejaVuSans-20" transform="translate(612.158203 0)"/>
     <use xlink:href="#DejaVuSans-61" transform="translate(643.945312 0)"/>
     <use xlink:href="#DejaVuSans-73" transform="translate(705.224609 0)"/>
     <use xlink:href="#DejaVuSans-20" transform="translate(757.324219 0)"/>
     <use xlink:href="#DejaVuSans-70" transform="translate(789.111328 0)"/>
     <use xlink:href="#DejaVuSans-61" transform="translate(852.587891 0)"/>
     <use xlink:href="#DejaVuSans-72" transform="translate(913.867188 0)"/>
     <use xlink:href="#DejaVuSans-61" transform="translate(954.980469 0)"/>
     <use xlink:href="#DejaVuSans-6c" transform="translate(1016.259766 0)"/>
     <use xlink:href="#DejaVuSans-6c" transform="translate(1044.042969 0)"/>
     <use xlink:href="#DejaVuSans-65" transform="translate(1071.826172 0)"/>
     <use xlink:href="#DejaVuSans-6c" transform="translate(1133.349609 0)"/>
     <use xlink:href="#DejaVuSans-2d" transform="translate(1161.132812 0)"/>
     <use xlink:href="#DejaVuSans-70" transform="translate(1197.216797 0)"/>
     <use xlink:href="#DejaVuSans-6c" transform="translate(1260.693359 0)"/>
     <use xlink:href="#DejaVuSans-61" transform="translate(1288.476562 0)"/>
     <use xlink:href="#DejaVuSans-74" transform="translate(1349.755859 0)"/>
     <use xlink:href="#DejaVuSans-65" transform="translate(1388.964844 0)"/>
     <use xlink:href="#DejaVuSans-20" transform="translate(1450.488281 0)"/>
     <use xlink:href="#DejaVuSans-63" transform="translate(1482.275391 0)"/>
     <use xlink:href="#DejaVuSans-61" transform="translate(1537.255859 0)"/>
     <use xlink:href="#DejaVuSans-70" transform="translate(1598.535156 0)"/>
     <use xlink:href="#DejaVuSans-61" transform="translate(1662.011719 0)"/>
     <use xlink:href="#DejaVuSans-63" transform="translate(1723.291016 0)"/>
     <use xlink:href="#DejaVuSans-69" transform="translate(1778.271484 0)"/>
     <use xlink:href="#DejaVuSans-74" transform="translate(1806.054688 0)"/>
     <use xlink:href="#DejaVuSans-6f" transform="translate(1845.263672 0)"/>
     <use xlink:href="#DejaVuSans-72" transform="translate(1906.445312 0)"/>
    </g>
   </g>
  </g>
 </g>
 <defs>
  <clipPath id="pbe48446949">
   <rect x="20.99197" y="18.418516" width="403.367" height="239.5"/>
  </clipPath>
 </defs>
 <defs>
  <pattern id="h15155de94c" patternUnits="userSpaceOnUse" x="0" y="0" width="72" height="72">
   <rect x="0" y="0" width="73" height="73" fill="#d0d7de"/>
   <path d="M -36 36 
L 36 -36 
M -33 39 
L 39 -33 
M -30 42 
L 42 -30 
M -27 45 
L 45 -27 
M -24 48 
L 48 -24 
M -21 51 
L 51 -21 
M -18 54 
L 54 -18 
M -15 57 
L 57 -15 
M -12 60 
L 60 -12 
M -9 63 
L 63 -9 
M -6 66 
L 66 -6 
M -3 69 
L 69 -3 
M 0 72 
L 72 0 
M 3 75 
L 75 3 
M 6 78 
L 78 6 
M 9 81 
L 81 9 
M 12 84 
L 84 12 
M 15 87 
L 87 15 
M 18 90 
L 90 18 
M 21 93 
L 93 21 
M 24 96 
L 96 24 
M 27 99 
L 99 27 
M 30 102 
L 102 30 
M 33 105 
L 105 33 
M 36 108 
L 108 36 
" style="fill: #57606a; stroke: #57606a; stroke-width: 1.0; stroke-linecap: butt; stroke-linejoin: miter"/>
  </pattern>
 </defs>
</svg>
