<?xml version="1.0" encoding="utf-8" standalone="no"?>
<!DOCTYPE svg PUBLIC "-//W3C//DTD SVG 1.1//EN"
  "http://www.w3.org/Graphics/SVG/1.1/DTD/svg11.dtd">
<svg xmlns:xlink="http://www.w3.org/1999/xlink" width="436.157344pt" height="258.0694pt" viewBox="0 0 436.157344 258.0694" xmlns="http://www.w3.org/2000/svg" version="1.1">
 <metadata>
  <rdf:RDF xmlns:dc="http://purl.org/dc/elements/1.1/" xmlns:cc="http://creativecommons.org/ns#" xmlns:rdf="http://www.w3.org/1999/02/22-rdf-syntax-ns#">
   <cc:Work>
    <dc:type rdf:resource="http://purl.org/dc/dcmitype/StillImage"/>
    <dc:date>2023-11-14T22:13:20+00:00</dc:date>
    <dc:format>image/svg+xml</dc:format>
    <dc:creator>
     <cc:Agent>
      <dc:title>Matplotlib v3.10.8, https://matplotlib.org/</dc:title>
     </cc:Agent>
    </dc:creator>
   </cc:Work>
  </rdf:RDF>
 </metadata>
 <defs>
  <style type="text/css">*{stroke-linejoin: round; stroke-linecap: butt}</style>
 </defs>
 <g id="figure_1">
  <g id="patch_1">
   <path d="M 0 258.0694 
L 436.157344 258.0694 
L 436.157344 -0 
L 0 -0 
z
" style="fill: #fafbfc"/>
  </g>
  <g id="axes_1">
   <g id="patch_2">
    <path d="M 25.627344 182.84 
L 428.957344 182.84 
L 428.957344 28.42 
L 25.627344 28.42 
z
" style="fill: #fafbfc"/>
   </g>
   <g id="patch_3">
    <path d="M 43.960526 182.84 
L 123.044839 182.84 
L 123.044839 51.975593 
L 43.960526 51.975593 
z
" clip-path="url(#p612a7dcbdd)" style="fill: #66ccee; stroke: #ccbb44; stroke-width: 2.4; stroke-linejoin: miter"/>
   </g>
   <g id="patch_4">
    <path d="M 187.750187 182.84 
L 266.834501 182.84 
L 266.834501 177.605424 
L 187.750187 177.605424 
z
" clip-path="url(#p612a7dcbdd)" style="fill: #ee6677; stroke: #57606a; stroke-width: 0.6; stroke-linejoin: miter"/>
   </g>
   <g id="patch_5">
    <path d="M 331.539848 182.84 
L 410.624162 182.84 
L 410.624162 123.951017 
L 331.539848 123.951017 
z
" clip-path="url(#p612a7dcbdd)" style="fill: #228833; stroke: #57606a; stroke-width: 0.6; stroke-linejoin: miter"/>
   </g>
   <g id="matplotlib.axis_1">
    <g id="xtick_1">
     <g id="line2d_1">
      <defs>
       <path id="m9a74932a47" d="M 0 0 
L 0 3 
" style="stroke: #57606a; stroke-width: 0.6"/>
      </defs>
      <g>
       <use xlink:href="#m9a74932a47" x="83.502682" y="182.84" style="fill: #57606a; stroke: #57606a; stroke-width: 0.6"/>
      </g>
     </g>
     <g id="text_1">
      <!-- $P_K$ -->
      <g style="fill: #1f2328" transform="translate(79.415182 195.038828) scale(0.075 -0.075)">
       <defs>
        <path id="DejaVuSans-Oblique-50" d="M 1081 4666 
L 2541 4666 
Q 3178 4666 3512 4369 
Q 3847 4072 3847 3500 
Q 3847 2731 3353 2303 
Q 2859 1875 1966 1875 
L 1172 1875 
L 806 0 
L 172 0 
L 1081 4666 
z
M 1613 4147 
L 1275 2394 
L 2069 2394 
Q 2606 2394 2893 2669 
Q 3181 2944 3181 3456 
Q 3181 3784 2986 3965 
Q 2791 4147 2438 4147 
L 1613 4147 
z
" transform="scale(0.015625)"/>
        <path id="DejaVuSans-Oblique-4b" d="M 1081 4666 
L 1716 4666 
L 1331 2700 
L 3781 4666 
L 4622 4666 
L 1850 2438 
L 3878 0 
L 3109 0 
L 1247 2272 
L 806 0 
L 172 0 
L 1081 4666 
z
" transform="scale(0.015625)"/>
       </defs>
       <use xlink:href="#DejaVuSans-Oblique-50" transform="translate(0 0.09375)"/>
       <use xlink:href="#DejaVuSans-Oblique-4b" transform="translate(60.302734 -16.3125) scale(0.7)"/>
      </g>
     </g>
    </g>
    <g id="xtick_2">
     <g id="line2d_2">
      <g>
       <use xlink:href="#m9a74932a47" x="227.292344" y="182.84" style="fill: #57606a; stroke: #57606a; stroke-width: 0.6"/>
      </g>
     </g>
     <g id="text_2">
      <!-- $P_{Na}$ -->
      <g style="fill: #1f2328" transform="translate(221.329844 195.038828) scale(0.075 -0.075)">
       <defs>
        <path id="DejaVuSans-Oblique-4e" d="M 1081 4666 
L 1931 4666 
L 3219 666 
L 4000 4666 
L 4616 4666 
L 3706 0 
L 2853 0 
L 1569 4025 
L 788 0 
L 172 0 
L 1081 4666 
z
" transform="scale(0.015625)"/>
        <path id="DejaVuSans-Oblique-61" d="M 3438 1997 
L 3047 0 
L 2472 0 
L 2578 531 
Q 2325 219 2001 64 
Q 1678 -91 1281 -91 
Q 834 -91 548 182 
Q 263 456 263 884 
Q 263 1497 752 1853 
Q 1241 2209 2100 2209 
L 2900 2209 
L 2931 2363 
Q 2938 2388 2941 2417 
Q 2944 2447 2944 2509 
Q 2944 2788 2717 2942 
Q 2491 3097 2081 3097 
Q 1800 3097 1504 3025 
Q 1209 2953 897 2809 
L 997 3341 
Q 1322 3463 1633 3523 
Q 1944 3584 2234 3584 
Q 2853 3584 3176 3315 
Q 3500 3047 3500 2534 
Q 3500 2431 3484 2292 
Q 3469 2153 3438 1997 
z
M 2816 1759 
L 2241 1759 
Q 1534 1759 1195 1570 
Q 856 1381 856 984 
Q 856 709 1029 553 
Q 1203 397 1509 397 
Q 1978 397 2328 733 
Q 2678 1069 2791 1631 
L 2816 1759 
z
" transform="scale(0.015625)"/>
       </defs>
       <use xlink:href="#DejaVuSans-Oblique-50" transform="translate(0 0.09375)"/>
       <use xlink:href="#DejaVuSans-Oblique-4e" transform="translate(60.302734 -16.3125) scale(0.7)"/>
       <use xlink:href="#DejaVuSans-Oblique-61" transform="translate(112.666016 -16.3125) scale(0.7)"/>
      </g>
     </g>
    </g>
    <g id="xtick_3">
     <g id="line2d_3">
      <g>
       <use xlink:href="#m9a74932a47" x="371.082005" y="182.84" style="fill: #57606a; stroke: #57606a; stroke-width: 0.6"/>
      </g>
     </g>
     <g id="text_3">
      <!-- $P_{Cl}$ -->
      <g style="fill: #1f2328" transform="translate(366.132005 195.038828) scale(0.075 -0.075)">
       <defs>
        <path id="DejaVuSans-Oblique-43" d="M 4447 4306 
L 4319 3641 
Q 4019 3944 3683 4091 
Q 3347 4238 2956 4238 
Q 2422 4238 2017 3981 
Q 1613 3725 1319 3200 
Q 1131 2863 1032 2486 
Q 934 2109 934 1728 
Q 934 1091 1264 756 
Q 1594 422 2222 422 
Q 2656 422 3056 561 
Q 3456 700 3834 978 
L 3688 231 
Q 3316 72 2936 -9 
Q 2556 -91 2175 -91 
Q 1278 -91 773 396 
Q 269 884 269 1753 
Q 269 2309 461 2846 
Q 653 3384 1013 3828 
Q 1394 4300 1883 4525 
Q 2372 4750 3022 4750 
Q 3422 4750 3780 4639 
Q 4138 4528 4447 4306 
z
" transform="scale(0.015625)"/>
        <path id="DejaVuSans-Oblique-6c" d="M 1172 4863 
L 1747 4863 
L 800 0 
L 225 0 
L 1172 4863 
z
" transform="scale(0.015625)"/>
       </defs>
       <use xlink:href="#DejaVuSans-Oblique-50" transform="translate(0 0.09375)"/>
       <use xlink:href="#DejaVuSans-Oblique-43" transform="translate(60.302734 -16.3125) scale(0.7)"/>
       <use xlink:href="#DejaVuSans-Oblique-6c" transform="translate(109.179688 -16.3125) scale(0.7)"/>
      </g>
     </g>
    </g>
   </g>
   <g id="matplotlib.axis_2">
    <g id="ytick_1">
     <g id="line2d_4">
      <defs>
       <path id="m2a6ca5eb86" d="M 0 0 
L -3 0 
" style="stroke: #57606a; stroke-width: 0.6"/>
      </defs>
      <g>
       <use xlink:href="#m2a6ca5eb86" x="25.627344" y="182.84" style="fill: #57606a; stroke: #57606a; stroke-width: 0.6"/>
      </g>
     </g>
     <g id="text_4">
      <!-- 0.0 -->
      <g style="fill: #1f2328" transform="translate(7.2 185.689414) scale(0.075 -0.075)">
       <defs>
        <path id="DejaVuSans-30" d="M 2034 4250 
Q 1547 4250 1301 3770 
Q 1056 3291 1056 2328 
Q 1056 1369 1301 889 
Q 1547 409 2034 409 
Q 2525 409 2770 889 
Q 3016 1369 3016 2328 
Q 3016 3291 2770 3770 
Q 2525 4250 2034 4250 
z
M 2034 4750 
Q 2819 4750 3233 4129 
Q 3647 3509 3647 2328 
Q 3647 1150 3233 529 
Q 2819 -91 2034 -91 
Q 1250 -91 836 529 
Q 422 1150 422 2328 
Q 422 3509 836 4129 
Q 1250 4750 2034 4750 
z
" transform="scale(0.015625)"/>
        <path id="DejaVuSans-2e" d="M 684 794 
L 1344 794 
L 1344 0 
L 684 0 
L 684 794 
z
" transform="scale(0.015625)"/>
       </defs>
       <use xlink:href="#DejaVuSans-30"/>
       <use xlink:href="#DejaVuSans-2e" transform="translate(63.623047 0)"/>
       <use xlink:href="#DejaVuSans-30" transform="translate(95.410156 0)"/>
      </g>
     </g>
    </g>
    <g id="ytick_2">
     <g id="line2d_5">
      <g>
       <use xlink:href="#m2a6ca5eb86" x="25.627344" y="156.667119" style="fill: #57606a; stroke: #57606a; stroke-width: 0.6"/>
      </g>
     </g>
     <g id="text_5">
      <!-- 0.2 -->
      <g style="fill: #1f2328" transform="translate(7.2 159.516533) scale(0.075 -0.075)">
       <defs>
        <path id="DejaVuSans-32" d="M 1228 531 
L 3431 531 
L 3431 0 
L 469 0 
L 469 531 
Q 828 903 1448 1529 
Q 2069 2156 2228 2338 
Q 2531 2678 2651 2914 
Q 2772 3150 2772 3378 
Q 2772 3750 2511 3984 
Q 2250 4219 1831 4219 
Q 1534 4219 1204 4116 
Q 875 4013 500 3803 
L 500 4441 
Q 881 4594 1212 4672 
Q 1544 4750 1819 4750 
Q 2544 4750 2975 4387 
Q 3406 4025 3406 3419 
Q 3406 3131 3298 2873 
Q 3191 2616 2906 2266 
Q 2828 2175 2409 1742 
Q 1991 1309 1228 531 
z
" transform="scale(0.015625)"/>
       </defs>
       <use xlink:href="#DejaVuSans-30"/>
       <use xlink:href="#DejaVuSans-2e" transform="translate(63.623047 0)"/>
       <use xlink:href="#DejaVuSans-32" transform="translate(95.410156 0)"/>
      </g>
     </g>
    </g>
    <g id="ytick_3">
     <g id="line2d_6">
      <g>
       <use xlink:href="#m2a6ca5eb86" x="25.627344" y="130.494237" style="fill: #57606a; stroke: #57606a; stroke-width: 0.6"/>
      </g>
     </g>
     <g id="text_6">
      <!-- 0.4 -->
      <g style="fill: #1f2328" transform="translate(7.2 133.343651) scale(0.075 -0.075)">
       <defs>
        <path id="DejaVuSans-34" d="M 2419 4116 
L 825 1625 
L 2419 1625 
L 2419 4116 
z
M 2253 4666 
L 3047 4666 
L 3047 1625 
L 3713 1625 
L 3713 1100 
L 3047 1100 
L 3047 0 
L 2419 0 
L 2419 1100 
L 313 1100 
L 313 1709 
L 2253 4666 
z
" transform="scale(0.015625)"/>
       </defs>
       <use xlink:href="#DejaVuSans-30"/>
       <use xlink:href="#DejaVuSans-2e" transform="translate(63.623047 0)"/>
       <use xlink:href="#DejaVuSans-34" transform="translate(95.410156 0)"/>
      </g>
     </g>
    </g>
    <g id="ytick_4">
     <g id="line2d_7">
      <g>
       <use xlink:href="#m2a6ca5eb86" x="25.627344" y="104.321356" style="fill: #57606a; stroke: #57606a; stroke-width: 0.6"/>
      </g>
     </g>
     <g id="text_7">
      <!-- 0.6 -->
      <g style="fill: #1f2328" transform="translate(7.2 107.17077) scale(0.075 -0.075)">
       <defs>
        <path id="DejaVuSans-36" d="M 2113 2584 
Q 1688 2584 1439 2293 
Q 1191 2003 1191 1497 
Q 1191 994 1439 701 
Q 1688 409 2113 409 
Q 2538 409 2786 701 
Q 3034 994 3034 1497 
Q 3034 2003 2786 2293 
Q 2538 2584 2113 2584 
z
M 3366 4563 
L 3366 3988 
Q 3128 4100 2886 4159 
Q 2644 4219 2406 4219 
Q 1781 4219 1451 3797 
Q 1122 3375 1075 2522 
Q 1259 2794 1537 2939 
Q 1816 3084 2150 3084 
Q 2853 3084 3261 2657 
Q 3669 2231 3669 1497 
Q 3669 778 3244 343 
Q 2819 -91 2113 -91 
Q 1303 -91 875 529 
Q 447 1150 447 2328 
Q 447 3434 972 4092 
Q 1497 4750 2381 4750 
Q 2619 4750 2861 4703 
Q 3103 4656 3366 4563 
z
" transform="scale(0.015625)"/>
       </defs>
       <use xlink:href="#DejaVuSans-30"/>
       <use xlink:href="#DejaVuSans-2e" transform="translate(63.623047 0)"/>
       <use xlink:href="#DejaVuSans-36" transform="translate(95.410156 0)"/>
      </g>
     </g>
    </g>
    <g id="ytick_5">
     <g id="line2d_8">
      <g>
       <use xlink:href="#m2a6ca5eb86" x="25.627344" y="78.148475" style="fill: #57606a; stroke: #57606a; stroke-width: 0.6"/>
      </g>
     </g>
     <g id="text_8">
      <!-- 0.8 -->
      <g style="fill: #1f2328" transform="translate(7.2 80.997889) scale(0.075 -0.075)">
       <defs>
        <path id="DejaVuSans-38" d="M 2034 2216 
Q 1584 2216 1326 1975 
Q 1069 1734 1069 1313 
Q 1069 891 1326 650 
Q 1584 409 2034 409 
Q 2484 409 2743 651 
Q 3003 894 3003 1313 
Q 3003 1734 2745 1975 
Q 2488 2216 2034 2216 
z
M 1403 2484 
Q 997 2584 770 2862 
Q 544 3141 544 3541 
Q 544 4100 942 4425 
Q 1341 4750 2034 4750 
Q 2731 4750 3128 4425 
Q 3525 4100 3525 3541 
Q 3525 3141 3298 2862 
Q 3072 2584 2669 2484 
Q 3125 2378 3379 2068 
Q 3634 1759 3634 1313 
Q 3634 634 3220 271 
Q 2806 -91 2034 -91 
Q 1263 -91 848 271 
Q 434 634 434 1313 
Q 434 1759 690 2068 
Q 947 2378 1403 2484 
z
M 1172 3481 
Q 1172 3119 1398 2916 
Q 1625 2713 2034 2713 
Q 2441 2713 2670 2916 
Q 2900 3119 2900 3481 
Q 2900 3844 2670 4047 
Q 2441 4250 2034 4250 
Q 1625 4250 1398 4047 
Q 1172 3844 1172 3481 
z
" transform="scale(0.015625)"/>
       </defs>
       <use xlink:href="#DejaVuSans-30"/>
       <use xlink:href="#DejaVuSans-2e" transform="translate(63.623047 0)"/>
       <use xlink:href="#DejaVuSans-38" transform="translate(95.410156 0)"/>
      </g>
     </g>
    </g>
    <g id="ytick_6">
     <g id="line2d_9">
      <g>
       <use xlink:href="#m2a6ca5eb86" x="25.627344" y="51.975593" style="fill: #57606a; stroke: #57606a; stroke-width: 0.6"/>
      </g>
     </g>
     <g id="text_9">
      <!-- 1.0 -->
      <g style="fill: #1f2328" transform="translate(7.2 54.825007) scale(0.075 -0.075)">
       <defs>
        <path id="DejaVuSans-31" d="M 794 531 
L 1825 531 
L 1825 4091 
L 703 3866 
L 703 4441 
L 1819 4666 
L 2450 4666 
L 2450 531 
L 3481 531 
L 3481 0 
L 794 0 
L 794 531 
z
" transform="scale(0.015625)"/>
       </defs>
       <use xlink:href="#DejaVuSans-31"/>
       <use xlink:href="#DejaVuSans-2e" transform="translate(63.623047 0)"/>
       <use xlink:href="#DejaVuSans-30" transform="translate(95.410156 0)"/>
      </g>
     </g>
    </g>
   </g>
   <g id="patch_6">
    <path d="M 25.627344 182.84 
L 25.627344 28.42 
" style="fill: none; stroke: #57606a; stroke-width: 0.7; stroke-linejoin: miter; stroke-linecap: square"/>
   </g>
   <g id="patch_7">
    <path d="M 25.627344 182.84 
L 428.957344 182.84 
" style="fill: none; stroke: #57606a; stroke-width: 0.7; stroke-linejoin: miter; stroke-linecap: square"/>
   </g>
   <g id="text_10">
    <!-- 1 -->
    <g style="fill: #1f2328" transform="translate(80.957682 47.694555) scale(0.08 -0.08)">
     <use xlink:href="#DejaVuSans-31"/>
    </g>
   </g>
   <g id="text_11">
    <!-- 0.04 -->
    <g style="fill: #1f2328" transform="translate(218.386094 173.324386) scale(0.08 -0.08)">
     <use xlink:href="#DejaVuSans-30"/>
     <use xlink:href="#DejaVuSans-2e" transform="translate(63.623047 0)"/>
     <use xlink:href="#DejaVuSans-30" transform="translate(95.410156 0)"/>
     <use xlink:href="#DejaVuSans-34" transform="translate(159.033203 0)"/>
    </g>
   </g>
   <g id="text_12">
    <!-- 0.45 -->
    <g style="fill: #1f2328" transform="translate(362.175755 119.669979) scale(0.08 -0.08)">
     <defs>
      <path id="DejaVuSans-35" d="M 691 4666 
L 3169 4666 
L 3169 4134 
L 1269 4134 
L 1269 2991 
Q 1406 3038 1543 3061 
Q 1681 3084 1819 3084 
Q 2600 3084 3056 2656 
Q 3513 2228 3513 1497 
Q 3513 744 3044 326 
Q 2575 -91 1722 -91 
Q 1428 -91 1123 -41 
Q 819 9 494 109 
L 494 744 
Q 775 591 1075 516 
Q 1375 441 1709 441 
Q 2250 441 2565 725 
Q 2881 1009 2881 1497 
Q 2881 1984 2565 2268 
Q 2250 2553 1709 2553 
Q 1456 2553 1204 2497 
Q 953 2441 691 2322 
L 691 4666 
z
" transform="scale(0.015625)"/>
     </defs>
     <use xlink:href="#DejaVuSans-30"/>
     <use xlink:href="#DejaVuSans-2e" transform="translate(63.623047 0)"/>
     <use xlink:href="#DejaVuSans-34" transform="translate(95.410156 0)"/>
     <use xlink:href="#DejaVuSans-35" transform="translate(159.033203 0)"/>
    </g>
   </g>
   <g id="text_13">
    <!-- relative permeability  (rest) -->
    <g style="fill: #57606a" transform="translate(25.627344 24.695241) scale(0.09 -0.09)">
     <defs>
      <path id="DejaVuSans-72" d="M 2631 2963 
Q 2534 3019 2420 3045 
Q 2306 3072 2169 3072 
Q 1681 3072 1420 2755 
Q 1159 2438 1159 1844 
L 1159 0 
L 581 0 
L 581 3500 
L 1159 3500 
L 1159 2956 
Q 1341 3275 1631 3429 
Q 1922 3584 2338 3584 
Q 2397 3584 2469 3576 
Q 2541 3569 2628 3553 
L 2631 2963 
z
" transform="scale(0.015625)"/>
      <path id="DejaVuSans-65" d="M 3597 1894 
L 3597 1613 
L 953 1613 
Q 991 1019 1311 708 
Q 1631 397 2203 397 
Q 2534 397 2845 478 
Q 3156 559 3463 722 
L 3463 178 
Q 3153 47 2828 -22 
Q 2503 -91 2169 -91 
Q 1331 -91 842 396 
Q 353 884 353 1716 
Q 353 2575 817 3079 
Q 1281 3584 2069 3584 
Q 2775 3584 3186 3129 
Q 3597 2675 3597 1894 
z
M 3022 2063 
Q 3016 2534 2758 2815 
Q 2500 3097 2075 3097 
Q 1594 3097 1305 2825 
Q 1016 2553 972 2059 
L 3022 2063 
z
" transform="scale(0.015625)"/>
      <path id="DejaVuSans-6c" d="M 603 4863 
L 1178 4863 
L 1178 0 
L 603 0 
L 603 4863 
z
" transform="scale(0.015625)"/>
      <path id="DejaVuSans-61" d="M 2194 1759 
Q 1497 1759 1228 1600 
Q 959 1441 959 1056 
Q 959 750 1161 570 
Q 1363 391 1709 391 
Q 2188 391 2477 730 
Q 2766 1069 2766 1631 
L 2766 1759 
L 2194 1759 
z
M 3341 1997 
L 3341 0 
L 2766 0 
L 2766 531 
Q 2569 213 2275 61 
Q 1981 -91 1556 -91 
Q 1019 -91 701 211 
Q 384 513 384 1019 
Q 384 1609 779 1909 
Q 1175 2209 1959 2209 
L 2766 2209 
L 2766 2266 
Q 2766 2663 2505 2880 
Q 2244 3097 1772 3097 
Q 1472 3097 1187 3025 
Q 903 2953 641 2809 
L 641 3341 
Q 956 3463 1253 3523 
Q 1550 3584 1831 3584 
Q 2591 3584 2966 3190 
Q 3341 2797 3341 1997 
z
" transform="scale(0.015625)"/>
      <path id="DejaVuSans-74" d="M 1172 4494 
L 1172 3500 
L 2356 3500 
L 2356 3053 
L 1172 3053 
L 1172 1153 
Q 1172 725 1289 603 
Q 1406 481 1766 481 
L 2356 481 
L 2356 0 
L 1766 0 
Q 1100 0 847 248 
Q 594 497 594 1153 
L 594 3053 
L 172 3053 
L 172 3500 
L 594 3500 
L 594 4494 
L 1172 4494 
z
" transform="scale(0.015625)"/>
      <path id="DejaVuSans-69" d="M 603 3500 
L 1178 3500 
L 1178 0 
L 603 0 
L 603 3500 
z
M 603 4863 
L 1178 4863 
L 1178 4134 
L 603 4134 
L 603 4863 
z
" transform="scale(0.015625)"/>
      <path id="DejaVuSans-76" d="M 191 3500 
L 800 3500 
L 1894 563 
L 2988 3500 
L 3597 3500 
L 2284 0 
L 1503 0 
L 191 3500 
z
" transform="scale(0.015625)"/>
      <path id="DejaVuSans-20" transform="scale(0.015625)"/>
      <path id="DejaVuSans-70" d="M 1159 525 
L 1159 -1331 
L 581 -1331 
L 581 3500 
L 1159 3500 
L 1159 2969 
Q 1341 3281 1617 3432 
Q 1894 3584 2278 3584 
Q 2916 3584 3314 3078 
Q 3713 2572 3713 1747 
Q 3713 922 3314 415 
Q 2916 -91 2278 -91 
Q 1894 -91 1617 61 
Q 1341 213 1159 525 
z
M 3116 1747 
Q 3116 2381 2855 2742 
Q 2594 3103 2138 3103 
Q 1681 3103 1420 2742 
Q 1159 2381 1159 1747 
Q 1159 1113 1420 752 
Q 1681 391 2138 391 
Q 2594 391 2855 752 
Q 3116 1113 3116 1747 
z
" transform="scale(0.015625)"/>
      <path id="DejaVuSans-6d" d="M 3328 2828 
Q 3544 3216 3844 3400 
Q 4144 3584 4550 3584 
Q 5097 3584 5394 3201 
Q 5691 2819 5691 2113 
L 5691 0 
L 5113 0 
L 5113 2094 
Q 5113 2597 4934 2840 
Q 4756 3084 4391 3084 
Q 3944 3084 3684 2787 
Q 3425 2491 3425 1978 
L 3425 0 
L 2847 0 
L 2847 2094 
Q 2847 2600 2669 2842 
Q 2491 3084 2119 3084 
Q 1678 3084 1418 2786 
Q 1159 2488 1159 1978 
L 1159 0 
L 581 0 
L 581 3500 
L 1159 3500 
L 1159 2956 
Q 1356 3278 1631 3431 
Q 1906 3584 2284 3584 
Q 2666 3584 2933 3390 
Q 3200 3197 3328 2828 
z
" transform="scale(0.015625)"/>
      <path id="DejaVuSans-62" d="M 3116 1747 
Q 3116 2381 2855 2742 
Q 2594 3103 2138 3103 
Q 1681 3103 1420 2742 
Q 1159 2381 1159 1747 
Q 1159 1113 1420 752 
Q 1681 391 2138 391 
Q 2594 391 2855 752 
Q 3116 1113 3116 1747 
z
M 1159 2969 
Q 1341 3281 1617 3432 
Q 1894 3584 2278 3584 
Q 2916 3584 3314 3078 
Q 3713 2572 3713 1747 
Q 3713 922 3314 415 
Q 2916 -91 2278 -91 
Q 1894 -91 1617 61 
Q 1341 213 1159 525 
L 1159 0 
L 581 0 
L 581 4863 
L 1159 4863 
L 1159 2969 
z
" transform="scale(0.015625)"/>
      <path id="DejaVuSans-79" d="M 2059 -325 
Q 1816 -950 1584 -1140 
Q 1353 -1331 966 -1331 
L 506 -1331 
L 506 -850 
L 844 -850 
Q 1081 -850 1212 -737 
Q 1344 -625 1503 -206 
L 1606 56 
L 191 3500 
L 800 3500 
L 1894 763 
L 2988 3500 
L 3597 3500 
L 2059 -325 
z
" transform="scale(0.015625)"/>
      <path id="DejaVuSans-28" d="M 1984 4856 
Q 1566 4138 1362 3434 
Q 1159 2731 1159 2009 
Q 1159 1288 1364 580 
Q 1569 -128 1984 -844 
L 1484 -844 
Q 1016 -109 783 600 
Q 550 1309 550 2009 
Q 550 2706 781 3412 
Q 1013 4119 1484 4856 
L 1984 4856 
z
" transform="scale(0.015625)"/>
      <path id="DejaVuSans-73" d="M 2834 3397 
L 2834 2853 
Q 2591 2978 2328 3040 
Q 2066 3103 1784 3103 
Q 1356 3103 1142 2972 
Q 928 2841 928 2578 
Q 928 2378 1081 2264 
Q 1234 2150 1697 2047 
L 1894 2003 
Q 2506 1872 2764 1633 
Q 3022 1394 3022 966 
Q 3022 478 2636 193 
Q 2250 -91 1575 -91 
Q 1294 -91 989 -36 
Q 684 19 347 128 
L 347 722 
Q 666 556 975 473 
Q 1284 391 1588 391 
Q 1994 391 2212 530 
Q 2431 669 2431 922 
Q 2431 1156 2273 1281 
Q 2116 1406 1581 1522 
L 1381 1569 
Q 847 1681 609 1914 
Q 372 2147 372 2553 
Q 372 3047 722 3315 
Q 1072 3584 1716 3584 
Q 2034 3584 2315 3537 
Q 2597 3491 2834 3397 
z
" transform="scale(0.015625)"/>
      <path id="DejaVuSans-29" d="M 513 4856 
L 1013 4856 
Q 1481 4119 1714 3412 
Q 1947 2706 1947 2009 
Q 1947 1309 1714 600 
Q 1481 -109 1013 -844 
L 513 -844 
Q 928 -128 1133 580 
Q 1338 1288 1338 2009 
Q 1338 2731 1133 3434 
Q 928 4138 513 4856 
z
" transform="scale(0.015625)"/>
     </defs>
     <use xlink:href="#DejaVuSans-72"/>
     <use xlink:href="#DejaVuSans-65" transform="translate(38.863281 0)"/>
     <use xlink:href="#DejaVuSans-6c" transform="translate(100.386719 0)"/>
     <use xlink:href="#DejaVuSans-61" transform="translate(128.169922 0)"/>
     <use xlink:href="#DejaVuSans-74" transform="translate(189.449219 0)"/>
     <use xlink:href="#DejaVuSans-69" transform="translate(228.658203 0)"/>
     <use xlink:href="#DejaVuSans-76" transform="translate(256.441406 0)"/>
     <use xlink:href="#DejaVuSans-65" transform="translate(315.621094 0)"/>
     <use xlink:href="#DejaVuSans-20" transform="translate(377.144531 0)"/>
     <use xlink:href="#DejaVuSans-70" transform="translate(408.931641 0)"/>
     <use xlink:href="#DejaVuSans-65" transform="translate(472.408203 0)"/>
     <use xlink:href="#DejaVuSans-72" transform="translate(533.931641 0)"/>
     <use xlink:href="#DejaVuSans-6d" transform="translate(573.294922 0)"/>
     <use xlink:href="#DejaVuSans-65" transform="translate(670.707031 0)"/>
     <use xlink:href="#DejaVuSans-61" transform="translate(732.230469 0)"/>
     <use xlink:href="#DejaVuSans-62" transform="translate(793.509766 0)"/>
     <use xlink:href="#DejaVuSans-69" transform="translate(856.986328 0)"/>
     <use xlink:href="#DejaVuSans-6c" transform="translate(884.769531 0)"/>
     <use xlink:href="#DejaVuSans-69" transform="translate(912.552734 0)"/>
     <use xlink:href="#DejaVuSans-74" transform="translate(940.335938 0)"/>
     <use xlink:href="#DejaVuSans-79" transform="translate(979.544922 0)"/>
     <use xlink:href="#DejaVuSans-20" transform="translate(1038.724609 0)"/>
     <use xlink:href="#DejaVuSans-20" transform="translate(1070.511719 0)"/>
     <use xlink:href="#DejaVuSans-28" transform="translate(1102.298828 0)"/>
     <use xlink:href="#DejaVuSans-72" transform="translate(1141.3125 0)"/>
     <use xlink:href="#DejaVuSans-65" transform="translate(1180.175781 0)"/>
     <use xlink:href="#DejaVuSans-73" transform="translate(1241.699219 0)"/>
     <use xlink:href="#DejaVuSans-74" transform="translate(1293.798828 0)"/>
     <use xlink:href="#DejaVuSans-29" transform="translate(1333.007812 0)"/>
    </g>
   </g>
   <g id="text_14">
    <g id="patch_8">
     <path d="M 149.304844 255.1194 
L 305.279844 255.1194 
Q 309.529844 255.1194 309.529844 250.8694 
L 309.529844 232.2544 
Q 309.529844 228.0044 305.279844 228.0044 
L 149.304844 228.0044 
Q 145.054844 228.0044 145.054844 232.2544 
L 145.054844 250.8694 
Q 145.054844 255.1194 149.304844 255.1194 
z
" style="fill: #fafbfc; stroke: #d0d7de; stroke-width: 0.5; stroke-linejoin: miter"/>
    </g>
    <!-- $V_m=\dfrac{RT}{F}\,\ln\dfrac{P_K[K]_o+P_{Na}[Na]_o+P_{Cl}[Cl]_i}{P_K[K]_i+P_{Na}[Na]_i+P_{Cl}[Cl]_o}$ -->
    <g style="fill: #1f2328" transform="translate(149.304844 243.9844) scale(0.085 -0.085)">
     <defs>
      <path id="DejaVuSans-Oblique-56" d="M 1319 0 
L 500 4666 
L 1119 4666 
L 1797 653 
L 4063 4666 
L 4750 4666 
L 2053 0 
L 1319 0 
z
" transform="scale(0.015625)"/>
      <path id="DejaVuSans-Oblique-6d" d="M 5747 2113 
L 5338 0 
L 4763 0 
L 5166 2094 
Q 5191 2228 5203 2325 
Q 5216 2422 5216 2491 
Q 5216 2772 5059 2928 
Q 4903 3084 4622 3084 
Q 4203 3084 3875 2770 
Q 3547 2456 3450 1953 
L 3066 0 
L 2491 0 
L 2900 2094 
Q 2925 2209 2937 2307 
Q 2950 2406 2950 2484 
Q 2950 2769 2794 2926 
Q 2638 3084 2363 3084 
Q 1938 3084 1609 2770 
Q 1281 2456 1184 1953 
L 800 0 
L 225 0 
L 909 3500 
L 1484 3500 
L 1375 2956 
Q 1609 3263 1923 3423 
Q 2238 3584 2597 3584 
Q 2978 3584 3223 3384 
Q 3469 3184 3519 2828 
Q 3781 3197 4126 3390 
Q 4472 3584 4856 3584 
Q 5306 3584 5551 3325 
Q 5797 3066 5797 2591 
Q 5797 2488 5784 2364 
Q 5772 2241 5747 2113 
z
" transform="scale(0.015625)"/>
      <path id="DejaVuSans-3d" d="M 678 2906 
L 4684 2906 
L 4684 2381 
L 678 2381 
L 678 2906 
z
M 678 1631 
L 4684 1631 
L 4684 1100 
L 678 1100 
L 678 1631 
z
" transform="scale(0.015625)"/>
      <path id="DejaVuSans-Oblique-52" d="M 1613 4147 
L 1294 2491 
L 2106 2491 
Q 2584 2491 2879 2755 
Q 3175 3019 3175 3444 
Q 3175 3784 2976 3965 
Q 2778 4147 2406 4147 
L 1613 4147 
z
M 2772 2241 
Q 2972 2194 3105 2009 
Q 3238 1825 3413 1275 
L 3809 0 
L 3144 0 
L 2778 1197 
Q 2638 1659 2453 1815 
Q 2269 1972 1888 1972 
L 1191 1972 
L 806 0 
L 172 0 
L 1081 4666 
L 2503 4666 
Q 3150 4666 3495 4373 
Q 3841 4081 3841 3531 
Q 3841 3044 3547 2687 
Q 3253 2331 2772 2241 
z
" transform="scale(0.015625)"/>
      <path id="DejaVuSans-Oblique-54" d="M 378 4666 
L 4325 4666 
L 4225 4134 
L 2559 4134 
L 1759 0 
L 1125 0 
L 1925 4134 
L 275 4134 
L 378 4666 
z
" transform="scale(0.015625)"/>
      <path id="DejaVuSans-Oblique-46" d="M 1081 4666 
L 3756 4666 
L 3653 4134 
L 1606 4134 
L 1338 2759 
L 3188 2759 
L 3084 2228 
L 1234 2228 
L 800 0 
L 172 0 
L 1081 4666 
z
" transform="scale(0.015625)"/>
      <path id="DejaVuSans-6e" d="M 3513 2113 
L 3513 0 
L 2938 0 
L 2938 2094 
Q 2938 2591 2744 2837 
Q 2550 3084 2163 3084 
Q 1697 3084 1428 2787 
Q 1159 2491 1159 1978 
L 1159 0 
L 581 0 
L 581 3500 
L 1159 3500 
L 1159 2956 
Q 1366 3272 1645 3428 
Q 1925 3584 2291 3584 
Q 2894 3584 3203 3211 
Q 3513 2838 3513 2113 
z
" transform="scale(0.015625)"/>
      <path id="DejaVuSans-5b" d="M 550 4863 
L 1875 4863 
L 1875 4416 
L 1125 4416 
L 1125 -397 
L 1875 -397 
L 1875 -844 
L 550 -844 
L 550 4863 
z
" transform="scale(0.015625)"/>
      <path id="DejaVuSans-5d" d="M 1947 4863 
L 1947 -844 
L 622 -844 
L 622 -397 
L 1369 -397 
L 1369 4416 
L 622 4416 
L 622 4863 
L 1947 4863 
z
" transform="scale(0.015625)"/>
      <path id="DejaVuSans-Oblique-6f" d="M 1625 -91 
Q 1009 -91 651 289 
Q 294 669 294 1325 
Q 294 1706 417 2101 
Q 541 2497 738 2766 
Q 1047 3184 1428 3384 
Q 1809 3584 2291 3584 
Q 2888 3584 3255 3212 
Q 3622 2841 3622 2241 
Q 3622 1825 3500 1412 
Q 3378 1000 3181 728 
Q 2875 309 2494 109 
Q 2113 -91 1625 -91 
z
M 891 1344 
Q 891 869 1089 633 
Q 1288 397 1691 397 
Q 2269 397 2648 901 
Q 3028 1406 3028 2181 
Q 3028 2634 2825 2865 
Q 2622 3097 2228 3097 
Q 1903 3097 1650 2945 
Q 1397 2794 1197 2484 
Q 1050 2253 970 1956 
Q 891 1659 891 1344 
z
" transform="scale(0.015625)"/>
      <path id="DejaVuSans-2b" d="M 2944 4013 
L 2944 2272 
L 4684 2272 
L 4684 1741 
L 2944 1741 
L 2944 0 
L 2419 0 
L 2419 1741 
L 678 1741 
L 678 2272 
L 2419 2272 
L 2419 4013 
L 2944 4013 
z
" transform="scale(0.015625)"/>
      <path id="DejaVuSans-Oblique-69" d="M 1172 4863 
L 1747 4863 
L 1606 4134 
L 1031 4134 
L 1172 4863 
z
M 909 3500 
L 1484 3500 
L 800 0 
L 225 0 
L 909 3500 
z
" transform="scale(0.015625)"/>
     </defs>
     <use xlink:href="#DejaVuSans-Oblique-56" transform="translate(0 0.817187)"/>
     <use xlink:href="#DejaVuSans-Oblique-6d" transform="translate(68.408203 -15.589063) scale(0.7)"/>
     <use xlink:href="#DejaVuSans-3d" transform="translate(158.813477 0.817187)"/>
     <use xlink:href="#DejaVuSans-Oblique-52" transform="translate(262.084961 44.614062)"/>
     <use xlink:href="#DejaVuSans-Oblique-54" transform="translate(331.567383 44.614062)"/>
     <use xlink:href="#DejaVuSans-Oblique-46" transform="translate(299.084961 -59.542188)"/>
     <use xlink:href="#DejaVuSans-6c" transform="translate(421.387043 0.817187)"/>
     <use xlink:href="#DejaVuSans-6e" transform="translate(449.170247 0.817187)"/>
     <use xlink:href="#DejaVuSans-Oblique-50" transform="translate(528.784829 62.015625)"/>
     <use xlink:href="#DejaVuSans-Oblique-4b" transform="translate(589.087563 45.609375) scale(0.7)"/>
     <use xlink:href="#DejaVuSans-5b" transform="translate(637.725259 62.015625)"/>
     <use xlink:href="#DejaVuSans-Oblique-4b" transform="translate(676.738931 62.015625)"/>
     <use xlink:href="#DejaVuSans-5d" transform="translate(742.315103 62.015625)"/>
     <use xlink:href="#DejaVuSans-Oblique-6f" transform="translate(782.285806 45.609375) scale(0.7)"/>
     <use xlink:href="#DejaVuSans-2b" transform="translate(847.329751 62.015625)"/>
     <use xlink:href="#DejaVuSans-Oblique-50" transform="translate(950.601235 62.015625)"/>
     <use xlink:href="#DejaVuSans-Oblique-4e" transform="translate(1010.90397 45.609375) scale(0.7)"/>
     <use xlink:href="#DejaVuSans-Oblique-61" transform="translate(1063.267251 45.609375) scale(0.7)"/>
     <use xlink:href="#DejaVuSans-5b" transform="translate(1108.897134 62.015625)"/>
     <use xlink:href="#DejaVuSans-Oblique-4e" transform="translate(1147.910806 62.015625)"/>
     <use xlink:href="#DejaVuSans-Oblique-61" transform="translate(1222.715493 62.015625)"/>
     <use xlink:href="#DejaVuSans-5d" transform="translate(1283.99479 62.015625)"/>
     <use xlink:href="#DejaVuSans-Oblique-6f" transform="translate(1323.965493 45.609375) scale(0.7)"/>
     <use xlink:href="#DejaVuSans-2b" transform="translate(1389.009438 62.015625)"/>
     <use xlink:href="#DejaVuSans-Oblique-50" transform="translate(1492.280923 62.015625)"/>
     <use xlink:href="#DejaVuSans-Oblique-43" transform="translate(1552.583657 45.609375) scale(0.7)"/>
     <use xlink:href="#DejaVuSans-Oblique-6c" transform="translate(1601.46061 45.609375) scale(0.7)"/>
     <use xlink:href="#DejaVuSans-5b" transform="translate(1623.643228 62.015625)"/>
     <use xlink:href="#DejaVuSans-Oblique-43" transform="translate(1662.656899 62.015625)"/>
     <use xlink:href="#DejaVuSans-Oblique-6c" transform="translate(1732.481118 62.015625)"/>
     <use xlink:href="#DejaVuSans-5d" transform="translate(1760.264321 62.015625)"/>
     <use xlink:href="#DejaVuSans-Oblique-69" transform="translate(1800.235024 45.609375) scale(0.7)"/>
     <use xlink:href="#DejaVuSans-Oblique-50" transform="translate(540.784829 -62.620313)"/>
     <use xlink:href="#DejaVuSans-Oblique-4b" transform="translate(601.087563 -79.026563) scale(0.7)"/>
     <use xlink:href="#DejaVuSans-5b" transform="translate(649.725259 -62.620313)"/>
     <use xlink:href="#DejaVuSans-Oblique-4b" transform="translate(688.738931 -62.620313)"/>
     <use xlink:href="#DejaVuSans-5d" transform="translate(754.315103 -62.620313)"/>
     <use xlink:href="#DejaVuSans-Oblique-69" transform="translate(794.285806 -79.026563) scale(0.7)"/>
     <use xlink:href="#DejaVuSans-2b" transform="translate(835.950845 -62.620313)"/>
     <use xlink:href="#DejaVuSans-Oblique-50" transform="translate(939.222329 -62.620313)"/>
     <use xlink:href="#DejaVuSans-Oblique-4e" transform="translate(999.525063 -79.026563) scale(0.7)"/>
     <use xlink:href="#DejaVuSans-Oblique-61" transform="translate(1051.888345 -79.026563) scale(0.7)"/>
     <use xlink:href="#DejaVuSans-5b" transform="translate(1097.518228 -62.620313)"/>
     <use xlink:href="#DejaVuSans-Oblique-4e" transform="translate(1136.531899 -62.620313)"/>
     <use xlink:href="#DejaVuSans-Oblique-61" transform="translate(1211.336587 -62.620313)"/>
     <use xlink:href="#DejaVuSans-5d" transform="translate(1272.615884 -62.620313)"/>
     <use xlink:href="#DejaVuSans-Oblique-69" transform="translate(1312.586587 -79.026563) scale(0.7)"/>
     <use xlink:href="#DejaVuSans-2b" transform="translate(1354.251626 -62.620313)"/>
     <use xlink:href="#DejaVuSans-Oblique-50" transform="translate(1457.52311 -62.620313)"/>
     <use xlink:href="#DejaVuSans-Oblique-43" transform="translate(1517.825845 -79.026563) scale(0.7)"/>
     <use xlink:href="#DejaVuSans-Oblique-6c" transform="translate(1566.702798 -79.026563) scale(0.7)"/>
     <use xlink:href="#DejaVuSans-5b" transform="translate(1588.885415 -62.620313)"/>
     <use xlink:href="#DejaVuSans-Oblique-43" transform="translate(1627.899087 -62.620313)"/>
     <use xlink:href="#DejaVuSans-Oblique-6c" transform="translate(1697.723306 -62.620313)"/>
     <use xlink:href="#DejaVuSans-5d" transform="translate(1725.506509 -62.620313)"/>
     <use xlink:href="#DejaVuSans-Oblique-6f" transform="translate(1765.477212 -79.026563) scale(0.7)"/>
     <path d="M 262.084961 19.614062 
L 262.084961 25.864062 
L 392.651367 25.864062 
L 392.651367 19.614062 
L 262.084961 19.614062 
z
"/>
     <path d="M 528.784829 19.614063 
L 528.784829 25.864063 
L 1822.417642 25.864063 
L 1822.417642 19.614063 
L 528.784829 19.614063 
z
"/>
    </g>
   </g>
   <g id="text_15">
    <!-- GHK weighted permeabilities — $P_K$ dominates at rest -->
    <g style="fill: #1f2328" transform="translate(101.512344 14.42) scale(0.095 -0.095)">
     <defs>
      <path id="DejaVuSans-47" d="M 3809 666 
L 3809 1919 
L 2778 1919 
L 2778 2438 
L 4434 2438 
L 4434 434 
Q 4069 175 3628 42 
Q 3188 -91 2688 -91 
Q 1594 -91 976 548 
Q 359 1188 359 2328 
Q 359 3472 976 4111 
Q 1594 4750 2688 4750 
Q 3144 4750 3555 4637 
Q 3966 4525 4313 4306 
L 4313 3634 
Q 3963 3931 3569 4081 
Q 3175 4231 2741 4231 
Q 1884 4231 1454 3753 
Q 1025 3275 1025 2328 
Q 1025 1384 1454 906 
Q 1884 428 2741 428 
Q 3075 428 3337 486 
Q 3600 544 3809 666 
z
" transform="scale(0.015625)"/>
      <path id="DejaVuSans-48" d="M 628 4666 
L 1259 4666 
L 1259 2753 
L 3553 2753 
L 3553 4666 
L 4184 4666 
L 4184 0 
L 3553 0 
L 3553 2222 
L 1259 2222 
L 1259 0 
L 628 0 
L 628 4666 
z
" transform="scale(0.015625)"/>
      <path id="DejaVuSans-4b" d="M 628 4666 
L 1259 4666 
L 1259 2694 
L 3353 4666 
L 4166 4666 
L 1850 2491 
L 4331 0 
L 3500 0 
L 1259 2247 
L 1259 0 
L 628 0 
L 628 4666 
z
" transform="scale(0.015625)"/>
      <path id="DejaVuSans-77" d="M 269 3500 
L 844 3500 
L 1563 769 
L 2278 3500 
L 2956 3500 
L 3675 769 
L 4391 3500 
L 4966 3500 
L 4050 0 
L 3372 0 
L 2619 2869 
L 1863 0 
L 1184 0 
L 269 3500 
z
" transform="scale(0.015625)"/>
      <path id="DejaVuSans-67" d="M 2906 1791 
Q 2906 2416 2648 2759 
Q 2391 3103 1925 3103 
Q 1463 3103 1205 2759 
Q 947 2416 947 1791 
Q 947 1169 1205 825 
Q 1463 481 1925 481 
Q 2391 481 2648 825 
Q 2906 1169 2906 1791 
z
M 3481 434 
Q 3481 -459 3084 -895 
Q 2688 -1331 1869 -1331 
Q 1566 -1331 1297 -1286 
Q 1028 -1241 775 -1147 
L 775 -588 
Q 1028 -725 1275 -790 
Q 1522 -856 1778 -856 
Q 2344 -856 2625 -561 
Q 2906 -266 2906 331 
L 2906 616 
Q 2728 306 2450 153 
Q 2172 0 1784 0 
Q 1141 0 747 490 
Q 353 981 353 1791 
Q 353 2603 747 3093 
Q 1141 3584 1784 3584 
Q 2172 3584 2450 3431 
Q 2728 3278 2906 2969 
L 2906 3500 
L 3481 3500 
L 3481 434 
z
" transform="scale(0.015625)"/>
      <path id="DejaVuSans-68" d="M 3513 2113 
L 3513 0 
L 2938 0 
L 2938 2094 
Q 2938 2591 2744 2837 
Q 2550 3084 2163 3084 
Q 1697 3084 1428 2787 
Q 1159 2491 1159 1978 
L 1159 0 
L 581 0 
L 581 4863 
L 1159 4863 
L 1159 2956 
Q 1366 3272 1645 3428 
Q 1925 3584 2291 3584 
Q 2894 3584 3203 3211 
Q 3513 2838 3513 2113 
z
" transform="scale(0.015625)"/>
      <path id="DejaVuSans-64" d="M 2906 2969 
L 2906 4863 
L 3481 4863 
L 3481 0 
L 2906 0 
L 2906 525 
Q 2725 213 2448 61 
Q 2172 -91 1784 -91 
Q 1150 -91 751 415 
Q 353 922 353 1747 
Q 353 2572 751 3078 
Q 1150 3584 1784 3584 
Q 2172 3584 2448 3432 
Q 2725 3281 2906 2969 
z
M 947 1747 
Q 947 1113 1208 752 
Q 1469 391 1925 391 
Q 2381 391 2643 752 
Q 2906 1113 2906 1747 
Q 2906 2381 2643 2742 
Q 2381 3103 1925 3103 
Q 1469 3103 1208 2742 
Q 947 2381 947 1747 
z
" transform="scale(0.015625)"/>
      <path id="DejaVuSansDisplay-2014" d="M 313 1978 
L 6088 1978 
L 6088 1528 
L 313 1528 
L 313 1978 
z
" transform="scale(0.015625)"/>
      <path id="DejaVuSans-6f" d="M 1959 3097 
Q 1497 3097 1228 2736 
Q 959 2375 959 1747 
Q 959 1119 1226 758 
Q 1494 397 1959 397 
Q 2419 397 2687 759 
Q 2956 1122 2956 1747 
Q 2956 2369 2687 2733 
Q 2419 3097 1959 3097 
z
M 1959 3584 
Q 2709 3584 3137 3096 
Q 3566 2609 3566 1747 
Q 3566 888 3137 398 
Q 2709 -91 1959 -91 
Q 1206 -91 779 398 
Q 353 888 353 1747 
Q 353 2609 779 3096 
Q 1206 3584 1959 3584 
z
" transform="scale(0.015625)"/>
     </defs>
     <use xlink:href="#DejaVuSans-47" transform="translate(0 0.015625)"/>
     <use xlink:href="#DejaVuSans-48" transform="translate(77.490234 0.015625)"/>
     <use xlink:href="#DejaVuSans-4b" transform="translate(152.685547 0.015625)"/>
     <use xlink:href="#DejaVuSans-20" transform="translate(218.261719 0.015625)"/>
     <use xlink:href="#DejaVuSans-77" transform="translate(250.048828 0.015625)"/>
     <use xlink:href="#DejaVuSans-65" transform="translate(331.835938 0.015625)"/>
     <use xlink:href="#DejaVuSans-69" transform="translate(393.359375 0.015625)"/>
     <use xlink:href="#DejaVuSans-67" transform="translate(421.142578 0.015625)"/>
     <use xlink:href="#DejaVuSans-68" transform="translate(484.619141 0.015625)"/>
     <use xlink:href="#DejaVuSans-74" transform="translate(547.998047 0.015625)"/>
     <use xlink:href="#DejaVuSans-65" transform="translate(587.207031 0.015625)"/>
     <use xlink:href="#DejaVuSans-64" transform="translate(648.730469 0.015625)"/>
     <use xlink:href="#DejaVuSans-20" transform="translate(712.207031 0.015625)"/>
     <use xlink:href="#DejaVuSans-70" transform="translate(743.994141 0.015625)"/>
     <use xlink:href="#DejaVuSans-65" transform="translate(807.470703 0.015625)"/>
     <use xlink:href="#DejaVuSans-72" transform="translate(868.994141 0.015625)"/>
     <use xlink:href="#DejaVuSans-6d" transform="translate(910.107422 0.015625)"/>
     <use xlink:href="#DejaVuSans-65" transform="translate(1007.519531 0.015625)"/>
     <use xlink:href="#DejaVuSans-61" transform="translate(1069.042969 0.015625)"/>
     <use xlink:href="#DejaVuSans-62" transform="translate(1130.322266 0.015625)"/>
     <use xlink:href="#DejaVuSans-69" transform="translate(1193.798828 0.015625)"/>
     <use xlink:href="#DejaVuSans-6c" transform="translate(1221.582031 0.015625)"/>
     <use xlink:href="#DejaVuSans-69" transform="translate(1249.365234 0.015625)"/>
     <use xlink:href="#DejaVuSans-74" transform="translate(1277.148438 0.015625)"/>
     <use xlink:href="#DejaVuSans-69" transform="translate(1316.357422 0.015625)"/>
     <use xlink:href="#DejaVuSans-65" transform="translate(1344.140625 0.015625)"/>
     <use xlink:href="#DejaVuSans-73" transform="translate(1405.664062 0.015625)"/>
     <use xlink:href="#DejaVuSans-20" transform="translate(1457.763672 0.015625)"/>
     <use xlink:href="#DejaVuSansDisplay-2014" transform="translate(1489.550781 0.015625)"/>
     <use xlink:href="#DejaVuSans-20" transform="translate(1589.550781 0.015625)"/>
     <use xlink:href="#DejaVuSans-Oblique-50" transform="translate(1621.337891 0.015625)"/>
     <use xlink:href="#DejaVuSans-Oblique-4b" transform="translate(1681.640625 -16.390625) scale(0.7)"/>
     <use xlink:href="#DejaVuSans-20" transform="translate(1730.27832 0.015625)"/>
     <use xlink:href="#DejaVuSans-64" transform="translate(1762.06543 0.015625)"/>
     <use xlink:href="#DejaVuSans-6f" transform="translate(1825.541992 0.015625)"/>
     <use xlink:href="#DejaVuSans-6d" transform="translate(1886.723633 0.015625)"/>
     <use xlink:href="#DejaVuSans-69" transform="translate(1984.135742 0.015625)"/>
     <use xlink:href="#DejaVuSans-6e" transform="translate(2011.918945 0.015625)"/>
     <use xlink:href="#DejaVuSans-61" transform="translate(2075.297852 0.015625)"/>
     <use xlink:href="#DejaVuSans-74" transform="translate(2136.577148 0.015625)"/>
     <use xlink:href="#DejaVuSans-65" transform="translate(2175.786133 0.015625)"/>
     <use xlink:href="#DejaVuSans-73" transform="translate(2237.30957 0.015625)"/>
     <use xlink:href="#DejaVuSans-20" transform="translate(2289.40918 0.015625)"/>
     <use xlink:href="#DejaVuSans-61" transform="translate(2321.196289 0.015625)"/>
     <use xlink:href="#DejaVuSans-74" transform="translate(2382.475586 0.015625)"/>
     <use xlink:href="#DejaVuSans-20" transform="translate(2421.68457 0.015625)"/>
     <use xlink:href="#DejaVuSans-72" transform="translate(2453.47168 0.015625)"/>
     <use xlink:href="#DejaVuSans-65" transform="translate(2494.584961 0.015625)"/>
     <use xlink:href="#DejaVuSans-73" transform="translate(2556.108398 0.015625)"/>
     <use xlink:href="#DejaVuSans-74" transform="translate(2608.208008 0.015625)"/>
    </g>
   </g>
  </g>
 </g>
 <defs>
  <clipPath id="p612a7dcbdd">
   <rect x="25.627344" y="28.42" width="403.33" height="154.42"/>
  </clipPath>
 </defs>
</svg>
