<?xml version="1.0" encoding="utf-8" standalone="no"?>
<!DOCTYPE svg PUBLIC "-//W3C//DTD SVG 1.1//EN"
  "http://www.w3.org/Graphics/SVG/1.1/DTD/svg11.dtd">
<svg xmlns:xlink="http://www.w3.org/1999/xlink" width="436.157344pt" height="262.827422pt" viewBox="0 0 436.157344 262.827422" xmlns="http://www.w3.org/2000/svg" version="1.1">
 <metadata>
  <rdf:RDF xmlns:dc="http://purl.org/dc/elements/1.1/" xmlns:cc="http://creativecommons.org/ns#" xmlns:rdf="http://www.w3.org/1999/02/22-rdf-syntax-ns#">
   <cc:Work>
    <dc:type rdf:resource="http://purl.org/dc/dcmitype/StillImage"/>
    <dc:date>2023-11-14T22:13:20+00:00</dc:date>
    <dc:format>image/svg+xml</dc:format>
    <dc:creator>
     <cc:Agent>
      <dc:title>Matplotlib v3.10.8, https://matplotlib.org/</dc:title>
     </cc:Agent>
    </dc:creator>
   </cc:Work>
  </rdf:RDF>
 </metadata>
 <defs>
  <style type="text/css">*{stroke-linejoin: round; stroke-linecap: butt}</style>
 </defs>
 <g id="figure_1">
  <g id="patch_1">
   <path d="M 0 262.827422 
L 436.157344 262.827422 
L 436.157344 0 
L 0 0 
z
" style="fill: #fafbfc"/>
  </g>
  <g id="axes_1">
   <g id="patch_2">
    <path d="M 25.627344 229.158516 
L 428.957344 229.158516 
L 428.957344 28.418516 
L 25.627344 28.418516 
z
" style="fill: #fafbfc"/>
   </g>
   <g id="matplotlib.axis_1">
    <g id="xtick_1">
     <g id="line2d_1">
      <defs>
       <path id="m9a74932a47" d="M 0 0 
L 0 3 
" style="stroke: #57606a; stroke-width: 0.6"/>
      </defs>
      <g>
       <use xlink:href="#m9a74932a47" x="25.627344" y="229.158516" style="fill: #57606a; stroke: #57606a; stroke-width: 0.6"/>
      </g>
     </g>
     <g id="text_1">
      <!-- −100 -->
      <g style="fill: #1f2328" transform="translate(15.327148 241.357344) scale(0.075 -0.075)">
       <defs>
        <path id="DejaVuSans-2212" d="M 678 2272 
L 4684 2272 
L 4684 1741 
L 678 1741 
L 678 2272 
z
" transform="scale(0.015625)"/>
        <path id="DejaVuSans-31" d="M 794 531 
L 1825 531 
L 1825 4091 
L 703 3866 
L 703 4441 
L 1819 4666 
L 2450 4666 
L 2450 531 
L 3481 531 
L 3481 0 
L 794 0 
L 794 531 
z
" transform="scale(0.015625)"/>
        <path id="DejaVuSans-30" d="M 2034 4250 
Q 1547 4250 1301 3770 
Q 1056 3291 1056 2328 
Q 1056 1369 1301 889 
Q 1547 409 2034 409 
Q 2525 409 2770 889 
Q 3016 1369 3016 2328 
Q 3016 3291 2770 3770 
Q 2525 4250 2034 4250 
z
M 2034 4750 
Q 2819 4750 3233 4129 
Q 3647 3509 3647 2328 
Q 3647 1150 3233 529 
Q 2819 -91 2034 -91 
Q 1250 -91 836 529 
Q 422 1150 422 2328 
Q 422 3509 836 4129 
Q 1250 4750 2034 4750 
z
" transform="scale(0.015625)"/>
       </defs>
       <use xlink:href="#DejaVuSans-2212"/>
       <use xlink:href="#DejaVuSans-31" transform="translate(83.789062 0)"/>
       <use xlink:href="#DejaVuSans-30" transform="translate(147.412109 0)"/>
       <use xlink:href="#DejaVuSans-30" transform="translate(211.035156 0)"/>
      </g>
     </g>
    </g>
    <g id="xtick_2">
     <g id="line2d_2">
      <g>
       <use xlink:href="#m9a74932a47" x="79.404677" y="229.158516" style="fill: #57606a; stroke: #57606a; stroke-width: 0.6"/>
      </g>
     </g>
     <g id="text_2">
      <!-- −80 -->
      <g style="fill: #1f2328" transform="translate(71.490419 241.357344) scale(0.075 -0.075)">
       <defs>
        <path id="DejaVuSans-38" d="M 2034 2216 
Q 1584 2216 1326 1975 
Q 1069 1734 1069 1313 
Q 1069 891 1326 650 
Q 1584 409 2034 409 
Q 2484 409 2743 651 
Q 3003 894 3003 1313 
Q 3003 1734 2745 1975 
Q 2488 2216 2034 2216 
z
M 1403 2484 
Q 997 2584 770 2862 
Q 544 3141 544 3541 
Q 544 4100 942 4425 
Q 1341 4750 2034 4750 
Q 2731 4750 3128 4425 
Q 3525 4100 3525 3541 
Q 3525 3141 3298 2862 
Q 3072 2584 2669 2484 
Q 3125 2378 3379 2068 
Q 3634 1759 3634 1313 
Q 3634 634 3220 271 
Q 2806 -91 2034 -91 
Q 1263 -91 848 271 
Q 434 634 434 1313 
Q 434 1759 690 2068 
Q 947 2378 1403 2484 
z
M 1172 3481 
Q 1172 3119 1398 2916 
Q 1625 2713 2034 2713 
Q 2441 2713 2670 2916 
Q 2900 3119 2900 3481 
Q 2900 3844 2670 4047 
Q 2441 4250 2034 4250 
Q 1625 4250 1398 4047 
Q 1172 3844 1172 3481 
z
" transform="scale(0.015625)"/>
       </defs>
       <use xlink:href="#DejaVuSans-2212"/>
       <use xlink:href="#DejaVuSans-38" transform="translate(83.789062 0)"/>
       <use xlink:href="#DejaVuSans-30" transform="translate(147.412109 0)"/>
      </g>
     </g>
    </g>
    <g id="xtick_3">
     <g id="line2d_3">
      <g>
       <use xlink:href="#m9a74932a47" x="133.18201" y="229.158516" style="fill: #57606a; stroke: #57606a; stroke-width: 0.6"/>
      </g>
     </g>
     <g id="text_3">
      <!-- −60 -->
      <g style="fill: #1f2328" transform="translate(125.267753 241.357344) scale(0.075 -0.075)">
       <defs>
        <path id="DejaVuSans-36" d="M 2113 2584 
Q 1688 2584 1439 2293 
Q 1191 2003 1191 1497 
Q 1191 994 1439 701 
Q 1688 409 2113 409 
Q 2538 409 2786 701 
Q 3034 994 3034 1497 
Q 3034 2003 2786 2293 
Q 2538 2584 2113 2584 
z
M 3366 4563 
L 3366 3988 
Q 3128 4100 2886 4159 
Q 2644 4219 2406 4219 
Q 1781 4219 1451 3797 
Q 1122 3375 1075 2522 
Q 1259 2794 1537 2939 
Q 1816 3084 2150 3084 
Q 2853 3084 3261 2657 
Q 3669 2231 3669 1497 
Q 3669 778 3244 343 
Q 2819 -91 2113 -91 
Q 1303 -91 875 529 
Q 447 1150 447 2328 
Q 447 3434 972 4092 
Q 1497 4750 2381 4750 
Q 2619 4750 2861 4703 
Q 3103 4656 3366 4563 
z
" transform="scale(0.015625)"/>
       </defs>
       <use xlink:href="#DejaVuSans-2212"/>
       <use xlink:href="#DejaVuSans-36" transform="translate(83.789062 0)"/>
       <use xlink:href="#DejaVuSans-30" transform="translate(147.412109 0)"/>
      </g>
     </g>
    </g>
    <g id="xtick_4">
     <g id="line2d_4">
      <g>
       <use xlink:href="#m9a74932a47" x="186.959344" y="229.158516" style="fill: #57606a; stroke: #57606a; stroke-width: 0.6"/>
      </g>
     </g>
     <g id="text_4">
      <!-- −40 -->
      <g style="fill: #1f2328" transform="translate(179.045086 241.357344) scale(0.075 -0.075)">
       <defs>
        <path id="DejaVuSans-34" d="M 2419 4116 
L 825 1625 
L 2419 1625 
L 2419 4116 
z
M 2253 4666 
L 3047 4666 
L 3047 1625 
L 3713 1625 
L 3713 1100 
L 3047 1100 
L 3047 0 
L 2419 0 
L 2419 1100 
L 313 1100 
L 313 1709 
L 2253 4666 
z
" transform="scale(0.015625)"/>
       </defs>
       <use xlink:href="#DejaVuSans-2212"/>
       <use xlink:href="#DejaVuSans-34" transform="translate(83.789062 0)"/>
       <use xlink:href="#DejaVuSans-30" transform="translate(147.412109 0)"/>
      </g>
     </g>
    </g>
    <g id="xtick_5">
     <g id="line2d_5">
      <g>
       <use xlink:href="#m9a74932a47" x="240.736677" y="229.158516" style="fill: #57606a; stroke: #57606a; stroke-width: 0.6"/>
      </g>
     </g>
     <g id="text_5">
      <!-- −20 -->
      <g style="fill: #1f2328" transform="translate(232.822419 241.357344) scale(0.075 -0.075)">
       <defs>
        <path id="DejaVuSans-32" d="M 1228 531 
L 3431 531 
L 3431 0 
L 469 0 
L 469 531 
Q 828 903 1448 1529 
Q 2069 2156 2228 2338 
Q 2531 2678 2651 2914 
Q 2772 3150 2772 3378 
Q 2772 3750 2511 3984 
Q 2250 4219 1831 4219 
Q 1534 4219 1204 4116 
Q 875 4013 500 3803 
L 500 4441 
Q 881 4594 1212 4672 
Q 1544 4750 1819 4750 
Q 2544 4750 2975 4387 
Q 3406 4025 3406 3419 
Q 3406 3131 3298 2873 
Q 3191 2616 2906 2266 
Q 2828 2175 2409 1742 
Q 1991 1309 1228 531 
z
" transform="scale(0.015625)"/>
       </defs>
       <use xlink:href="#DejaVuSans-2212"/>
       <use xlink:href="#DejaVuSans-32" transform="translate(83.789062 0)"/>
       <use xlink:href="#DejaVuSans-30" transform="translate(147.412109 0)"/>
      </g>
     </g>
    </g>
    <g id="xtick_6">
     <g id="line2d_6">
      <g>
       <use xlink:href="#m9a74932a47" x="294.51401" y="229.158516" style="fill: #57606a; stroke: #57606a; stroke-width: 0.6"/>
      </g>
     </g>
     <g id="text_6">
      <!-- 0 -->
      <g style="fill: #1f2328" transform="translate(292.128073 241.357344) scale(0.075 -0.075)">
       <use xlink:href="#DejaVuSans-30"/>
      </g>
     </g>
    </g>
    <g id="xtick_7">
     <g id="line2d_7">
      <g>
       <use xlink:href="#m9a74932a47" x="348.291344" y="229.158516" style="fill: #57606a; stroke: #57606a; stroke-width: 0.6"/>
      </g>
     </g>
     <g id="text_7">
      <!-- 20 -->
      <g style="fill: #1f2328" transform="translate(343.519469 241.357344) scale(0.075 -0.075)">
       <use xlink:href="#DejaVuSans-32"/>
       <use xlink:href="#DejaVuSans-30" transform="translate(63.623047 0)"/>
      </g>
     </g>
    </g>
    <g id="xtick_8">
     <g id="line2d_8">
      <g>
       <use xlink:href="#m9a74932a47" x="402.068677" y="229.158516" style="fill: #57606a; stroke: #57606a; stroke-width: 0.6"/>
      </g>
     </g>
     <g id="text_8">
      <!-- 40 -->
      <g style="fill: #1f2328" transform="translate(397.296802 241.357344) scale(0.075 -0.075)">
       <use xlink:href="#DejaVuSans-34"/>
       <use xlink:href="#DejaVuSans-30" transform="translate(63.623047 0)"/>
      </g>
     </g>
    </g>
    <g id="text_9">
     <!-- $V$  (mV) -->
     <g style="fill: #1f2328" transform="translate(210.372344 253.755703) scale(0.09 -0.09)">
      <defs>
       <path id="DejaVuSans-Oblique-56" d="M 1319 0 
L 500 4666 
L 1119 4666 
L 1797 653 
L 4063 4666 
L 4750 4666 
L 2053 0 
L 1319 0 
z
" transform="scale(0.015625)"/>
       <path id="DejaVuSans-20" transform="scale(0.015625)"/>
       <path id="DejaVuSans-28" d="M 1984 4856 
Q 1566 4138 1362 3434 
Q 1159 2731 1159 2009 
Q 1159 1288 1364 580 
Q 1569 -128 1984 -844 
L 1484 -844 
Q 1016 -109 783 600 
Q 550 1309 550 2009 
Q 550 2706 781 3412 
Q 1013 4119 1484 4856 
L 1984 4856 
z
" transform="scale(0.015625)"/>
       <path id="DejaVuSans-6d" d="M 3328 2828 
Q 3544 3216 3844 3400 
Q 4144 3584 4550 3584 
Q 5097 3584 5394 3201 
Q 5691 2819 5691 2113 
L 5691 0 
L 5113 0 
L 5113 2094 
Q 5113 2597 4934 2840 
Q 4756 3084 4391 3084 
Q 3944 3084 3684 2787 
Q 3425 2491 3425 1978 
L 3425 0 
L 2847 0 
L 2847 2094 
Q 2847 2600 2669 2842 
Q 2491 3084 2119 3084 
Q 1678 3084 1418 2786 
Q 1159 2488 1159 1978 
L 1159 0 
L 581 0 
L 581 3500 
L 1159 3500 
L 1159 2956 
Q 1356 3278 1631 3431 
Q 1906 3584 2284 3584 
Q 2666 3584 2933 3390 
Q 3200 3197 3328 2828 
z
" transform="scale(0.015625)"/>
       <path id="DejaVuSans-56" d="M 1831 0 
L 50 4666 
L 709 4666 
L 2188 738 
L 3669 4666 
L 4325 4666 
L 2547 0 
L 1831 0 
z
" transform="scale(0.015625)"/>
       <path id="DejaVuSans-29" d="M 513 4856 
L 1013 4856 
Q 1481 4119 1714 3412 
Q 1947 2706 1947 2009 
Q 1947 1309 1714 600 
Q 1481 -109 1013 -844 
L 513 -844 
Q 928 -128 1133 580 
Q 1338 1288 1338 2009 
Q 1338 2731 1133 3434 
Q 928 4138 513 4856 
z
" transform="scale(0.015625)"/>
      </defs>
      <use xlink:href="#DejaVuSans-Oblique-56" transform="translate(0 0.125)"/>
      <use xlink:href="#DejaVuSans-20" transform="translate(68.408203 0.125)"/>
      <use xlink:href="#DejaVuSans-20" transform="translate(100.195312 0.125)"/>
      <use xlink:href="#DejaVuSans-28" transform="translate(131.982422 0.125)"/>
      <use xlink:href="#DejaVuSans-6d" transform="translate(170.996094 0.125)"/>
      <use xlink:href="#DejaVuSans-56" transform="translate(268.408203 0.125)"/>
      <use xlink:href="#DejaVuSans-29" transform="translate(336.816406 0.125)"/>
     </g>
    </g>
   </g>
   <g id="matplotlib.axis_2">
    <g id="ytick_1">
     <g id="line2d_9">
      <defs>
       <path id="m2a6ca5eb86" d="M 0 0 
L -3 0 
" style="stroke: #57606a; stroke-width: 0.6"/>
      </defs>
      <g>
       <use xlink:href="#m2a6ca5eb86" x="25.627344" y="225.406366" style="fill: #57606a; stroke: #57606a; stroke-width: 0.6"/>
      </g>
     </g>
     <g id="text_10">
      <!-- 0.0 -->
      <g style="fill: #1f2328" transform="translate(7.2 228.25578) scale(0.075 -0.075)">
       <defs>
        <path id="DejaVuSans-2e" d="M 684 794 
L 1344 794 
L 1344 0 
L 684 0 
L 684 794 
z
" transform="scale(0.015625)"/>
       </defs>
       <use xlink:href="#DejaVuSans-30"/>
       <use xlink:href="#DejaVuSans-2e" transform="translate(63.623047 0)"/>
       <use xlink:href="#DejaVuSans-30" transform="translate(95.410156 0)"/>
      </g>
     </g>
    </g>
    <g id="ytick_2">
     <g id="line2d_10">
      <g>
       <use xlink:href="#m2a6ca5eb86" x="25.627344" y="187.884871" style="fill: #57606a; stroke: #57606a; stroke-width: 0.6"/>
      </g>
     </g>
     <g id="text_11">
      <!-- 0.2 -->
      <g style="fill: #1f2328" transform="translate(7.2 190.734285) scale(0.075 -0.075)">
       <use xlink:href="#DejaVuSans-30"/>
       <use xlink:href="#DejaVuSans-2e" transform="translate(63.623047 0)"/>
       <use xlink:href="#DejaVuSans-32" transform="translate(95.410156 0)"/>
      </g>
     </g>
    </g>
    <g id="ytick_3">
     <g id="line2d_11">
      <g>
       <use xlink:href="#m2a6ca5eb86" x="25.627344" y="150.363375" style="fill: #57606a; stroke: #57606a; stroke-width: 0.6"/>
      </g>
     </g>
     <g id="text_12">
      <!-- 0.4 -->
      <g style="fill: #1f2328" transform="translate(7.2 153.21279) scale(0.075 -0.075)">
       <use xlink:href="#DejaVuSans-30"/>
       <use xlink:href="#DejaVuSans-2e" transform="translate(63.623047 0)"/>
       <use xlink:href="#DejaVuSans-34" transform="translate(95.410156 0)"/>
      </g>
     </g>
    </g>
    <g id="ytick_4">
     <g id="line2d_12">
      <g>
       <use xlink:href="#m2a6ca5eb86" x="25.627344" y="112.84188" style="fill: #57606a; stroke: #57606a; stroke-width: 0.6"/>
      </g>
     </g>
     <g id="text_13">
      <!-- 0.6 -->
      <g style="fill: #1f2328" transform="translate(7.2 115.691294) scale(0.075 -0.075)">
       <use xlink:href="#DejaVuSans-30"/>
       <use xlink:href="#DejaVuSans-2e" transform="translate(63.623047 0)"/>
       <use xlink:href="#DejaVuSans-36" transform="translate(95.410156 0)"/>
      </g>
     </g>
    </g>
    <g id="ytick_5">
     <g id="line2d_13">
      <g>
       <use xlink:href="#m2a6ca5eb86" x="25.627344" y="75.320385" style="fill: #57606a; stroke: #57606a; stroke-width: 0.6"/>
      </g>
     </g>
     <g id="text_14">
      <!-- 0.8 -->
      <g style="fill: #1f2328" transform="translate(7.2 78.169799) scale(0.075 -0.075)">
       <use xlink:href="#DejaVuSans-30"/>
       <use xlink:href="#DejaVuSans-2e" transform="translate(63.623047 0)"/>
       <use xlink:href="#DejaVuSans-38" transform="translate(95.410156 0)"/>
      </g>
     </g>
    </g>
    <g id="ytick_6">
     <g id="line2d_14">
      <g>
       <use xlink:href="#m2a6ca5eb86" x="25.627344" y="37.798889" style="fill: #57606a; stroke: #57606a; stroke-width: 0.6"/>
      </g>
     </g>
     <g id="text_15">
      <!-- 1.0 -->
      <g style="fill: #1f2328" transform="translate(7.2 40.648304) scale(0.075 -0.075)">
       <use xlink:href="#DejaVuSans-31"/>
       <use xlink:href="#DejaVuSans-2e" transform="translate(63.623047 0)"/>
       <use xlink:href="#DejaVuSans-30" transform="translate(95.410156 0)"/>
      </g>
     </g>
    </g>
   </g>
   <g id="line2d_15">
    <path d="M 25.627344 225.370832 
L 58.985464 225.197467 
L 75.159098 224.9138 
L 86.278472 224.518981 
L 95.376141 223.971689 
L 102.452106 223.324227 
L 108.517218 222.544657 
L 113.571479 221.680648 
L 118.62574 220.562615 
L 122.669148 219.438771 
L 126.712557 218.064648 
L 129.745113 216.839758 
L 132.77767 215.421827 
L 135.810226 213.784436 
L 138.842782 211.898946 
L 141.875339 209.734801 
L 144.907895 207.26006 
L 147.940452 204.442175 
L 150.973008 201.249088 
L 154.005564 197.650662 
L 157.038121 193.620458 
L 160.070677 189.137832 
L 163.103233 184.190254 
L 166.13579 178.775709 
L 169.168346 172.904959 
L 172.200903 166.603383 
L 176.244311 157.60448 
L 180.28772 148.055449 
L 186.352832 133.113835 
L 194.43965 113.204311 
L 198.483058 103.751787 
L 202.526467 94.881363 
L 205.559023 88.691315 
L 208.591579 82.940368 
L 211.624136 77.649861 
L 214.656692 72.826943 
L 217.689249 68.466566 
L 220.721805 64.553801 
L 223.754361 61.066238 
L 226.786918 57.97626 
L 229.819474 55.253057 
L 232.85203 52.864317 
L 235.884587 50.777558 
L 238.917143 48.961143 
L 241.9497 47.384988 
L 244.982256 46.021021 
L 249.025665 44.488229 
L 253.069073 43.232528 
L 257.112482 42.206801 
L 262.166742 41.187503 
L 267.221003 40.400564 
L 273.286116 39.691105 
L 280.362081 39.102287 
L 288.448898 38.649125 
L 299.568271 38.270793 
L 314.731053 38.010042 
L 337.980652 37.860335 
L 390.544963 37.802655 
L 428.957344 37.799379 
L 428.957344 37.799379 
" clip-path="url(#p95085e1db0)" style="fill: none; stroke: #4477aa; stroke-width: 1.8; stroke-linecap: square"/>
   </g>
   <g id="line2d_16">
    <path d="M 25.627344 38.131509 
L 36.746717 38.46036 
L 44.833534 38.888337 
L 51.909499 39.482727 
L 57.974612 40.241159 
L 63.028873 41.123767 
L 67.072281 42.049337 
L 71.11569 43.224977 
L 74.148246 44.308144 
L 77.180802 45.598279 
L 80.213359 47.130942 
L 83.245915 48.946118 
L 86.278472 51.088044 
L 89.311028 53.604673 
L 92.343584 56.546633 
L 94.365289 58.769748 
L 96.386993 61.219917 
L 98.408697 63.911497 
L 100.430401 66.857651 
L 103.462958 71.778518 
L 106.495514 77.32495 
L 109.528071 83.507355 
L 112.560627 90.313835 
L 115.593183 97.705967 
L 118.62574 105.616278 
L 122.669148 116.798737 
L 130.755965 140.159815 
L 135.810226 154.411092 
L 139.853634 165.089753 
L 142.886191 172.511488 
L 145.918747 179.350422 
L 148.951304 185.566631 
L 151.98386 191.146896 
L 155.016416 196.100558 
L 158.048973 200.454504 
L 161.081529 204.248045 
L 164.114086 207.528231 
L 167.146642 210.345899 
L 170.179198 212.752599 
L 173.211755 214.798346 
L 176.244311 216.530135 
L 179.276868 217.99105 
L 182.309424 219.219839 
L 185.34198 220.250832 
L 189.385389 221.369152 
L 193.428797 222.249088 
L 198.483058 223.087766 
L 203.537319 223.705717 
L 209.602431 224.2353 
L 217.689249 224.695218 
L 227.79777 225.02564 
L 241.9497 225.247816 
L 266.210151 225.371098 
L 334.948096 225.405868 
L 428.957344 225.406365 
L 428.957344 225.406365 
" clip-path="url(#p95085e1db0)" style="fill: none; stroke-dasharray: 9,5.4; stroke-dashoffset: 0; stroke: #ee6677; stroke-width: 1.8"/>
   </g>
   <g id="line2d_17">
    <path d="M 25.627344 221.744498 
L 33.714161 220.7275 
L 40.790126 219.615641 
L 46.855238 218.462459 
L 52.920351 217.090132 
L 58.985464 215.461521 
L 64.039725 213.878733 
L 69.093985 212.062953 
L 74.148246 209.986207 
L 79.202507 207.619232 
L 83.245915 205.496595 
L 87.289324 203.153845 
L 91.332732 200.576244 
L 95.376141 197.750006 
L 99.419549 194.662835 
L 103.462958 191.304527 
L 107.506366 187.667626 
L 111.549775 183.748117 
L 115.593183 179.546098 
L 119.636592 175.066418 
L 124.690853 169.092339 
L 129.745113 162.732988 
L 134.799374 156.034941 
L 140.864487 147.636005 
L 148.951304 136.036778 
L 164.114086 114.203492 
L 170.179198 105.860655 
L 175.233459 99.223367 
L 180.28772 92.934815 
L 185.34198 87.038842 
L 189.385389 82.625084 
L 193.428797 78.490613 
L 197.472206 74.639087 
L 201.515614 71.069556 
L 205.559023 67.777116 
L 209.602431 64.753589 
L 213.64584 61.988211 
L 217.689249 59.468276 
L 221.732657 57.179722 
L 225.776066 55.107657 
L 230.830326 52.798716 
L 235.884587 50.774314 
L 240.938848 49.00539 
L 245.993108 47.464274 
L 252.058221 45.879347 
L 258.123334 44.544464 
L 264.188447 43.423193 
L 271.264411 42.34249 
L 279.351228 41.354322 
L 288.448898 40.493325 
L 298.557419 39.776276 
L 310.687645 39.161148 
L 324.839574 38.679737 
L 343.034913 38.301091 
L 367.295364 38.036002 
L 404.696893 37.873349 
L 428.957344 37.834003 
L 428.957344 37.834003 
" clip-path="url(#p95085e1db0)" style="fill: none; stroke-dasharray: 2.52,3.96; stroke-dashoffset: 0; stroke: #66ccee; stroke-width: 1.8"/>
   </g>
   <g id="patch_3">
    <path d="M 25.627344 229.158516 
L 25.627344 28.418516 
" style="fill: none; stroke: #57606a; stroke-width: 0.7; stroke-linejoin: miter; stroke-linecap: square"/>
   </g>
   <g id="patch_4">
    <path d="M 25.627344 229.158516 
L 428.957344 229.158516 
" style="fill: none; stroke: #57606a; stroke-width: 0.7; stroke-linejoin: miter; stroke-linecap: square"/>
   </g>
   <g id="text_16">
    <!-- steady-state activation -->
    <g style="fill: #57606a" transform="translate(25.627344 24.137917) scale(0.09 -0.09)">
     <defs>
      <path id="DejaVuSans-73" d="M 2834 3397 
L 2834 2853 
Q 2591 2978 2328 3040 
Q 2066 3103 1784 3103 
Q 1356 3103 1142 2972 
Q 928 2841 928 2578 
Q 928 2378 1081 2264 
Q 1234 2150 1697 2047 
L 1894 2003 
Q 2506 1872 2764 1633 
Q 3022 1394 3022 966 
Q 3022 478 2636 193 
Q 2250 -91 1575 -91 
Q 1294 -91 989 -36 
Q 684 19 347 128 
L 347 722 
Q 666 556 975 473 
Q 1284 391 1588 391 
Q 1994 391 2212 530 
Q 2431 669 2431 922 
Q 2431 1156 2273 1281 
Q 2116 1406 1581 1522 
L 1381 1569 
Q 847 1681 609 1914 
Q 372 2147 372 2553 
Q 372 3047 722 3315 
Q 1072 3584 1716 3584 
Q 2034 3584 2315 3537 
Q 2597 3491 2834 3397 
z
" transform="scale(0.015625)"/>
      <path id="DejaVuSans-74" d="M 1172 4494 
L 1172 3500 
L 2356 3500 
L 2356 3053 
L 1172 3053 
L 1172 1153 
Q 1172 725 1289 603 
Q 1406 481 1766 481 
L 2356 481 
L 2356 0 
L 1766 0 
Q 1100 0 847 248 
Q 594 497 594 1153 
L 594 3053 
L 172 3053 
L 172 3500 
L 594 3500 
L 594 4494 
L 1172 4494 
z
" transform="scale(0.015625)"/>
      <path id="DejaVuSans-65" d="M 3597 1894 
L 3597 1613 
L 953 1613 
Q 991 1019 1311 708 
Q 1631 397 2203 397 
Q 2534 397 2845 478 
Q 3156 559 3463 722 
L 3463 178 
Q 3153 47 2828 -22 
Q 2503 -91 2169 -91 
Q 1331 -91 842 396 
Q 353 884 353 1716 
Q 353 2575 817 3079 
Q 1281 3584 2069 3584 
Q 2775 3584 3186 3129 
Q 3597 2675 3597 1894 
z
M 3022 2063 
Q 3016 2534 2758 2815 
Q 2500 3097 2075 3097 
Q 1594 3097 1305 2825 
Q 1016 2553 972 2059 
L 3022 2063 
z
" transform="scale(0.015625)"/>
      <path id="DejaVuSans-61" d="M 2194 1759 
Q 1497 1759 1228 1600 
Q 959 1441 959 1056 
Q 959 750 1161 570 
Q 1363 391 1709 391 
Q 2188 391 2477 730 
Q 2766 1069 2766 1631 
L 2766 1759 
L 2194 1759 
z
M 3341 1997 
L 3341 0 
L 2766 0 
L 2766 531 
Q 2569 213 2275 61 
Q 1981 -91 1556 -91 
Q 1019 -91 701 211 
Q 384 513 384 1019 
Q 384 1609 779 1909 
Q 1175 2209 1959 2209 
L 2766 2209 
L 2766 2266 
Q 2766 2663 2505 2880 
Q 2244 3097 1772 3097 
Q 1472 3097 1187 3025 
Q 903 2953 641 2809 
L 641 3341 
Q 956 3463 1253 3523 
Q 1550 3584 1831 3584 
Q 2591 3584 2966 3190 
Q 3341 2797 3341 1997 
z
" transform="scale(0.015625)"/>
      <path id="DejaVuSans-64" d="M 2906 2969 
L 2906 4863 
L 3481 4863 
L 3481 0 
L 2906 0 
L 2906 525 
Q 2725 213 2448 61 
Q 2172 -91 1784 -91 
Q 1150 -91 751 415 
Q 353 922 353 1747 
Q 353 2572 751 3078 
Q 1150 3584 1784 3584 
Q 2172 3584 2448 3432 
Q 2725 3281 2906 2969 
z
M 947 1747 
Q 947 1113 1208 752 
Q 1469 391 1925 391 
Q 2381 391 2643 752 
Q 2906 1113 2906 1747 
Q 2906 2381 2643 2742 
Q 2381 3103 1925 3103 
Q 1469 3103 1208 2742 
Q 947 2381 947 1747 
z
" transform="scale(0.015625)"/>
      <path id="DejaVuSans-79" d="M 2059 -325 
Q 1816 -950 1584 -1140 
Q 1353 -1331 966 -1331 
L 506 -1331 
L 506 -850 
L 844 -850 
Q 1081 -850 1212 -737 
Q 1344 -625 1503 -206 
L 1606 56 
L 191 3500 
L 800 3500 
L 1894 763 
L 2988 3500 
L 3597 3500 
L 2059 -325 
z
" transform="scale(0.015625)"/>
      <path id="DejaVuSans-2d" d="M 313 2009 
L 1997 2009 
L 1997 1497 
L 313 1497 
L 313 2009 
z
" transform="scale(0.015625)"/>
      <path id="DejaVuSans-63" d="M 3122 3366 
L 3122 2828 
Q 2878 2963 2633 3030 
Q 2388 3097 2138 3097 
Q 1578 3097 1268 2742 
Q 959 2388 959 1747 
Q 959 1106 1268 751 
Q 1578 397 2138 397 
Q 2388 397 2633 464 
Q 2878 531 3122 666 
L 3122 134 
Q 2881 22 2623 -34 
Q 2366 -91 2075 -91 
Q 1284 -91 818 406 
Q 353 903 353 1747 
Q 353 2603 823 3093 
Q 1294 3584 2113 3584 
Q 2378 3584 2631 3529 
Q 2884 3475 3122 3366 
z
" transform="scale(0.015625)"/>
      <path id="DejaVuSans-69" d="M 603 3500 
L 1178 3500 
L 1178 0 
L 603 0 
L 603 3500 
z
M 603 4863 
L 1178 4863 
L 1178 4134 
L 603 4134 
L 603 4863 
z
" transform="scale(0.015625)"/>
      <path id="DejaVuSans-76" d="M 191 3500 
L 800 3500 
L 1894 563 
L 2988 3500 
L 3597 3500 
L 2284 0 
L 1503 0 
L 191 3500 
z
" transform="scale(0.015625)"/>
      <path id="DejaVuSans-6f" d="M 1959 3097 
Q 1497 3097 1228 2736 
Q 959 2375 959 1747 
Q 959 1119 1226 758 
Q 1494 397 1959 397 
Q 2419 397 2687 759 
Q 2956 1122 2956 1747 
Q 2956 2369 2687 2733 
Q 2419 3097 1959 3097 
z
M 1959 3584 
Q 2709 3584 3137 3096 
Q 3566 2609 3566 1747 
Q 3566 888 3137 398 
Q 2709 -91 1959 -91 
Q 1206 -91 779 398 
Q 353 888 353 1747 
Q 353 2609 779 3096 
Q 1206 3584 1959 3584 
z
" transform="scale(0.015625)"/>
      <path id="DejaVuSans-6e" d="M 3513 2113 
L 3513 0 
L 2938 0 
L 2938 2094 
Q 2938 2591 2744 2837 
Q 2550 3084 2163 3084 
Q 1697 3084 1428 2787 
Q 1159 2491 1159 1978 
L 1159 0 
L 581 0 
L 581 3500 
L 1159 3500 
L 1159 2956 
Q 1366 3272 1645 3428 
Q 1925 3584 2291 3584 
Q 2894 3584 3203 3211 
Q 3513 2838 3513 2113 
z
" transform="scale(0.015625)"/>
     </defs>
     <use xlink:href="#DejaVuSans-73"/>
     <use xlink:href="#DejaVuSans-74" transform="translate(52.099609 0)"/>
     <use xlink:href="#DejaVuSans-65" transform="translate(91.308594 0)"/>
     <use xlink:href="#DejaVuSans-61" transform="translate(152.832031 0)"/>
     <use xlink:href="#DejaVuSans-64" transform="translate(214.111328 0)"/>
     <use xlink:href="#DejaVuSans-79" transform="translate(277.587891 0)"/>
     <use xlink:href="#DejaVuSans-2d" transform="translate(335.017578 0)"/>
     <use xlink:href="#DejaVuSans-73" transform="translate(371.101562 0)"/>
     <use xlink:href="#DejaVuSans-74" transform="translate(423.201172 0)"/>
     <use xlink:href="#DejaVuSans-61" transform="translate(462.410156 0)"/>
     <use xlink:href="#DejaVuSans-74" transform="translate(523.689453 0)"/>
     <use xlink:href="#DejaVuSans-65" transform="translate(562.898438 0)"/>
     <use xlink:href="#DejaVuSans-20" transform="translate(624.421875 0)"/>
     <use xlink:href="#DejaVuSans-61" transform="translate(656.208984 0)"/>
     <use xlink:href="#DejaVuSans-63" transform="translate(717.488281 0)"/>
     <use xlink:href="#DejaVuSans-74" transform="translate(772.46875 0)"/>
     <use xlink:href="#DejaVuSans-69" transform="translate(811.677734 0)"/>
     <use xlink:href="#DejaVuSans-76" transform="translate(839.460938 0)"/>
     <use xlink:href="#DejaVuSans-61" transform="translate(898.640625 0)"/>
     <use xlink:href="#DejaVuSans-74" transform="translate(959.919922 0)"/>
     <use xlink:href="#DejaVuSans-69" transform="translate(999.128906 0)"/>
     <use xlink:href="#DejaVuSans-6f" transform="translate(1026.912109 0)"/>
     <use xlink:href="#DejaVuSans-6e" transform="translate(1088.09375 0)"/>
    </g>
   </g>
   <g id="text_17">
    <!-- Hodgkin–Huxley gating variables -->
    <g style="fill: #1f2328" transform="translate(149.088789 14.418516) scale(0.095 -0.095)">
     <defs>
      <path id="DejaVuSans-48" d="M 628 4666 
L 1259 4666 
L 1259 2753 
L 3553 2753 
L 3553 4666 
L 4184 4666 
L 4184 0 
L 3553 0 
L 3553 2222 
L 1259 2222 
L 1259 0 
L 628 0 
L 628 4666 
z
" transform="scale(0.015625)"/>
      <path id="DejaVuSans-67" d="M 2906 1791 
Q 2906 2416 2648 2759 
Q 2391 3103 1925 3103 
Q 1463 3103 1205 2759 
Q 947 2416 947 1791 
Q 947 1169 1205 825 
Q 1463 481 1925 481 
Q 2391 481 2648 825 
Q 2906 1169 2906 1791 
z
M 3481 434 
Q 3481 -459 3084 -895 
Q 2688 -1331 1869 -1331 
Q 1566 -1331 1297 -1286 
Q 1028 -1241 775 -1147 
L 775 -588 
Q 1028 -725 1275 -790 
Q 1522 -856 1778 -856 
Q 2344 -856 2625 -561 
Q 2906 -266 2906 331 
L 2906 616 
Q 2728 306 2450 153 
Q 2172 0 1784 0 
Q 1141 0 747 490 
Q 353 981 353 1791 
Q 353 2603 747 3093 
Q 1141 3584 1784 3584 
Q 2172 3584 2450 3431 
Q 2728 3278 2906 2969 
L 2906 3500 
L 3481 3500 
L 3481 434 
z
" transform="scale(0.015625)"/>
      <path id="DejaVuSans-6b" d="M 581 4863 
L 1159 4863 
L 1159 1991 
L 2875 3500 
L 3609 3500 
L 1753 1863 
L 3688 0 
L 2938 0 
L 1159 1709 
L 1159 0 
L 581 0 
L 581 4863 
z
" transform="scale(0.015625)"/>
      <path id="DejaVuSans-2013" d="M 313 1978 
L 2888 1978 
L 2888 1528 
L 313 1528 
L 313 1978 
z
" transform="scale(0.015625)"/>
      <path id="DejaVuSans-75" d="M 544 1381 
L 544 3500 
L 1119 3500 
L 1119 1403 
Q 1119 906 1312 657 
Q 1506 409 1894 409 
Q 2359 409 2629 706 
Q 2900 1003 2900 1516 
L 2900 3500 
L 3475 3500 
L 3475 0 
L 2900 0 
L 2900 538 
Q 2691 219 2414 64 
Q 2138 -91 1772 -91 
Q 1169 -91 856 284 
Q 544 659 544 1381 
z
M 1991 3584 
L 1991 3584 
z
" transform="scale(0.015625)"/>
      <path id="DejaVuSans-78" d="M 3513 3500 
L 2247 1797 
L 3578 0 
L 2900 0 
L 1881 1375 
L 863 0 
L 184 0 
L 1544 1831 
L 300 3500 
L 978 3500 
L 1906 2253 
L 2834 3500 
L 3513 3500 
z
" transform="scale(0.015625)"/>
      <path id="DejaVuSans-6c" d="M 603 4863 
L 1178 4863 
L 1178 0 
L 603 0 
L 603 4863 
z
" transform="scale(0.015625)"/>
      <path id="DejaVuSans-72" d="M 2631 2963 
Q 2534 3019 2420 3045 
Q 2306 3072 2169 3072 
Q 1681 3072 1420 2755 
Q 1159 2438 1159 1844 
L 1159 0 
L 581 0 
L 581 3500 
L 1159 3500 
L 1159 2956 
Q 1341 3275 1631 3429 
Q 1922 3584 2338 3584 
Q 2397 3584 2469 3576 
Q 2541 3569 2628 3553 
L 2631 2963 
z
" transform="scale(0.015625)"/>
      <path id="DejaVuSans-62" d="M 3116 1747 
Q 3116 2381 2855 2742 
Q 2594 3103 2138 3103 
Q 1681 3103 1420 2742 
Q 1159 2381 1159 1747 
Q 1159 1113 1420 752 
Q 1681 391 2138 391 
Q 2594 391 2855 752 
Q 3116 1113 3116 1747 
z
M 1159 2969 
Q 1341 3281 1617 3432 
Q 1894 3584 2278 3584 
Q 2916 3584 3314 3078 
Q 3713 2572 3713 1747 
Q 3713 922 3314 415 
Q 2916 -91 2278 -91 
Q 1894 -91 1617 61 
Q 1341 213 1159 525 
L 1159 0 
L 581 0 
L 581 4863 
L 1159 4863 
L 1159 2969 
z
" transform="scale(0.015625)"/>
     </defs>
     <use xlink:href="#DejaVuSans-48"/>
     <use xlink:href="#DejaVuSans-6f" transform="translate(75.195312 0)"/>
     <use xlink:href="#DejaVuSans-64" transform="translate(136.376953 0)"/>
     <use xlink:href="#DejaVuSans-67" transform="translate(199.853516 0)"/>
     <use xlink:href="#DejaVuSans-6b" transform="translate(263.330078 0)"/>
     <use xlink:href="#DejaVuSans-69" transform="translate(321.240234 0)"/>
     <use xlink:href="#DejaVuSans-6e" transform="translate(349.023438 0)"/>
     <use xlink:href="#DejaVuSans-2013" transform="translate(412.402344 0)"/>
     <use xlink:href="#DejaVuSans-48" transform="translate(462.402344 0)"/>
     <use xlink:href="#DejaVuSans-75" transform="translate(537.597656 0)"/>
     <use xlink:href="#DejaVuSans-78" transform="translate(600.976562 0)"/>
     <use xlink:href="#DejaVuSans-6c" transform="translate(660.15625 0)"/>
     <use xlink:href="#DejaVuSans-65" transform="translate(687.939453 0)"/>
     <use xlink:href="#DejaVuSans-79" transform="translate(749.462891 0)"/>
     <use xlink:href="#DejaVuSans-20" transform="translate(808.642578 0)"/>
     <use xlink:href="#DejaVuSans-67" transform="translate(840.429688 0)"/>
     <use xlink:href="#DejaVuSans-61" transform="translate(903.90625 0)"/>
     <use xlink:href="#DejaVuSans-74" transform="translate(965.185547 0)"/>
     <use xlink:href="#DejaVuSans-69" transform="translate(1004.394531 0)"/>
     <use xlink:href="#DejaVuSans-6e" transform="translate(1032.177734 0)"/>
     <use xlink:href="#DejaVuSans-67" transform="translate(1095.556641 0)"/>
     <use xlink:href="#DejaVuSans-20" transform="translate(1159.033203 0)"/>
     <use xlink:href="#DejaVuSans-76" transform="translate(1190.820312 0)"/>
     <use xlink:href="#DejaVuSans-61" transform="translate(1250 0)"/>
     <use xlink:href="#DejaVuSans-72" transform="translate(1311.279297 0)"/>
     <use xlink:href="#DejaVuSans-69" transform="translate(1352.392578 0)"/>
     <use xlink:href="#DejaVuSans-61" transform="translate(1380.175781 0)"/>
     <use xlink:href="#DejaVuSans-62" transform="translate(1441.455078 0)"/>
     <use xlink:href="#DejaVuSans-6c" transform="translate(1504.931641 0)"/>
     <use xlink:href="#DejaVuSans-65" transform="translate(1532.714844 0)"/>
     <use xlink:href="#DejaVuSans-73" transform="translate(1594.238281 0)"/>
    </g>
   </g>
   <g id="legend_1">
    <g id="line2d_18">
     <path d="M 307.682344 117.10375 
L 315.932344 117.10375 
L 324.182344 117.10375 
" style="fill: none; stroke: #4477aa; stroke-width: 1.8; stroke-linecap: square"/>
    </g>
    <g id="text_18">
     <!-- $m_\infty(V)$  (Na$^+$ activation) -->
     <g transform="translate(328.682344 119.72875) scale(0.075 -0.075)">
      <defs>
       <path id="DejaVuSans-Oblique-6d" d="M 5747 2113 
L 5338 0 
L 4763 0 
L 5166 2094 
Q 5191 2228 5203 2325 
Q 5216 2422 5216 2491 
Q 5216 2772 5059 2928 
Q 4903 3084 4622 3084 
Q 4203 3084 3875 2770 
Q 3547 2456 3450 1953 
L 3066 0 
L 2491 0 
L 2900 2094 
Q 2925 2209 2937 2307 
Q 2950 2406 2950 2484 
Q 2950 2769 2794 2926 
Q 2638 3084 2363 3084 
Q 1938 3084 1609 2770 
Q 1281 2456 1184 1953 
L 800 0 
L 225 0 
L 909 3500 
L 1484 3500 
L 1375 2956 
Q 1609 3263 1923 3423 
Q 2238 3584 2597 3584 
Q 2978 3584 3223 3384 
Q 3469 3184 3519 2828 
Q 3781 3197 4126 3390 
Q 4472 3584 4856 3584 
Q 5306 3584 5551 3325 
Q 5797 3066 5797 2591 
Q 5797 2488 5784 2364 
Q 5772 2241 5747 2113 
z
" transform="scale(0.015625)"/>
       <path id="DejaVuSans-221e" d="M 2916 1091 
Q 2819 1203 2666 1466 
Q 2456 1091 2272 925 
Q 2041 725 1681 725 
Q 1259 725 981 1041 
Q 688 1372 688 1919 
Q 688 2444 981 2800 
Q 1244 3116 1688 3116 
Q 1916 3116 2084 3022 
Q 2281 2919 2416 2741 
Q 2541 2581 2666 2366 
Q 2875 2741 3059 2906 
Q 3291 3106 3650 3106 
Q 4072 3106 4350 2791 
Q 4644 2459 4644 1913 
Q 4644 1388 4350 1031 
Q 4088 716 3644 716 
Q 3416 716 3247 809 
Q 3078 894 2916 1091 
z
M 1647 1134 
Q 2163 1134 2472 1884 
Q 2075 2703 1647 2703 
Q 1334 2703 1175 2478 
Q 1003 2238 1003 1919 
Q 1003 1569 1175 1353 
Q 1350 1134 1647 1134 
z
M 3684 2697 
Q 3219 2697 2859 1947 
Q 3253 1128 3684 1128 
Q 3997 1128 4156 1353 
Q 4328 1594 4328 1913 
Q 4328 2263 4156 2478 
Q 3981 2697 3684 2697 
z
" transform="scale(0.015625)"/>
       <path id="DejaVuSans-4e" d="M 628 4666 
L 1478 4666 
L 3547 763 
L 3547 4666 
L 4159 4666 
L 4159 0 
L 3309 0 
L 1241 3903 
L 1241 0 
L 628 0 
L 628 4666 
z
" transform="scale(0.015625)"/>
       <path id="DejaVuSans-2b" d="M 2944 4013 
L 2944 2272 
L 4684 2272 
L 4684 1741 
L 2944 1741 
L 2944 0 
L 2419 0 
L 2419 1741 
L 678 1741 
L 678 2272 
L 2419 2272 
L 2419 4013 
L 2944 4013 
z
" transform="scale(0.015625)"/>
      </defs>
      <use xlink:href="#DejaVuSans-Oblique-6d" transform="translate(0 0.826562)"/>
      <use xlink:href="#DejaVuSans-221e" transform="translate(97.412109 -15.579688) scale(0.7)"/>
      <use xlink:href="#DejaVuSans-28" transform="translate(158.457031 0.826562)"/>
      <use xlink:href="#DejaVuSans-Oblique-56" transform="translate(197.470703 0.826562)"/>
      <use xlink:href="#DejaVuSans-29" transform="translate(265.878906 0.826562)"/>
      <use xlink:href="#DejaVuSans-20" transform="translate(304.892578 0.826562)"/>
      <use xlink:href="#DejaVuSans-20" transform="translate(336.679688 0.826562)"/>
      <use xlink:href="#DejaVuSans-28" transform="translate(368.466797 0.826562)"/>
      <use xlink:href="#DejaVuSans-4e" transform="translate(407.480469 0.826562)"/>
      <use xlink:href="#DejaVuSans-61" transform="translate(482.285156 0.826562)"/>
      <use xlink:href="#DejaVuSans-2b" transform="translate(558.15918 39.107812) scale(0.7)"/>
      <use xlink:href="#DejaVuSans-20" transform="translate(633.183594 0.826562)"/>
      <use xlink:href="#DejaVuSans-61" transform="translate(664.970703 0.826562)"/>
      <use xlink:href="#DejaVuSans-63" transform="translate(726.25 0.826562)"/>
      <use xlink:href="#DejaVuSans-74" transform="translate(781.230469 0.826562)"/>
      <use xlink:href="#DejaVuSans-69" transform="translate(820.439453 0.826562)"/>
      <use xlink:href="#DejaVuSans-76" transform="translate(848.222656 0.826562)"/>
      <use xlink:href="#DejaVuSans-61" transform="translate(907.402344 0.826562)"/>
      <use xlink:href="#DejaVuSans-74" transform="translate(968.681641 0.826562)"/>
      <use xlink:href="#DejaVuSans-69" transform="translate(1007.890625 0.826562)"/>
      <use xlink:href="#DejaVuSans-6f" transform="translate(1035.673828 0.826562)"/>
      <use xlink:href="#DejaVuSans-6e" transform="translate(1096.855469 0.826562)"/>
      <use xlink:href="#DejaVuSans-29" transform="translate(1160.234375 0.826562)"/>
     </g>
    </g>
    <g id="line2d_19">
     <path d="M 307.682344 128.35375 
L 315.932344 128.35375 
L 324.182344 128.35375 
" style="fill: none; stroke-dasharray: 9,5.4; stroke-dashoffset: 0; stroke: #ee6677; stroke-width: 1.8"/>
    </g>
    <g id="text_19">
     <!-- $h_\infty(V)$  (Na$^+$ inactivation) -->
     <g transform="translate(328.682344 130.97875) scale(0.075 -0.075)">
      <defs>
       <path id="DejaVuSans-Oblique-68" d="M 3566 2113 
L 3156 0 
L 2578 0 
L 2988 2091 
Q 3016 2238 3031 2350 
Q 3047 2463 3047 2528 
Q 3047 2791 2881 2937 
Q 2716 3084 2419 3084 
Q 1956 3084 1617 2771 
Q 1278 2459 1178 1941 
L 800 0 
L 225 0 
L 1172 4863 
L 1747 4863 
L 1375 2950 
Q 1594 3244 1934 3414 
Q 2275 3584 2650 3584 
Q 3113 3584 3367 3334 
Q 3622 3084 3622 2631 
Q 3622 2519 3608 2391 
Q 3594 2263 3566 2113 
z
" transform="scale(0.015625)"/>
      </defs>
      <use xlink:href="#DejaVuSans-Oblique-68" transform="translate(0 0.826562)"/>
      <use xlink:href="#DejaVuSans-221e" transform="translate(63.378906 -15.579688) scale(0.7)"/>
      <use xlink:href="#DejaVuSans-28" transform="translate(124.423828 0.826562)"/>
      <use xlink:href="#DejaVuSans-Oblique-56" transform="translate(163.4375 0.826562)"/>
      <use xlink:href="#DejaVuSans-29" transform="translate(231.845703 0.826562)"/>
      <use xlink:href="#DejaVuSans-20" transform="translate(270.859375 0.826562)"/>
      <use xlink:href="#DejaVuSans-20" transform="translate(302.646484 0.826562)"/>
      <use xlink:href="#DejaVuSans-28" transform="translate(334.433594 0.826562)"/>
      <use xlink:href="#DejaVuSans-4e" transform="translate(373.447266 0.826562)"/>
      <use xlink:href="#DejaVuSans-61" transform="translate(448.251953 0.826562)"/>
      <use xlink:href="#DejaVuSans-2b" transform="translate(524.125977 39.107812) scale(0.7)"/>
      <use xlink:href="#DejaVuSans-20" transform="translate(599.150391 0.826562)"/>
      <use xlink:href="#DejaVuSans-69" transform="translate(630.9375 0.826562)"/>
      <use xlink:href="#DejaVuSans-6e" transform="translate(658.720703 0.826562)"/>
      <use xlink:href="#DejaVuSans-61" transform="translate(722.099609 0.826562)"/>
      <use xlink:href="#DejaVuSans-63" transform="translate(783.378906 0.826562)"/>
      <use xlink:href="#DejaVuSans-74" transform="translate(838.359375 0.826562)"/>
      <use xlink:href="#DejaVuSans-69" transform="translate(877.568359 0.826562)"/>
      <use xlink:href="#DejaVuSans-76" transform="translate(905.351562 0.826562)"/>
      <use xlink:href="#DejaVuSans-61" transform="translate(964.53125 0.826562)"/>
      <use xlink:href="#DejaVuSans-74" transform="translate(1025.810547 0.826562)"/>
      <use xlink:href="#DejaVuSans-69" transform="translate(1065.019531 0.826562)"/>
      <use xlink:href="#DejaVuSans-6f" transform="translate(1092.802734 0.826562)"/>
      <use xlink:href="#DejaVuSans-6e" transform="translate(1153.984375 0.826562)"/>
      <use xlink:href="#DejaVuSans-29" transform="translate(1217.363281 0.826562)"/>
     </g>
    </g>
    <g id="line2d_20">
     <path d="M 307.682344 139.60375 
L 315.932344 139.60375 
L 324.182344 139.60375 
" style="fill: none; stroke-dasharray: 2.52,3.96; stroke-dashoffset: 0; stroke: #66ccee; stroke-width: 1.8"/>
    </g>
    <g id="text_20">
     <!-- $n_\infty(V)$  (K$^+$ activation) -->
     <g transform="translate(328.682344 142.22875) scale(0.075 -0.075)">
      <defs>
       <path id="DejaVuSans-Oblique-6e" d="M 3566 2113 
L 3156 0 
L 2578 0 
L 2988 2091 
Q 3016 2238 3031 2350 
Q 3047 2463 3047 2528 
Q 3047 2791 2881 2937 
Q 2716 3084 2419 3084 
Q 1956 3084 1622 2776 
Q 1288 2469 1184 1941 
L 800 0 
L 225 0 
L 903 3500 
L 1478 3500 
L 1363 2950 
Q 1603 3253 1940 3418 
Q 2278 3584 2650 3584 
Q 3113 3584 3367 3334 
Q 3622 3084 3622 2631 
Q 3622 2519 3608 2391 
Q 3594 2263 3566 2113 
z
" transform="scale(0.015625)"/>
       <path id="DejaVuSans-4b" d="M 628 4666 
L 1259 4666 
L 1259 2694 
L 3353 4666 
L 4166 4666 
L 1850 2491 
L 4331 0 
L 3500 0 
L 1259 2247 
L 1259 0 
L 628 0 
L 628 4666 
z
" transform="scale(0.015625)"/>
      </defs>
      <use xlink:href="#DejaVuSans-Oblique-6e" transform="translate(0 0.826562)"/>
      <use xlink:href="#DejaVuSans-221e" transform="translate(63.378906 -15.579688) scale(0.7)"/>
      <use xlink:href="#DejaVuSans-28" transform="translate(124.423828 0.826562)"/>
      <use xlink:href="#DejaVuSans-Oblique-56" transform="translate(163.4375 0.826562)"/>
      <use xlink:href="#DejaVuSans-29" transform="translate(231.845703 0.826562)"/>
      <use xlink:href="#DejaVuSans-20" transform="translate(270.859375 0.826562)"/>
      <use xlink:href="#DejaVuSans-20" transform="translate(302.646484 0.826562)"/>
      <use xlink:href="#DejaVuSans-28" transform="translate(334.433594 0.826562)"/>
      <use xlink:href="#DejaVuSans-4b" transform="translate(373.447266 0.826562)"/>
      <use xlink:href="#DejaVuSans-2b" transform="translate(453.618164 39.107812) scale(0.7)"/>
      <use xlink:href="#DejaVuSans-20" transform="translate(528.642578 0.826562)"/>
      <use xlink:href="#DejaVuSans-61" transform="translate(560.429688 0.826562)"/>
      <use xlink:href="#DejaVuSans-63" transform="translate(621.708984 0.826562)"/>
      <use xlink:href="#DejaVuSans-74" transform="translate(676.689453 0.826562)"/>
      <use xlink:href="#DejaVuSans-69" transform="translate(715.898438 0.826562)"/>
      <use xlink:href="#DejaVuSans-76" transform="translate(743.681641 0.826562)"/>
      <use xlink:href="#DejaVuSans-61" transform="translate(802.861328 0.826562)"/>
      <use xlink:href="#DejaVuSans-74" transform="translate(864.140625 0.826562)"/>
      <use xlink:href="#DejaVuSans-69" transform="translate(903.349609 0.826562)"/>
      <use xlink:href="#DejaVuSans-6f" transform="translate(931.132812 0.826562)"/>
      <use xlink:href="#DejaVuSans-6e" transform="translate(992.314453 0.826562)"/>
      <use xlink:href="#DejaVuSans-29" transform="translate(1055.693359 0.826562)"/>
     </g>
    </g>
   </g>
  </g>
 </g>
 <defs>
  <clipPath id="p95085e1db0">
   <rect x="25.627344" y="28.418516" width="403.33" height="200.74"/>
  </clipPath>
 </defs>
</svg>
