<?xml version="1.0" encoding="utf-8" standalone="no"?>
<!DOCTYPE svg PUBLIC "-//W3C//DTD SVG 1.1//EN"
  "http://www.w3.org/Graphics/SVG/1.1/DTD/svg11.dtd">
<svg xmlns:xlink="http://www.w3.org/1999/xlink" width="437.9pt" height="265.118516pt" viewBox="0 0 437.9 265.118516" xmlns="http://www.w3.org/2000/svg" version="1.1">
 <metadata>
  <rdf:RDF xmlns:dc="http://purl.org/dc/elements/1.1/" xmlns:cc="http://creativecommons.org/ns#" xmlns:rdf="http://www.w3.org/1999/02/22-rdf-syntax-ns#">
   <cc:Work>
    <dc:type rdf:resource="http://purl.org/dc/dcmitype/StillImage"/>
    <dc:date>2023-11-14T22:13:20+00:00</dc:date>
    <dc:format>image/svg+xml</dc:format>
    <dc:creator>
     <cc:Agent>
      <dc:title>Matplotlib v3.10.8, https://matplotlib.org/</dc:title>
     </cc:Agent>
    </dc:creator>
   </cc:Work>
  </rdf:RDF>
 </metadata>
 <defs>
  <style type="text/css">*{stroke-linejoin: round; stroke-linecap: butt}</style>
 </defs>
 <g id="figure_1">
  <g id="patch_1">
   <path d="M 0 265.118516 
L 437.9 265.118516 
L 437.9 0 
L 0 0 
z
" style="fill: #fafbfc"/>
  </g>
  <g id="axes_1">
   <g id="patch_2">
    <path d="M 7.2 257.918516 
L 430.7 257.918516 
L 430.7 18.418516 
L 7.2 18.418516 
z
" style="fill: #fafbfc"/>
   </g>
   <g id="patch_3">
    <path d="M 79.195 154.135182 
C 85.933811 154.135182 92.397525 151.611659 97.162583 147.12039 
C 101.927642 142.62912 104.605 136.536797 104.605 130.185182 
C 104.605 123.833568 101.927642 117.741244 97.162583 113.249975 
C 92.397525 108.758705 85.933811 106.235182 79.195 106.235182 
C 72.456189 106.235182 65.992475 108.758705 61.227417 113.249975 
C 56.462358 117.741244 53.785 123.833568 53.785 130.185182 
C 53.785 136.536797 56.462358 142.62912 61.227417 147.12039 
C 65.992475 151.611659 72.456189 154.135182 79.195 154.135182 
z
" clip-path="url(#pd15903884e)" style="fill: #fafbfc; stroke: #66ccee; stroke-width: 1.4; stroke-linejoin: miter"/>
   </g>
   <g id="patch_4">
    <path d="M 155.425 154.135182 
C 162.163811 154.135182 168.627525 151.611659 173.392583 147.12039 
C 178.157642 142.62912 180.835 136.536797 180.835 130.185182 
C 180.835 123.833568 178.157642 117.741244 173.392583 113.249975 
C 168.627525 108.758705 162.163811 106.235182 155.425 106.235182 
C 148.686189 106.235182 142.222475 108.758705 137.457417 113.249975 
C 132.692358 117.741244 130.015 123.833568 130.015 130.185182 
C 130.015 136.536797 132.692358 142.62912 137.457417 147.12039 
C 142.222475 151.611659 148.686189 154.135182 155.425 154.135182 
z
" clip-path="url(#pd15903884e)" style="fill: #fafbfc; stroke: #66ccee; stroke-width: 1.4; stroke-linejoin: miter"/>
   </g>
   <g id="patch_5">
    <path d="M 117.31 118.210182 
C 124.048811 118.210182 130.512525 115.686659 135.277583 111.19539 
C 140.042642 106.70412 142.72 100.611797 142.72 94.260182 
C 142.72 87.908568 140.042642 81.816244 135.277583 77.324975 
C 130.512525 72.833705 124.048811 70.310182 117.31 70.310182 
C 110.571189 70.310182 104.107475 72.833705 99.342417 77.324975 
C 94.577358 81.816244 91.9 87.908568 91.9 94.260182 
C 91.9 100.611797 94.577358 106.70412 99.342417 111.19539 
C 104.107475 115.686659 110.571189 118.210182 117.31 118.210182 
z
" clip-path="url(#pd15903884e)" style="fill: #fafbfc; stroke: #66ccee; stroke-width: 1.4; stroke-linejoin: miter"/>
   </g>
   <g id="patch_6">
    <path d="M 117.31 190.060182 
C 124.048811 190.060182 130.512525 187.536659 135.277583 183.04539 
C 140.042642 178.55412 142.72 172.461797 142.72 166.110182 
C 142.72 159.758568 140.042642 153.666244 135.277583 149.174975 
C 130.512525 144.683705 124.048811 142.160182 117.31 142.160182 
C 110.571189 142.160182 104.107475 144.683705 99.342417 149.174975 
C 94.577358 153.666244 91.9 159.758568 91.9 166.110182 
C 91.9 172.461797 94.577358 178.55412 99.342417 183.04539 
C 104.107475 187.536659 110.571189 190.060182 117.31 190.060182 
z
" clip-path="url(#pd15903884e)" style="fill: #fafbfc; stroke: #66ccee; stroke-width: 1.4; stroke-linejoin: miter"/>
   </g>
   <g id="patch_7">
    <path d="M 117.31 140.563516 
C 120.230151 140.563516 123.031094 139.469989 125.095953 137.523772 
C 127.160812 135.577555 128.321 132.937548 128.321 130.185182 
C 128.321 127.432816 127.160812 124.792809 125.095953 122.846592 
C 123.031094 120.900376 120.230151 119.806849 117.31 119.806849 
C 114.389849 119.806849 111.588906 120.900376 109.524047 122.846592 
C 107.459188 124.792809 106.299 127.432816 106.299 130.185182 
C 106.299 132.937548 107.459188 135.577555 109.524047 137.523772 
C 111.588906 139.469989 114.389849 140.563516 117.31 140.563516 
z
" clip-path="url(#pd15903884e)" style="fill: #fafbfc; stroke: #57606a; stroke-width: 0.7; stroke-linejoin: miter"/>
   </g>
   <g id="patch_8">
    <path d="M 274.005 138.168516 
C 280.743811 138.168516 287.207525 135.644993 291.972583 131.153723 
C 296.737642 126.662454 299.415 120.57013 299.415 114.218516 
C 299.415 107.866901 296.737642 101.774578 291.972583 97.283308 
C 287.207525 92.792039 280.743811 90.268516 274.005 90.268516 
C 267.266189 90.268516 260.802475 92.792039 256.037417 97.283308 
C 251.272358 101.774578 248.595 107.866901 248.595 114.218516 
C 248.595 120.57013 251.272358 126.662454 256.037417 131.153723 
C 260.802475 135.644993 267.266189 138.168516 274.005 138.168516 
z
" clip-path="url(#pd15903884e)" style="fill: #fafbfc; stroke: #4477aa; stroke-width: 1.4; stroke-linejoin: miter"/>
   </g>
   <g id="patch_9">
    <path d="M 350.235 138.168516 
C 356.973811 138.168516 363.437525 135.644993 368.202583 131.153723 
C 372.967642 126.662454 375.645 120.57013 375.645 114.218516 
C 375.645 107.866901 372.967642 101.774578 368.202583 97.283308 
C 363.437525 92.792039 356.973811 90.268516 350.235 90.268516 
C 343.496189 90.268516 337.032475 92.792039 332.267417 97.283308 
C 327.502358 101.774578 324.825 107.866901 324.825 114.218516 
C 324.825 120.57013 327.502358 126.662454 332.267417 131.153723 
C 337.032475 135.644993 343.496189 138.168516 350.235 138.168516 
z
" clip-path="url(#pd15903884e)" style="fill: #fafbfc; stroke: #4477aa; stroke-width: 1.4; stroke-linejoin: miter"/>
   </g>
   <g id="patch_10">
    <path d="M 312.12 102.243516 
C 318.858811 102.243516 325.322525 99.719993 330.087583 95.228723 
C 334.852642 90.737454 337.53 84.64513 337.53 78.293516 
C 337.53 71.941901 334.852642 65.849578 330.087583 61.358308 
C 325.322525 56.867039 318.858811 54.343516 312.12 54.343516 
C 305.381189 54.343516 298.917475 56.867039 294.152417 61.358308 
C 289.387358 65.849578 286.71 71.941901 286.71 78.293516 
C 286.71 84.64513 289.387358 90.737454 294.152417 95.228723 
C 298.917475 99.719993 305.381189 102.243516 312.12 102.243516 
z
" clip-path="url(#pd15903884e)" style="fill: #fafbfc; stroke: #4477aa; stroke-width: 1.4; stroke-linejoin: miter"/>
   </g>
   <g id="patch_11">
    <path d="M 312.12 174.093516 
C 318.858811 174.093516 325.322525 171.569993 330.087583 167.078723 
C 334.852642 162.587454 337.53 156.49513 337.53 150.143516 
C 337.53 143.791901 334.852642 137.699578 330.087583 133.208308 
C 325.322525 128.717039 318.858811 126.193516 312.12 126.193516 
C 305.381189 126.193516 298.917475 128.717039 294.152417 133.208308 
C 289.387358 137.699578 286.71 143.791901 286.71 150.143516 
C 286.71 156.49513 289.387358 162.587454 294.152417 167.078723 
C 298.917475 171.569993 305.381189 174.093516 312.12 174.093516 
z
" clip-path="url(#pd15903884e)" style="fill: #fafbfc; stroke: #4477aa; stroke-width: 1.4; stroke-linejoin: miter"/>
   </g>
   <g id="patch_12">
    <path d="M 312.12 124.596849 
C 315.040151 124.596849 317.841094 123.503322 319.905953 121.557106 
C 321.970812 119.610889 323.131 116.970882 323.131 114.218516 
C 323.131 111.466149 321.970812 108.826143 319.905953 106.879926 
C 317.841094 104.933709 315.040151 103.840182 312.12 103.840182 
C 309.199849 103.840182 306.398906 104.933709 304.334047 106.879926 
C 302.269188 108.826143 301.109 111.466149 301.109 114.218516 
C 301.109 116.970882 302.269188 119.610889 304.334047 121.557106 
C 306.398906 123.503322 309.199849 124.596849 312.12 124.596849 
z
" clip-path="url(#pd15903884e)" style="fill: #fafbfc; stroke: #57606a; stroke-width: 0.7; stroke-linejoin: miter"/>
   </g>
   <g id="patch_13">
    <path d="M 368.4455 159.723516 
C 371.141024 159.723516 373.72651 158.714106 375.632533 156.917599 
C 377.538557 155.121091 378.6095 152.684161 378.6095 150.143516 
C 378.6095 147.60287 377.538557 145.16594 375.632533 143.369433 
C 373.72651 141.572925 371.141024 140.563516 368.4455 140.563516 
C 365.749976 140.563516 363.16449 141.572925 361.258467 143.369433 
C 359.352443 145.16594 358.2815 147.60287 358.2815 150.143516 
C 358.2815 152.684161 359.352443 155.121091 361.258467 156.917599 
C 363.16449 158.714106 365.749976 159.723516 368.4455 159.723516 
z
" clip-path="url(#pd15903884e)" style="fill: #ee6677"/>
   </g>
   <g id="matplotlib.axis_1"/>
   <g id="matplotlib.axis_2"/>
   <g id="line2d_1">
    <path d="M 316.355 150.143516 
L 317.961379 148.80267 
L 319.567759 147.709678 
L 321.174138 147.066579 
L 322.780517 146.99225 
L 324.386897 147.500429 
L 325.993276 148.49718 
L 327.599655 149.798256 
L 329.206034 151.163152 
L 330.812414 152.339569 
L 332.418793 153.110048 
L 334.025172 153.332166 
L 335.631552 152.964864 
L 337.237931 152.076039 
L 338.84431 150.829988 
L 340.45069 149.457043 
L 342.057069 148.210993 
L 343.663448 147.322167 
L 345.269828 146.954866 
L 346.876207 147.176983 
L 348.482586 147.947462 
L 350.088966 149.123879 
L 351.695345 150.488776 
L 353.301724 151.789851 
L 354.908103 152.786602 
L 356.514483 153.294782 
L 358.120862 153.220452 
L 359.727241 152.577353 
L 361.333621 151.484361 
L 362.94 150.143516 
" clip-path="url(#pd15903884e)" style="fill: none; stroke: #57606a; stroke-width: 0.8; stroke-linecap: square"/>
   </g>
   <g id="text_1">
    <!-- $\alpha_1$ -->
    <g style="fill: #57606a" transform="translate(41 132.254714) scale(0.075 -0.075)">
     <defs>
      <path id="DejaVuSans-Oblique-3b1" d="M 2619 1628 
L 2622 2350 
Q 2625 3088 2069 3091 
Q 1653 3094 1394 2747 
Q 1069 2319 959 1747 
Q 825 1059 994 731 
Q 1169 397 1547 397 
Q 1966 397 2319 1063 
L 2619 1628 
z
M 2166 3578 
Q 3141 3594 3128 2584 
Q 3128 2584 3616 3500 
L 4128 3500 
L 3119 1603 
L 3109 919 
Q 3109 766 3194 638 
Q 3291 488 3391 488 
L 3669 488 
L 3575 0 
L 3228 0 
Q 2934 0 2722 263 
Q 2622 394 2619 669 
Q 2416 334 2066 50 
Q 1900 -81 1453 -78 
Q 722 -72 456 397 
Q 184 884 353 1747 
Q 534 2675 1009 3097 
Q 1544 3569 2166 3578 
z
" transform="scale(0.015625)"/>
      <path id="DejaVuSans-31" d="M 794 531 
L 1825 531 
L 1825 4091 
L 703 3866 
L 703 4441 
L 1819 4666 
L 2450 4666 
L 2450 531 
L 3481 531 
L 3481 0 
L 794 0 
L 794 531 
z
" transform="scale(0.015625)"/>
     </defs>
     <use xlink:href="#DejaVuSans-Oblique-3b1" transform="translate(0 0.84375)"/>
     <use xlink:href="#DejaVuSans-31" transform="translate(65.917969 -15.5625) scale(0.7)"/>
    </g>
   </g>
   <g id="text_2">
    <!-- $\alpha_2$ -->
    <g style="fill: #57606a" transform="translate(185.07 132.254714) scale(0.075 -0.075)">
     <defs>
      <path id="DejaVuSans-32" d="M 1228 531 
L 3431 531 
L 3431 0 
L 469 0 
L 469 531 
Q 828 903 1448 1529 
Q 2069 2156 2228 2338 
Q 2531 2678 2651 2914 
Q 2772 3150 2772 3378 
Q 2772 3750 2511 3984 
Q 2250 4219 1831 4219 
Q 1534 4219 1204 4116 
Q 875 4013 500 3803 
L 500 4441 
Q 881 4594 1212 4672 
Q 1544 4750 1819 4750 
Q 2544 4750 2975 4387 
Q 3406 4025 3406 3419 
Q 3406 3131 3298 2873 
Q 3191 2616 2906 2266 
Q 2828 2175 2409 1742 
Q 1991 1309 1228 531 
z
" transform="scale(0.015625)"/>
     </defs>
     <use xlink:href="#DejaVuSans-Oblique-3b1" transform="translate(0 0.84375)"/>
     <use xlink:href="#DejaVuSans-32" transform="translate(65.917969 -15.5625) scale(0.7)"/>
    </g>
   </g>
   <g id="text_3">
    <!-- $\alpha_3$ -->
    <g style="fill: #57606a" transform="translate(113.035 60.767083) scale(0.075 -0.075)">
     <defs>
      <path id="DejaVuSans-33" d="M 2597 2516 
Q 3050 2419 3304 2112 
Q 3559 1806 3559 1356 
Q 3559 666 3084 287 
Q 2609 -91 1734 -91 
Q 1441 -91 1130 -33 
Q 819 25 488 141 
L 488 750 
Q 750 597 1062 519 
Q 1375 441 1716 441 
Q 2309 441 2620 675 
Q 2931 909 2931 1356 
Q 2931 1769 2642 2001 
Q 2353 2234 1838 2234 
L 1294 2234 
L 1294 2753 
L 1863 2753 
Q 2328 2753 2575 2939 
Q 2822 3125 2822 3475 
Q 2822 3834 2567 4026 
Q 2313 4219 1838 4219 
Q 1578 4219 1281 4162 
Q 984 4106 628 3988 
L 628 4550 
Q 988 4650 1302 4700 
Q 1616 4750 1894 4750 
Q 2613 4750 3031 4423 
Q 3450 4097 3450 3541 
Q 3450 3153 3228 2886 
Q 3006 2619 2597 2516 
z
" transform="scale(0.015625)"/>
     </defs>
     <use xlink:href="#DejaVuSans-Oblique-3b1" transform="translate(0 0.84375)"/>
     <use xlink:href="#DejaVuSans-33" transform="translate(65.917969 -15.5625) scale(0.7)"/>
    </g>
   </g>
   <g id="text_4">
    <!-- $\alpha_4$ -->
    <g style="fill: #57606a" transform="translate(113.035 203.742344) scale(0.075 -0.075)">
     <defs>
      <path id="DejaVuSans-34" d="M 2419 4116 
L 825 1625 
L 2419 1625 
L 2419 4116 
z
M 2253 4666 
L 3047 4666 
L 3047 1625 
L 3713 1625 
L 3713 1100 
L 3047 1100 
L 3047 0 
L 2419 0 
L 2419 1100 
L 313 1100 
L 313 1709 
L 2253 4666 
z
" transform="scale(0.015625)"/>
     </defs>
     <use xlink:href="#DejaVuSans-Oblique-3b1" transform="translate(0 0.84375)"/>
     <use xlink:href="#DejaVuSans-34" transform="translate(65.917969 -15.5625) scale(0.7)"/>
    </g>
   </g>
   <g id="text_5">
    <!-- Kv  ($n^{4}$) -->
    <g style="fill: #1f2328" transform="translate(100.12 228.793464) scale(0.09 -0.09)">
     <defs>
      <path id="DejaVuSans-4b" d="M 628 4666 
L 1259 4666 
L 1259 2694 
L 3353 4666 
L 4166 4666 
L 1850 2491 
L 4331 0 
L 3500 0 
L 1259 2247 
L 1259 0 
L 628 0 
L 628 4666 
z
" transform="scale(0.015625)"/>
      <path id="DejaVuSans-76" d="M 191 3500 
L 800 3500 
L 1894 563 
L 2988 3500 
L 3597 3500 
L 2284 0 
L 1503 0 
L 191 3500 
z
" transform="scale(0.015625)"/>
      <path id="DejaVuSans-20" transform="scale(0.015625)"/>
      <path id="DejaVuSans-28" d="M 1984 4856 
Q 1566 4138 1362 3434 
Q 1159 2731 1159 2009 
Q 1159 1288 1364 580 
Q 1569 -128 1984 -844 
L 1484 -844 
Q 1016 -109 783 600 
Q 550 1309 550 2009 
Q 550 2706 781 3412 
Q 1013 4119 1484 4856 
L 1984 4856 
z
" transform="scale(0.015625)"/>
      <path id="DejaVuSans-Oblique-6e" d="M 3566 2113 
L 3156 0 
L 2578 0 
L 2988 2091 
Q 3016 2238 3031 2350 
Q 3047 2463 3047 2528 
Q 3047 2791 2881 2937 
Q 2716 3084 2419 3084 
Q 1956 3084 1622 2776 
Q 1288 2469 1184 1941 
L 800 0 
L 225 0 
L 903 3500 
L 1478 3500 
L 1363 2950 
Q 1603 3253 1940 3418 
Q 2278 3584 2650 3584 
Q 3113 3584 3367 3334 
Q 3622 3084 3622 2631 
Q 3622 2519 3608 2391 
Q 3594 2263 3566 2113 
z
" transform="scale(0.015625)"/>
      <path id="DejaVuSans-29" d="M 513 4856 
L 1013 4856 
Q 1481 4119 1714 3412 
Q 1947 2706 1947 2009 
Q 1947 1309 1714 600 
Q 1481 -109 1013 -844 
L 513 -844 
Q 928 -128 1133 580 
Q 1338 1288 1338 2009 
Q 1338 2731 1133 3434 
Q 928 4138 513 4856 
z
" transform="scale(0.015625)"/>
     </defs>
     <use xlink:href="#DejaVuSans-4b" transform="translate(0 0.684375)"/>
     <use xlink:href="#DejaVuSans-76" transform="translate(65.576172 0.684375)"/>
     <use xlink:href="#DejaVuSans-20" transform="translate(124.755859 0.684375)"/>
     <use xlink:href="#DejaVuSans-20" transform="translate(156.542969 0.684375)"/>
     <use xlink:href="#DejaVuSans-28" transform="translate(188.330078 0.684375)"/>
     <use xlink:href="#DejaVuSans-Oblique-6e" transform="translate(227.34375 0.684375)"/>
     <use xlink:href="#DejaVuSans-34" transform="translate(295.372552 38.965625) scale(0.7)"/>
     <use xlink:href="#DejaVuSans-29" transform="translate(342.64306 0.684375)"/>
    </g>
   </g>
   <g id="text_6">
    <!-- 4 α-subunits -->
    <g style="fill: #57606a" transform="translate(93.977969 52.78375) scale(0.075 -0.075)">
     <defs>
      <path id="DejaVuSans-3b1" d="M 2644 1628 
L 2506 2350 
Q 2366 3091 1809 3091 
Q 1391 3091 1200 2747 
Q 959 2316 959 1747 
Q 959 1059 1194 731 
Q 1431 397 1809 397 
Q 2228 397 2453 1063 
L 2644 1628 
z
M 2966 2584 
L 3275 3500 
L 3788 3500 
L 3147 1603 
L 3272 919 
Q 3300 766 3409 638 
Q 3538 488 3638 488 
L 3913 488 
L 3913 0 
L 3569 0 
Q 3275 0 3013 263 
Q 2884 394 2831 669 
Q 2688 322 2394 50 
Q 2256 -78 1809 -78 
Q 1075 -78 719 397 
Q 353 888 353 1747 
Q 353 2666 750 3097 
Q 1191 3578 1809 3578 
Q 2781 3578 2966 2584 
z
" transform="scale(0.015625)"/>
      <path id="DejaVuSans-2d" d="M 313 2009 
L 1997 2009 
L 1997 1497 
L 313 1497 
L 313 2009 
z
" transform="scale(0.015625)"/>
      <path id="DejaVuSans-73" d="M 2834 3397 
L 2834 2853 
Q 2591 2978 2328 3040 
Q 2066 3103 1784 3103 
Q 1356 3103 1142 2972 
Q 928 2841 928 2578 
Q 928 2378 1081 2264 
Q 1234 2150 1697 2047 
L 1894 2003 
Q 2506 1872 2764 1633 
Q 3022 1394 3022 966 
Q 3022 478 2636 193 
Q 2250 -91 1575 -91 
Q 1294 -91 989 -36 
Q 684 19 347 128 
L 347 722 
Q 666 556 975 473 
Q 1284 391 1588 391 
Q 1994 391 2212 530 
Q 2431 669 2431 922 
Q 2431 1156 2273 1281 
Q 2116 1406 1581 1522 
L 1381 1569 
Q 847 1681 609 1914 
Q 372 2147 372 2553 
Q 372 3047 722 3315 
Q 1072 3584 1716 3584 
Q 2034 3584 2315 3537 
Q 2597 3491 2834 3397 
z
" transform="scale(0.015625)"/>
      <path id="DejaVuSans-75" d="M 544 1381 
L 544 3500 
L 1119 3500 
L 1119 1403 
Q 1119 906 1312 657 
Q 1506 409 1894 409 
Q 2359 409 2629 706 
Q 2900 1003 2900 1516 
L 2900 3500 
L 3475 3500 
L 3475 0 
L 2900 0 
L 2900 538 
Q 2691 219 2414 64 
Q 2138 -91 1772 -91 
Q 1169 -91 856 284 
Q 544 659 544 1381 
z
M 1991 3584 
L 1991 3584 
z
" transform="scale(0.015625)"/>
      <path id="DejaVuSans-62" d="M 3116 1747 
Q 3116 2381 2855 2742 
Q 2594 3103 2138 3103 
Q 1681 3103 1420 2742 
Q 1159 2381 1159 1747 
Q 1159 1113 1420 752 
Q 1681 391 2138 391 
Q 2594 391 2855 752 
Q 3116 1113 3116 1747 
z
M 1159 2969 
Q 1341 3281 1617 3432 
Q 1894 3584 2278 3584 
Q 2916 3584 3314 3078 
Q 3713 2572 3713 1747 
Q 3713 922 3314 415 
Q 2916 -91 2278 -91 
Q 1894 -91 1617 61 
Q 1341 213 1159 525 
L 1159 0 
L 581 0 
L 581 4863 
L 1159 4863 
L 1159 2969 
z
" transform="scale(0.015625)"/>
      <path id="DejaVuSans-6e" d="M 3513 2113 
L 3513 0 
L 2938 0 
L 2938 2094 
Q 2938 2591 2744 2837 
Q 2550 3084 2163 3084 
Q 1697 3084 1428 2787 
Q 1159 2491 1159 1978 
L 1159 0 
L 581 0 
L 581 3500 
L 1159 3500 
L 1159 2956 
Q 1366 3272 1645 3428 
Q 1925 3584 2291 3584 
Q 2894 3584 3203 3211 
Q 3513 2838 3513 2113 
z
" transform="scale(0.015625)"/>
      <path id="DejaVuSans-69" d="M 603 3500 
L 1178 3500 
L 1178 0 
L 603 0 
L 603 3500 
z
M 603 4863 
L 1178 4863 
L 1178 4134 
L 603 4134 
L 603 4863 
z
" transform="scale(0.015625)"/>
      <path id="DejaVuSans-74" d="M 1172 4494 
L 1172 3500 
L 2356 3500 
L 2356 3053 
L 1172 3053 
L 1172 1153 
Q 1172 725 1289 603 
Q 1406 481 1766 481 
L 2356 481 
L 2356 0 
L 1766 0 
Q 1100 0 847 248 
Q 594 497 594 1153 
L 594 3053 
L 172 3053 
L 172 3500 
L 594 3500 
L 594 4494 
L 1172 4494 
z
" transform="scale(0.015625)"/>
     </defs>
     <use xlink:href="#DejaVuSans-34"/>
     <use xlink:href="#DejaVuSans-20" transform="translate(63.623047 0)"/>
     <use xlink:href="#DejaVuSans-3b1" transform="translate(95.410156 0)"/>
     <use xlink:href="#DejaVuSans-2d" transform="translate(161.328125 0)"/>
     <use xlink:href="#DejaVuSans-73" transform="translate(197.412109 0)"/>
     <use xlink:href="#DejaVuSans-75" transform="translate(249.511719 0)"/>
     <use xlink:href="#DejaVuSans-62" transform="translate(312.890625 0)"/>
     <use xlink:href="#DejaVuSans-75" transform="translate(376.367188 0)"/>
     <use xlink:href="#DejaVuSans-6e" transform="translate(439.746094 0)"/>
     <use xlink:href="#DejaVuSans-69" transform="translate(503.125 0)"/>
     <use xlink:href="#DejaVuSans-74" transform="translate(530.908203 0)"/>
     <use xlink:href="#DejaVuSans-73" transform="translate(570.117188 0)"/>
    </g>
   </g>
   <g id="text_7">
    <!-- I -->
    <g style="fill: #57606a" transform="translate(242.1475 116.288047) scale(0.075 -0.075)">
     <defs>
      <path id="DejaVuSans-49" d="M 628 4666 
L 1259 4666 
L 1259 0 
L 628 0 
L 628 4666 
z
" transform="scale(0.015625)"/>
     </defs>
     <use xlink:href="#DejaVuSans-49"/>
    </g>
   </g>
   <g id="text_8">
    <!-- II -->
    <g style="fill: #57606a" transform="translate(379.88 116.288047) scale(0.075 -0.075)">
     <use xlink:href="#DejaVuSans-49"/>
     <use xlink:href="#DejaVuSans-49" transform="translate(29.492188 0)"/>
    </g>
   </g>
   <g id="text_9">
    <!-- III -->
    <g style="fill: #57606a" transform="translate(308.80125 44.800417) scale(0.075 -0.075)">
     <use xlink:href="#DejaVuSans-49"/>
     <use xlink:href="#DejaVuSans-49" transform="translate(29.492188 0)"/>
     <use xlink:href="#DejaVuSans-49" transform="translate(58.984375 0)"/>
    </g>
   </g>
   <g id="text_10">
    <!-- IV -->
    <g style="fill: #57606a" transform="translate(308.448516 187.775677) scale(0.075 -0.075)">
     <defs>
      <path id="DejaVuSans-56" d="M 1831 0 
L 50 4666 
L 709 4666 
L 2188 738 
L 3669 4666 
L 4325 4666 
L 2547 0 
L 1831 0 
z
" transform="scale(0.015625)"/>
     </defs>
     <use xlink:href="#DejaVuSans-49"/>
     <use xlink:href="#DejaVuSans-56" transform="translate(29.492188 0)"/>
    </g>
   </g>
   <g id="text_11">
    <!-- inact. -->
    <g style="fill: #ee6677" transform="translate(358.701281 173.424922) scale(0.07 -0.07)">
     <defs>
      <path id="DejaVuSans-61" d="M 2194 1759 
Q 1497 1759 1228 1600 
Q 959 1441 959 1056 
Q 959 750 1161 570 
Q 1363 391 1709 391 
Q 2188 391 2477 730 
Q 2766 1069 2766 1631 
L 2766 1759 
L 2194 1759 
z
M 3341 1997 
L 3341 0 
L 2766 0 
L 2766 531 
Q 2569 213 2275 61 
Q 1981 -91 1556 -91 
Q 1019 -91 701 211 
Q 384 513 384 1019 
Q 384 1609 779 1909 
Q 1175 2209 1959 2209 
L 2766 2209 
L 2766 2266 
Q 2766 2663 2505 2880 
Q 2244 3097 1772 3097 
Q 1472 3097 1187 3025 
Q 903 2953 641 2809 
L 641 3341 
Q 956 3463 1253 3523 
Q 1550 3584 1831 3584 
Q 2591 3584 2966 3190 
Q 3341 2797 3341 1997 
z
" transform="scale(0.015625)"/>
      <path id="DejaVuSans-63" d="M 3122 3366 
L 3122 2828 
Q 2878 2963 2633 3030 
Q 2388 3097 2138 3097 
Q 1578 3097 1268 2742 
Q 959 2388 959 1747 
Q 959 1106 1268 751 
Q 1578 397 2138 397 
Q 2388 397 2633 464 
Q 2878 531 3122 666 
L 3122 134 
Q 2881 22 2623 -34 
Q 2366 -91 2075 -91 
Q 1284 -91 818 406 
Q 353 903 353 1747 
Q 353 2603 823 3093 
Q 1294 3584 2113 3584 
Q 2378 3584 2631 3529 
Q 2884 3475 3122 3366 
z
" transform="scale(0.015625)"/>
      <path id="DejaVuSans-2e" d="M 684 794 
L 1344 794 
L 1344 0 
L 684 0 
L 684 794 
z
" transform="scale(0.015625)"/>
     </defs>
     <use xlink:href="#DejaVuSans-69"/>
     <use xlink:href="#DejaVuSans-6e" transform="translate(27.783203 0)"/>
     <use xlink:href="#DejaVuSans-61" transform="translate(91.162109 0)"/>
     <use xlink:href="#DejaVuSans-63" transform="translate(152.441406 0)"/>
     <use xlink:href="#DejaVuSans-74" transform="translate(207.421875 0)"/>
     <use xlink:href="#DejaVuSans-2e" transform="translate(246.630859 0)"/>
    </g>
    <!-- ball -->
    <g style="fill: #ee6677" transform="translate(362.134016 181.263391) scale(0.07 -0.07)">
     <defs>
      <path id="DejaVuSans-6c" d="M 603 4863 
L 1178 4863 
L 1178 0 
L 603 0 
L 603 4863 
z
" transform="scale(0.015625)"/>
     </defs>
     <use xlink:href="#DejaVuSans-62"/>
     <use xlink:href="#DejaVuSans-61" transform="translate(63.476562 0)"/>
     <use xlink:href="#DejaVuSans-6c" transform="translate(124.755859 0)"/>
     <use xlink:href="#DejaVuSans-6c" transform="translate(152.539062 0)"/>
    </g>
   </g>
   <g id="text_12">
    <!-- Nav  ($m^{3}h$) -->
    <g style="fill: #1f2328" transform="translate(287.37 228.838464) scale(0.09 -0.09)">
     <defs>
      <path id="DejaVuSans-4e" d="M 628 4666 
L 1478 4666 
L 3547 763 
L 3547 4666 
L 4159 4666 
L 4159 0 
L 3309 0 
L 1241 3903 
L 1241 0 
L 628 0 
L 628 4666 
z
" transform="scale(0.015625)"/>
      <path id="DejaVuSans-Oblique-6d" d="M 5747 2113 
L 5338 0 
L 4763 0 
L 5166 2094 
Q 5191 2228 5203 2325 
Q 5216 2422 5216 2491 
Q 5216 2772 5059 2928 
Q 4903 3084 4622 3084 
Q 4203 3084 3875 2770 
Q 3547 2456 3450 1953 
L 3066 0 
L 2491 0 
L 2900 2094 
Q 2925 2209 2937 2307 
Q 2950 2406 2950 2484 
Q 2950 2769 2794 2926 
Q 2638 3084 2363 3084 
Q 1938 3084 1609 2770 
Q 1281 2456 1184 1953 
L 800 0 
L 225 0 
L 909 3500 
L 1484 3500 
L 1375 2956 
Q 1609 3263 1923 3423 
Q 2238 3584 2597 3584 
Q 2978 3584 3223 3384 
Q 3469 3184 3519 2828 
Q 3781 3197 4126 3390 
Q 4472 3584 4856 3584 
Q 5306 3584 5551 3325 
Q 5797 3066 5797 2591 
Q 5797 2488 5784 2364 
Q 5772 2241 5747 2113 
z
" transform="scale(0.015625)"/>
      <path id="DejaVuSans-Oblique-68" d="M 3566 2113 
L 3156 0 
L 2578 0 
L 2988 2091 
Q 3016 2238 3031 2350 
Q 3047 2463 3047 2528 
Q 3047 2791 2881 2937 
Q 2716 3084 2419 3084 
Q 1956 3084 1617 2771 
Q 1278 2459 1178 1941 
L 800 0 
L 225 0 
L 1172 4863 
L 1747 4863 
L 1375 2950 
Q 1594 3244 1934 3414 
Q 2275 3584 2650 3584 
Q 3113 3584 3367 3334 
Q 3622 3084 3622 2631 
Q 3622 2519 3608 2391 
Q 3594 2263 3566 2113 
z
" transform="scale(0.015625)"/>
     </defs>
     <use xlink:href="#DejaVuSans-4e" transform="translate(0 0.765625)"/>
     <use xlink:href="#DejaVuSans-61" transform="translate(74.804688 0.765625)"/>
     <use xlink:href="#DejaVuSans-76" transform="translate(136.083984 0.765625)"/>
     <use xlink:href="#DejaVuSans-20" transform="translate(195.263672 0.765625)"/>
     <use xlink:href="#DejaVuSans-20" transform="translate(227.050781 0.765625)"/>
     <use xlink:href="#DejaVuSans-28" transform="translate(258.837891 0.765625)"/>
     <use xlink:href="#DejaVuSans-Oblique-6d" transform="translate(297.851562 0.765625)"/>
     <use xlink:href="#DejaVuSans-33" transform="translate(399.913568 39.046875) scale(0.7)"/>
     <use xlink:href="#DejaVuSans-Oblique-68" transform="translate(447.184076 0.765625)"/>
     <use xlink:href="#DejaVuSans-29" transform="translate(510.562982 0.765625)"/>
    </g>
   </g>
   <g id="text_13">
    <!-- 4 pseudo-domains -->
    <g style="fill: #57606a" transform="translate(277.427813 52.78375) scale(0.075 -0.075)">
     <defs>
      <path id="DejaVuSans-70" d="M 1159 525 
L 1159 -1331 
L 581 -1331 
L 581 3500 
L 1159 3500 
L 1159 2969 
Q 1341 3281 1617 3432 
Q 1894 3584 2278 3584 
Q 2916 3584 3314 3078 
Q 3713 2572 3713 1747 
Q 3713 922 3314 415 
Q 2916 -91 2278 -91 
Q 1894 -91 1617 61 
Q 1341 213 1159 525 
z
M 3116 1747 
Q 3116 2381 2855 2742 
Q 2594 3103 2138 3103 
Q 1681 3103 1420 2742 
Q 1159 2381 1159 1747 
Q 1159 1113 1420 752 
Q 1681 391 2138 391 
Q 2594 391 2855 752 
Q 3116 1113 3116 1747 
z
" transform="scale(0.015625)"/>
      <path id="DejaVuSans-65" d="M 3597 1894 
L 3597 1613 
L 953 1613 
Q 991 1019 1311 708 
Q 1631 397 2203 397 
Q 2534 397 2845 478 
Q 3156 559 3463 722 
L 3463 178 
Q 3153 47 2828 -22 
Q 2503 -91 2169 -91 
Q 1331 -91 842 396 
Q 353 884 353 1716 
Q 353 2575 817 3079 
Q 1281 3584 2069 3584 
Q 2775 3584 3186 3129 
Q 3597 2675 3597 1894 
z
M 3022 2063 
Q 3016 2534 2758 2815 
Q 2500 3097 2075 3097 
Q 1594 3097 1305 2825 
Q 1016 2553 972 2059 
L 3022 2063 
z
" transform="scale(0.015625)"/>
      <path id="DejaVuSans-64" d="M 2906 2969 
L 2906 4863 
L 3481 4863 
L 3481 0 
L 2906 0 
L 2906 525 
Q 2725 213 2448 61 
Q 2172 -91 1784 -91 
Q 1150 -91 751 415 
Q 353 922 353 1747 
Q 353 2572 751 3078 
Q 1150 3584 1784 3584 
Q 2172 3584 2448 3432 
Q 2725 3281 2906 2969 
z
M 947 1747 
Q 947 1113 1208 752 
Q 1469 391 1925 391 
Q 2381 391 2643 752 
Q 2906 1113 2906 1747 
Q 2906 2381 2643 2742 
Q 2381 3103 1925 3103 
Q 1469 3103 1208 2742 
Q 947 2381 947 1747 
z
" transform="scale(0.015625)"/>
      <path id="DejaVuSans-6f" d="M 1959 3097 
Q 1497 3097 1228 2736 
Q 959 2375 959 1747 
Q 959 1119 1226 758 
Q 1494 397 1959 397 
Q 2419 397 2687 759 
Q 2956 1122 2956 1747 
Q 2956 2369 2687 2733 
Q 2419 3097 1959 3097 
z
M 1959 3584 
Q 2709 3584 3137 3096 
Q 3566 2609 3566 1747 
Q 3566 888 3137 398 
Q 2709 -91 1959 -91 
Q 1206 -91 779 398 
Q 353 888 353 1747 
Q 353 2609 779 3096 
Q 1206 3584 1959 3584 
z
" transform="scale(0.015625)"/>
      <path id="DejaVuSans-6d" d="M 3328 2828 
Q 3544 3216 3844 3400 
Q 4144 3584 4550 3584 
Q 5097 3584 5394 3201 
Q 5691 2819 5691 2113 
L 5691 0 
L 5113 0 
L 5113 2094 
Q 5113 2597 4934 2840 
Q 4756 3084 4391 3084 
Q 3944 3084 3684 2787 
Q 3425 2491 3425 1978 
L 3425 0 
L 2847 0 
L 2847 2094 
Q 2847 2600 2669 2842 
Q 2491 3084 2119 3084 
Q 1678 3084 1418 2786 
Q 1159 2488 1159 1978 
L 1159 0 
L 581 0 
L 581 3500 
L 1159 3500 
L 1159 2956 
Q 1356 3278 1631 3431 
Q 1906 3584 2284 3584 
Q 2666 3584 2933 3390 
Q 3200 3197 3328 2828 
z
" transform="scale(0.015625)"/>
     </defs>
     <use xlink:href="#DejaVuSans-34"/>
     <use xlink:href="#DejaVuSans-20" transform="translate(63.623047 0)"/>
     <use xlink:href="#DejaVuSans-70" transform="translate(95.410156 0)"/>
     <use xlink:href="#DejaVuSans-73" transform="translate(158.886719 0)"/>
     <use xlink:href="#DejaVuSans-65" transform="translate(210.986328 0)"/>
     <use xlink:href="#DejaVuSans-75" transform="translate(272.509766 0)"/>
     <use xlink:href="#DejaVuSans-64" transform="translate(335.888672 0)"/>
     <use xlink:href="#DejaVuSans-6f" transform="translate(399.365234 0)"/>
     <use xlink:href="#DejaVuSans-2d" transform="translate(462.421875 0)"/>
     <use xlink:href="#DejaVuSans-64" transform="translate(498.505859 0)"/>
     <use xlink:href="#DejaVuSans-6f" transform="translate(561.982422 0)"/>
     <use xlink:href="#DejaVuSans-6d" transform="translate(623.164062 0)"/>
     <use xlink:href="#DejaVuSans-61" transform="translate(720.576172 0)"/>
     <use xlink:href="#DejaVuSans-69" transform="translate(781.855469 0)"/>
     <use xlink:href="#DejaVuSans-6e" transform="translate(809.638672 0)"/>
     <use xlink:href="#DejaVuSans-73" transform="translate(873.017578 0)"/>
    </g>
   </g>
   <g id="text_14">
    <!-- Voltage-gated channel architecture -->
    <g style="fill: #1f2328" transform="translate(135.139961 14.418516) scale(0.095 -0.095)">
     <defs>
      <path id="DejaVuSans-67" d="M 2906 1791 
Q 2906 2416 2648 2759 
Q 2391 3103 1925 3103 
Q 1463 3103 1205 2759 
Q 947 2416 947 1791 
Q 947 1169 1205 825 
Q 1463 481 1925 481 
Q 2391 481 2648 825 
Q 2906 1169 2906 1791 
z
M 3481 434 
Q 3481 -459 3084 -895 
Q 2688 -1331 1869 -1331 
Q 1566 -1331 1297 -1286 
Q 1028 -1241 775 -1147 
L 775 -588 
Q 1028 -725 1275 -790 
Q 1522 -856 1778 -856 
Q 2344 -856 2625 -561 
Q 2906 -266 2906 331 
L 2906 616 
Q 2728 306 2450 153 
Q 2172 0 1784 0 
Q 1141 0 747 490 
Q 353 981 353 1791 
Q 353 2603 747 3093 
Q 1141 3584 1784 3584 
Q 2172 3584 2450 3431 
Q 2728 3278 2906 2969 
L 2906 3500 
L 3481 3500 
L 3481 434 
z
" transform="scale(0.015625)"/>
      <path id="DejaVuSans-68" d="M 3513 2113 
L 3513 0 
L 2938 0 
L 2938 2094 
Q 2938 2591 2744 2837 
Q 2550 3084 2163 3084 
Q 1697 3084 1428 2787 
Q 1159 2491 1159 1978 
L 1159 0 
L 581 0 
L 581 4863 
L 1159 4863 
L 1159 2956 
Q 1366 3272 1645 3428 
Q 1925 3584 2291 3584 
Q 2894 3584 3203 3211 
Q 3513 2838 3513 2113 
z
" transform="scale(0.015625)"/>
      <path id="DejaVuSans-72" d="M 2631 2963 
Q 2534 3019 2420 3045 
Q 2306 3072 2169 3072 
Q 1681 3072 1420 2755 
Q 1159 2438 1159 1844 
L 1159 0 
L 581 0 
L 581 3500 
L 1159 3500 
L 1159 2956 
Q 1341 3275 1631 3429 
Q 1922 3584 2338 3584 
Q 2397 3584 2469 3576 
Q 2541 3569 2628 3553 
L 2631 2963 
z
" transform="scale(0.015625)"/>
     </defs>
     <use xlink:href="#DejaVuSans-56"/>
     <use xlink:href="#DejaVuSans-6f" transform="translate(60.658203 0)"/>
     <use xlink:href="#DejaVuSans-6c" transform="translate(121.839844 0)"/>
     <use xlink:href="#DejaVuSans-74" transform="translate(149.623047 0)"/>
     <use xlink:href="#DejaVuSans-61" transform="translate(188.832031 0)"/>
     <use xlink:href="#DejaVuSans-67" transform="translate(250.111328 0)"/>
     <use xlink:href="#DejaVuSans-65" transform="translate(313.587891 0)"/>
     <use xlink:href="#DejaVuSans-2d" transform="translate(375.111328 0)"/>
     <use xlink:href="#DejaVuSans-67" transform="translate(411.195312 0)"/>
     <use xlink:href="#DejaVuSans-61" transform="translate(474.671875 0)"/>
     <use xlink:href="#DejaVuSans-74" transform="translate(535.951172 0)"/>
     <use xlink:href="#DejaVuSans-65" transform="translate(575.160156 0)"/>
     <use xlink:href="#DejaVuSans-64" transform="translate(636.683594 0)"/>
     <use xlink:href="#DejaVuSans-20" transform="translate(700.160156 0)"/>
     <use xlink:href="#DejaVuSans-63" transform="translate(731.947266 0)"/>
     <use xlink:href="#DejaVuSans-68" transform="translate(786.927734 0)"/>
     <use xlink:href="#DejaVuSans-61" transform="translate(850.306641 0)"/>
     <use xlink:href="#DejaVuSans-6e" transform="translate(911.585938 0)"/>
     <use xlink:href="#DejaVuSans-6e" transform="translate(974.964844 0)"/>
     <use xlink:href="#DejaVuSans-65" transform="translate(1038.34375 0)"/>
     <use xlink:href="#DejaVuSans-6c" transform="translate(1099.867188 0)"/>
     <use xlink:href="#DejaVuSans-20" transform="translate(1127.650391 0)"/>
     <use xlink:href="#DejaVuSans-61" transform="translate(1159.4375 0)"/>
     <use xlink:href="#DejaVuSans-72" transform="translate(1220.716797 0)"/>
     <use xlink:href="#DejaVuSans-63" transform="translate(1259.580078 0)"/>
     <use xlink:href="#DejaVuSans-68" transform="translate(1314.560547 0)"/>
     <use xlink:href="#DejaVuSans-69" transform="translate(1377.939453 0)"/>
     <use xlink:href="#DejaVuSans-74" transform="translate(1405.722656 0)"/>
     <use xlink:href="#DejaVuSans-65" transform="translate(1444.931641 0)"/>
     <use xlink:href="#DejaVuSans-63" transform="translate(1506.455078 0)"/>
     <use xlink:href="#DejaVuSans-74" transform="translate(1561.435547 0)"/>
     <use xlink:href="#DejaVuSans-75" transform="translate(1600.644531 0)"/>
     <use xlink:href="#DejaVuSans-72" transform="translate(1664.023438 0)"/>
     <use xlink:href="#DejaVuSans-65" transform="translate(1702.886719 0)"/>
    </g>
   </g>
  </g>
 </g>
 <defs>
  <clipPath id="pd15903884e">
   <rect x="7.2" y="18.418516" width="423.5" height="239.5"/>
  </clipPath>
 </defs>
</svg>
