<?xml version="1.0" encoding="utf-8" standalone="no"?>
<!DOCTYPE svg PUBLIC "-//W3C//DTD SVG 1.1//EN"
  "http://www.w3.org/Graphics/SVG/1.1/DTD/svg11.dtd">
<svg xmlns:xlink="http://www.w3.org/1999/xlink" width="437.9pt" height="265.118516pt" viewBox="0 0 437.9 265.118516" xmlns="http://www.w3.org/2000/svg" version="1.1">
 <metadata>
  <rdf:RDF xmlns:dc="http://purl.org/dc/elements/1.1/" xmlns:cc="http://creativecommons.org/ns#" xmlns:rdf="http://www.w3.org/1999/02/22-rdf-syntax-ns#">
   <cc:Work>
    <dc:type rdf:resource="http://purl.org/dc/dcmitype/StillImage"/>
    <dc:date>2023-11-14T22:13:20+00:00</dc:date>
    <dc:format>image/svg+xml</dc:format>
    <dc:creator>
     <cc:Agent>
      <dc:title>Matplotlib v3.10.8, https://matplotlib.org/</dc:title>
     </cc:Agent>
    </dc:creator>
   </cc:Work>
  </rdf:RDF>
 </metadata>
 <defs>
  <style type="text/css">*{stroke-linejoin: round; stroke-linecap: butt}</style>
 </defs>
 <g id="figure_1">
  <g id="patch_1">
   <path d="M 0 265.118516 
L 437.9 265.118516 
L 437.9 0 
L 0 0 
z
" style="fill: #fafbfc"/>
  </g>
  <g id="axes_1">
   <g id="patch_2">
    <path d="M 7.2 257.918516 
L 430.7 257.918516 
L 430.7 18.418516 
L 7.2 18.418516 
z
" style="fill: #fafbfc"/>
   </g>
   <g id="patch_3">
    <path d="M 32.61 210.018516 
L 193.54 210.018516 
L 193.54 66.318516 
L 32.61 66.318516 
z
" clip-path="url(#pd15903884e)" style="fill: #d0d7de; stroke: #57606a; stroke-width: 0.8; stroke-linejoin: miter"/>
   </g>
   <g id="patch_4">
    <path d="M 244.36 210.018516 
L 405.29 210.018516 
L 405.29 66.318516 
L 244.36 66.318516 
z
" clip-path="url(#pd15903884e)" style="fill: #fafbfc; stroke: #57606a; stroke-width: 0.8; stroke-linejoin: miter"/>
   </g>
   <g id="patch_5">
    <path d="M 206.245 174.093516 
L 218.95 174.093516 
L 218.95 166.110182 
L 206.245 166.110182 
z
" clip-path="url(#pd15903884e)" style="fill: #fafbfc"/>
   </g>
   <g id="patch_6">
    <path d="M 206.245 142.160182 
L 218.95 142.160182 
L 218.95 134.176849 
L 206.245 134.176849 
z
" clip-path="url(#pd15903884e)" style="fill: #fafbfc"/>
   </g>
   <g id="patch_7">
    <path d="M 206.245 110.226849 
L 218.95 110.226849 
L 218.95 102.243516 
L 206.245 102.243516 
z
" clip-path="url(#pd15903884e)" style="fill: #fafbfc"/>
   </g>
   <g id="matplotlib.axis_1"/>
   <g id="matplotlib.axis_2"/>
   <g id="line2d_1">
    <path d="M 206.245 218.001849 
L 206.245 58.335182 
" clip-path="url(#pd15903884e)" style="fill: none; stroke: #1f2328; stroke-width: 1.4; stroke-linecap: square"/>
   </g>
   <g id="line2d_2">
    <path d="M 218.95 218.001849 
L 218.95 58.335182 
" clip-path="url(#pd15903884e)" style="fill: none; stroke: #1f2328; stroke-width: 1.4; stroke-linecap: square"/>
   </g>
   <g id="text_1">
    <!-- K$^+$ -->
    <g style="fill: #66ccee" transform="translate(52.17 196.12138) scale(0.075 -0.075)">
     <defs>
      <path id="DejaVuSans-4b" d="M 628 4666 
L 1259 4666 
L 1259 2694 
L 3353 4666 
L 4166 4666 
L 1850 2491 
L 4331 0 
L 3500 0 
L 1259 2247 
L 1259 0 
L 628 0 
L 628 4666 
z
" transform="scale(0.015625)"/>
      <path id="DejaVuSans-2b" d="M 2944 4013 
L 2944 2272 
L 4684 2272 
L 4684 1741 
L 2944 1741 
L 2944 0 
L 2419 0 
L 2419 1741 
L 678 1741 
L 678 2272 
L 2419 2272 
L 2419 4013 
L 2944 4013 
z
" transform="scale(0.015625)"/>
     </defs>
     <use xlink:href="#DejaVuSans-4b" transform="translate(0 0.826562)"/>
     <use xlink:href="#DejaVuSans-2b" transform="translate(80.170898 39.107812) scale(0.7)"/>
    </g>
   </g>
   <g id="text_2">
    <!-- K$^+$ -->
    <g style="fill: #66ccee" transform="translate(77.58 196.12138) scale(0.075 -0.075)">
     <use xlink:href="#DejaVuSans-4b" transform="translate(0 0.826562)"/>
     <use xlink:href="#DejaVuSans-2b" transform="translate(80.170898 39.107812) scale(0.7)"/>
    </g>
   </g>
   <g id="text_3">
    <!-- K$^+$ -->
    <g style="fill: #66ccee" transform="translate(102.99 196.12138) scale(0.075 -0.075)">
     <use xlink:href="#DejaVuSans-4b" transform="translate(0 0.826562)"/>
     <use xlink:href="#DejaVuSans-2b" transform="translate(80.170898 39.107812) scale(0.7)"/>
    </g>
   </g>
   <g id="text_4">
    <!-- K$^+$ -->
    <g style="fill: #66ccee" transform="translate(128.4 196.12138) scale(0.075 -0.075)">
     <use xlink:href="#DejaVuSans-4b" transform="translate(0 0.826562)"/>
     <use xlink:href="#DejaVuSans-2b" transform="translate(80.170898 39.107812) scale(0.7)"/>
    </g>
   </g>
   <g id="text_5">
    <!-- K$^+$ -->
    <g style="fill: #66ccee" transform="translate(52.17 164.188047) scale(0.075 -0.075)">
     <use xlink:href="#DejaVuSans-4b" transform="translate(0 0.826562)"/>
     <use xlink:href="#DejaVuSans-2b" transform="translate(80.170898 39.107812) scale(0.7)"/>
    </g>
   </g>
   <g id="text_6">
    <!-- K$^+$ -->
    <g style="fill: #66ccee" transform="translate(77.58 164.188047) scale(0.075 -0.075)">
     <use xlink:href="#DejaVuSans-4b" transform="translate(0 0.826562)"/>
     <use xlink:href="#DejaVuSans-2b" transform="translate(80.170898 39.107812) scale(0.7)"/>
    </g>
   </g>
   <g id="text_7">
    <!-- K$^+$ -->
    <g style="fill: #66ccee" transform="translate(102.99 164.188047) scale(0.075 -0.075)">
     <use xlink:href="#DejaVuSans-4b" transform="translate(0 0.826562)"/>
     <use xlink:href="#DejaVuSans-2b" transform="translate(80.170898 39.107812) scale(0.7)"/>
    </g>
   </g>
   <g id="text_8">
    <!-- K$^+$ -->
    <g style="fill: #66ccee" transform="translate(128.4 164.188047) scale(0.075 -0.075)">
     <use xlink:href="#DejaVuSans-4b" transform="translate(0 0.826562)"/>
     <use xlink:href="#DejaVuSans-2b" transform="translate(80.170898 39.107812) scale(0.7)"/>
    </g>
   </g>
   <g id="text_9">
    <!-- K$^+$ -->
    <g style="fill: #66ccee" transform="translate(153.81 164.188047) scale(0.075 -0.075)">
     <use xlink:href="#DejaVuSans-4b" transform="translate(0 0.826562)"/>
     <use xlink:href="#DejaVuSans-2b" transform="translate(80.170898 39.107812) scale(0.7)"/>
    </g>
   </g>
   <g id="text_10">
    <!-- K$^+$ -->
    <g style="fill: #66ccee" transform="translate(179.22 164.188047) scale(0.075 -0.075)">
     <use xlink:href="#DejaVuSans-4b" transform="translate(0 0.826562)"/>
     <use xlink:href="#DejaVuSans-2b" transform="translate(80.170898 39.107812) scale(0.7)"/>
    </g>
   </g>
   <g id="text_11">
    <!-- K$^+$ -->
    <g style="fill: #66ccee" transform="translate(52.17 100.32138) scale(0.075 -0.075)">
     <use xlink:href="#DejaVuSans-4b" transform="translate(0 0.826562)"/>
     <use xlink:href="#DejaVuSans-2b" transform="translate(80.170898 39.107812) scale(0.7)"/>
    </g>
   </g>
   <g id="text_12">
    <!-- K$^+$ -->
    <g style="fill: #66ccee" transform="translate(77.58 100.32138) scale(0.075 -0.075)">
     <use xlink:href="#DejaVuSans-4b" transform="translate(0 0.826562)"/>
     <use xlink:href="#DejaVuSans-2b" transform="translate(80.170898 39.107812) scale(0.7)"/>
    </g>
   </g>
   <g id="text_13">
    <!-- K$^+$ -->
    <g style="fill: #66ccee" transform="translate(102.99 100.32138) scale(0.075 -0.075)">
     <use xlink:href="#DejaVuSans-4b" transform="translate(0 0.826562)"/>
     <use xlink:href="#DejaVuSans-2b" transform="translate(80.170898 39.107812) scale(0.7)"/>
    </g>
   </g>
   <g id="text_14">
    <!-- K$^+$ -->
    <g style="fill: #66ccee" transform="translate(128.4 100.32138) scale(0.075 -0.075)">
     <use xlink:href="#DejaVuSans-4b" transform="translate(0 0.826562)"/>
     <use xlink:href="#DejaVuSans-2b" transform="translate(80.170898 39.107812) scale(0.7)"/>
    </g>
   </g>
   <g id="text_15">
    <!-- K$^+$ -->
    <g style="fill: #66ccee" transform="translate(153.81 100.32138) scale(0.075 -0.075)">
     <use xlink:href="#DejaVuSans-4b" transform="translate(0 0.826562)"/>
     <use xlink:href="#DejaVuSans-2b" transform="translate(80.170898 39.107812) scale(0.7)"/>
    </g>
   </g>
   <g id="text_16">
    <!-- K$^+$ -->
    <g style="fill: #66ccee" transform="translate(179.22 100.32138) scale(0.075 -0.075)">
     <use xlink:href="#DejaVuSans-4b" transform="translate(0 0.826562)"/>
     <use xlink:href="#DejaVuSans-2b" transform="translate(80.170898 39.107812) scale(0.7)"/>
    </g>
   </g>
   <g id="text_17">
    <!-- K$^+$ -->
    <g style="fill: #66ccee" transform="translate(314.74 196.12138) scale(0.075 -0.075)">
     <use xlink:href="#DejaVuSans-4b" transform="translate(0 0.826562)"/>
     <use xlink:href="#DejaVuSans-2b" transform="translate(80.170898 39.107812) scale(0.7)"/>
    </g>
   </g>
   <g id="text_18">
    <!-- K$^+$ -->
    <g style="fill: #66ccee" transform="translate(374.03 196.12138) scale(0.075 -0.075)">
     <use xlink:href="#DejaVuSans-4b" transform="translate(0 0.826562)"/>
     <use xlink:href="#DejaVuSans-2b" transform="translate(80.170898 39.107812) scale(0.7)"/>
    </g>
   </g>
   <g id="text_19">
    <!-- K$^+$ -->
    <g style="fill: #66ccee" transform="translate(255.45 132.254714) scale(0.075 -0.075)">
     <use xlink:href="#DejaVuSans-4b" transform="translate(0 0.826562)"/>
     <use xlink:href="#DejaVuSans-2b" transform="translate(80.170898 39.107812) scale(0.7)"/>
    </g>
   </g>
   <g id="text_20">
    <!-- K$^+$ -->
    <g style="fill: #66ccee" transform="translate(374.03 132.254714) scale(0.075 -0.075)">
     <use xlink:href="#DejaVuSans-4b" transform="translate(0 0.826562)"/>
     <use xlink:href="#DejaVuSans-2b" transform="translate(80.170898 39.107812) scale(0.7)"/>
    </g>
   </g>
   <g id="text_21">
    <!-- K$^+$ -->
    <g style="fill: #66ccee" transform="translate(255.45 100.32138) scale(0.075 -0.075)">
     <use xlink:href="#DejaVuSans-4b" transform="translate(0 0.826562)"/>
     <use xlink:href="#DejaVuSans-2b" transform="translate(80.170898 39.107812) scale(0.7)"/>
    </g>
   </g>
   <g id="text_22">
    <!-- K$^+$ -->
    <g style="fill: #66ccee" transform="translate(314.74 100.32138) scale(0.075 -0.075)">
     <use xlink:href="#DejaVuSans-4b" transform="translate(0 0.826562)"/>
     <use xlink:href="#DejaVuSans-2b" transform="translate(80.170898 39.107812) scale(0.7)"/>
    </g>
   </g>
   <g id="text_23">
    <!-- K$^+$ -->
    <g style="fill: #66ccee" transform="translate(374.03 100.32138) scale(0.075 -0.075)">
     <use xlink:href="#DejaVuSans-4b" transform="translate(0 0.826562)"/>
     <use xlink:href="#DejaVuSans-2b" transform="translate(80.170898 39.107812) scale(0.7)"/>
    </g>
   </g>
   <g id="patch_8">
    <path d="M 161.661182 82.285182 
Q 218.949098 82.285182 274.448159 82.285182 
" style="fill: none; stroke: #228833; stroke-width: 1.6; stroke-linecap: round"/>
    <path d="M 269.648159 79.885182 
L 274.448159 82.285182 
L 269.648159 84.685182 
z
" style="fill: #228833; stroke: #228833; stroke-width: 1.6; stroke-linecap: round"/>
   </g>
   <g id="text_24">
    <!-- diffusion -->
    <g style="fill: #228833" transform="translate(199.040625 58.546849) scale(0.08 -0.08)">
     <defs>
      <path id="DejaVuSans-Bold-64" d="M 2919 2988 
L 2919 4863 
L 4044 4863 
L 4044 0 
L 2919 0 
L 2919 506 
Q 2688 197 2409 53 
Q 2131 -91 1766 -91 
Q 1119 -91 703 423 
Q 288 938 288 1747 
Q 288 2556 703 3070 
Q 1119 3584 1766 3584 
Q 2128 3584 2408 3439 
Q 2688 3294 2919 2988 
z
M 2181 722 
Q 2541 722 2730 984 
Q 2919 1247 2919 1747 
Q 2919 2247 2730 2509 
Q 2541 2772 2181 2772 
Q 1825 2772 1636 2509 
Q 1447 2247 1447 1747 
Q 1447 1247 1636 984 
Q 1825 722 2181 722 
z
" transform="scale(0.015625)"/>
      <path id="DejaVuSans-Bold-69" d="M 538 3500 
L 1656 3500 
L 1656 0 
L 538 0 
L 538 3500 
z
M 538 4863 
L 1656 4863 
L 1656 3950 
L 538 3950 
L 538 4863 
z
" transform="scale(0.015625)"/>
      <path id="DejaVuSans-Bold-66" d="M 2841 4863 
L 2841 4128 
L 2222 4128 
Q 1984 4128 1890 4042 
Q 1797 3956 1797 3744 
L 1797 3500 
L 2753 3500 
L 2753 2700 
L 1797 2700 
L 1797 0 
L 678 0 
L 678 2700 
L 122 2700 
L 122 3500 
L 678 3500 
L 678 3744 
Q 678 4316 997 4589 
Q 1316 4863 1984 4863 
L 2841 4863 
z
" transform="scale(0.015625)"/>
      <path id="DejaVuSans-Bold-75" d="M 500 1363 
L 500 3500 
L 1625 3500 
L 1625 3150 
Q 1625 2866 1622 2436 
Q 1619 2006 1619 1863 
Q 1619 1441 1641 1255 
Q 1663 1069 1716 984 
Q 1784 875 1895 815 
Q 2006 756 2150 756 
Q 2500 756 2700 1025 
Q 2900 1294 2900 1772 
L 2900 3500 
L 4019 3500 
L 4019 0 
L 2900 0 
L 2900 506 
Q 2647 200 2364 54 
Q 2081 -91 1741 -91 
Q 1134 -91 817 281 
Q 500 653 500 1363 
z
" transform="scale(0.015625)"/>
      <path id="DejaVuSans-Bold-73" d="M 3272 3391 
L 3272 2541 
Q 2913 2691 2578 2766 
Q 2244 2841 1947 2841 
Q 1628 2841 1473 2761 
Q 1319 2681 1319 2516 
Q 1319 2381 1436 2309 
Q 1553 2238 1856 2203 
L 2053 2175 
Q 2913 2066 3209 1816 
Q 3506 1566 3506 1031 
Q 3506 472 3093 190 
Q 2681 -91 1863 -91 
Q 1516 -91 1145 -36 
Q 775 19 384 128 
L 384 978 
Q 719 816 1070 734 
Q 1422 653 1784 653 
Q 2113 653 2278 743 
Q 2444 834 2444 1013 
Q 2444 1163 2330 1236 
Q 2216 1309 1875 1350 
L 1678 1375 
Q 931 1469 631 1722 
Q 331 1975 331 2491 
Q 331 3047 712 3315 
Q 1094 3584 1881 3584 
Q 2191 3584 2531 3537 
Q 2872 3491 3272 3391 
z
" transform="scale(0.015625)"/>
      <path id="DejaVuSans-Bold-6f" d="M 2203 2784 
Q 1831 2784 1636 2517 
Q 1441 2250 1441 1747 
Q 1441 1244 1636 976 
Q 1831 709 2203 709 
Q 2569 709 2762 976 
Q 2956 1244 2956 1747 
Q 2956 2250 2762 2517 
Q 2569 2784 2203 2784 
z
M 2203 3584 
Q 3106 3584 3614 3096 
Q 4122 2609 4122 1747 
Q 4122 884 3614 396 
Q 3106 -91 2203 -91 
Q 1297 -91 786 396 
Q 275 884 275 1747 
Q 275 2609 786 3096 
Q 1297 3584 2203 3584 
z
" transform="scale(0.015625)"/>
      <path id="DejaVuSans-Bold-6e" d="M 4056 2131 
L 4056 0 
L 2931 0 
L 2931 347 
L 2931 1631 
Q 2931 2084 2911 2256 
Q 2891 2428 2841 2509 
Q 2775 2619 2662 2680 
Q 2550 2741 2406 2741 
Q 2056 2741 1856 2470 
Q 1656 2200 1656 1722 
L 1656 0 
L 538 0 
L 538 3500 
L 1656 3500 
L 1656 2988 
Q 1909 3294 2193 3439 
Q 2478 3584 2822 3584 
Q 3428 3584 3742 3212 
Q 4056 2841 4056 2131 
z
" transform="scale(0.015625)"/>
     </defs>
     <use xlink:href="#DejaVuSans-Bold-64"/>
     <use xlink:href="#DejaVuSans-Bold-69" transform="translate(71.582031 0)"/>
     <use xlink:href="#DejaVuSans-Bold-66" transform="translate(105.859375 0)"/>
     <use xlink:href="#DejaVuSans-Bold-66" transform="translate(149.365234 0)"/>
     <use xlink:href="#DejaVuSans-Bold-75" transform="translate(192.871094 0)"/>
     <use xlink:href="#DejaVuSans-Bold-73" transform="translate(264.0625 0)"/>
     <use xlink:href="#DejaVuSans-Bold-69" transform="translate(323.583984 0)"/>
     <use xlink:href="#DejaVuSans-Bold-6f" transform="translate(357.861328 0)"/>
     <use xlink:href="#DejaVuSans-Bold-6e" transform="translate(426.5625 0)"/>
    </g>
   </g>
   <g id="patch_9">
    <path d="M 276.238818 186.068516 
Q 218.950902 186.068516 163.451841 186.068516 
" style="fill: none; stroke: #4477aa; stroke-width: 1.6; stroke-linecap: round"/>
    <path d="M 168.251841 188.468516 
L 163.451841 186.068516 
L 168.251841 183.668516 
z
" style="fill: #4477aa; stroke: #4477aa; stroke-width: 1.6; stroke-linecap: round"/>
   </g>
   <g id="text_25">
    <!-- electric force -->
    <g style="fill: #4477aa" transform="translate(189.216875 230.188516) scale(0.08 -0.08)">
     <defs>
      <path id="DejaVuSans-Bold-65" d="M 4031 1759 
L 4031 1441 
L 1416 1441 
Q 1456 1047 1700 850 
Q 1944 653 2381 653 
Q 2734 653 3104 758 
Q 3475 863 3866 1075 
L 3866 213 
Q 3469 63 3072 -14 
Q 2675 -91 2278 -91 
Q 1328 -91 801 392 
Q 275 875 275 1747 
Q 275 2603 792 3093 
Q 1309 3584 2216 3584 
Q 3041 3584 3536 3087 
Q 4031 2591 4031 1759 
z
M 2881 2131 
Q 2881 2450 2695 2645 
Q 2509 2841 2209 2841 
Q 1884 2841 1681 2658 
Q 1478 2475 1428 2131 
L 2881 2131 
z
" transform="scale(0.015625)"/>
      <path id="DejaVuSans-Bold-6c" d="M 538 4863 
L 1656 4863 
L 1656 0 
L 538 0 
L 538 4863 
z
" transform="scale(0.015625)"/>
      <path id="DejaVuSans-Bold-63" d="M 3366 3391 
L 3366 2478 
Q 3138 2634 2908 2709 
Q 2678 2784 2431 2784 
Q 1963 2784 1702 2511 
Q 1441 2238 1441 1747 
Q 1441 1256 1702 982 
Q 1963 709 2431 709 
Q 2694 709 2930 787 
Q 3166 866 3366 1019 
L 3366 103 
Q 3103 6 2833 -42 
Q 2563 -91 2291 -91 
Q 1344 -91 809 395 
Q 275 881 275 1747 
Q 275 2613 809 3098 
Q 1344 3584 2291 3584 
Q 2566 3584 2833 3536 
Q 3100 3488 3366 3391 
z
" transform="scale(0.015625)"/>
      <path id="DejaVuSans-Bold-74" d="M 1759 4494 
L 1759 3500 
L 2913 3500 
L 2913 2700 
L 1759 2700 
L 1759 1216 
Q 1759 972 1856 886 
Q 1953 800 2241 800 
L 2816 800 
L 2816 0 
L 1856 0 
Q 1194 0 917 276 
Q 641 553 641 1216 
L 641 2700 
L 84 2700 
L 84 3500 
L 641 3500 
L 641 4494 
L 1759 4494 
z
" transform="scale(0.015625)"/>
      <path id="DejaVuSans-Bold-72" d="M 3138 2547 
Q 2991 2616 2845 2648 
Q 2700 2681 2553 2681 
Q 2122 2681 1889 2404 
Q 1656 2128 1656 1613 
L 1656 0 
L 538 0 
L 538 3500 
L 1656 3500 
L 1656 2925 
Q 1872 3269 2151 3426 
Q 2431 3584 2822 3584 
Q 2878 3584 2943 3579 
Q 3009 3575 3134 3559 
L 3138 2547 
z
" transform="scale(0.015625)"/>
      <path id="DejaVuSans-Bold-20" transform="scale(0.015625)"/>
     </defs>
     <use xlink:href="#DejaVuSans-Bold-65"/>
     <use xlink:href="#DejaVuSans-Bold-6c" transform="translate(67.822266 0)"/>
     <use xlink:href="#DejaVuSans-Bold-65" transform="translate(102.099609 0)"/>
     <use xlink:href="#DejaVuSans-Bold-63" transform="translate(169.921875 0)"/>
     <use xlink:href="#DejaVuSans-Bold-74" transform="translate(229.199219 0)"/>
     <use xlink:href="#DejaVuSans-Bold-72" transform="translate(277.001953 0)"/>
     <use xlink:href="#DejaVuSans-Bold-69" transform="translate(326.318359 0)"/>
     <use xlink:href="#DejaVuSans-Bold-63" transform="translate(360.595703 0)"/>
     <use xlink:href="#DejaVuSans-Bold-20" transform="translate(419.873047 0)"/>
     <use xlink:href="#DejaVuSans-Bold-66" transform="translate(454.6875 0)"/>
     <use xlink:href="#DejaVuSans-Bold-6f" transform="translate(498.193359 0)"/>
     <use xlink:href="#DejaVuSans-Bold-72" transform="translate(566.894531 0)"/>
     <use xlink:href="#DejaVuSans-Bold-63" transform="translate(616.210938 0)"/>
     <use xlink:href="#DejaVuSans-Bold-65" transform="translate(675.488281 0)"/>
    </g>
   </g>
   <g id="text_26">
    <!-- high $[K^+]_i$ -->
    <g style="fill: #1f2328" transform="translate(91.2725 36.591849) scale(0.085 -0.085)">
     <defs>
      <path id="DejaVuSans-68" d="M 3513 2113 
L 3513 0 
L 2938 0 
L 2938 2094 
Q 2938 2591 2744 2837 
Q 2550 3084 2163 3084 
Q 1697 3084 1428 2787 
Q 1159 2491 1159 1978 
L 1159 0 
L 581 0 
L 581 4863 
L 1159 4863 
L 1159 2956 
Q 1366 3272 1645 3428 
Q 1925 3584 2291 3584 
Q 2894 3584 3203 3211 
Q 3513 2838 3513 2113 
z
" transform="scale(0.015625)"/>
      <path id="DejaVuSans-69" d="M 603 3500 
L 1178 3500 
L 1178 0 
L 603 0 
L 603 3500 
z
M 603 4863 
L 1178 4863 
L 1178 4134 
L 603 4134 
L 603 4863 
z
" transform="scale(0.015625)"/>
      <path id="DejaVuSans-67" d="M 2906 1791 
Q 2906 2416 2648 2759 
Q 2391 3103 1925 3103 
Q 1463 3103 1205 2759 
Q 947 2416 947 1791 
Q 947 1169 1205 825 
Q 1463 481 1925 481 
Q 2391 481 2648 825 
Q 2906 1169 2906 1791 
z
M 3481 434 
Q 3481 -459 3084 -895 
Q 2688 -1331 1869 -1331 
Q 1566 -1331 1297 -1286 
Q 1028 -1241 775 -1147 
L 775 -588 
Q 1028 -725 1275 -790 
Q 1522 -856 1778 -856 
Q 2344 -856 2625 -561 
Q 2906 -266 2906 331 
L 2906 616 
Q 2728 306 2450 153 
Q 2172 0 1784 0 
Q 1141 0 747 490 
Q 353 981 353 1791 
Q 353 2603 747 3093 
Q 1141 3584 1784 3584 
Q 2172 3584 2450 3431 
Q 2728 3278 2906 2969 
L 2906 3500 
L 3481 3500 
L 3481 434 
z
" transform="scale(0.015625)"/>
      <path id="DejaVuSans-20" transform="scale(0.015625)"/>
      <path id="DejaVuSans-5b" d="M 550 4863 
L 1875 4863 
L 1875 4416 
L 1125 4416 
L 1125 -397 
L 1875 -397 
L 1875 -844 
L 550 -844 
L 550 4863 
z
" transform="scale(0.015625)"/>
      <path id="DejaVuSans-Oblique-4b" d="M 1081 4666 
L 1716 4666 
L 1331 2700 
L 3781 4666 
L 4622 4666 
L 1850 2438 
L 3878 0 
L 3109 0 
L 1247 2272 
L 806 0 
L 172 0 
L 1081 4666 
z
" transform="scale(0.015625)"/>
      <path id="DejaVuSans-5d" d="M 1947 4863 
L 1947 -844 
L 622 -844 
L 622 -397 
L 1369 -397 
L 1369 4416 
L 622 4416 
L 622 4863 
L 1947 4863 
z
" transform="scale(0.015625)"/>
      <path id="DejaVuSans-Oblique-69" d="M 1172 4863 
L 1747 4863 
L 1606 4134 
L 1031 4134 
L 1172 4863 
z
M 909 3500 
L 1484 3500 
L 800 0 
L 225 0 
L 909 3500 
z
" transform="scale(0.015625)"/>
     </defs>
     <use xlink:href="#DejaVuSans-68" transform="translate(0 0.826562)"/>
     <use xlink:href="#DejaVuSans-69" transform="translate(63.378906 0.826562)"/>
     <use xlink:href="#DejaVuSans-67" transform="translate(91.162109 0.826562)"/>
     <use xlink:href="#DejaVuSans-68" transform="translate(154.638672 0.826562)"/>
     <use xlink:href="#DejaVuSans-20" transform="translate(218.017578 0.826562)"/>
     <use xlink:href="#DejaVuSans-5b" transform="translate(249.804688 0.826562)"/>
     <use xlink:href="#DejaVuSans-Oblique-4b" transform="translate(288.818359 0.826562)"/>
     <use xlink:href="#DejaVuSans-2b" transform="translate(375.048997 39.107812) scale(0.7)"/>
     <use xlink:href="#DejaVuSans-5d" transform="translate(450.073411 0.826562)"/>
     <use xlink:href="#DejaVuSans-Oblique-69" transform="translate(490.044115 -15.579688) scale(0.7)"/>
    </g>
   </g>
   <g id="text_27">
    <!-- low $[K^+]_o$ -->
    <g style="fill: #1f2328" transform="translate(304.0425 36.609115) scale(0.085 -0.085)">
     <defs>
      <path id="DejaVuSans-6c" d="M 603 4863 
L 1178 4863 
L 1178 0 
L 603 0 
L 603 4863 
z
" transform="scale(0.015625)"/>
      <path id="DejaVuSans-6f" d="M 1959 3097 
Q 1497 3097 1228 2736 
Q 959 2375 959 1747 
Q 959 1119 1226 758 
Q 1494 397 1959 397 
Q 2419 397 2687 759 
Q 2956 1122 2956 1747 
Q 2956 2369 2687 2733 
Q 2419 3097 1959 3097 
z
M 1959 3584 
Q 2709 3584 3137 3096 
Q 3566 2609 3566 1747 
Q 3566 888 3137 398 
Q 2709 -91 1959 -91 
Q 1206 -91 779 398 
Q 353 888 353 1747 
Q 353 2609 779 3096 
Q 1206 3584 1959 3584 
z
" transform="scale(0.015625)"/>
      <path id="DejaVuSans-77" d="M 269 3500 
L 844 3500 
L 1563 769 
L 2278 3500 
L 2956 3500 
L 3675 769 
L 4391 3500 
L 4966 3500 
L 4050 0 
L 3372 0 
L 2619 2869 
L 1863 0 
L 1184 0 
L 269 3500 
z
" transform="scale(0.015625)"/>
      <path id="DejaVuSans-Oblique-6f" d="M 1625 -91 
Q 1009 -91 651 289 
Q 294 669 294 1325 
Q 294 1706 417 2101 
Q 541 2497 738 2766 
Q 1047 3184 1428 3384 
Q 1809 3584 2291 3584 
Q 2888 3584 3255 3212 
Q 3622 2841 3622 2241 
Q 3622 1825 3500 1412 
Q 3378 1000 3181 728 
Q 2875 309 2494 109 
Q 2113 -91 1625 -91 
z
M 891 1344 
Q 891 869 1089 633 
Q 1288 397 1691 397 
Q 2269 397 2648 901 
Q 3028 1406 3028 2181 
Q 3028 2634 2825 2865 
Q 2622 3097 2228 3097 
Q 1903 3097 1650 2945 
Q 1397 2794 1197 2484 
Q 1050 2253 970 1956 
Q 891 1659 891 1344 
z
" transform="scale(0.015625)"/>
     </defs>
     <use xlink:href="#DejaVuSans-6c" transform="translate(0 0.826562)"/>
     <use xlink:href="#DejaVuSans-6f" transform="translate(27.783203 0.826562)"/>
     <use xlink:href="#DejaVuSans-77" transform="translate(88.964844 0.826562)"/>
     <use xlink:href="#DejaVuSans-20" transform="translate(170.751953 0.826562)"/>
     <use xlink:href="#DejaVuSans-5b" transform="translate(202.539062 0.826562)"/>
     <use xlink:href="#DejaVuSans-Oblique-4b" transform="translate(241.552734 0.826562)"/>
     <use xlink:href="#DejaVuSans-2b" transform="translate(327.783372 39.107812) scale(0.7)"/>
     <use xlink:href="#DejaVuSans-5d" transform="translate(402.807786 0.826562)"/>
     <use xlink:href="#DejaVuSans-Oblique-6f" transform="translate(442.77849 -15.579688) scale(0.7)"/>
    </g>
   </g>
   <g id="text_28">
    <g id="patch_10">
     <path d="M 218.95 147.628516 
C 221.458821 147.628516 223.865226 146.63175 225.63923 144.857746 
C 227.413235 143.083741 228.41 140.677337 228.41 138.168516 
C 228.41 135.659694 227.413235 133.25329 225.63923 131.479285 
C 223.865226 129.705281 221.458821 128.708516 218.95 128.708516 
C 216.441179 128.708516 214.034774 129.705281 212.26077 131.479285 
C 210.486765 133.25329 209.49 135.659694 209.49 138.168516 
C 209.49 140.677337 210.486765 143.083741 212.26077 144.857746 
C 214.034774 146.63175 216.441179 147.628516 218.95 147.628516 
z
" style="fill: #fafbfc; stroke: #ccbb44; stroke-width: 1.6; stroke-linejoin: miter"/>
    </g>
    <!-- $E_K$ -->
    <g style="fill: #ccbb44" transform="translate(212.79 141.203828) scale(0.11 -0.11)">
     <defs>
      <path id="DejaVuSans-Oblique-45" d="M 1081 4666 
L 4031 4666 
L 3928 4134 
L 1606 4134 
L 1338 2753 
L 3566 2753 
L 3463 2222 
L 1234 2222 
L 909 531 
L 3284 531 
L 3181 0 
L 172 0 
L 1081 4666 
z
" transform="scale(0.015625)"/>
     </defs>
     <use xlink:href="#DejaVuSans-Oblique-45" transform="translate(0 0.09375)"/>
     <use xlink:href="#DejaVuSans-Oblique-4b" transform="translate(63.183594 -16.3125) scale(0.7)"/>
    </g>
   </g>
   <g id="text_29">
    <!-- Nernst equilibrium: diffusion vs. electric force -->
    <g style="fill: #1f2328" transform="translate(110.598789 14.418516) scale(0.095 -0.095)">
     <defs>
      <path id="DejaVuSans-4e" d="M 628 4666 
L 1478 4666 
L 3547 763 
L 3547 4666 
L 4159 4666 
L 4159 0 
L 3309 0 
L 1241 3903 
L 1241 0 
L 628 0 
L 628 4666 
z
" transform="scale(0.015625)"/>
      <path id="DejaVuSans-65" d="M 3597 1894 
L 3597 1613 
L 953 1613 
Q 991 1019 1311 708 
Q 1631 397 2203 397 
Q 2534 397 2845 478 
Q 3156 559 3463 722 
L 3463 178 
Q 3153 47 2828 -22 
Q 2503 -91 2169 -91 
Q 1331 -91 842 396 
Q 353 884 353 1716 
Q 353 2575 817 3079 
Q 1281 3584 2069 3584 
Q 2775 3584 3186 3129 
Q 3597 2675 3597 1894 
z
M 3022 2063 
Q 3016 2534 2758 2815 
Q 2500 3097 2075 3097 
Q 1594 3097 1305 2825 
Q 1016 2553 972 2059 
L 3022 2063 
z
" transform="scale(0.015625)"/>
      <path id="DejaVuSans-72" d="M 2631 2963 
Q 2534 3019 2420 3045 
Q 2306 3072 2169 3072 
Q 1681 3072 1420 2755 
Q 1159 2438 1159 1844 
L 1159 0 
L 581 0 
L 581 3500 
L 1159 3500 
L 1159 2956 
Q 1341 3275 1631 3429 
Q 1922 3584 2338 3584 
Q 2397 3584 2469 3576 
Q 2541 3569 2628 3553 
L 2631 2963 
z
" transform="scale(0.015625)"/>
      <path id="DejaVuSans-6e" d="M 3513 2113 
L 3513 0 
L 2938 0 
L 2938 2094 
Q 2938 2591 2744 2837 
Q 2550 3084 2163 3084 
Q 1697 3084 1428 2787 
Q 1159 2491 1159 1978 
L 1159 0 
L 581 0 
L 581 3500 
L 1159 3500 
L 1159 2956 
Q 1366 3272 1645 3428 
Q 1925 3584 2291 3584 
Q 2894 3584 3203 3211 
Q 3513 2838 3513 2113 
z
" transform="scale(0.015625)"/>
      <path id="DejaVuSans-73" d="M 2834 3397 
L 2834 2853 
Q 2591 2978 2328 3040 
Q 2066 3103 1784 3103 
Q 1356 3103 1142 2972 
Q 928 2841 928 2578 
Q 928 2378 1081 2264 
Q 1234 2150 1697 2047 
L 1894 2003 
Q 2506 1872 2764 1633 
Q 3022 1394 3022 966 
Q 3022 478 2636 193 
Q 2250 -91 1575 -91 
Q 1294 -91 989 -36 
Q 684 19 347 128 
L 347 722 
Q 666 556 975 473 
Q 1284 391 1588 391 
Q 1994 391 2212 530 
Q 2431 669 2431 922 
Q 2431 1156 2273 1281 
Q 2116 1406 1581 1522 
L 1381 1569 
Q 847 1681 609 1914 
Q 372 2147 372 2553 
Q 372 3047 722 3315 
Q 1072 3584 1716 3584 
Q 2034 3584 2315 3537 
Q 2597 3491 2834 3397 
z
" transform="scale(0.015625)"/>
      <path id="DejaVuSans-74" d="M 1172 4494 
L 1172 3500 
L 2356 3500 
L 2356 3053 
L 1172 3053 
L 1172 1153 
Q 1172 725 1289 603 
Q 1406 481 1766 481 
L 2356 481 
L 2356 0 
L 1766 0 
Q 1100 0 847 248 
Q 594 497 594 1153 
L 594 3053 
L 172 3053 
L 172 3500 
L 594 3500 
L 594 4494 
L 1172 4494 
z
" transform="scale(0.015625)"/>
      <path id="DejaVuSans-71" d="M 947 1747 
Q 947 1113 1208 752 
Q 1469 391 1925 391 
Q 2381 391 2643 752 
Q 2906 1113 2906 1747 
Q 2906 2381 2643 2742 
Q 2381 3103 1925 3103 
Q 1469 3103 1208 2742 
Q 947 2381 947 1747 
z
M 2906 525 
Q 2725 213 2448 61 
Q 2172 -91 1784 -91 
Q 1150 -91 751 415 
Q 353 922 353 1747 
Q 353 2572 751 3078 
Q 1150 3584 1784 3584 
Q 2172 3584 2448 3432 
Q 2725 3281 2906 2969 
L 2906 3500 
L 3481 3500 
L 3481 -1331 
L 2906 -1331 
L 2906 525 
z
" transform="scale(0.015625)"/>
      <path id="DejaVuSans-75" d="M 544 1381 
L 544 3500 
L 1119 3500 
L 1119 1403 
Q 1119 906 1312 657 
Q 1506 409 1894 409 
Q 2359 409 2629 706 
Q 2900 1003 2900 1516 
L 2900 3500 
L 3475 3500 
L 3475 0 
L 2900 0 
L 2900 538 
Q 2691 219 2414 64 
Q 2138 -91 1772 -91 
Q 1169 -91 856 284 
Q 544 659 544 1381 
z
M 1991 3584 
L 1991 3584 
z
" transform="scale(0.015625)"/>
      <path id="DejaVuSans-62" d="M 3116 1747 
Q 3116 2381 2855 2742 
Q 2594 3103 2138 3103 
Q 1681 3103 1420 2742 
Q 1159 2381 1159 1747 
Q 1159 1113 1420 752 
Q 1681 391 2138 391 
Q 2594 391 2855 752 
Q 3116 1113 3116 1747 
z
M 1159 2969 
Q 1341 3281 1617 3432 
Q 1894 3584 2278 3584 
Q 2916 3584 3314 3078 
Q 3713 2572 3713 1747 
Q 3713 922 3314 415 
Q 2916 -91 2278 -91 
Q 1894 -91 1617 61 
Q 1341 213 1159 525 
L 1159 0 
L 581 0 
L 581 4863 
L 1159 4863 
L 1159 2969 
z
" transform="scale(0.015625)"/>
      <path id="DejaVuSans-6d" d="M 3328 2828 
Q 3544 3216 3844 3400 
Q 4144 3584 4550 3584 
Q 5097 3584 5394 3201 
Q 5691 2819 5691 2113 
L 5691 0 
L 5113 0 
L 5113 2094 
Q 5113 2597 4934 2840 
Q 4756 3084 4391 3084 
Q 3944 3084 3684 2787 
Q 3425 2491 3425 1978 
L 3425 0 
L 2847 0 
L 2847 2094 
Q 2847 2600 2669 2842 
Q 2491 3084 2119 3084 
Q 1678 3084 1418 2786 
Q 1159 2488 1159 1978 
L 1159 0 
L 581 0 
L 581 3500 
L 1159 3500 
L 1159 2956 
Q 1356 3278 1631 3431 
Q 1906 3584 2284 3584 
Q 2666 3584 2933 3390 
Q 3200 3197 3328 2828 
z
" transform="scale(0.015625)"/>
      <path id="DejaVuSans-3a" d="M 750 794 
L 1409 794 
L 1409 0 
L 750 0 
L 750 794 
z
M 750 3309 
L 1409 3309 
L 1409 2516 
L 750 2516 
L 750 3309 
z
" transform="scale(0.015625)"/>
      <path id="DejaVuSans-64" d="M 2906 2969 
L 2906 4863 
L 3481 4863 
L 3481 0 
L 2906 0 
L 2906 525 
Q 2725 213 2448 61 
Q 2172 -91 1784 -91 
Q 1150 -91 751 415 
Q 353 922 353 1747 
Q 353 2572 751 3078 
Q 1150 3584 1784 3584 
Q 2172 3584 2448 3432 
Q 2725 3281 2906 2969 
z
M 947 1747 
Q 947 1113 1208 752 
Q 1469 391 1925 391 
Q 2381 391 2643 752 
Q 2906 1113 2906 1747 
Q 2906 2381 2643 2742 
Q 2381 3103 1925 3103 
Q 1469 3103 1208 2742 
Q 947 2381 947 1747 
z
" transform="scale(0.015625)"/>
      <path id="DejaVuSans-66" d="M 2375 4863 
L 2375 4384 
L 1825 4384 
Q 1516 4384 1395 4259 
Q 1275 4134 1275 3809 
L 1275 3500 
L 2222 3500 
L 2222 3053 
L 1275 3053 
L 1275 0 
L 697 0 
L 697 3053 
L 147 3053 
L 147 3500 
L 697 3500 
L 697 3744 
Q 697 4328 969 4595 
Q 1241 4863 1831 4863 
L 2375 4863 
z
" transform="scale(0.015625)"/>
      <path id="DejaVuSans-76" d="M 191 3500 
L 800 3500 
L 1894 563 
L 2988 3500 
L 3597 3500 
L 2284 0 
L 1503 0 
L 191 3500 
z
" transform="scale(0.015625)"/>
      <path id="DejaVuSans-2e" d="M 684 794 
L 1344 794 
L 1344 0 
L 684 0 
L 684 794 
z
" transform="scale(0.015625)"/>
      <path id="DejaVuSans-63" d="M 3122 3366 
L 3122 2828 
Q 2878 2963 2633 3030 
Q 2388 3097 2138 3097 
Q 1578 3097 1268 2742 
Q 959 2388 959 1747 
Q 959 1106 1268 751 
Q 1578 397 2138 397 
Q 2388 397 2633 464 
Q 2878 531 3122 666 
L 3122 134 
Q 2881 22 2623 -34 
Q 2366 -91 2075 -91 
Q 1284 -91 818 406 
Q 353 903 353 1747 
Q 353 2603 823 3093 
Q 1294 3584 2113 3584 
Q 2378 3584 2631 3529 
Q 2884 3475 3122 3366 
z
" transform="scale(0.015625)"/>
     </defs>
     <use xlink:href="#DejaVuSans-4e"/>
     <use xlink:href="#DejaVuSans-65" transform="translate(74.804688 0)"/>
     <use xlink:href="#DejaVuSans-72" transform="translate(136.328125 0)"/>
     <use xlink:href="#DejaVuSans-6e" transform="translate(175.691406 0)"/>
     <use xlink:href="#DejaVuSans-73" transform="translate(239.070312 0)"/>
     <use xlink:href="#DejaVuSans-74" transform="translate(291.169922 0)"/>
     <use xlink:href="#DejaVuSans-20" transform="translate(330.378906 0)"/>
     <use xlink:href="#DejaVuSans-65" transform="translate(362.166016 0)"/>
     <use xlink:href="#DejaVuSans-71" transform="translate(423.689453 0)"/>
     <use xlink:href="#DejaVuSans-75" transform="translate(487.166016 0)"/>
     <use xlink:href="#DejaVuSans-69" transform="translate(550.544922 0)"/>
     <use xlink:href="#DejaVuSans-6c" transform="translate(578.328125 0)"/>
     <use xlink:href="#DejaVuSans-69" transform="translate(606.111328 0)"/>
     <use xlink:href="#DejaVuSans-62" transform="translate(633.894531 0)"/>
     <use xlink:href="#DejaVuSans-72" transform="translate(697.371094 0)"/>
     <use xlink:href="#DejaVuSans-69" transform="translate(738.484375 0)"/>
     <use xlink:href="#DejaVuSans-75" transform="translate(766.267578 0)"/>
     <use xlink:href="#DejaVuSans-6d" transform="translate(829.646484 0)"/>
     <use xlink:href="#DejaVuSans-3a" transform="translate(927.058594 0)"/>
     <use xlink:href="#DejaVuSans-20" transform="translate(960.75 0)"/>
     <use xlink:href="#DejaVuSans-64" transform="translate(992.537109 0)"/>
     <use xlink:href="#DejaVuSans-69" transform="translate(1056.013672 0)"/>
     <use xlink:href="#DejaVuSans-66" transform="translate(1083.796875 0)"/>
     <use xlink:href="#DejaVuSans-66" transform="translate(1119.001953 0)"/>
     <use xlink:href="#DejaVuSans-75" transform="translate(1154.207031 0)"/>
     <use xlink:href="#DejaVuSans-73" transform="translate(1217.585938 0)"/>
     <use xlink:href="#DejaVuSans-69" transform="translate(1269.685547 0)"/>
     <use xlink:href="#DejaVuSans-6f" transform="translate(1297.46875 0)"/>
     <use xlink:href="#DejaVuSans-6e" transform="translate(1358.650391 0)"/>
     <use xlink:href="#DejaVuSans-20" transform="translate(1422.029297 0)"/>
     <use xlink:href="#DejaVuSans-76" transform="translate(1453.816406 0)"/>
     <use xlink:href="#DejaVuSans-73" transform="translate(1512.996094 0)"/>
     <use xlink:href="#DejaVuSans-2e" transform="translate(1565.095703 0)"/>
     <use xlink:href="#DejaVuSans-20" transform="translate(1596.882812 0)"/>
     <use xlink:href="#DejaVuSans-65" transform="translate(1628.669922 0)"/>
     <use xlink:href="#DejaVuSans-6c" transform="translate(1690.193359 0)"/>
     <use xlink:href="#DejaVuSans-65" transform="translate(1717.976562 0)"/>
     <use xlink:href="#DejaVuSans-63" transform="translate(1779.5 0)"/>
     <use xlink:href="#DejaVuSans-74" transform="translate(1834.480469 0)"/>
     <use xlink:href="#DejaVuSans-72" transform="translate(1873.689453 0)"/>
     <use xlink:href="#DejaVuSans-69" transform="translate(1914.802734 0)"/>
     <use xlink:href="#DejaVuSans-63" transform="translate(1942.585938 0)"/>
     <use xlink:href="#DejaVuSans-20" transform="translate(1997.566406 0)"/>
     <use xlink:href="#DejaVuSans-66" transform="translate(2029.353516 0)"/>
     <use xlink:href="#DejaVuSans-6f" transform="translate(2064.558594 0)"/>
     <use xlink:href="#DejaVuSans-72" transform="translate(2125.740234 0)"/>
     <use xlink:href="#DejaVuSans-63" transform="translate(2164.603516 0)"/>
     <use xlink:href="#DejaVuSans-65" transform="translate(2219.583984 0)"/>
    </g>
   </g>
  </g>
 </g>
 <defs>
  <clipPath id="pd15903884e">
   <rect x="7.2" y="18.418516" width="423.5" height="239.5"/>
  </clipPath>
 </defs>
</svg>
