<?xml version="1.0" encoding="utf-8" standalone="no"?>
<!DOCTYPE svg PUBLIC "-//W3C//DTD SVG 1.1//EN"
  "http://www.w3.org/Graphics/SVG/1.1/DTD/svg11.dtd">
<svg xmlns:xlink="http://www.w3.org/1999/xlink" width="436.601204pt" height="263.547422pt" viewBox="0 0 436.601204 263.547422" xmlns="http://www.w3.org/2000/svg" version="1.1">
 <metadata>
  <rdf:RDF xmlns:dc="http://purl.org/dc/elements/1.1/" xmlns:cc="http://creativecommons.org/ns#" xmlns:rdf="http://www.w3.org/1999/02/22-rdf-syntax-ns#">
   <cc:Work>
    <dc:type rdf:resource="http://purl.org/dc/dcmitype/StillImage"/>
    <dc:date>2023-11-14T22:13:20+00:00</dc:date>
    <dc:format>image/svg+xml</dc:format>
    <dc:creator>
     <cc:Agent>
      <dc:title>Matplotlib v3.10.8, https://matplotlib.org/</dc:title>
     </cc:Agent>
    </dc:creator>
   </cc:Work>
  </rdf:RDF>
 </metadata>
 <defs>
  <style type="text/css">*{stroke-linejoin: round; stroke-linecap: butt}</style>
 </defs>
 <g id="figure_1">
  <g id="patch_1">
   <path d="M 0 263.547422 
L 436.601204 263.547422 
L 436.601204 0 
L 0 0 
z
" style="fill: #fafbfc"/>
  </g>
  <g id="axes_1">
   <g id="patch_2">
    <path d="M 30.852565 229.878516 
L 424.751204 229.878516 
L 424.751204 28.418516 
L 30.852565 28.418516 
z
" style="fill: #fafbfc"/>
   </g>
   <g id="matplotlib.axis_1">
    <g id="xtick_1">
     <g id="line2d_1">
      <defs>
       <path id="m9a74932a47" d="M 0 0 
L 0 3 
" style="stroke: #57606a; stroke-width: 0.6"/>
      </defs>
      <g>
       <use xlink:href="#m9a74932a47" x="30.852565" y="229.878516" style="fill: #57606a; stroke: #57606a; stroke-width: 0.6"/>
      </g>
     </g>
     <g id="text_1">
      <!-- 0 -->
      <g style="fill: #1f2328" transform="translate(28.466627 242.077344) scale(0.075 -0.075)">
       <defs>
        <path id="DejaVuSans-30" d="M 2034 4250 
Q 1547 4250 1301 3770 
Q 1056 3291 1056 2328 
Q 1056 1369 1301 889 
Q 1547 409 2034 409 
Q 2525 409 2770 889 
Q 3016 1369 3016 2328 
Q 3016 3291 2770 3770 
Q 2525 4250 2034 4250 
z
M 2034 4750 
Q 2819 4750 3233 4129 
Q 3647 3509 3647 2328 
Q 3647 1150 3233 529 
Q 2819 -91 2034 -91 
Q 1250 -91 836 529 
Q 422 1150 422 2328 
Q 422 3509 836 4129 
Q 1250 4750 2034 4750 
z
" transform="scale(0.015625)"/>
       </defs>
       <use xlink:href="#DejaVuSans-30"/>
      </g>
     </g>
    </g>
    <g id="xtick_2">
     <g id="line2d_2">
      <g>
       <use xlink:href="#m9a74932a47" x="109.632293" y="229.878516" style="fill: #57606a; stroke: #57606a; stroke-width: 0.6"/>
      </g>
     </g>
     <g id="text_2">
      <!-- $\tau$ -->
      <g style="fill: #1f2328" transform="translate(107.344793 242.077344) scale(0.075 -0.075)">
       <defs>
        <path id="DejaVuSans-Oblique-3c4" d="M 2103 638 
Q 2188 488 2525 488 
L 2800 488 
L 2706 0 
L 2363 0 
Q 1800 0 1600 300 
Q 1403 606 1534 1269 
L 1856 2925 
L 541 2925 
L 653 3500 
L 3881 3500 
L 3769 2925 
L 2444 2925 
L 2113 1234 
Q 2025 781 2103 638 
z
" transform="scale(0.015625)"/>
       </defs>
       <use xlink:href="#DejaVuSans-Oblique-3c4" transform="translate(0 0.3125)"/>
      </g>
     </g>
    </g>
    <g id="xtick_3">
     <g id="line2d_3">
      <g>
       <use xlink:href="#m9a74932a47" x="188.412021" y="229.878516" style="fill: #57606a; stroke: #57606a; stroke-width: 0.6"/>
      </g>
     </g>
     <g id="text_3">
      <!-- $2\tau$ -->
      <g style="fill: #1f2328" transform="translate(183.762021 242.077344) scale(0.075 -0.075)">
       <defs>
        <path id="DejaVuSans-32" d="M 1228 531 
L 3431 531 
L 3431 0 
L 469 0 
L 469 531 
Q 828 903 1448 1529 
Q 2069 2156 2228 2338 
Q 2531 2678 2651 2914 
Q 2772 3150 2772 3378 
Q 2772 3750 2511 3984 
Q 2250 4219 1831 4219 
Q 1534 4219 1204 4116 
Q 875 4013 500 3803 
L 500 4441 
Q 881 4594 1212 4672 
Q 1544 4750 1819 4750 
Q 2544 4750 2975 4387 
Q 3406 4025 3406 3419 
Q 3406 3131 3298 2873 
Q 3191 2616 2906 2266 
Q 2828 2175 2409 1742 
Q 1991 1309 1228 531 
z
" transform="scale(0.015625)"/>
       </defs>
       <use xlink:href="#DejaVuSans-32" transform="translate(0 0.78125)"/>
       <use xlink:href="#DejaVuSans-Oblique-3c4" transform="translate(63.623047 0.78125)"/>
      </g>
     </g>
    </g>
    <g id="xtick_4">
     <g id="line2d_4">
      <g>
       <use xlink:href="#m9a74932a47" x="267.191748" y="229.878516" style="fill: #57606a; stroke: #57606a; stroke-width: 0.6"/>
      </g>
     </g>
     <g id="text_4">
      <!-- $3\tau$ -->
      <g style="fill: #1f2328" transform="translate(262.541748 242.077344) scale(0.075 -0.075)">
       <defs>
        <path id="DejaVuSans-33" d="M 2597 2516 
Q 3050 2419 3304 2112 
Q 3559 1806 3559 1356 
Q 3559 666 3084 287 
Q 2609 -91 1734 -91 
Q 1441 -91 1130 -33 
Q 819 25 488 141 
L 488 750 
Q 750 597 1062 519 
Q 1375 441 1716 441 
Q 2309 441 2620 675 
Q 2931 909 2931 1356 
Q 2931 1769 2642 2001 
Q 2353 2234 1838 2234 
L 1294 2234 
L 1294 2753 
L 1863 2753 
Q 2328 2753 2575 2939 
Q 2822 3125 2822 3475 
Q 2822 3834 2567 4026 
Q 2313 4219 1838 4219 
Q 1578 4219 1281 4162 
Q 984 4106 628 3988 
L 628 4550 
Q 988 4650 1302 4700 
Q 1616 4750 1894 4750 
Q 2613 4750 3031 4423 
Q 3450 4097 3450 3541 
Q 3450 3153 3228 2886 
Q 3006 2619 2597 2516 
z
" transform="scale(0.015625)"/>
       </defs>
       <use xlink:href="#DejaVuSans-33" transform="translate(0 0.78125)"/>
       <use xlink:href="#DejaVuSans-Oblique-3c4" transform="translate(63.623047 0.78125)"/>
      </g>
     </g>
    </g>
    <g id="xtick_5">
     <g id="line2d_5">
      <g>
       <use xlink:href="#m9a74932a47" x="345.971476" y="229.878516" style="fill: #57606a; stroke: #57606a; stroke-width: 0.6"/>
      </g>
     </g>
     <g id="text_5">
      <!-- $4\tau$ -->
      <g style="fill: #1f2328" transform="translate(341.321476 242.077344) scale(0.075 -0.075)">
       <defs>
        <path id="DejaVuSans-34" d="M 2419 4116 
L 825 1625 
L 2419 1625 
L 2419 4116 
z
M 2253 4666 
L 3047 4666 
L 3047 1625 
L 3713 1625 
L 3713 1100 
L 3047 1100 
L 3047 0 
L 2419 0 
L 2419 1100 
L 313 1100 
L 313 1709 
L 2253 4666 
z
" transform="scale(0.015625)"/>
       </defs>
       <use xlink:href="#DejaVuSans-34" transform="translate(0 0.09375)"/>
       <use xlink:href="#DejaVuSans-Oblique-3c4" transform="translate(63.623047 0.09375)"/>
      </g>
     </g>
    </g>
    <g id="xtick_6">
     <g id="line2d_6">
      <g>
       <use xlink:href="#m9a74932a47" x="424.751204" y="229.878516" style="fill: #57606a; stroke: #57606a; stroke-width: 0.6"/>
      </g>
     </g>
     <g id="text_6">
      <!-- $5\tau$ -->
      <g style="fill: #1f2328" transform="translate(420.101204 242.077344) scale(0.075 -0.075)">
       <defs>
        <path id="DejaVuSans-35" d="M 691 4666 
L 3169 4666 
L 3169 4134 
L 1269 4134 
L 1269 2991 
Q 1406 3038 1543 3061 
Q 1681 3084 1819 3084 
Q 2600 3084 3056 2656 
Q 3513 2228 3513 1497 
Q 3513 744 3044 326 
Q 2575 -91 1722 -91 
Q 1428 -91 1123 -41 
Q 819 9 494 109 
L 494 744 
Q 775 591 1075 516 
Q 1375 441 1709 441 
Q 2250 441 2565 725 
Q 2881 1009 2881 1497 
Q 2881 1984 2565 2268 
Q 2250 2553 1709 2553 
Q 1456 2553 1204 2497 
Q 953 2441 691 2322 
L 691 4666 
z
" transform="scale(0.015625)"/>
       </defs>
       <use xlink:href="#DejaVuSans-35" transform="translate(0 0.09375)"/>
       <use xlink:href="#DejaVuSans-Oblique-3c4" transform="translate(63.623047 0.09375)"/>
      </g>
     </g>
    </g>
    <g id="text_7">
     <!-- time -->
     <g style="fill: #1f2328" transform="translate(217.6354 254.475703) scale(0.09 -0.09)">
      <defs>
       <path id="DejaVuSans-74" d="M 1172 4494 
L 1172 3500 
L 2356 3500 
L 2356 3053 
L 1172 3053 
L 1172 1153 
Q 1172 725 1289 603 
Q 1406 481 1766 481 
L 2356 481 
L 2356 0 
L 1766 0 
Q 1100 0 847 248 
Q 594 497 594 1153 
L 594 3053 
L 172 3053 
L 172 3500 
L 594 3500 
L 594 4494 
L 1172 4494 
z
" transform="scale(0.015625)"/>
       <path id="DejaVuSans-69" d="M 603 3500 
L 1178 3500 
L 1178 0 
L 603 0 
L 603 3500 
z
M 603 4863 
L 1178 4863 
L 1178 4134 
L 603 4134 
L 603 4863 
z
" transform="scale(0.015625)"/>
       <path id="DejaVuSans-6d" d="M 3328 2828 
Q 3544 3216 3844 3400 
Q 4144 3584 4550 3584 
Q 5097 3584 5394 3201 
Q 5691 2819 5691 2113 
L 5691 0 
L 5113 0 
L 5113 2094 
Q 5113 2597 4934 2840 
Q 4756 3084 4391 3084 
Q 3944 3084 3684 2787 
Q 3425 2491 3425 1978 
L 3425 0 
L 2847 0 
L 2847 2094 
Q 2847 2600 2669 2842 
Q 2491 3084 2119 3084 
Q 1678 3084 1418 2786 
Q 1159 2488 1159 1978 
L 1159 0 
L 581 0 
L 581 3500 
L 1159 3500 
L 1159 2956 
Q 1356 3278 1631 3431 
Q 1906 3584 2284 3584 
Q 2666 3584 2933 3390 
Q 3200 3197 3328 2828 
z
" transform="scale(0.015625)"/>
       <path id="DejaVuSans-65" d="M 3597 1894 
L 3597 1613 
L 953 1613 
Q 991 1019 1311 708 
Q 1631 397 2203 397 
Q 2534 397 2845 478 
Q 3156 559 3463 722 
L 3463 178 
Q 3153 47 2828 -22 
Q 2503 -91 2169 -91 
Q 1331 -91 842 396 
Q 353 884 353 1716 
Q 353 2575 817 3079 
Q 1281 3584 2069 3584 
Q 2775 3584 3186 3129 
Q 3597 2675 3597 1894 
z
M 3022 2063 
Q 3016 2534 2758 2815 
Q 2500 3097 2075 3097 
Q 1594 3097 1305 2825 
Q 1016 2553 972 2059 
L 3022 2063 
z
" transform="scale(0.015625)"/>
      </defs>
      <use xlink:href="#DejaVuSans-74"/>
      <use xlink:href="#DejaVuSans-69" transform="translate(39.208984 0)"/>
      <use xlink:href="#DejaVuSans-6d" transform="translate(66.992188 0)"/>
      <use xlink:href="#DejaVuSans-65" transform="translate(164.404297 0)"/>
     </g>
    </g>
   </g>
   <g id="matplotlib.axis_2">
    <g id="ytick_1">
     <g id="line2d_7">
      <defs>
       <path id="m2a6ca5eb86" d="M 0 0 
L -3 0 
" style="stroke: #57606a; stroke-width: 0.6"/>
      </defs>
      <g>
       <use xlink:href="#m2a6ca5eb86" x="30.852565" y="229.878516" style="fill: #57606a; stroke: #57606a; stroke-width: 0.6"/>
      </g>
     </g>
     <g id="text_8">
      <!-- 0.0 -->
      <g style="fill: #1f2328" transform="translate(12.425221 232.72793) scale(0.075 -0.075)">
       <defs>
        <path id="DejaVuSans-2e" d="M 684 794 
L 1344 794 
L 1344 0 
L 684 0 
L 684 794 
z
" transform="scale(0.015625)"/>
       </defs>
       <use xlink:href="#DejaVuSans-30"/>
       <use xlink:href="#DejaVuSans-2e" transform="translate(63.623047 0)"/>
       <use xlink:href="#DejaVuSans-30" transform="translate(95.410156 0)"/>
      </g>
     </g>
    </g>
    <g id="ytick_2">
     <g id="line2d_8">
      <g>
       <use xlink:href="#m2a6ca5eb86" x="30.852565" y="191.505182" style="fill: #57606a; stroke: #57606a; stroke-width: 0.6"/>
      </g>
     </g>
     <g id="text_9">
      <!-- 0.2 -->
      <g style="fill: #1f2328" transform="translate(12.425221 194.354596) scale(0.075 -0.075)">
       <use xlink:href="#DejaVuSans-30"/>
       <use xlink:href="#DejaVuSans-2e" transform="translate(63.623047 0)"/>
       <use xlink:href="#DejaVuSans-32" transform="translate(95.410156 0)"/>
      </g>
     </g>
    </g>
    <g id="ytick_3">
     <g id="line2d_9">
      <g>
       <use xlink:href="#m2a6ca5eb86" x="30.852565" y="153.131849" style="fill: #57606a; stroke: #57606a; stroke-width: 0.6"/>
      </g>
     </g>
     <g id="text_10">
      <!-- 0.4 -->
      <g style="fill: #1f2328" transform="translate(12.425221 155.981263) scale(0.075 -0.075)">
       <use xlink:href="#DejaVuSans-30"/>
       <use xlink:href="#DejaVuSans-2e" transform="translate(63.623047 0)"/>
       <use xlink:href="#DejaVuSans-34" transform="translate(95.410156 0)"/>
      </g>
     </g>
    </g>
    <g id="ytick_4">
     <g id="line2d_10">
      <g>
       <use xlink:href="#m2a6ca5eb86" x="30.852565" y="114.758516" style="fill: #57606a; stroke: #57606a; stroke-width: 0.6"/>
      </g>
     </g>
     <g id="text_11">
      <!-- 0.6 -->
      <g style="fill: #1f2328" transform="translate(12.425221 117.60793) scale(0.075 -0.075)">
       <defs>
        <path id="DejaVuSans-36" d="M 2113 2584 
Q 1688 2584 1439 2293 
Q 1191 2003 1191 1497 
Q 1191 994 1439 701 
Q 1688 409 2113 409 
Q 2538 409 2786 701 
Q 3034 994 3034 1497 
Q 3034 2003 2786 2293 
Q 2538 2584 2113 2584 
z
M 3366 4563 
L 3366 3988 
Q 3128 4100 2886 4159 
Q 2644 4219 2406 4219 
Q 1781 4219 1451 3797 
Q 1122 3375 1075 2522 
Q 1259 2794 1537 2939 
Q 1816 3084 2150 3084 
Q 2853 3084 3261 2657 
Q 3669 2231 3669 1497 
Q 3669 778 3244 343 
Q 2819 -91 2113 -91 
Q 1303 -91 875 529 
Q 447 1150 447 2328 
Q 447 3434 972 4092 
Q 1497 4750 2381 4750 
Q 2619 4750 2861 4703 
Q 3103 4656 3366 4563 
z
" transform="scale(0.015625)"/>
       </defs>
       <use xlink:href="#DejaVuSans-30"/>
       <use xlink:href="#DejaVuSans-2e" transform="translate(63.623047 0)"/>
       <use xlink:href="#DejaVuSans-36" transform="translate(95.410156 0)"/>
      </g>
     </g>
    </g>
    <g id="ytick_5">
     <g id="line2d_11">
      <g>
       <use xlink:href="#m2a6ca5eb86" x="30.852565" y="76.385182" style="fill: #57606a; stroke: #57606a; stroke-width: 0.6"/>
      </g>
     </g>
     <g id="text_12">
      <!-- 0.8 -->
      <g style="fill: #1f2328" transform="translate(12.425221 79.234596) scale(0.075 -0.075)">
       <defs>
        <path id="DejaVuSans-38" d="M 2034 2216 
Q 1584 2216 1326 1975 
Q 1069 1734 1069 1313 
Q 1069 891 1326 650 
Q 1584 409 2034 409 
Q 2484 409 2743 651 
Q 3003 894 3003 1313 
Q 3003 1734 2745 1975 
Q 2488 2216 2034 2216 
z
M 1403 2484 
Q 997 2584 770 2862 
Q 544 3141 544 3541 
Q 544 4100 942 4425 
Q 1341 4750 2034 4750 
Q 2731 4750 3128 4425 
Q 3525 4100 3525 3541 
Q 3525 3141 3298 2862 
Q 3072 2584 2669 2484 
Q 3125 2378 3379 2068 
Q 3634 1759 3634 1313 
Q 3634 634 3220 271 
Q 2806 -91 2034 -91 
Q 1263 -91 848 271 
Q 434 634 434 1313 
Q 434 1759 690 2068 
Q 947 2378 1403 2484 
z
M 1172 3481 
Q 1172 3119 1398 2916 
Q 1625 2713 2034 2713 
Q 2441 2713 2670 2916 
Q 2900 3119 2900 3481 
Q 2900 3844 2670 4047 
Q 2441 4250 2034 4250 
Q 1625 4250 1398 4047 
Q 1172 3844 1172 3481 
z
" transform="scale(0.015625)"/>
       </defs>
       <use xlink:href="#DejaVuSans-30"/>
       <use xlink:href="#DejaVuSans-2e" transform="translate(63.623047 0)"/>
       <use xlink:href="#DejaVuSans-38" transform="translate(95.410156 0)"/>
      </g>
     </g>
    </g>
    <g id="ytick_6">
     <g id="line2d_12">
      <g>
       <use xlink:href="#m2a6ca5eb86" x="30.852565" y="38.011849" style="fill: #57606a; stroke: #57606a; stroke-width: 0.6"/>
      </g>
     </g>
     <g id="text_13">
      <!-- 1.0 -->
      <g style="fill: #1f2328" transform="translate(12.425221 40.861263) scale(0.075 -0.075)">
       <defs>
        <path id="DejaVuSans-31" d="M 794 531 
L 1825 531 
L 1825 4091 
L 703 3866 
L 703 4441 
L 1819 4666 
L 2450 4666 
L 2450 531 
L 3481 531 
L 3481 0 
L 794 0 
L 794 531 
z
" transform="scale(0.015625)"/>
       </defs>
       <use xlink:href="#DejaVuSans-31"/>
       <use xlink:href="#DejaVuSans-2e" transform="translate(63.623047 0)"/>
       <use xlink:href="#DejaVuSans-30" transform="translate(95.410156 0)"/>
      </g>
     </g>
    </g>
   </g>
   <g id="line2d_13">
    <path d="M 30.852565 229.878516 
L 34.801423 220.498198 
L 38.750282 211.576483 
L 43.686355 201.035195 
L 48.622428 191.134123 
L 53.558502 181.834383 
L 58.494575 173.099454 
L 63.430648 164.895033 
L 68.366721 157.1889 
L 73.302794 149.950792 
L 78.238867 143.152283 
L 83.174941 136.766676 
L 88.111014 130.768893 
L 93.047087 125.135379 
L 97.98316 119.844012 
L 102.919233 114.874011 
L 107.855306 110.205859 
L 112.79138 105.821222 
L 117.727453 101.702883 
L 122.663526 97.834667 
L 128.586814 93.501647 
L 134.510102 89.482472 
L 140.433389 85.754409 
L 146.356677 82.296373 
L 152.279965 79.088806 
L 158.203253 76.113565 
L 165.113755 72.913706 
L 172.024258 69.982577 
L 178.93476 67.29761 
L 185.845262 64.838133 
L 193.74298 62.279191 
L 201.640697 59.964346 
L 209.538414 57.870312 
L 218.423345 55.752316 
L 227.308277 53.860214 
L 237.180423 51.993601 
L 247.05257 50.346837 
L 257.911931 48.758511 
L 269.758506 47.25811 
L 282.592297 45.868119 
L 296.413301 44.603958 
L 311.221521 43.474332 
L 328.00417 42.426244 
L 346.761248 41.490956 
L 367.492755 40.685962 
L 391.185906 39.991392 
L 418.827916 39.405586 
L 424.751204 39.304636 
L 424.751204 39.304636 
" clip-path="url(#pe04cc1c6b1)" style="fill: none; stroke: #4477aa; stroke-width: 1.8; stroke-linecap: square"/>
   </g>
   <g id="line2d_14">
    <path d="M 30.852565 229.878516 
L 32.540702 225.767087 
L 34.228839 221.655658 
L 35.916976 217.54423 
L 37.605113 213.432801 
L 39.29325 209.321373 
L 40.981387 205.209944 
L 42.669524 201.098516 
L 44.357661 196.987087 
L 46.045798 192.875658 
L 47.733935 188.76423 
L 49.422072 184.652801 
L 51.110209 180.541373 
L 52.798346 176.429944 
L 54.486483 172.318516 
L 56.17462 168.207087 
L 57.862757 164.095658 
L 59.550894 159.98423 
L 61.239031 155.872801 
L 62.927168 151.761373 
L 64.615305 147.649944 
L 66.303442 143.538516 
L 67.991579 139.427087 
L 69.679716 135.315658 
L 71.367854 131.20423 
L 73.055991 127.092801 
L 74.744128 122.981373 
L 76.432265 118.869944 
L 78.120402 114.758516 
L 79.808539 110.647087 
L 81.496676 106.535658 
L 83.184813 102.42423 
L 84.87295 98.312801 
L 86.561087 94.201373 
L 88.249224 90.089944 
L 89.937361 85.978516 
L 91.625498 81.867087 
L 93.313635 77.755658 
L 95.001772 73.64423 
L 96.689909 69.532801 
L 98.378046 65.421373 
L 100.066183 61.309944 
L 101.75432 57.198516 
L 103.442457 53.087087 
L 105.130594 48.975658 
L 106.818731 44.86423 
L 108.506868 40.752801 
L 110.195005 36.641373 
L 111.883142 32.529944 
L 113.571279 28.418516 
" clip-path="url(#pe04cc1c6b1)" style="fill: none; stroke-dasharray: 3.6,2.7; stroke-dashoffset: 0; stroke: #8c959f; stroke-width: 0.9"/>
   </g>
   <g id="line2d_15">
    <path d="M 109.632293 229.878516 
L 109.632293 109.002516 
" clip-path="url(#pe04cc1c6b1)" style="fill: none; stroke-dasharray: 1.4,1.4; stroke-dashoffset: 0; stroke: #8c959f; stroke-width: 0.7"/>
   </g>
   <g id="line2d_16">
    <path d="M 30.852565 109.002516 
L 109.632293 109.002516 
" clip-path="url(#pe04cc1c6b1)" style="fill: none; stroke-dasharray: 1.4,1.4; stroke-dashoffset: 0; stroke: #8c959f; stroke-width: 0.7"/>
   </g>
   <g id="line2d_17">
    <path d="M 30.852565 38.011849 
L 424.751204 38.011849 
" clip-path="url(#pe04cc1c6b1)" style="fill: none; stroke-dasharray: 0.5,1.5; stroke-dashoffset: 0; stroke: #d0d7de; stroke-width: 0.5"/>
   </g>
   <g id="patch_3">
    <path d="M 30.852565 229.878516 
L 30.852565 28.418516 
" style="fill: none; stroke: #57606a; stroke-width: 0.7; stroke-linejoin: miter; stroke-linecap: square"/>
   </g>
   <g id="patch_4">
    <path d="M 30.852565 229.878516 
L 424.751204 229.878516 
" style="fill: none; stroke: #57606a; stroke-width: 0.7; stroke-linejoin: miter; stroke-linecap: square"/>
   </g>
   <g id="patch_5">
    <path d="M 165.659908 184.535981 
Q 120.756777 154.993999 75.853645 125.452017 
" style="fill: none; stroke: #8c959f; stroke-width: 0.6; stroke-linecap: round"/>
   </g>
   <g id="text_14">
    <!-- initial slope = 1/τ -->
    <g style="fill: #57606a" transform="translate(141.144184 193.712682) scale(0.08 -0.08)">
     <defs>
      <path id="DejaVuSans-6e" d="M 3513 2113 
L 3513 0 
L 2938 0 
L 2938 2094 
Q 2938 2591 2744 2837 
Q 2550 3084 2163 3084 
Q 1697 3084 1428 2787 
Q 1159 2491 1159 1978 
L 1159 0 
L 581 0 
L 581 3500 
L 1159 3500 
L 1159 2956 
Q 1366 3272 1645 3428 
Q 1925 3584 2291 3584 
Q 2894 3584 3203 3211 
Q 3513 2838 3513 2113 
z
" transform="scale(0.015625)"/>
      <path id="DejaVuSans-61" d="M 2194 1759 
Q 1497 1759 1228 1600 
Q 959 1441 959 1056 
Q 959 750 1161 570 
Q 1363 391 1709 391 
Q 2188 391 2477 730 
Q 2766 1069 2766 1631 
L 2766 1759 
L 2194 1759 
z
M 3341 1997 
L 3341 0 
L 2766 0 
L 2766 531 
Q 2569 213 2275 61 
Q 1981 -91 1556 -91 
Q 1019 -91 701 211 
Q 384 513 384 1019 
Q 384 1609 779 1909 
Q 1175 2209 1959 2209 
L 2766 2209 
L 2766 2266 
Q 2766 2663 2505 2880 
Q 2244 3097 1772 3097 
Q 1472 3097 1187 3025 
Q 903 2953 641 2809 
L 641 3341 
Q 956 3463 1253 3523 
Q 1550 3584 1831 3584 
Q 2591 3584 2966 3190 
Q 3341 2797 3341 1997 
z
" transform="scale(0.015625)"/>
      <path id="DejaVuSans-6c" d="M 603 4863 
L 1178 4863 
L 1178 0 
L 603 0 
L 603 4863 
z
" transform="scale(0.015625)"/>
      <path id="DejaVuSans-20" transform="scale(0.015625)"/>
      <path id="DejaVuSans-73" d="M 2834 3397 
L 2834 2853 
Q 2591 2978 2328 3040 
Q 2066 3103 1784 3103 
Q 1356 3103 1142 2972 
Q 928 2841 928 2578 
Q 928 2378 1081 2264 
Q 1234 2150 1697 2047 
L 1894 2003 
Q 2506 1872 2764 1633 
Q 3022 1394 3022 966 
Q 3022 478 2636 193 
Q 2250 -91 1575 -91 
Q 1294 -91 989 -36 
Q 684 19 347 128 
L 347 722 
Q 666 556 975 473 
Q 1284 391 1588 391 
Q 1994 391 2212 530 
Q 2431 669 2431 922 
Q 2431 1156 2273 1281 
Q 2116 1406 1581 1522 
L 1381 1569 
Q 847 1681 609 1914 
Q 372 2147 372 2553 
Q 372 3047 722 3315 
Q 1072 3584 1716 3584 
Q 2034 3584 2315 3537 
Q 2597 3491 2834 3397 
z
" transform="scale(0.015625)"/>
      <path id="DejaVuSans-6f" d="M 1959 3097 
Q 1497 3097 1228 2736 
Q 959 2375 959 1747 
Q 959 1119 1226 758 
Q 1494 397 1959 397 
Q 2419 397 2687 759 
Q 2956 1122 2956 1747 
Q 2956 2369 2687 2733 
Q 2419 3097 1959 3097 
z
M 1959 3584 
Q 2709 3584 3137 3096 
Q 3566 2609 3566 1747 
Q 3566 888 3137 398 
Q 2709 -91 1959 -91 
Q 1206 -91 779 398 
Q 353 888 353 1747 
Q 353 2609 779 3096 
Q 1206 3584 1959 3584 
z
" transform="scale(0.015625)"/>
      <path id="DejaVuSans-70" d="M 1159 525 
L 1159 -1331 
L 581 -1331 
L 581 3500 
L 1159 3500 
L 1159 2969 
Q 1341 3281 1617 3432 
Q 1894 3584 2278 3584 
Q 2916 3584 3314 3078 
Q 3713 2572 3713 1747 
Q 3713 922 3314 415 
Q 2916 -91 2278 -91 
Q 1894 -91 1617 61 
Q 1341 213 1159 525 
z
M 3116 1747 
Q 3116 2381 2855 2742 
Q 2594 3103 2138 3103 
Q 1681 3103 1420 2742 
Q 1159 2381 1159 1747 
Q 1159 1113 1420 752 
Q 1681 391 2138 391 
Q 2594 391 2855 752 
Q 3116 1113 3116 1747 
z
" transform="scale(0.015625)"/>
      <path id="DejaVuSans-3d" d="M 678 2906 
L 4684 2906 
L 4684 2381 
L 678 2381 
L 678 2906 
z
M 678 1631 
L 4684 1631 
L 4684 1100 
L 678 1100 
L 678 1631 
z
" transform="scale(0.015625)"/>
      <path id="DejaVuSans-2f" d="M 1625 4666 
L 2156 4666 
L 531 -594 
L 0 -594 
L 1625 4666 
z
" transform="scale(0.015625)"/>
      <path id="DejaVuSans-3c4" d="M 2319 638 
Q 2431 488 2769 488 
L 3047 488 
L 3047 0 
L 2700 0 
Q 2138 0 1881 300 
Q 1625 606 1625 1269 
L 1625 2925 
L 313 2925 
L 313 3500 
L 3541 3500 
L 3541 2925 
L 2213 2925 
L 2213 1234 
Q 2213 781 2319 638 
z
" transform="scale(0.015625)"/>
     </defs>
     <use xlink:href="#DejaVuSans-69"/>
     <use xlink:href="#DejaVuSans-6e" transform="translate(27.783203 0)"/>
     <use xlink:href="#DejaVuSans-69" transform="translate(91.162109 0)"/>
     <use xlink:href="#DejaVuSans-74" transform="translate(118.945312 0)"/>
     <use xlink:href="#DejaVuSans-69" transform="translate(158.154297 0)"/>
     <use xlink:href="#DejaVuSans-61" transform="translate(185.9375 0)"/>
     <use xlink:href="#DejaVuSans-6c" transform="translate(247.216797 0)"/>
     <use xlink:href="#DejaVuSans-20" transform="translate(275 0)"/>
     <use xlink:href="#DejaVuSans-73" transform="translate(306.787109 0)"/>
     <use xlink:href="#DejaVuSans-6c" transform="translate(358.886719 0)"/>
     <use xlink:href="#DejaVuSans-6f" transform="translate(386.669922 0)"/>
     <use xlink:href="#DejaVuSans-70" transform="translate(447.851562 0)"/>
     <use xlink:href="#DejaVuSans-65" transform="translate(511.328125 0)"/>
     <use xlink:href="#DejaVuSans-20" transform="translate(572.851562 0)"/>
     <use xlink:href="#DejaVuSans-3d" transform="translate(604.638672 0)"/>
     <use xlink:href="#DejaVuSans-20" transform="translate(688.427734 0)"/>
     <use xlink:href="#DejaVuSans-31" transform="translate(720.214844 0)"/>
     <use xlink:href="#DejaVuSans-2f" transform="translate(783.837891 0)"/>
     <use xlink:href="#DejaVuSans-3c4" transform="translate(817.529297 0)"/>
    </g>
   </g>
   <g id="text_15">
    <!-- $\tau$ -->
    <g style="fill: #1f2328" transform="translate(107.039793 244.011854) scale(0.085 -0.085)">
     <use xlink:href="#DejaVuSans-Oblique-3c4" transform="translate(0 0.3125)"/>
    </g>
   </g>
   <g id="text_16">
    <!-- 0.63 -->
    <g style="fill: #1f2328" transform="translate(7.2 111.347984) scale(0.085 -0.085)">
     <use xlink:href="#DejaVuSans-30"/>
     <use xlink:href="#DejaVuSans-2e" transform="translate(63.623047 0)"/>
     <use xlink:href="#DejaVuSans-36" transform="translate(95.410156 0)"/>
     <use xlink:href="#DejaVuSans-33" transform="translate(159.033203 0)"/>
    </g>
   </g>
   <g id="text_17">
    <!-- $V_\infty$ -->
    <g style="fill: #57606a" transform="translate(413.701204 36.244115) scale(0.085 -0.085)">
     <defs>
      <path id="DejaVuSans-Oblique-56" d="M 1319 0 
L 500 4666 
L 1119 4666 
L 1797 653 
L 4063 4666 
L 4750 4666 
L 2053 0 
L 1319 0 
z
" transform="scale(0.015625)"/>
      <path id="DejaVuSans-221e" d="M 2916 1091 
Q 2819 1203 2666 1466 
Q 2456 1091 2272 925 
Q 2041 725 1681 725 
Q 1259 725 981 1041 
Q 688 1372 688 1919 
Q 688 2444 981 2800 
Q 1244 3116 1688 3116 
Q 1916 3116 2084 3022 
Q 2281 2919 2416 2741 
Q 2541 2581 2666 2366 
Q 2875 2741 3059 2906 
Q 3291 3106 3650 3106 
Q 4072 3106 4350 2791 
Q 4644 2459 4644 1913 
Q 4644 1388 4350 1031 
Q 4088 716 3644 716 
Q 3416 716 3247 809 
Q 3078 894 2916 1091 
z
M 1647 1134 
Q 2163 1134 2472 1884 
Q 2075 2703 1647 2703 
Q 1334 2703 1175 2478 
Q 1003 2238 1003 1919 
Q 1003 1569 1175 1353 
Q 1350 1134 1647 1134 
z
M 3684 2697 
Q 3219 2697 2859 1947 
Q 3253 1128 3684 1128 
Q 3997 1128 4156 1353 
Q 4328 1594 4328 1913 
Q 4328 2263 4156 2478 
Q 3981 2697 3684 2697 
z
" transform="scale(0.015625)"/>
     </defs>
     <use xlink:href="#DejaVuSans-Oblique-56" transform="translate(0 0.09375)"/>
     <use xlink:href="#DejaVuSans-221e" transform="translate(68.408203 -16.3125) scale(0.7)"/>
    </g>
   </g>
   <g id="text_18">
    <!-- $V(t)\,/\,V_\infty$ -->
    <g style="fill: #57606a" transform="translate(30.852565 24.129277) scale(0.09 -0.09)">
     <defs>
      <path id="DejaVuSans-28" d="M 1984 4856 
Q 1566 4138 1362 3434 
Q 1159 2731 1159 2009 
Q 1159 1288 1364 580 
Q 1569 -128 1984 -844 
L 1484 -844 
Q 1016 -109 783 600 
Q 550 1309 550 2009 
Q 550 2706 781 3412 
Q 1013 4119 1484 4856 
L 1984 4856 
z
" transform="scale(0.015625)"/>
      <path id="DejaVuSans-Oblique-74" d="M 2706 3500 
L 2619 3053 
L 1472 3053 
L 1100 1153 
Q 1081 1047 1072 975 
Q 1063 903 1063 863 
Q 1063 663 1183 572 
Q 1303 481 1569 481 
L 2150 481 
L 2053 0 
L 1503 0 
Q 991 0 739 200 
Q 488 400 488 806 
Q 488 878 497 964 
Q 506 1050 525 1153 
L 897 3053 
L 409 3053 
L 500 3500 
L 978 3500 
L 1172 4494 
L 1747 4494 
L 1556 3500 
L 2706 3500 
z
" transform="scale(0.015625)"/>
      <path id="DejaVuSans-29" d="M 513 4856 
L 1013 4856 
Q 1481 4119 1714 3412 
Q 1947 2706 1947 2009 
Q 1947 1309 1714 600 
Q 1481 -109 1013 -844 
L 513 -844 
Q 928 -128 1133 580 
Q 1338 1288 1338 2009 
Q 1338 2731 1133 3434 
Q 928 4138 513 4856 
z
" transform="scale(0.015625)"/>
     </defs>
     <use xlink:href="#DejaVuSans-Oblique-56" transform="translate(0 0.125)"/>
     <use xlink:href="#DejaVuSans-28" transform="translate(68.408203 0.125)"/>
     <use xlink:href="#DejaVuSans-Oblique-74" transform="translate(107.421875 0.125)"/>
     <use xlink:href="#DejaVuSans-29" transform="translate(146.630859 0.125)"/>
     <use xlink:href="#DejaVuSans-2f" transform="translate(201.880208 0.125)"/>
     <use xlink:href="#DejaVuSans-Oblique-56" transform="translate(251.80729 0.125)"/>
     <use xlink:href="#DejaVuSans-221e" transform="translate(320.215493 -16.28125) scale(0.7)"/>
    </g>
   </g>
   <g id="text_19">
    <!-- RC membrane charging -->
    <g style="fill: #1f2328" transform="translate(171.650947 14.418516) scale(0.095 -0.095)">
     <defs>
      <path id="DejaVuSans-52" d="M 2841 2188 
Q 3044 2119 3236 1894 
Q 3428 1669 3622 1275 
L 4263 0 
L 3584 0 
L 2988 1197 
Q 2756 1666 2539 1819 
Q 2322 1972 1947 1972 
L 1259 1972 
L 1259 0 
L 628 0 
L 628 4666 
L 2053 4666 
Q 2853 4666 3247 4331 
Q 3641 3997 3641 3322 
Q 3641 2881 3436 2590 
Q 3231 2300 2841 2188 
z
M 1259 4147 
L 1259 2491 
L 2053 2491 
Q 2509 2491 2742 2702 
Q 2975 2913 2975 3322 
Q 2975 3731 2742 3939 
Q 2509 4147 2053 4147 
L 1259 4147 
z
" transform="scale(0.015625)"/>
      <path id="DejaVuSans-43" d="M 4122 4306 
L 4122 3641 
Q 3803 3938 3442 4084 
Q 3081 4231 2675 4231 
Q 1875 4231 1450 3742 
Q 1025 3253 1025 2328 
Q 1025 1406 1450 917 
Q 1875 428 2675 428 
Q 3081 428 3442 575 
Q 3803 722 4122 1019 
L 4122 359 
Q 3791 134 3420 21 
Q 3050 -91 2638 -91 
Q 1578 -91 968 557 
Q 359 1206 359 2328 
Q 359 3453 968 4101 
Q 1578 4750 2638 4750 
Q 3056 4750 3426 4639 
Q 3797 4528 4122 4306 
z
" transform="scale(0.015625)"/>
      <path id="DejaVuSans-62" d="M 3116 1747 
Q 3116 2381 2855 2742 
Q 2594 3103 2138 3103 
Q 1681 3103 1420 2742 
Q 1159 2381 1159 1747 
Q 1159 1113 1420 752 
Q 1681 391 2138 391 
Q 2594 391 2855 752 
Q 3116 1113 3116 1747 
z
M 1159 2969 
Q 1341 3281 1617 3432 
Q 1894 3584 2278 3584 
Q 2916 3584 3314 3078 
Q 3713 2572 3713 1747 
Q 3713 922 3314 415 
Q 2916 -91 2278 -91 
Q 1894 -91 1617 61 
Q 1341 213 1159 525 
L 1159 0 
L 581 0 
L 581 4863 
L 1159 4863 
L 1159 2969 
z
" transform="scale(0.015625)"/>
      <path id="DejaVuSans-72" d="M 2631 2963 
Q 2534 3019 2420 3045 
Q 2306 3072 2169 3072 
Q 1681 3072 1420 2755 
Q 1159 2438 1159 1844 
L 1159 0 
L 581 0 
L 581 3500 
L 1159 3500 
L 1159 2956 
Q 1341 3275 1631 3429 
Q 1922 3584 2338 3584 
Q 2397 3584 2469 3576 
Q 2541 3569 2628 3553 
L 2631 2963 
z
" transform="scale(0.015625)"/>
      <path id="DejaVuSans-63" d="M 3122 3366 
L 3122 2828 
Q 2878 2963 2633 3030 
Q 2388 3097 2138 3097 
Q 1578 3097 1268 2742 
Q 959 2388 959 1747 
Q 959 1106 1268 751 
Q 1578 397 2138 397 
Q 2388 397 2633 464 
Q 2878 531 3122 666 
L 3122 134 
Q 2881 22 2623 -34 
Q 2366 -91 2075 -91 
Q 1284 -91 818 406 
Q 353 903 353 1747 
Q 353 2603 823 3093 
Q 1294 3584 2113 3584 
Q 2378 3584 2631 3529 
Q 2884 3475 3122 3366 
z
" transform="scale(0.015625)"/>
      <path id="DejaVuSans-68" d="M 3513 2113 
L 3513 0 
L 2938 0 
L 2938 2094 
Q 2938 2591 2744 2837 
Q 2550 3084 2163 3084 
Q 1697 3084 1428 2787 
Q 1159 2491 1159 1978 
L 1159 0 
L 581 0 
L 581 4863 
L 1159 4863 
L 1159 2956 
Q 1366 3272 1645 3428 
Q 1925 3584 2291 3584 
Q 2894 3584 3203 3211 
Q 3513 2838 3513 2113 
z
" transform="scale(0.015625)"/>
      <path id="DejaVuSans-67" d="M 2906 1791 
Q 2906 2416 2648 2759 
Q 2391 3103 1925 3103 
Q 1463 3103 1205 2759 
Q 947 2416 947 1791 
Q 947 1169 1205 825 
Q 1463 481 1925 481 
Q 2391 481 2648 825 
Q 2906 1169 2906 1791 
z
M 3481 434 
Q 3481 -459 3084 -895 
Q 2688 -1331 1869 -1331 
Q 1566 -1331 1297 -1286 
Q 1028 -1241 775 -1147 
L 775 -588 
Q 1028 -725 1275 -790 
Q 1522 -856 1778 -856 
Q 2344 -856 2625 -561 
Q 2906 -266 2906 331 
L 2906 616 
Q 2728 306 2450 153 
Q 2172 0 1784 0 
Q 1141 0 747 490 
Q 353 981 353 1791 
Q 353 2603 747 3093 
Q 1141 3584 1784 3584 
Q 2172 3584 2450 3431 
Q 2728 3278 2906 2969 
L 2906 3500 
L 3481 3500 
L 3481 434 
z
" transform="scale(0.015625)"/>
     </defs>
     <use xlink:href="#DejaVuSans-52"/>
     <use xlink:href="#DejaVuSans-43" transform="translate(64.482422 0)"/>
     <use xlink:href="#DejaVuSans-20" transform="translate(134.306641 0)"/>
     <use xlink:href="#DejaVuSans-6d" transform="translate(166.09375 0)"/>
     <use xlink:href="#DejaVuSans-65" transform="translate(263.505859 0)"/>
     <use xlink:href="#DejaVuSans-6d" transform="translate(325.029297 0)"/>
     <use xlink:href="#DejaVuSans-62" transform="translate(422.441406 0)"/>
     <use xlink:href="#DejaVuSans-72" transform="translate(485.917969 0)"/>
     <use xlink:href="#DejaVuSans-61" transform="translate(527.03125 0)"/>
     <use xlink:href="#DejaVuSans-6e" transform="translate(588.310547 0)"/>
     <use xlink:href="#DejaVuSans-65" transform="translate(651.689453 0)"/>
     <use xlink:href="#DejaVuSans-20" transform="translate(713.212891 0)"/>
     <use xlink:href="#DejaVuSans-63" transform="translate(745 0)"/>
     <use xlink:href="#DejaVuSans-68" transform="translate(799.980469 0)"/>
     <use xlink:href="#DejaVuSans-61" transform="translate(863.359375 0)"/>
     <use xlink:href="#DejaVuSans-72" transform="translate(924.638672 0)"/>
     <use xlink:href="#DejaVuSans-67" transform="translate(964.001953 0)"/>
     <use xlink:href="#DejaVuSans-69" transform="translate(1027.478516 0)"/>
     <use xlink:href="#DejaVuSans-6e" transform="translate(1055.261719 0)"/>
     <use xlink:href="#DejaVuSans-67" transform="translate(1118.640625 0)"/>
    </g>
   </g>
   <g id="line2d_18">
    <path d="M 109.632293 109.002516 
" clip-path="url(#pe04cc1c6b1)" style="fill: none; stroke: #ccbb44; stroke-width: 1.6; stroke-linecap: square"/>
    <defs>
     <path id="m3ffc086a4d" d="M 0 2.75 
C 0.729309 2.75 1.428845 2.460243 1.944544 1.944544 
C 2.460243 1.428845 2.75 0.729309 2.75 0 
C 2.75 -0.729309 2.460243 -1.428845 1.944544 -1.944544 
C 1.428845 -2.460243 0.729309 -2.75 0 -2.75 
C -0.729309 -2.75 -1.428845 -2.460243 -1.944544 -1.944544 
C -2.460243 -1.428845 -2.75 -0.729309 -2.75 0 
C -2.75 0.729309 -2.460243 1.428845 -1.944544 1.944544 
C -1.428845 2.460243 -0.729309 2.75 0 2.75 
z
" style="stroke: #1f2328; stroke-width: 0.6"/>
    </defs>
    <g clip-path="url(#pe04cc1c6b1)">
     <use xlink:href="#m3ffc086a4d" x="109.632293" y="109.002516" style="fill: #ccbb44; stroke: #1f2328; stroke-width: 0.6"/>
    </g>
   </g>
   <g id="legend_1">
    <g id="line2d_19">
     <path d="M 328.526204 208.669922 
L 336.776204 208.669922 
L 345.026204 208.669922 
" style="fill: none; stroke: #4477aa; stroke-width: 1.8; stroke-linecap: square"/>
    </g>
    <g id="text_20">
     <!-- $V(t)=V_\infty(1-e^{-t/\tau})$ -->
     <g transform="translate(349.526204 211.294922) scale(0.075 -0.075)">
      <defs>
       <path id="DejaVuSans-2212" d="M 678 2272 
L 4684 2272 
L 4684 1741 
L 678 1741 
L 678 2272 
z
" transform="scale(0.015625)"/>
       <path id="DejaVuSans-Oblique-65" d="M 3078 2063 
Q 3088 2113 3092 2166 
Q 3097 2219 3097 2272 
Q 3097 2653 2873 2875 
Q 2650 3097 2266 3097 
Q 1838 3097 1509 2826 
Q 1181 2556 1013 2059 
L 3078 2063 
z
M 3578 1613 
L 903 1613 
Q 884 1494 878 1425 
Q 872 1356 872 1306 
Q 872 872 1139 634 
Q 1406 397 1894 397 
Q 2269 397 2603 481 
Q 2938 566 3225 728 
L 3116 159 
Q 2806 34 2476 -28 
Q 2147 -91 1806 -91 
Q 1078 -91 686 257 
Q 294 606 294 1247 
Q 294 1794 489 2264 
Q 684 2734 1063 3103 
Q 1306 3334 1642 3459 
Q 1978 3584 2356 3584 
Q 2950 3584 3301 3228 
Q 3653 2872 3653 2272 
Q 3653 2128 3634 1964 
Q 3616 1800 3578 1613 
z
" transform="scale(0.015625)"/>
      </defs>
      <use xlink:href="#DejaVuSans-Oblique-56" transform="translate(0 0.684375)"/>
      <use xlink:href="#DejaVuSans-28" transform="translate(68.408203 0.684375)"/>
      <use xlink:href="#DejaVuSans-Oblique-74" transform="translate(107.421875 0.684375)"/>
      <use xlink:href="#DejaVuSans-29" transform="translate(146.630859 0.684375)"/>
      <use xlink:href="#DejaVuSans-3d" transform="translate(205.126953 0.684375)"/>
      <use xlink:href="#DejaVuSans-Oblique-56" transform="translate(308.398438 0.684375)"/>
      <use xlink:href="#DejaVuSans-221e" transform="translate(376.806641 -15.721875) scale(0.7)"/>
      <use xlink:href="#DejaVuSans-28" transform="translate(437.851562 0.684375)"/>
      <use xlink:href="#DejaVuSans-31" transform="translate(476.865234 0.684375)"/>
      <use xlink:href="#DejaVuSans-2212" transform="translate(559.970703 0.684375)"/>
      <use xlink:href="#DejaVuSans-Oblique-65" transform="translate(663.242188 0.684375)"/>
      <use xlink:href="#DejaVuSans-2212" transform="translate(729.415521 38.965625) scale(0.7)"/>
      <use xlink:href="#DejaVuSans-Oblique-74" transform="translate(788.067865 38.965625) scale(0.7)"/>
      <use xlink:href="#DejaVuSans-2f" transform="translate(815.514154 38.965625) scale(0.7)"/>
      <use xlink:href="#DejaVuSans-Oblique-3c4" transform="translate(839.098138 38.965625) scale(0.7)"/>
      <use xlink:href="#DejaVuSans-29" transform="translate(883.976068 0.684375)"/>
     </g>
    </g>
    <g id="line2d_20">
     <path d="M 328.526204 219.678516 
L 336.776204 219.678516 
L 345.026204 219.678516 
" style="fill: none; stroke-dasharray: 3.6,2.7; stroke-dashoffset: 0; stroke: #8c959f; stroke-width: 0.9"/>
    </g>
    <g id="text_21">
     <!-- tangent at $t=0$ -->
     <g transform="translate(349.526204 222.303516) scale(0.075 -0.075)">
      <use xlink:href="#DejaVuSans-74" transform="translate(0 0.78125)"/>
      <use xlink:href="#DejaVuSans-61" transform="translate(39.208984 0.78125)"/>
      <use xlink:href="#DejaVuSans-6e" transform="translate(100.488281 0.78125)"/>
      <use xlink:href="#DejaVuSans-67" transform="translate(163.867188 0.78125)"/>
      <use xlink:href="#DejaVuSans-65" transform="translate(227.34375 0.78125)"/>
      <use xlink:href="#DejaVuSans-6e" transform="translate(288.867188 0.78125)"/>
      <use xlink:href="#DejaVuSans-74" transform="translate(352.246094 0.78125)"/>
      <use xlink:href="#DejaVuSans-20" transform="translate(391.455078 0.78125)"/>
      <use xlink:href="#DejaVuSans-61" transform="translate(423.242188 0.78125)"/>
      <use xlink:href="#DejaVuSans-74" transform="translate(484.521484 0.78125)"/>
      <use xlink:href="#DejaVuSans-20" transform="translate(523.730469 0.78125)"/>
      <use xlink:href="#DejaVuSans-Oblique-74" transform="translate(555.517578 0.78125)"/>
      <use xlink:href="#DejaVuSans-3d" transform="translate(614.208984 0.78125)"/>
      <use xlink:href="#DejaVuSans-30" transform="translate(717.480469 0.78125)"/>
     </g>
    </g>
   </g>
  </g>
 </g>
 <defs>
  <clipPath id="pe04cc1c6b1">
   <rect x="30.852565" y="28.418516" width="393.898639" height="201.46"/>
  </clipPath>
 </defs>
</svg>
