<?xml version="1.0" encoding="utf-8" standalone="no"?>
<!DOCTYPE svg PUBLIC "-//W3C//DTD SVG 1.1//EN"
  "http://www.w3.org/Graphics/SVG/1.1/DTD/svg11.dtd">
<svg xmlns:xlink="http://www.w3.org/1999/xlink" width="437.9pt" height="265.118516pt" viewBox="0 0 437.9 265.118516" xmlns="http://www.w3.org/2000/svg" version="1.1">
 <metadata>
  <rdf:RDF xmlns:dc="http://purl.org/dc/elements/1.1/" xmlns:cc="http://creativecommons.org/ns#" xmlns:rdf="http://www.w3.org/1999/02/22-rdf-syntax-ns#">
   <cc:Work>
    <dc:type rdf:resource="http://purl.org/dc/dcmitype/StillImage"/>
    <dc:date>2023-11-14T22:13:20+00:00</dc:date>
    <dc:format>image/svg+xml</dc:format>
    <dc:creator>
     <cc:Agent>
      <dc:title>Matplotlib v3.10.8, https://matplotlib.org/</dc:title>
     </cc:Agent>
    </dc:creator>
   </cc:Work>
  </rdf:RDF>
 </metadata>
 <defs>
  <style type="text/css">*{stroke-linejoin: round; stroke-linecap: butt}</style>
 </defs>
 <g id="figure_1">
  <g id="patch_1">
   <path d="M 0 265.118516 
L 437.9 265.118516 
L 437.9 0 
L 0 0 
z
" style="fill: #fafbfc"/>
  </g>
  <g id="axes_1">
   <g id="patch_2">
    <path d="M 7.2 257.918516 
L 430.7 257.918516 
L 430.7 18.418516 
L 7.2 18.418516 
z
" style="fill: #fafbfc"/>
   </g>
   <g id="patch_3">
    <path d="M 38.539 120.605182 
L 187.611 120.605182 
Q 196.081 120.605182 196.081 112.621849 
L 196.081 51.948516 
Q 196.081 43.965182 187.611 43.965182 
L 38.539 43.965182 
Q 30.069 43.965182 30.069 51.948516 
L 30.069 112.621849 
Q 30.069 120.605182 38.539 120.605182 
z
" clip-path="url(#pd15903884e)" style="fill: #d0d7de; stroke: #57606a; stroke-width: 0.8; stroke-linejoin: miter"/>
   </g>
   <g id="patch_4">
    <path d="M 66.49 80.688516 
C 68.287016 80.688516 70.010673 80.015576 71.281356 78.817904 
C 72.552038 77.620232 73.266 75.995613 73.266 74.301849 
C 73.266 72.608085 72.552038 70.983466 71.281356 69.785794 
C 70.010673 68.588122 68.287016 67.915182 66.49 67.915182 
C 64.692984 67.915182 62.969327 68.588122 61.698644 69.785794 
C 60.427962 70.983466 59.714 72.608085 59.714 74.301849 
C 59.714 75.995613 60.427962 77.620232 61.698644 78.817904 
C 62.969327 80.015576 64.692984 80.688516 66.49 80.688516 
z
" clip-path="url(#pd15903884e)" style="fill: #fafbfc; stroke: #57606a; stroke-width: 0.7; stroke-linejoin: miter"/>
   </g>
   <g id="patch_5">
    <path d="M 91.9 68.713516 
C 93.697016 68.713516 95.420673 68.040576 96.691356 66.842904 
C 97.962038 65.645232 98.676 64.020613 98.676 62.326849 
C 98.676 60.633085 97.962038 59.008466 96.691356 57.810794 
C 95.420673 56.613122 93.697016 55.940182 91.9 55.940182 
C 90.102984 55.940182 88.379327 56.613122 87.108644 57.810794 
C 85.837962 59.008466 85.124 60.633085 85.124 62.326849 
C 85.124 64.020613 85.837962 65.645232 87.108644 66.842904 
C 88.379327 68.040576 90.102984 68.713516 91.9 68.713516 
z
" clip-path="url(#pd15903884e)" style="fill: #fafbfc; stroke: #57606a; stroke-width: 0.7; stroke-linejoin: miter"/>
   </g>
   <g id="patch_6">
    <path d="M 117.31 76.696849 
C 119.107016 76.696849 120.830673 76.023909 122.101356 74.826238 
C 123.372038 73.628566 124.086 72.003946 124.086 70.310182 
C 124.086 68.616418 123.372038 66.991799 122.101356 65.794127 
C 120.830673 64.596455 119.107016 63.923516 117.31 63.923516 
C 115.512984 63.923516 113.789327 64.596455 112.518644 65.794127 
C 111.247962 66.991799 110.534 68.616418 110.534 70.310182 
C 110.534 72.003946 111.247962 73.628566 112.518644 74.826238 
C 113.789327 76.023909 115.512984 76.696849 117.31 76.696849 
z
" clip-path="url(#pd15903884e)" style="fill: #fafbfc; stroke: #57606a; stroke-width: 0.7; stroke-linejoin: miter"/>
   </g>
   <g id="patch_7">
    <path d="M 146.955 72.705182 
C 148.752016 72.705182 150.475673 72.032243 151.746356 70.834571 
C 153.017038 69.636899 153.731 68.012279 153.731 66.318516 
C 153.731 64.624752 153.017038 63.000132 151.746356 61.80246 
C 150.475673 60.604788 148.752016 59.931849 146.955 59.931849 
C 145.157984 59.931849 143.434327 60.604788 142.163644 61.80246 
C 140.892962 63.000132 140.179 64.624752 140.179 66.318516 
C 140.179 68.012279 140.892962 69.636899 142.163644 70.834571 
C 143.434327 72.032243 145.157984 72.705182 146.955 72.705182 
z
" clip-path="url(#pd15903884e)" style="fill: #fafbfc; stroke: #57606a; stroke-width: 0.7; stroke-linejoin: miter"/>
   </g>
   <g id="patch_8">
    <path d="M 168.13 84.680182 
C 169.927016 84.680182 171.650673 84.007243 172.921356 82.809571 
C 174.192038 81.611899 174.906 79.987279 174.906 78.293516 
C 174.906 76.599752 174.192038 74.975132 172.921356 73.77746 
C 171.650673 72.579788 169.927016 71.906849 168.13 71.906849 
C 166.332984 71.906849 164.609327 72.579788 163.338644 73.77746 
C 162.067962 74.975132 161.354 76.599752 161.354 78.293516 
C 161.354 79.987279 162.067962 81.611899 163.338644 82.809571 
C 164.609327 84.007243 166.332984 84.680182 168.13 84.680182 
z
" clip-path="url(#pd15903884e)" style="fill: #fafbfc; stroke: #57606a; stroke-width: 0.7; stroke-linejoin: miter"/>
   </g>
   <g id="patch_9">
    <path d="M 113.075 115.416016 
C 115.658211 115.416016 118.135968 114.448665 119.962574 112.727012 
C 121.789179 111.005358 122.8155 108.669968 122.8155 106.235182 
C 122.8155 103.800397 121.789179 101.465006 119.962574 99.743353 
C 118.135968 98.021699 115.658211 97.054349 113.075 97.054349 
C 110.491789 97.054349 108.014032 98.021699 106.187426 99.743353 
C 104.360821 101.465006 103.3345 103.800397 103.3345 106.235182 
C 103.3345 108.669968 104.360821 111.005358 106.187426 112.727012 
C 108.014032 114.448665 110.491789 115.416016 113.075 115.416016 
z
" clip-path="url(#pd15903884e)" style="fill: #ccbb44; stroke: #1f2328; stroke-width: 0.6; stroke-linejoin: miter"/>
   </g>
   <g id="patch_10">
    <path d="M 91.9 140.962682 
C 92.686195 140.962682 93.440295 140.668271 93.996218 140.14429 
C 94.552142 139.620308 94.8645 138.909537 94.8645 138.168516 
C 94.8645 137.427494 94.552142 136.716723 93.996218 136.192741 
C 93.440295 135.66876 92.686195 135.374349 91.9 135.374349 
C 91.113805 135.374349 90.359705 135.66876 89.803782 136.192741 
C 89.247858 136.716723 88.9355 137.427494 88.9355 138.168516 
C 88.9355 138.909537 89.247858 139.620308 89.803782 140.14429 
C 90.359705 140.668271 91.113805 140.962682 91.9 140.962682 
z
" clip-path="url(#pd15903884e)" style="fill: #1f2328"/>
   </g>
   <g id="patch_11">
    <path d="M 108.84 136.971016 
C 109.626195 136.971016 110.380295 136.676605 110.936218 136.152623 
C 111.492142 135.628642 111.8045 134.917871 111.8045 134.176849 
C 111.8045 133.435827 111.492142 132.725056 110.936218 132.201075 
C 110.380295 131.677093 109.626195 131.382682 108.84 131.382682 
C 108.053805 131.382682 107.299705 131.677093 106.743782 132.201075 
C 106.187858 132.725056 105.8755 133.435827 105.8755 134.176849 
C 105.8755 134.917871 106.187858 135.628642 106.743782 136.152623 
C 107.299705 136.676605 108.053805 136.971016 108.84 136.971016 
z
" clip-path="url(#pd15903884e)" style="fill: #1f2328"/>
   </g>
   <g id="patch_12">
    <path d="M 125.78 140.962682 
C 126.566195 140.962682 127.320295 140.668271 127.876218 140.14429 
C 128.432142 139.620308 128.7445 138.909537 128.7445 138.168516 
C 128.7445 137.427494 128.432142 136.716723 127.876218 136.192741 
C 127.320295 135.66876 126.566195 135.374349 125.78 135.374349 
C 124.993805 135.374349 124.239705 135.66876 123.683782 136.192741 
C 123.127858 136.716723 122.8155 137.427494 122.8155 138.168516 
C 122.8155 138.909537 123.127858 139.620308 123.683782 140.14429 
C 124.239705 140.668271 124.993805 140.962682 125.78 140.962682 
z
" clip-path="url(#pd15903884e)" style="fill: #1f2328"/>
   </g>
   <g id="patch_13">
    <path d="M 142.72 136.971016 
C 143.506195 136.971016 144.260295 136.676605 144.816218 136.152623 
C 145.372142 135.628642 145.6845 134.917871 145.6845 134.176849 
C 145.6845 133.435827 145.372142 132.725056 144.816218 132.201075 
C 144.260295 131.677093 143.506195 131.382682 142.72 131.382682 
C 141.933805 131.382682 141.179705 131.677093 140.623782 132.201075 
C 140.067858 132.725056 139.7555 133.435827 139.7555 134.176849 
C 139.7555 134.917871 140.067858 135.628642 140.623782 136.152623 
C 141.179705 136.676605 141.933805 136.971016 142.72 136.971016 
z
" clip-path="url(#pd15903884e)" style="fill: #1f2328"/>
   </g>
   <g id="patch_14">
    <path d="M 100.37 146.950182 
C 101.156195 146.950182 101.910295 146.655771 102.466218 146.13179 
C 103.022142 145.607808 103.3345 144.897037 103.3345 144.156016 
C 103.3345 143.414994 103.022142 142.704223 102.466218 142.180241 
C 101.910295 141.65626 101.156195 141.361849 100.37 141.361849 
C 99.583805 141.361849 98.829705 141.65626 98.273782 142.180241 
C 97.717858 142.704223 97.4055 143.414994 97.4055 144.156016 
C 97.4055 144.897037 97.717858 145.607808 98.273782 146.13179 
C 98.829705 146.655771 99.583805 146.950182 100.37 146.950182 
z
" clip-path="url(#pd15903884e)" style="fill: #1f2328"/>
   </g>
   <g id="patch_15">
    <path d="M 134.25 144.954349 
C 135.036195 144.954349 135.790295 144.659938 136.346218 144.135956 
C 136.902142 143.611975 137.2145 142.901204 137.2145 142.160182 
C 137.2145 141.419161 136.902142 140.70839 136.346218 140.184408 
C 135.790295 139.660427 135.036195 139.366016 134.25 139.366016 
C 133.463805 139.366016 132.709705 139.660427 132.153782 140.184408 
C 131.597858 140.70839 131.2855 141.419161 131.2855 142.160182 
C 131.2855 142.901204 131.597858 143.611975 132.153782 144.135956 
C 132.709705 144.659938 133.463805 144.954349 134.25 144.954349 
z
" clip-path="url(#pd15903884e)" style="fill: #1f2328"/>
   </g>
   <g id="patch_16">
    <path d="M 38.539 224.388516 
L 187.611 224.388516 
Q 196.081 224.388516 196.081 216.405182 
L 196.081 159.723516 
Q 196.081 151.740182 187.611 151.740182 
L 38.539 151.740182 
Q 30.069 151.740182 30.069 159.723516 
L 30.069 216.405182 
Q 30.069 224.388516 38.539 224.388516 
z
" clip-path="url(#pd15903884e)" style="fill: #d0d7de; stroke: #57606a; stroke-width: 0.8; stroke-linejoin: miter"/>
   </g>
   <g id="patch_17">
    <path d="M 58.02 166.110182 
L 83.43 166.110182 
L 83.43 150.143516 
L 58.02 150.143516 
z
" clip-path="url(#pd15903884e)" style="fill: #fafbfc; stroke: #57606a; stroke-linejoin: miter"/>
   </g>
   <g id="patch_18">
    <path d="M 142.72 166.110182 
L 168.13 166.110182 
L 168.13 150.143516 
L 142.72 150.143516 
z
" clip-path="url(#pd15903884e)" style="fill: #fafbfc; stroke: #57606a; stroke-linejoin: miter"/>
   </g>
   <g id="patch_19">
    <path d="M 265.9585 187.665182 
L 396.3965 187.665182 
Q 402.749 187.665182 402.749 181.677682 
L 402.749 78.692682 
Q 402.749 72.705182 396.3965 72.705182 
L 265.9585 72.705182 
Q 259.606 72.705182 259.606 78.692682 
L 259.606 181.677682 
Q 259.606 187.665182 265.9585 187.665182 
z
" clip-path="url(#pd15903884e)" style="fill: #fafbfc; stroke: #d0d7de; stroke-width: 0.6; stroke-linejoin: miter"/>
   </g>
   <g id="matplotlib.axis_1"/>
   <g id="matplotlib.axis_2"/>
   <g id="line2d_1">
    <path d="M 32.61 126.193516 
L 193.54 126.193516 
" clip-path="url(#pd15903884e)" style="fill: none; stroke: #57606a; stroke-width: 0.8; stroke-linecap: square"/>
   </g>
   <g id="line2d_2">
    <path d="M 32.61 150.143516 
L 193.54 150.143516 
" clip-path="url(#pd15903884e)" style="fill: none; stroke: #57606a; stroke-width: 0.8; stroke-linecap: square"/>
   </g>
   <g id="line2d_3">
    <path d="M 278.24 150.143516 
L 283.281667 150.143516 
L 283.547018 145.771892 
L 285.404474 144.831476 
L 287.26193 144.122618 
L 289.384737 143.548958 
L 291.772895 143.149447 
L 294.426404 142.946009 
L 297.345263 142.943282 
L 301.060175 143.175933 
L 305.836491 143.715697 
L 314.327719 144.948518 
L 326.003158 146.595658 
L 334.494386 147.560983 
L 343.250965 148.326488 
L 352.803596 148.9307 
L 363.948333 149.402206 
L 377.746579 149.749757 
L 384.115 149.851481 
L 384.115 149.851481 
" clip-path="url(#pd15903884e)" style="fill: none; stroke: #4477aa; stroke-width: 1.6; stroke-linecap: square"/>
   </g>
   <g id="line2d_4">
    <path d="M 278.24 150.143516 
L 384.115 150.143516 
" clip-path="url(#pd15903884e)" style="fill: none; stroke-dasharray: 1.8,1.8; stroke-dashoffset: 0; stroke: #8c959f; stroke-width: 0.6"/>
   </g>
   <g id="text_1">
    <!-- presynaptic terminal -->
    <g style="fill: #57606a" transform="translate(71.684375 36.713099) scale(0.08 -0.08)">
     <defs>
      <path id="DejaVuSans-70" d="M 1159 525 
L 1159 -1331 
L 581 -1331 
L 581 3500 
L 1159 3500 
L 1159 2969 
Q 1341 3281 1617 3432 
Q 1894 3584 2278 3584 
Q 2916 3584 3314 3078 
Q 3713 2572 3713 1747 
Q 3713 922 3314 415 
Q 2916 -91 2278 -91 
Q 1894 -91 1617 61 
Q 1341 213 1159 525 
z
M 3116 1747 
Q 3116 2381 2855 2742 
Q 2594 3103 2138 3103 
Q 1681 3103 1420 2742 
Q 1159 2381 1159 1747 
Q 1159 1113 1420 752 
Q 1681 391 2138 391 
Q 2594 391 2855 752 
Q 3116 1113 3116 1747 
z
" transform="scale(0.015625)"/>
      <path id="DejaVuSans-72" d="M 2631 2963 
Q 2534 3019 2420 3045 
Q 2306 3072 2169 3072 
Q 1681 3072 1420 2755 
Q 1159 2438 1159 1844 
L 1159 0 
L 581 0 
L 581 3500 
L 1159 3500 
L 1159 2956 
Q 1341 3275 1631 3429 
Q 1922 3584 2338 3584 
Q 2397 3584 2469 3576 
Q 2541 3569 2628 3553 
L 2631 2963 
z
" transform="scale(0.015625)"/>
      <path id="DejaVuSans-65" d="M 3597 1894 
L 3597 1613 
L 953 1613 
Q 991 1019 1311 708 
Q 1631 397 2203 397 
Q 2534 397 2845 478 
Q 3156 559 3463 722 
L 3463 178 
Q 3153 47 2828 -22 
Q 2503 -91 2169 -91 
Q 1331 -91 842 396 
Q 353 884 353 1716 
Q 353 2575 817 3079 
Q 1281 3584 2069 3584 
Q 2775 3584 3186 3129 
Q 3597 2675 3597 1894 
z
M 3022 2063 
Q 3016 2534 2758 2815 
Q 2500 3097 2075 3097 
Q 1594 3097 1305 2825 
Q 1016 2553 972 2059 
L 3022 2063 
z
" transform="scale(0.015625)"/>
      <path id="DejaVuSans-73" d="M 2834 3397 
L 2834 2853 
Q 2591 2978 2328 3040 
Q 2066 3103 1784 3103 
Q 1356 3103 1142 2972 
Q 928 2841 928 2578 
Q 928 2378 1081 2264 
Q 1234 2150 1697 2047 
L 1894 2003 
Q 2506 1872 2764 1633 
Q 3022 1394 3022 966 
Q 3022 478 2636 193 
Q 2250 -91 1575 -91 
Q 1294 -91 989 -36 
Q 684 19 347 128 
L 347 722 
Q 666 556 975 473 
Q 1284 391 1588 391 
Q 1994 391 2212 530 
Q 2431 669 2431 922 
Q 2431 1156 2273 1281 
Q 2116 1406 1581 1522 
L 1381 1569 
Q 847 1681 609 1914 
Q 372 2147 372 2553 
Q 372 3047 722 3315 
Q 1072 3584 1716 3584 
Q 2034 3584 2315 3537 
Q 2597 3491 2834 3397 
z
" transform="scale(0.015625)"/>
      <path id="DejaVuSans-79" d="M 2059 -325 
Q 1816 -950 1584 -1140 
Q 1353 -1331 966 -1331 
L 506 -1331 
L 506 -850 
L 844 -850 
Q 1081 -850 1212 -737 
Q 1344 -625 1503 -206 
L 1606 56 
L 191 3500 
L 800 3500 
L 1894 763 
L 2988 3500 
L 3597 3500 
L 2059 -325 
z
" transform="scale(0.015625)"/>
      <path id="DejaVuSans-6e" d="M 3513 2113 
L 3513 0 
L 2938 0 
L 2938 2094 
Q 2938 2591 2744 2837 
Q 2550 3084 2163 3084 
Q 1697 3084 1428 2787 
Q 1159 2491 1159 1978 
L 1159 0 
L 581 0 
L 581 3500 
L 1159 3500 
L 1159 2956 
Q 1366 3272 1645 3428 
Q 1925 3584 2291 3584 
Q 2894 3584 3203 3211 
Q 3513 2838 3513 2113 
z
" transform="scale(0.015625)"/>
      <path id="DejaVuSans-61" d="M 2194 1759 
Q 1497 1759 1228 1600 
Q 959 1441 959 1056 
Q 959 750 1161 570 
Q 1363 391 1709 391 
Q 2188 391 2477 730 
Q 2766 1069 2766 1631 
L 2766 1759 
L 2194 1759 
z
M 3341 1997 
L 3341 0 
L 2766 0 
L 2766 531 
Q 2569 213 2275 61 
Q 1981 -91 1556 -91 
Q 1019 -91 701 211 
Q 384 513 384 1019 
Q 384 1609 779 1909 
Q 1175 2209 1959 2209 
L 2766 2209 
L 2766 2266 
Q 2766 2663 2505 2880 
Q 2244 3097 1772 3097 
Q 1472 3097 1187 3025 
Q 903 2953 641 2809 
L 641 3341 
Q 956 3463 1253 3523 
Q 1550 3584 1831 3584 
Q 2591 3584 2966 3190 
Q 3341 2797 3341 1997 
z
" transform="scale(0.015625)"/>
      <path id="DejaVuSans-74" d="M 1172 4494 
L 1172 3500 
L 2356 3500 
L 2356 3053 
L 1172 3053 
L 1172 1153 
Q 1172 725 1289 603 
Q 1406 481 1766 481 
L 2356 481 
L 2356 0 
L 1766 0 
Q 1100 0 847 248 
Q 594 497 594 1153 
L 594 3053 
L 172 3053 
L 172 3500 
L 594 3500 
L 594 4494 
L 1172 4494 
z
" transform="scale(0.015625)"/>
      <path id="DejaVuSans-69" d="M 603 3500 
L 1178 3500 
L 1178 0 
L 603 0 
L 603 3500 
z
M 603 4863 
L 1178 4863 
L 1178 4134 
L 603 4134 
L 603 4863 
z
" transform="scale(0.015625)"/>
      <path id="DejaVuSans-63" d="M 3122 3366 
L 3122 2828 
Q 2878 2963 2633 3030 
Q 2388 3097 2138 3097 
Q 1578 3097 1268 2742 
Q 959 2388 959 1747 
Q 959 1106 1268 751 
Q 1578 397 2138 397 
Q 2388 397 2633 464 
Q 2878 531 3122 666 
L 3122 134 
Q 2881 22 2623 -34 
Q 2366 -91 2075 -91 
Q 1284 -91 818 406 
Q 353 903 353 1747 
Q 353 2603 823 3093 
Q 1294 3584 2113 3584 
Q 2378 3584 2631 3529 
Q 2884 3475 3122 3366 
z
" transform="scale(0.015625)"/>
      <path id="DejaVuSans-20" transform="scale(0.015625)"/>
      <path id="DejaVuSans-6d" d="M 3328 2828 
Q 3544 3216 3844 3400 
Q 4144 3584 4550 3584 
Q 5097 3584 5394 3201 
Q 5691 2819 5691 2113 
L 5691 0 
L 5113 0 
L 5113 2094 
Q 5113 2597 4934 2840 
Q 4756 3084 4391 3084 
Q 3944 3084 3684 2787 
Q 3425 2491 3425 1978 
L 3425 0 
L 2847 0 
L 2847 2094 
Q 2847 2600 2669 2842 
Q 2491 3084 2119 3084 
Q 1678 3084 1418 2786 
Q 1159 2488 1159 1978 
L 1159 0 
L 581 0 
L 581 3500 
L 1159 3500 
L 1159 2956 
Q 1356 3278 1631 3431 
Q 1906 3584 2284 3584 
Q 2666 3584 2933 3390 
Q 3200 3197 3328 2828 
z
" transform="scale(0.015625)"/>
      <path id="DejaVuSans-6c" d="M 603 4863 
L 1178 4863 
L 1178 0 
L 603 0 
L 603 4863 
z
" transform="scale(0.015625)"/>
     </defs>
     <use xlink:href="#DejaVuSans-70"/>
     <use xlink:href="#DejaVuSans-72" transform="translate(63.476562 0)"/>
     <use xlink:href="#DejaVuSans-65" transform="translate(102.339844 0)"/>
     <use xlink:href="#DejaVuSans-73" transform="translate(163.863281 0)"/>
     <use xlink:href="#DejaVuSans-79" transform="translate(215.962891 0)"/>
     <use xlink:href="#DejaVuSans-6e" transform="translate(275.142578 0)"/>
     <use xlink:href="#DejaVuSans-61" transform="translate(338.521484 0)"/>
     <use xlink:href="#DejaVuSans-70" transform="translate(399.800781 0)"/>
     <use xlink:href="#DejaVuSans-74" transform="translate(463.277344 0)"/>
     <use xlink:href="#DejaVuSans-69" transform="translate(502.486328 0)"/>
     <use xlink:href="#DejaVuSans-63" transform="translate(530.269531 0)"/>
     <use xlink:href="#DejaVuSans-20" transform="translate(585.25 0)"/>
     <use xlink:href="#DejaVuSans-74" transform="translate(617.037109 0)"/>
     <use xlink:href="#DejaVuSans-65" transform="translate(656.246094 0)"/>
     <use xlink:href="#DejaVuSans-72" transform="translate(717.769531 0)"/>
     <use xlink:href="#DejaVuSans-6d" transform="translate(757.132812 0)"/>
     <use xlink:href="#DejaVuSans-69" transform="translate(854.544922 0)"/>
     <use xlink:href="#DejaVuSans-6e" transform="translate(882.328125 0)"/>
     <use xlink:href="#DejaVuSans-61" transform="translate(945.707031 0)"/>
     <use xlink:href="#DejaVuSans-6c" transform="translate(1006.986328 0)"/>
    </g>
   </g>
   <g id="text_2">
    <!-- fusion -->
    <g style="fill: #ccbb44" transform="translate(100.010938 133.888177) scale(0.075 -0.075)">
     <defs>
      <path id="DejaVuSans-Bold-66" d="M 2841 4863 
L 2841 4128 
L 2222 4128 
Q 1984 4128 1890 4042 
Q 1797 3956 1797 3744 
L 1797 3500 
L 2753 3500 
L 2753 2700 
L 1797 2700 
L 1797 0 
L 678 0 
L 678 2700 
L 122 2700 
L 122 3500 
L 678 3500 
L 678 3744 
Q 678 4316 997 4589 
Q 1316 4863 1984 4863 
L 2841 4863 
z
" transform="scale(0.015625)"/>
      <path id="DejaVuSans-Bold-75" d="M 500 1363 
L 500 3500 
L 1625 3500 
L 1625 3150 
Q 1625 2866 1622 2436 
Q 1619 2006 1619 1863 
Q 1619 1441 1641 1255 
Q 1663 1069 1716 984 
Q 1784 875 1895 815 
Q 2006 756 2150 756 
Q 2500 756 2700 1025 
Q 2900 1294 2900 1772 
L 2900 3500 
L 4019 3500 
L 4019 0 
L 2900 0 
L 2900 506 
Q 2647 200 2364 54 
Q 2081 -91 1741 -91 
Q 1134 -91 817 281 
Q 500 653 500 1363 
z
" transform="scale(0.015625)"/>
      <path id="DejaVuSans-Bold-73" d="M 3272 3391 
L 3272 2541 
Q 2913 2691 2578 2766 
Q 2244 2841 1947 2841 
Q 1628 2841 1473 2761 
Q 1319 2681 1319 2516 
Q 1319 2381 1436 2309 
Q 1553 2238 1856 2203 
L 2053 2175 
Q 2913 2066 3209 1816 
Q 3506 1566 3506 1031 
Q 3506 472 3093 190 
Q 2681 -91 1863 -91 
Q 1516 -91 1145 -36 
Q 775 19 384 128 
L 384 978 
Q 719 816 1070 734 
Q 1422 653 1784 653 
Q 2113 653 2278 743 
Q 2444 834 2444 1013 
Q 2444 1163 2330 1236 
Q 2216 1309 1875 1350 
L 1678 1375 
Q 931 1469 631 1722 
Q 331 1975 331 2491 
Q 331 3047 712 3315 
Q 1094 3584 1881 3584 
Q 2191 3584 2531 3537 
Q 2872 3491 3272 3391 
z
" transform="scale(0.015625)"/>
      <path id="DejaVuSans-Bold-69" d="M 538 3500 
L 1656 3500 
L 1656 0 
L 538 0 
L 538 3500 
z
M 538 4863 
L 1656 4863 
L 1656 3950 
L 538 3950 
L 538 4863 
z
" transform="scale(0.015625)"/>
      <path id="DejaVuSans-Bold-6f" d="M 2203 2784 
Q 1831 2784 1636 2517 
Q 1441 2250 1441 1747 
Q 1441 1244 1636 976 
Q 1831 709 2203 709 
Q 2569 709 2762 976 
Q 2956 1244 2956 1747 
Q 2956 2250 2762 2517 
Q 2569 2784 2203 2784 
z
M 2203 3584 
Q 3106 3584 3614 3096 
Q 4122 2609 4122 1747 
Q 4122 884 3614 396 
Q 3106 -91 2203 -91 
Q 1297 -91 786 396 
Q 275 884 275 1747 
Q 275 2609 786 3096 
Q 1297 3584 2203 3584 
z
" transform="scale(0.015625)"/>
      <path id="DejaVuSans-Bold-6e" d="M 4056 2131 
L 4056 0 
L 2931 0 
L 2931 347 
L 2931 1631 
Q 2931 2084 2911 2256 
Q 2891 2428 2841 2509 
Q 2775 2619 2662 2680 
Q 2550 2741 2406 2741 
Q 2056 2741 1856 2470 
Q 1656 2200 1656 1722 
L 1656 0 
L 538 0 
L 538 3500 
L 1656 3500 
L 1656 2988 
Q 1909 3294 2193 3439 
Q 2478 3584 2822 3584 
Q 3428 3584 3742 3212 
Q 4056 2841 4056 2131 
z
" transform="scale(0.015625)"/>
     </defs>
     <use xlink:href="#DejaVuSans-Bold-66"/>
     <use xlink:href="#DejaVuSans-Bold-75" transform="translate(43.505859 0)"/>
     <use xlink:href="#DejaVuSans-Bold-73" transform="translate(114.697266 0)"/>
     <use xlink:href="#DejaVuSans-Bold-69" transform="translate(174.21875 0)"/>
     <use xlink:href="#DejaVuSans-Bold-6f" transform="translate(208.496094 0)"/>
     <use xlink:href="#DejaVuSans-Bold-6e" transform="translate(277.197266 0)"/>
    </g>
   </g>
   <g id="text_3">
    <!-- cleft -->
    <g style="fill: #57606a" transform="translate(210.48 140.238047) scale(0.075 -0.075)">
     <defs>
      <path id="DejaVuSans-66" d="M 2375 4863 
L 2375 4384 
L 1825 4384 
Q 1516 4384 1395 4259 
Q 1275 4134 1275 3809 
L 1275 3500 
L 2222 3500 
L 2222 3053 
L 1275 3053 
L 1275 0 
L 697 0 
L 697 3053 
L 147 3053 
L 147 3500 
L 697 3500 
L 697 3744 
Q 697 4328 969 4595 
Q 1241 4863 1831 4863 
L 2375 4863 
z
" transform="scale(0.015625)"/>
     </defs>
     <use xlink:href="#DejaVuSans-63"/>
     <use xlink:href="#DejaVuSans-6c" transform="translate(54.980469 0)"/>
     <use xlink:href="#DejaVuSans-65" transform="translate(82.763672 0)"/>
     <use xlink:href="#DejaVuSans-66" transform="translate(144.287109 0)"/>
     <use xlink:href="#DejaVuSans-74" transform="translate(177.742188 0)"/>
    </g>
   </g>
   <g id="text_4">
    <!-- AMPA -->
    <g style="fill: #1f2328" transform="translate(59.644375 186.280182) scale(0.08 -0.08)">
     <defs>
      <path id="DejaVuSans-41" d="M 2188 4044 
L 1331 1722 
L 3047 1722 
L 2188 4044 
z
M 1831 4666 
L 2547 4666 
L 4325 0 
L 3669 0 
L 3244 1197 
L 1141 1197 
L 716 0 
L 50 0 
L 1831 4666 
z
" transform="scale(0.015625)"/>
      <path id="DejaVuSans-4d" d="M 628 4666 
L 1569 4666 
L 2759 1491 
L 3956 4666 
L 4897 4666 
L 4897 0 
L 4281 0 
L 4281 4097 
L 3078 897 
L 2444 897 
L 1241 4097 
L 1241 0 
L 628 0 
L 628 4666 
z
" transform="scale(0.015625)"/>
      <path id="DejaVuSans-50" d="M 1259 4147 
L 1259 2394 
L 2053 2394 
Q 2494 2394 2734 2622 
Q 2975 2850 2975 3272 
Q 2975 3691 2734 3919 
Q 2494 4147 2053 4147 
L 1259 4147 
z
M 628 4666 
L 2053 4666 
Q 2838 4666 3239 4311 
Q 3641 3956 3641 3272 
Q 3641 2581 3239 2228 
Q 2838 1875 2053 1875 
L 1259 1875 
L 1259 0 
L 628 0 
L 628 4666 
z
" transform="scale(0.015625)"/>
     </defs>
     <use xlink:href="#DejaVuSans-41"/>
     <use xlink:href="#DejaVuSans-4d" transform="translate(68.408203 0)"/>
     <use xlink:href="#DejaVuSans-50" transform="translate(154.6875 0)"/>
     <use xlink:href="#DejaVuSans-41" transform="translate(208.615234 0)"/>
    </g>
   </g>
   <g id="text_5">
    <!-- NMDA -->
    <g style="fill: #1f2328" transform="translate(143.235 186.280182) scale(0.08 -0.08)">
     <defs>
      <path id="DejaVuSans-4e" d="M 628 4666 
L 1478 4666 
L 3547 763 
L 3547 4666 
L 4159 4666 
L 4159 0 
L 3309 0 
L 1241 3903 
L 1241 0 
L 628 0 
L 628 4666 
z
" transform="scale(0.015625)"/>
      <path id="DejaVuSans-44" d="M 1259 4147 
L 1259 519 
L 2022 519 
Q 2988 519 3436 956 
Q 3884 1394 3884 2338 
Q 3884 3275 3436 3711 
Q 2988 4147 2022 4147 
L 1259 4147 
z
M 628 4666 
L 1925 4666 
Q 3281 4666 3915 4102 
Q 4550 3538 4550 2338 
Q 4550 1131 3912 565 
Q 3275 0 1925 0 
L 628 0 
L 628 4666 
z
" transform="scale(0.015625)"/>
     </defs>
     <use xlink:href="#DejaVuSans-4e"/>
     <use xlink:href="#DejaVuSans-4d" transform="translate(74.804688 0)"/>
     <use xlink:href="#DejaVuSans-44" transform="translate(161.083984 0)"/>
     <use xlink:href="#DejaVuSans-41" transform="translate(236.335938 0)"/>
    </g>
   </g>
   <g id="text_6">
    <!-- postsynaptic membrane -->
    <g style="fill: #57606a" transform="translate(64.424375 212.226016) scale(0.08 -0.08)">
     <defs>
      <path id="DejaVuSans-6f" d="M 1959 3097 
Q 1497 3097 1228 2736 
Q 959 2375 959 1747 
Q 959 1119 1226 758 
Q 1494 397 1959 397 
Q 2419 397 2687 759 
Q 2956 1122 2956 1747 
Q 2956 2369 2687 2733 
Q 2419 3097 1959 3097 
z
M 1959 3584 
Q 2709 3584 3137 3096 
Q 3566 2609 3566 1747 
Q 3566 888 3137 398 
Q 2709 -91 1959 -91 
Q 1206 -91 779 398 
Q 353 888 353 1747 
Q 353 2609 779 3096 
Q 1206 3584 1959 3584 
z
" transform="scale(0.015625)"/>
      <path id="DejaVuSans-62" d="M 3116 1747 
Q 3116 2381 2855 2742 
Q 2594 3103 2138 3103 
Q 1681 3103 1420 2742 
Q 1159 2381 1159 1747 
Q 1159 1113 1420 752 
Q 1681 391 2138 391 
Q 2594 391 2855 752 
Q 3116 1113 3116 1747 
z
M 1159 2969 
Q 1341 3281 1617 3432 
Q 1894 3584 2278 3584 
Q 2916 3584 3314 3078 
Q 3713 2572 3713 1747 
Q 3713 922 3314 415 
Q 2916 -91 2278 -91 
Q 1894 -91 1617 61 
Q 1341 213 1159 525 
L 1159 0 
L 581 0 
L 581 4863 
L 1159 4863 
L 1159 2969 
z
" transform="scale(0.015625)"/>
     </defs>
     <use xlink:href="#DejaVuSans-70"/>
     <use xlink:href="#DejaVuSans-6f" transform="translate(63.476562 0)"/>
     <use xlink:href="#DejaVuSans-73" transform="translate(124.658203 0)"/>
     <use xlink:href="#DejaVuSans-74" transform="translate(176.757812 0)"/>
     <use xlink:href="#DejaVuSans-73" transform="translate(215.966797 0)"/>
     <use xlink:href="#DejaVuSans-79" transform="translate(268.066406 0)"/>
     <use xlink:href="#DejaVuSans-6e" transform="translate(327.246094 0)"/>
     <use xlink:href="#DejaVuSans-61" transform="translate(390.625 0)"/>
     <use xlink:href="#DejaVuSans-70" transform="translate(451.904297 0)"/>
     <use xlink:href="#DejaVuSans-74" transform="translate(515.380859 0)"/>
     <use xlink:href="#DejaVuSans-69" transform="translate(554.589844 0)"/>
     <use xlink:href="#DejaVuSans-63" transform="translate(582.373047 0)"/>
     <use xlink:href="#DejaVuSans-20" transform="translate(637.353516 0)"/>
     <use xlink:href="#DejaVuSans-6d" transform="translate(669.140625 0)"/>
     <use xlink:href="#DejaVuSans-65" transform="translate(766.552734 0)"/>
     <use xlink:href="#DejaVuSans-6d" transform="translate(828.076172 0)"/>
     <use xlink:href="#DejaVuSans-62" transform="translate(925.488281 0)"/>
     <use xlink:href="#DejaVuSans-72" transform="translate(988.964844 0)"/>
     <use xlink:href="#DejaVuSans-61" transform="translate(1030.078125 0)"/>
     <use xlink:href="#DejaVuSans-6e" transform="translate(1091.357422 0)"/>
     <use xlink:href="#DejaVuSans-65" transform="translate(1154.736328 0)"/>
    </g>
   </g>
   <g id="text_7">
    <!-- EPSP -->
    <g style="fill: #1f2328" transform="translate(320.668711 68.542448) scale(0.085 -0.085)">
     <defs>
      <path id="DejaVuSans-45" d="M 628 4666 
L 3578 4666 
L 3578 4134 
L 1259 4134 
L 1259 2753 
L 3481 2753 
L 3481 2222 
L 1259 2222 
L 1259 531 
L 3634 531 
L 3634 0 
L 628 0 
L 628 4666 
z
" transform="scale(0.015625)"/>
      <path id="DejaVuSans-53" d="M 3425 4513 
L 3425 3897 
Q 3066 4069 2747 4153 
Q 2428 4238 2131 4238 
Q 1616 4238 1336 4038 
Q 1056 3838 1056 3469 
Q 1056 3159 1242 3001 
Q 1428 2844 1947 2747 
L 2328 2669 
Q 3034 2534 3370 2195 
Q 3706 1856 3706 1288 
Q 3706 609 3251 259 
Q 2797 -91 1919 -91 
Q 1588 -91 1214 -16 
Q 841 59 441 206 
L 441 856 
Q 825 641 1194 531 
Q 1563 422 1919 422 
Q 2459 422 2753 634 
Q 3047 847 3047 1241 
Q 3047 1584 2836 1778 
Q 2625 1972 2144 2069 
L 1759 2144 
Q 1053 2284 737 2584 
Q 422 2884 422 3419 
Q 422 4038 858 4394 
Q 1294 4750 2059 4750 
Q 2388 4750 2728 4690 
Q 3069 4631 3425 4513 
z
" transform="scale(0.015625)"/>
     </defs>
     <use xlink:href="#DejaVuSans-45"/>
     <use xlink:href="#DejaVuSans-50" transform="translate(63.183594 0)"/>
     <use xlink:href="#DejaVuSans-53" transform="translate(123.486328 0)"/>
     <use xlink:href="#DejaVuSans-50" transform="translate(186.962891 0)"/>
    </g>
   </g>
   <g id="text_8">
    <!-- $V_{rest}$ -->
    <g style="fill: #57606a" transform="translate(378.095 157.458255) scale(0.07 -0.07)">
     <defs>
      <path id="DejaVuSans-Oblique-56" d="M 1319 0 
L 500 4666 
L 1119 4666 
L 1797 653 
L 4063 4666 
L 4750 4666 
L 2053 0 
L 1319 0 
z
" transform="scale(0.015625)"/>
      <path id="DejaVuSans-Oblique-72" d="M 2853 2969 
Q 2766 3016 2653 3041 
Q 2541 3066 2413 3066 
Q 1953 3066 1609 2717 
Q 1266 2369 1153 1784 
L 800 0 
L 225 0 
L 909 3500 
L 1484 3500 
L 1375 2956 
Q 1603 3259 1920 3421 
Q 2238 3584 2597 3584 
Q 2691 3584 2781 3573 
Q 2872 3563 2963 3538 
L 2853 2969 
z
" transform="scale(0.015625)"/>
      <path id="DejaVuSans-Oblique-65" d="M 3078 2063 
Q 3088 2113 3092 2166 
Q 3097 2219 3097 2272 
Q 3097 2653 2873 2875 
Q 2650 3097 2266 3097 
Q 1838 3097 1509 2826 
Q 1181 2556 1013 2059 
L 3078 2063 
z
M 3578 1613 
L 903 1613 
Q 884 1494 878 1425 
Q 872 1356 872 1306 
Q 872 872 1139 634 
Q 1406 397 1894 397 
Q 2269 397 2603 481 
Q 2938 566 3225 728 
L 3116 159 
Q 2806 34 2476 -28 
Q 2147 -91 1806 -91 
Q 1078 -91 686 257 
Q 294 606 294 1247 
Q 294 1794 489 2264 
Q 684 2734 1063 3103 
Q 1306 3334 1642 3459 
Q 1978 3584 2356 3584 
Q 2950 3584 3301 3228 
Q 3653 2872 3653 2272 
Q 3653 2128 3634 1964 
Q 3616 1800 3578 1613 
z
" transform="scale(0.015625)"/>
      <path id="DejaVuSans-Oblique-73" d="M 3200 3397 
L 3091 2853 
Q 2863 2978 2609 3040 
Q 2356 3103 2088 3103 
Q 1634 3103 1373 2948 
Q 1113 2794 1113 2528 
Q 1113 2219 1719 2053 
Q 1766 2041 1788 2034 
L 1972 1978 
Q 2547 1819 2739 1644 
Q 2931 1469 2931 1166 
Q 2931 609 2489 259 
Q 2047 -91 1331 -91 
Q 1053 -91 747 -37 
Q 441 16 72 128 
L 184 722 
Q 500 559 806 475 
Q 1113 391 1394 391 
Q 1816 391 2080 572 
Q 2344 753 2344 1031 
Q 2344 1331 1650 1516 
L 1591 1531 
L 1394 1581 
Q 956 1697 753 1886 
Q 550 2075 550 2369 
Q 550 2928 970 3256 
Q 1391 3584 2113 3584 
Q 2397 3584 2667 3537 
Q 2938 3491 3200 3397 
z
" transform="scale(0.015625)"/>
      <path id="DejaVuSans-Oblique-74" d="M 2706 3500 
L 2619 3053 
L 1472 3053 
L 1100 1153 
Q 1081 1047 1072 975 
Q 1063 903 1063 863 
Q 1063 663 1183 572 
Q 1303 481 1569 481 
L 2150 481 
L 2053 0 
L 1503 0 
Q 991 0 739 200 
Q 488 400 488 806 
Q 488 878 497 964 
Q 506 1050 525 1153 
L 897 3053 
L 409 3053 
L 500 3500 
L 978 3500 
L 1172 4494 
L 1747 4494 
L 1556 3500 
L 2706 3500 
z
" transform="scale(0.015625)"/>
     </defs>
     <use xlink:href="#DejaVuSans-Oblique-56" transform="translate(0 0.09375)"/>
     <use xlink:href="#DejaVuSans-Oblique-72" transform="translate(68.408203 -16.3125) scale(0.7)"/>
     <use xlink:href="#DejaVuSans-Oblique-65" transform="translate(97.1875 -16.3125) scale(0.7)"/>
     <use xlink:href="#DejaVuSans-Oblique-73" transform="translate(140.253906 -16.3125) scale(0.7)"/>
     <use xlink:href="#DejaVuSans-Oblique-74" transform="translate(176.723633 -16.3125) scale(0.7)"/>
    </g>
   </g>
   <g id="text_9">
    <!-- Chemical synapse -->
    <g style="fill: #1f2328" transform="translate(175.782148 14.418516) scale(0.095 -0.095)">
     <defs>
      <path id="DejaVuSans-43" d="M 4122 4306 
L 4122 3641 
Q 3803 3938 3442 4084 
Q 3081 4231 2675 4231 
Q 1875 4231 1450 3742 
Q 1025 3253 1025 2328 
Q 1025 1406 1450 917 
Q 1875 428 2675 428 
Q 3081 428 3442 575 
Q 3803 722 4122 1019 
L 4122 359 
Q 3791 134 3420 21 
Q 3050 -91 2638 -91 
Q 1578 -91 968 557 
Q 359 1206 359 2328 
Q 359 3453 968 4101 
Q 1578 4750 2638 4750 
Q 3056 4750 3426 4639 
Q 3797 4528 4122 4306 
z
" transform="scale(0.015625)"/>
      <path id="DejaVuSans-68" d="M 3513 2113 
L 3513 0 
L 2938 0 
L 2938 2094 
Q 2938 2591 2744 2837 
Q 2550 3084 2163 3084 
Q 1697 3084 1428 2787 
Q 1159 2491 1159 1978 
L 1159 0 
L 581 0 
L 581 4863 
L 1159 4863 
L 1159 2956 
Q 1366 3272 1645 3428 
Q 1925 3584 2291 3584 
Q 2894 3584 3203 3211 
Q 3513 2838 3513 2113 
z
" transform="scale(0.015625)"/>
     </defs>
     <use xlink:href="#DejaVuSans-43"/>
     <use xlink:href="#DejaVuSans-68" transform="translate(69.824219 0)"/>
     <use xlink:href="#DejaVuSans-65" transform="translate(133.203125 0)"/>
     <use xlink:href="#DejaVuSans-6d" transform="translate(194.726562 0)"/>
     <use xlink:href="#DejaVuSans-69" transform="translate(292.138672 0)"/>
     <use xlink:href="#DejaVuSans-63" transform="translate(319.921875 0)"/>
     <use xlink:href="#DejaVuSans-61" transform="translate(374.902344 0)"/>
     <use xlink:href="#DejaVuSans-6c" transform="translate(436.181641 0)"/>
     <use xlink:href="#DejaVuSans-20" transform="translate(463.964844 0)"/>
     <use xlink:href="#DejaVuSans-73" transform="translate(495.751953 0)"/>
     <use xlink:href="#DejaVuSans-79" transform="translate(547.851562 0)"/>
     <use xlink:href="#DejaVuSans-6e" transform="translate(607.03125 0)"/>
     <use xlink:href="#DejaVuSans-61" transform="translate(670.410156 0)"/>
     <use xlink:href="#DejaVuSans-70" transform="translate(731.689453 0)"/>
     <use xlink:href="#DejaVuSans-73" transform="translate(795.166016 0)"/>
     <use xlink:href="#DejaVuSans-65" transform="translate(847.265625 0)"/>
    </g>
   </g>
  </g>
 </g>
 <defs>
  <clipPath id="pd15903884e">
   <rect x="7.2" y="18.418516" width="423.5" height="239.5"/>
  </clipPath>
 </defs>
</svg>
